<svg width="28" height="20" viewBox="0 0 28 20" fill="none" xmlns="http://www.w3.org/2000/svg"><rect width="28" height="20" rx="2" fill="#fff"/><mask id="a" maskUnits="userSpaceOnUse" x="0" y="0" width="28" height="20"><rect width="28" height="20" rx="2" fill="#fff"/></mask><g mask="url(#a)"><path fill="#E2243B" d="M0 0h28v20H0z"/><path fill-rule="evenodd" clip-rule="evenodd" d="M0 0h28L14 20 0 0z" fill="#262626"/><mask id="b" maskUnits="userSpaceOnUse" x="0" y="0" width="28" height="20"><path fill-rule="evenodd" clip-rule="evenodd" d="M0 0h28L14 20 0 0z" fill="#fff"/></mask><g mask="url(#b)"><g filter="url(#filter0_d)"><path fill-rule="evenodd" clip-rule="evenodd" d="M14 11l-2.296 2.543.175-3.422-3.422.175L11 8 8 5.333 11.879 6l-.546-4L14 5.333 16.667 2l-.546 4L20 5.333 17 8l2.543 2.296-3.422-.175.175 3.422L14 11z" fill="#FFCF3C"/></g><g filter="url(#filter1_d)"><path fill-rule="evenodd" clip-rule="evenodd" d="M0 13.333h28V8H0v5.333z" fill="#1984D8"/></g><path fill-rule="evenodd" clip-rule="evenodd" d="M0 20h28v-6.667H0V20z" fill="#fff"/></g></g><defs><filter id="filter0_d" x="8" y="2" width="12" height="11.543" filterUnits="userSpaceOnUse" color-interpolation-filters="sRGB"><feFlood flood-opacity="0" result="BackgroundImageFix"/><feColorMatrix in="SourceAlpha" values="0 0 0 0 0 0 0 0 0 0 0 0 0 0 0 0 0 0 127 0"/><feOffset/><feColorMatrix values="0 0 0 0 0 0 0 0 0 0 0 0 0 0 0 0 0 0 0.06 0"/><feBlend in2="BackgroundImageFix" result="effect1_dropShadow"/><feBlend in="SourceGraphic" in2="effect1_dropShadow" result="shape"/></filter><filter id="filter1_d" x="0" y="8" width="28" height="5.333" filterUnits="userSpaceOnUse" color-interpolation-filters="sRGB"><feFlood flood-opacity="0" result="BackgroundImageFix"/><feColorMatrix in="SourceAlpha" values="0 0 0 0 0 0 0 0 0 0 0 0 0 0 0 0 0 0 127 0"/><feOffset/><feColorMatrix values="0 0 0 0 0 0 0 0 0 0 0 0 0 0 0 0 0 0 0.06 0"/><feBlend in2="BackgroundImageFix" result="effect1_dropShadow"/><feBlend in="SourceGraphic" in2="effect1_dropShadow" result="shape"/></filter></defs></svg>