<svg width="28" height="20" viewBox="0 0 28 20" fill="none" xmlns="http://www.w3.org/2000/svg"><rect width="28" height="20" rx="2" fill="#fff"/><mask id="a" maskUnits="userSpaceOnUse" x="0" y="0" width="28" height="20"><rect width="28" height="20" rx="2" fill="#fff"/></mask><g mask="url(#a)"><g filter="url(#filter0_d)"><path fill="#4189DD" d="M0 0h28v20H0z"/></g><path d="M5.63 2.512l-.295-.566-.295.566-.638 1.222-1.221.637-.566.296.566.295 1.221.638.638 1.22.295.567.296-.566.637-1.221 1.221-.638.567-.295-.567-.296-1.221-.637-.637-1.222z" fill="#D21034" stroke="#fff" stroke-width=".667"/><path fill="#F9D616" d="M0 14.667h28V16H0zM0 12h28v1.333H0z"/></g><defs><filter id="filter0_d" x="-1" y="0" width="30" height="22" filterUnits="userSpaceOnUse" color-interpolation-filters="sRGB"><feFlood flood-opacity="0" result="BackgroundImageFix"/><feColorMatrix in="SourceAlpha" values="0 0 0 0 0 0 0 0 0 0 0 0 0 0 0 0 0 0 127 0"/><feOffset dy="1"/><feGaussianBlur stdDeviation=".5"/><feColorMatrix values="0 0 0 0 0 0 0 0 0 0 0 0 0 0 0 0 0 0 0.16 0"/><feBlend in2="BackgroundImageFix" result="effect1_dropShadow"/><feBlend in="SourceGraphic" in2="effect1_dropShadow" result="shape"/></filter></defs></svg>