<svg width="28" height="20" viewBox="0 0 28 20" fill="none" xmlns="http://www.w3.org/2000/svg"><rect width="28" height="20" rx="2" fill="#fff"/><mask id="a" maskUnits="userSpaceOnUse" x="0" y="0" width="28" height="20"><rect width="28" height="20" rx="2" fill="#fff"/></mask><g mask="url(#a)"><path fill="url(#paint0_linear)" d="M13.333 0H28v20H13.333z"/><path fill-rule="evenodd" clip-rule="evenodd" d="M0 20h9.333V0H0v20z" fill="#059170"/><path fill-rule="evenodd" clip-rule="evenodd" d="M9.333 20h9.334V0H9.333v20z" fill="#E21A30"/><path fill-rule="evenodd" clip-rule="evenodd" d="M18.667 20H28V0h-9.333v20z" fill="#FFDC44"/><path fill-rule="evenodd" clip-rule="evenodd" d="M14 11.3l-1.96 1.397.724-2.295L10.83 8.97l2.406-.022L14 6.667l.764 2.281 2.406.022-1.934 1.432.723 2.295L14 11.3z" fill="#FFDC42"/></g><defs><linearGradient id="paint0_linear" x1="13.333" y1="0" x2="13.333" y2="20" gradientUnits="userSpaceOnUse"><stop stop-color="#FFDC44"/><stop offset="1" stop-color="#FDD216"/></linearGradient></defs></svg>