<svg width="28" height="20" viewBox="0 0 28 20" fill="none" xmlns="http://www.w3.org/2000/svg"><rect width="28" height="20" rx="2" fill="#fff"/><mask id="a" maskUnits="userSpaceOnUse" x="0" y="0" width="28" height="20"><rect width="28" height="20" rx="2" fill="#fff"/></mask><g mask="url(#a)"><path fill="#07319C" d="M0 0h28v20H0z"/><path fill-rule="evenodd" clip-rule="evenodd" d="M20.667 6.667c1.104 0 2-.597 2-1.334 0-.736-.896-1.333-2-1.333-1.105 0-2 .597-2 1.333 0 .737.895 1.334 2 1.334z" fill="#FAD051"/><path fill-rule="evenodd" clip-rule="evenodd" d="M17.333 10V5.333H24V10c0 3.333-3.333 4.667-3.333 4.667S17.333 13.333 17.333 10z" fill="url(#paint0_linear)"/><mask id="b" maskUnits="userSpaceOnUse" x="17" y="5" width="7" height="10"><path fill-rule="evenodd" clip-rule="evenodd" d="M17.333 10V5.333H24V10c0 3.333-3.333 4.667-3.333 4.667S17.333 13.333 17.333 10z" fill="#fff"/></mask><g mask="url(#b)" fill-rule="evenodd" clip-rule="evenodd"><path d="M17.333 5.333H24v1.334h-6.667V5.333z" fill="#CF142C"/><path d="M24 8h-6.667v1.333H24V8zm-6.667 2.667H24V12h-6.667v-1.333zm0 2.666H24v1.334h-6.667v-1.334z" fill="#125FBA"/></g><path d="M0-.333h-.901l.684.586 4.55 3.9v1.009L-.194 8.395l-.14.1v1.44l.51-.319L5.43 6.333h1.13l4.523 3.23a.554.554 0 00.682-.87L7.667 5.18V4.172l4.387-3.134a.667.667 0 00.28-.543V-.6l-.51.318L6.57 3h-1.13L.86-.271.772-.333H0z" fill="#DB1E36" stroke="#fff" stroke-width=".667"/><path fill-rule="evenodd" clip-rule="evenodd" d="M0 3.333V6h4.667v3.333c0 .369.298.667.666.667h1.334a.667.667 0 00.666-.667V6H12a.667.667 0 00.667-.667V4A.667.667 0 0012 3.333H7.333V0H4.667v3.333H0z" fill="#fff"/><path fill-rule="evenodd" clip-rule="evenodd" d="M0 4h5.333V0h1.334v4H12v1.333H6.667v4H5.333v-4H0V4z" fill="#DB1E36"/></g><defs><linearGradient id="paint0_linear" x1="17.333" y1="5.333" x2="17.333" y2="14.667" gradientUnits="userSpaceOnUse"><stop stop-color="#fff"/><stop offset="1" stop-color="#F0F0F0"/></linearGradient></defs></svg>