<svg width="28" height="20" viewBox="0 0 28 20" fill="none" xmlns="http://www.w3.org/2000/svg"><rect x=".25" y=".25" width="27.5" height="19.5" rx="1.75" fill="#fff" stroke="#F5F5F5" stroke-width=".5"/><mask id="a" maskUnits="userSpaceOnUse" x="0" y="0" width="28" height="20"><rect x=".25" y=".25" width="27.5" height="19.5" rx="1.75" fill="#fff" stroke="#fff" stroke-width=".5"/></mask><g mask="url(#a)" fill-rule="evenodd" clip-rule="evenodd"><path d="M0 6.667h28V0H0v6.667z" fill="#FF202D"/><path opacity=".5" d="M10.667 5.333l.666-.666.667.666v1.334h-1.333V5.333zm2.666 0L14 4.667l.667.666v1.334h-1.334V5.333zm3.334-.666L16 5.333v1.334h1.333V5.333l-.666-.666z" fill="#1895DB"/><path opacity=".5" d="M12.667 4.667L12 5.333v1.334h1.333V5.333l-.666-.666zm2.666 0l-.666.666v1.334H16V5.333l-.667-.666z" fill="#191F94"/><path d="M0 20h28v-6.667H0V20z" fill="#2027AC"/><path d="M12 6.667h-.667L10.667 8H12v1.333h-1.333v1.334H12V12h-1.333v1.333H12v1.334h1.333v-1.334h1.334v1.334H16v-1.334h1.333V12H16v-1.333h1.333V9.333H16V8h1.333l-.666-1.333H16V8h-1.333V6.667h-1.334V8H12V6.667zm1.333 2.666V8h1.334v1.333h-1.334zm0 1.334V9.333H12v1.334h1.333zm1.334 0h-1.334V12H12v1.333h1.333V12h1.334v1.333H16V12h-1.333v-1.333zm0 0H16V9.333h-1.333v1.334z" fill="url(#paint0_linear)"/></g><defs><linearGradient id="paint0_linear" x1="10.667" y1="6.667" x2="10.667" y2="14.667" gradientUnits="userSpaceOnUse"><stop stop-color="#FF212E"/><stop offset="1" stop-color="#FD0D1B"/></linearGradient></defs></svg>