<svg width="28" height="20" viewBox="0 0 28 20" fill="none" xmlns="http://www.w3.org/2000/svg"><rect x=".25" y=".25" width="27.5" height="19.5" rx="1.75" fill="#fff" stroke="#F5F5F5" stroke-width=".5"/><mask id="a" maskUnits="userSpaceOnUse" x="0" y="0" width="28" height="20"><rect x=".25" y=".25" width="27.5" height="19.5" rx="1.75" fill="#fff" stroke="#fff" stroke-width=".5"/></mask><g mask="url(#a)"><path fill="#E8112D" d="M10.667 0h6.667v20h-6.667z"/><path fill="#E8112D" d="M0 6.667h28v6.667H0z"/><path fill="#F9DD16" d="M13.333 2.667h1.333v14.667h-1.333z"/><path fill-rule="evenodd" clip-rule="evenodd" d="M14 16l1.333 1.333h-2.666L14 16z" fill="#F9DD16"/><path fill="#F9DD16" d="M6.667 9.333h14.667v1.333H6.667z"/><path fill-rule="evenodd" clip-rule="evenodd" d="M14 4l1.333-1.333h-2.666L14 4zM8 10L6.667 8.667v2.666L8 10zM20 10l1.333-1.333v2.666L20 10z" fill="#F9DD16"/></g></svg>