<svg width="28" height="20" viewBox="0 0 28 20" fill="none" xmlns="http://www.w3.org/2000/svg"><rect width="28" height="20" rx="2" fill="#fff"/><mask id="a" maskUnits="userSpaceOnUse" x="0" y="0" width="28" height="20"><rect width="28" height="20" rx="2" fill="#fff"/></mask><g mask="url(#a)" fill-rule="evenodd" clip-rule="evenodd"><path d="M9.333 20h9.334V0H9.333v20z" fill="#146BBC"/><path d="M0 20h9.333V0H0v20zM18.667 20H28V0h-9.333v20z" fill="#E43642"/><path d="M4.667 10l.666.667H4L4.667 10zm0 2a.667.667 0 110-1.333.667.667 0 010 1.333zm.666 0H2.667v4H4v-1.333L4.667 16l.666-1.333V16h1.334v-4H5.333zm-.666 1.333L5.333 12v2a.667.667 0 00-.666-.667zM4 14c0-.368.298-.667.667-.667L4 12v2zm.667.667H4V14c0 .368.298.667.667.667zm0 0h.666V14a.667.667 0 01-.666.667z" fill="url(#paint0_linear)"/></g><defs><linearGradient id="paint0_linear" x1="2.667" y1="10" x2="2.667" y2="16" gradientUnits="userSpaceOnUse"><stop stop-color="#F8D246"/><stop offset="1" stop-color="#F9CE2F"/></linearGradient></defs></svg>