<svg width="28" height="20" viewBox="0 0 28 20" fill="none" xmlns="http://www.w3.org/2000/svg"><rect width="28" height="20" rx="2" fill="#fff"/><mask id="a" maskUnits="userSpaceOnUse" x="0" y="0" width="28" height="20"><rect width="28" height="20" rx="2" fill="#fff"/></mask><g mask="url(#a)" fill-rule="evenodd" clip-rule="evenodd"><path d="M0 20h28v-5.333H0V20z" fill="#FFE547"/><path d="M0 5.333h28V0H0v5.333z" fill="#118C81"/><path d="M0 14.667h28V5.333H0v9.334z" fill="#fff"/><path d="M0 13.333h28V6.667H0v6.666z" fill="#262626"/><path d="M0 0l13.333 10L0 20V0z" fill="#EF2147"/><path d="M4.667 11.274l-1.96 1.423.748-2.303L1.496 8.97h2.422l.749-2.303.749 2.302h2.42l-1.958 1.425.748 2.303-1.96-1.423z" fill="#FDE444"/></g></svg>