<svg width="28" height="20" viewBox="0 0 28 20" fill="none" xmlns="http://www.w3.org/2000/svg"><rect x=".25" y=".25" width="27.5" height="19.5" rx="1.75" fill="#fff" stroke="#F5F5F5" stroke-width=".5"/><mask id="a" maskUnits="userSpaceOnUse" x="0" y="0" width="28" height="20"><rect x=".25" y=".25" width="27.5" height="19.5" rx="1.75" fill="#fff" stroke="#fff" stroke-width=".5"/></mask><g mask="url(#a)" fill-rule="evenodd" clip-rule="evenodd"><path d="M0 6.667h28V0H0v6.667z" fill="#D9101C"/><path d="M0 20h28v-6.667H0V20z" fill="#0F7811"/><path d="M13.333 8.667a.667.667 0 11-1.333 0 .667.667 0 011.333 0zM14.667 10c0 .12-.032.377-.088.667h.754a.667.667 0 110 1.333h-2.666a.667.667 0 010-1.333h.754a4.357 4.357 0 01-.088-.667.667.667 0 011.334 0zM16 8.667a.667.667 0 11-1.333 0 .667.667 0 011.333 0zm2 2a.667.667 0 100-1.334.667.667 0 000 1.334zM10.667 10a.667.667 0 11-1.334 0 .667.667 0 011.334 0z" fill="#FAD14E"/></g></svg>