<svg width="24" height="24" viewBox="0 0 24 24" fill="none" xmlns="http://www.w3.org/2000/svg">
<path fill-rule="evenodd" clip-rule="evenodd" d="M7.85004 10.1C7.85004 7.80799 9.70806 5.94998 12 5.94998C14.292 5.94998 16.15 7.80799 16.15 10.1C16.15 12.392 14.292 14.25 12 14.25C9.70806 14.25 7.85004 12.392 7.85004 10.1ZM12 7.24998C10.426 7.24998 9.15004 8.52596 9.15004 10.1C9.15004 11.674 10.426 12.95 12 12.95C13.574 12.95 14.85 11.674 14.85 10.1C14.85 8.52596 13.574 7.24998 12 7.24998Z" fill="#7B7E86"/>
<path fill-rule="evenodd" clip-rule="evenodd" d="M11.6236 3.12992C14.8962 2.93229 18.3722 4.83979 18.8887 9.06708C18.9251 9.36477 18.947 9.64161 18.9505 9.89087C18.9694 11.2372 18.5414 12.5995 17.9293 13.8584C17.315 15.1218 16.4962 16.3198 15.6869 17.3491C14.8763 18.3802 14.0651 19.2548 13.4573 19.8712C13.1242 20.2091 12.7866 20.5433 12.4316 20.8583C12.1856 21.0762 11.8149 21.0756 11.5688 20.8577C11.6134 20.8083 11.569 20.8578 11.5688 20.8577C11.2147 20.5423 10.8767 20.2088 10.5438 19.8712C9.93599 19.2548 9.12487 18.3802 8.31421 17.3491C7.50498 16.3198 6.68617 15.1218 6.07186 13.8584C5.45973 12.5995 5.0318 11.2372 5.05065 9.89087C5.11021 5.63742 8.3526 3.32746 11.6236 3.12992ZM12.0006 19.483C11.8531 19.3414 11.6733 19.1651 11.4695 18.9585C10.8855 18.3663 10.109 17.5286 9.3362 16.5456C8.56198 15.5609 7.80157 14.4428 7.24098 13.2899C6.6782 12.1325 6.33555 10.9781 6.35052 9.90908C6.3986 6.47559 8.96151 4.59305 11.702 4.42756C14.4409 4.26215 17.1825 5.82109 17.5983 9.22474C17.6309 9.49131 17.648 9.71955 17.6506 9.90908C17.6656 10.9781 17.323 12.1325 16.7602 13.2899C16.1996 14.4428 15.4392 15.5609 14.6649 16.5456C13.8922 17.5286 13.1156 18.3663 12.5316 18.9585C12.3278 19.1651 12.148 19.3414 12.0006 19.483Z" fill="#7B7E86"/>
</svg>
