<svg width="24" height="24" viewBox="0 0 24 24" fill="none" xmlns="http://www.w3.org/2000/svg">
<path d="M11.02 18.1482C11.15 18.2882 11.32 18.3582 11.5 18.3582C11.66 18.3582 11.81 18.3082 11.94 18.1882L17.98 12.6982C18.29 12.4182 18.29 11.9382 17.98 11.6582L11.94 6.16817C11.67 5.92817 11.26 5.94817 11.02 6.20817C10.78 6.47817 10.79 6.88817 11.06 7.12817L15.8956 11.5282H5.00001C4.64102 11.5282 4.35001 11.8192 4.35001 12.1782C4.35001 12.5372 4.64102 12.8282 5.00001 12.8282H15.8957L11.06 17.2282C10.8 17.4682 10.78 17.8782 11.02 18.1482Z" fill="#7B7E86"/>
</svg>
