<svg width="24" height="24" viewBox="0 0 24 24" fill="none" xmlns="http://www.w3.org/2000/svg">
<path d="M8.39187 11.5625C8.57187 11.5625 8.74187 11.4925 8.87187 11.3525C9.11187 11.0825 9.09187 10.6725 8.83187 10.4325L7.27742 8.95002L17.3536 8.96711C17.713 8.96772 18.0047 8.67651 18.0047 8.31708C18.0047 7.95854 17.7144 7.6677 17.3558 7.66697C13.996 7.66009 10.6411 7.64699 7.2813 7.64699L8.83187 6.27249C9.10187 6.03249 9.11187 5.62249 8.87187 5.35249C8.63187 5.09249 8.22187 5.07249 7.95187 5.31249L5.24187 7.77699C4.93187 8.05699 4.93187 8.53699 5.24187 8.81699L7.95187 11.3925C8.08187 11.5125 8.23187 11.5625 8.39187 11.5625Z" fill="#7B7E86"/>
<path d="M15.626 18.911C15.446 18.911 15.276 18.841 15.146 18.701C14.906 18.431 14.926 18.021 15.186 17.781L16.7404 16.2985L6.66021 16.3157C6.30078 16.3163 6.00908 16.0251 6.00908 15.6656C6.00908 15.3071 6.29941 15.0162 6.65795 15.0156C10.0191 15.0096 13.3754 14.9955 16.7365 14.9955L15.186 13.621C14.916 13.381 14.906 12.971 15.146 12.701C15.386 12.441 15.796 12.421 16.066 12.661L18.776 15.1255C19.086 15.4055 19.086 15.8855 18.776 16.1655L16.066 18.741C15.936 18.861 15.786 18.911 15.626 18.911Z" fill="#7B7E86"/>
</svg>
