<svg width="24" height="24" viewBox="0 0 24 24" fill="none" xmlns="http://www.w3.org/2000/svg">
<path d="M11.5438 15.6448C11.5438 15.4648 11.4738 15.2948 11.3338 15.1648C11.0638 14.9248 10.6538 14.9448 10.4138 15.2048L8.93131 16.7593L8.9484 6.68309C8.94901 6.32366 8.65781 6.03196 8.29838 6.03196C7.93983 6.03196 7.649 6.32228 7.64826 6.68083C7.64138 10.0407 7.62828 13.3955 7.62828 16.7554L6.25379 15.2048C6.01378 14.9348 5.60379 14.9248 5.33378 15.1648C5.07378 15.4048 5.05378 15.8148 5.29378 16.0848L7.75828 18.7948C8.03828 19.1048 8.51828 19.1048 8.79828 18.7948L11.3738 16.0848C11.4938 15.9548 11.5438 15.8048 11.5438 15.6448Z" fill="#7B7E86"/>
<path d="M18.8923 8.4107C18.8923 8.5907 18.8223 8.7607 18.6823 8.8907C18.4123 9.1307 18.0023 9.1107 17.7623 8.85069L16.2798 7.29625L16.2969 17.3765C16.2976 17.7359 16.0064 18.0276 15.6469 18.0276C15.2884 18.0276 14.9975 17.7373 14.9969 17.3787C14.9909 14.0175 14.9768 10.6613 14.9768 7.30013L13.6023 8.85069C13.3623 9.1207 12.9523 9.1307 12.6823 8.8907C12.4223 8.6507 12.4023 8.2407 12.6423 7.9707L15.1068 5.2607C15.3868 4.9507 15.8668 4.9507 16.1468 5.2607L18.7223 7.9707C18.8423 8.1007 18.8923 8.2507 18.8923 8.4107Z" fill="#7B7E86"/>
</svg>
