<svg width="24" height="24" viewBox="0 0 24 24" fill="none" xmlns="http://www.w3.org/2000/svg">
<path d="M11.5425 18.1482C11.4125 18.2882 11.2425 18.3582 11.0625 18.3582C10.9025 18.3582 10.7525 18.3082 10.6225 18.1882L4.58251 12.6982C4.27251 12.4182 4.27251 11.9382 4.58251 11.6582L10.6225 6.16817C10.8925 5.92817 11.3025 5.94817 11.5425 6.20817C11.7825 6.47817 11.7725 6.88817 11.5025 7.12817L6.66686 11.5282H17.5625C17.9215 11.5282 18.2125 11.8192 18.2125 12.1782C18.2125 12.5372 17.9215 12.8282 17.5625 12.8282H6.66686L11.5025 17.2282C11.7625 17.4682 11.7825 17.8782 11.5425 18.1482Z" fill="#7B7E86"/>
</svg>
