<svg width="24" height="24" viewBox="0 0 24 24" fill="none" xmlns="http://www.w3.org/2000/svg">
<path d="M5.31216 12.4403C5.17216 12.3103 5.10216 12.1403 5.10216 11.9603C5.10216 11.8003 5.15216 11.6503 5.27216 11.5203L10.7622 5.48034C11.0422 5.17034 11.5222 5.17034 11.8022 5.48034L17.2922 11.5203C17.5322 11.7903 17.5122 12.2003 17.2522 12.4403C16.9822 12.6803 16.5722 12.6703 16.3322 12.4003L11.9322 7.5647L11.9322 18.4603C11.9322 18.8193 11.6411 19.1103 11.2822 19.1103C10.9232 19.1103 10.6322 18.8193 10.6322 18.4603L10.6322 7.56469L6.23216 12.4003C5.99216 12.6603 5.58216 12.6803 5.31216 12.4403Z" fill="#7B7E86"/>
</svg>
