<svg width="24" height="24" viewBox="0 0 24 24" fill="none" xmlns="http://www.w3.org/2000/svg">
<path d="M5.64183 11.5C5.64183 11.32 5.71183 11.15 5.85183 11.02C6.12183 10.78 6.53183 10.8 6.77183 11.06L11.1718 15.8956L11.1718 4.99999C11.1718 4.64101 11.4628 4.34999 11.8218 4.34999C12.1808 4.34999 12.4718 4.64101 12.4718 4.99999L12.4718 15.8956L16.8718 11.06C17.1118 10.79 17.5218 10.78 17.7918 11.02C18.0518 11.26 18.0718 11.67 17.8318 11.94L12.3418 17.98C12.0618 18.29 11.5818 18.29 11.3018 17.98L5.81183 11.94C5.69183 11.81 5.64183 11.66 5.64183 11.5Z" fill="#7B7E86"/>
</svg>
