<svg width="24" height="24" viewBox="0 0 24 24" fill="none" xmlns="http://www.w3.org/2000/svg">
<path fill-rule="evenodd" clip-rule="evenodd" d="M12 3C7.02944 3 3 7.02944 3 12C3 16.9706 7.02944 21 12 21C16.9706 21 21 16.9706 21 12C21 7.02944 16.9706 3 12 3ZM10.8672 11.8232C10.7372 11.9632 10.5672 12.0332 10.3872 12.0332C10.2272 12.0332 10.0772 11.9832 9.94715 11.8632L7.23715 9.28769C6.92715 9.00769 6.92715 8.52769 7.23715 8.24769L9.94715 5.7832C10.2172 5.5432 10.6272 5.5632 10.8672 5.82319C11.1072 6.0932 11.0972 6.5032 10.8272 6.7432L9.27659 8.11769C11.1256 8.11769 11.7692 8.12165 12.5341 8.12636C13.159 8.13021 13.8652 8.13456 15.3758 8.13765C15.7343 8.13838 16.0247 8.42922 16.0247 8.78776C16.0247 9.14719 15.733 9.4384 15.3735 9.43779L9.27271 9.42072L10.8272 10.9032C11.0872 11.1432 11.1072 11.5532 10.8672 11.8232ZM13.1413 18.1717C13.2713 18.3117 13.4413 18.3817 13.6213 18.3817C13.7813 18.3817 13.9313 18.3317 14.0613 18.2117L16.7713 15.6362C17.0813 15.3562 17.0813 14.8762 16.7713 14.5962L14.0613 12.1317C13.7913 11.8917 13.3813 11.9117 13.1413 12.1717C12.9013 12.4417 12.9113 12.8517 13.1813 13.0917L14.7318 14.4662C12.9142 14.4662 12.269 14.4703 11.5282 14.4751C10.8991 14.4791 10.2011 14.4836 8.65748 14.4863C8.29893 14.4869 8.00861 14.7778 8.00861 15.1363C8.00861 15.4958 8.30031 15.787 8.65974 15.7864L14.7357 15.7692L13.1813 17.2517C12.9213 17.4917 12.9013 17.9017 13.1413 18.1717Z" fill="#7B7E86"/>
</svg>
