<svg width="24" height="24" viewBox="0 0 24 24" fill="none" xmlns="http://www.w3.org/2000/svg">
<path fill-rule="evenodd" clip-rule="evenodd" d="M15.8563 5.21177C14.9385 4.29404 13.4506 4.29404 12.5329 5.21177L6.38102 11.3636C4.95561 12.789 4.95561 15.1001 6.38102 16.5255L7.72453 17.869C9.14994 19.2944 11.461 19.2944 12.8864 17.869L18.6847 12.0707C18.9385 11.8169 19.3501 11.8169 19.6039 12.0707C19.8578 12.3245 19.8578 12.7361 19.6039 12.9899L13.8056 18.7882C11.8725 20.7213 8.73838 20.7213 6.80529 18.7882L5.46178 17.4447C3.52869 15.5116 3.52869 12.3775 5.46178 10.4444L11.6136 4.29253C13.039 2.86712 15.3501 2.86712 16.7755 4.29253L17.4826 4.99964C18.908 6.42505 18.908 8.7361 17.4826 10.1615L11.6843 15.9598C10.9228 16.7213 9.68813 16.7213 8.92661 15.9598L8.29021 15.3234C7.52869 14.5619 7.52869 13.3272 8.29021 12.5657L13.7349 7.12096C13.9888 6.86712 14.4003 6.86712 14.6542 7.12096C14.908 7.3748 14.908 7.78636 14.6542 8.0402L9.20945 13.4849C8.95561 13.7388 8.95561 14.1503 9.20945 14.4042L9.84585 15.0406C10.0997 15.2944 10.5112 15.2944 10.7651 15.0406L16.5634 9.24228C17.4811 8.32455 17.4811 6.83661 16.5634 5.91888L15.8563 5.21177Z" fill="#7B7E86"/>
</svg>
