<svg width="24" height="24" viewBox="0 0 24 24" fill="none" xmlns="http://www.w3.org/2000/svg">
<path d="M5.79928 2H5C3.34315 2 2 3.34315 2 5V5.69097C2 6.04996 2.29101 6.34097 2.65 6.34097C3.00898 6.34097 3.3 6.04996 3.3 5.69097V5C3.3 4.06112 4.06112 3.3 5 3.3H5.79928C6.15826 3.3 6.44928 3.00898 6.44928 2.65C6.44928 2.29101 6.15826 2 5.79928 2Z" fill="#7B7E86"/>
<path d="M2 18.3089C2 17.9499 2.29101 17.6589 2.65 17.6589C3.00898 17.6589 3.3 17.9499 3.3 18.3089V19C3.3 19.9389 4.06112 20.7 5 20.7H5.79928C6.15826 20.7 6.44928 20.991 6.44928 21.35C6.44928 21.709 6.15826 22 5.79928 22H5C3.34315 22 2 20.6569 2 19V18.3089Z" fill="#7B7E86"/>
<path d="M21.35 17.6589C20.991 17.6589 20.7 17.9499 20.7 18.3089V19C20.7 19.9389 19.9389 20.7 19 20.7H18.4172C18.0582 20.7 17.7672 20.991 17.7672 21.35C17.7672 21.709 18.0582 22 18.4172 22H19C20.6569 22 22 20.6569 22 19V18.3089C22 17.9499 21.709 17.6589 21.35 17.6589Z" fill="#7B7E86"/>
<path d="M22 5.69097C22 6.04996 21.709 6.34097 21.35 6.34097C20.991 6.34097 20.7 6.04996 20.7 5.69097V5C20.7 4.06112 19.9389 3.3 19 3.3H18.4172C18.0582 3.3 17.7672 3.00898 17.7672 2.65C17.7672 2.29101 18.0582 2 18.4172 2H19C20.6569 2 22 3.34315 22 5V5.69097Z" fill="#7B7E86"/>
<path d="M5.80439 7.94748C5.4454 7.94748 5.15439 8.23849 5.15439 8.59748V15.4024C5.15439 15.7613 5.4454 16.0524 5.80439 16.0524H7.07899C7.43797 16.0524 7.72899 15.7613 7.72899 15.4024L7.72899 8.59748C7.72898 8.23849 7.43797 7.94748 7.07899 7.94748H5.80439Z" fill="#7B7E86"/>
<path d="M18.456 7.9475C18.815 7.9475 19.106 8.23852 19.106 8.5975L19.106 15.4024C19.106 15.7614 18.815 16.0524 18.456 16.0524C18.097 16.0524 17.806 15.7614 17.806 15.4024V8.5975C17.806 8.23852 18.097 7.9475 18.456 7.9475Z" fill="#7B7E86"/>
<path d="M13.9231 8.59748C13.9231 8.23849 14.2141 7.94748 14.5731 7.94748H15.8477C16.2067 7.94748 16.4977 8.23849 16.4977 8.59748L16.4977 15.4024C16.4977 15.7613 16.2067 16.0524 15.8477 16.0524H14.5731C14.2141 16.0524 13.9231 15.7613 13.9231 15.4024V8.59748Z" fill="#7B7E86"/>
<path d="M11.3119 7.94753C11.6709 7.94753 11.9619 8.23855 11.9619 8.59753L11.9619 15.4024C11.9619 15.7614 11.6709 16.0524 11.3119 16.0524C10.9529 16.0524 10.6619 15.7614 10.6619 15.4024V8.59753C10.6619 8.23855 10.9529 7.94753 11.3119 7.94753Z" fill="#7B7E86"/>
</svg>
