<svg width="24" height="24" viewBox="0 0 24 24" fill="none" xmlns="http://www.w3.org/2000/svg">
<path fill-rule="evenodd" clip-rule="evenodd" d="M5.05042 1.99988H19.0504C20.7073 1.99988 22.0504 3.34302 22.0504 4.99988V18.9999C22.0504 20.6567 20.7073 21.9999 19.0504 21.9999H5.05041C3.39356 21.9999 2.05042 20.6567 2.05042 18.9999V4.99988C2.05042 3.34302 3.39356 1.99988 5.05042 1.99988ZM5.74656 7.94748C5.38757 7.94748 5.09656 8.23849 5.09656 8.59748V15.4024C5.09656 15.7613 5.38757 16.0524 5.74656 16.0524H7.02115C7.38014 16.0524 7.67115 15.7613 7.67115 15.4024L7.67115 8.59748C7.67115 8.23849 7.38014 7.94748 7.02115 7.94748H5.74656ZM18.3982 7.9475C18.7571 7.9475 19.0482 8.23852 19.0482 8.5975L19.0482 15.4024C19.0482 15.7614 18.7571 16.0524 18.3982 16.0524C18.0392 16.0524 17.7482 15.7614 17.7482 15.4024V8.5975C17.7482 8.23852 18.0392 7.9475 18.3982 7.9475ZM13.8653 8.59748C13.8653 8.23849 14.1563 7.94748 14.5153 7.94748H15.7899C16.1488 7.94748 16.4399 8.23849 16.4399 8.59748L16.4399 15.4024C16.4399 15.7613 16.1488 16.0524 15.7899 16.0524H14.5153C14.1563 16.0524 13.8653 15.7613 13.8653 15.4024V8.59748ZM11.2541 7.94753C11.613 7.94753 11.9041 8.23855 11.9041 8.59753L11.9041 15.4024C11.9041 15.7614 11.613 16.0524 11.2541 16.0524C10.8951 16.0524 10.6041 15.7614 10.6041 15.4024V8.59753C10.6041 8.23855 10.8951 7.94753 11.2541 7.94753Z" fill="#7B7E86"/>
</svg>
