<svg width="24" height="24" viewBox="0 0 24 24" fill="none" xmlns="http://www.w3.org/2000/svg">
<path d="M8.13998 1.94995C8.49897 1.94995 8.78998 2.24097 8.78998 2.59995V3.98996H11.35V2.59995C11.35 2.24097 11.641 1.94995 12 1.94995C12.359 1.94995 12.65 2.24097 12.65 2.59995V3.98996H15.2V2.59995C15.2 2.24097 15.491 1.94995 15.85 1.94995C16.209 1.94995 16.5 2.24097 16.5 2.59995V3.98996H17C18.65 3.98996 20 5.32996 20 6.98996V8.64996C20 9.03996 19.69 9.34996 19.3 9.34996H4.7C4.31 9.34996 4 9.03996 4 8.64996V6.98996C4 5.32996 5.34 3.98996 7 3.98996H7.48998V2.59995C7.48998 2.24097 7.781 1.94995 8.13998 1.94995Z" fill="#7B7E86"/>
<path fill-rule="evenodd" clip-rule="evenodd" d="M19.3 10.65H4.7C4.31 10.65 4 10.96 4 11.35V17.12C4 18.78 5.34 20.12 7 20.12H17C18.66 20.12 20 18.78 20 17.12V11.35C20 10.96 19.68 10.65 19.3 10.65ZM15.6935 13.44C15.9364 13.1757 15.9191 12.7646 15.6549 12.5216C15.3906 12.2786 14.9794 12.2959 14.7364 12.5602L11.6635 15.9027L10.0185 14.2577C9.76462 14.0038 9.35307 14.0038 9.09922 14.2577C8.84538 14.5115 8.84538 14.9231 9.09922 15.1769L11.0024 17.08C11.3844 17.4621 12.0078 17.449 12.3735 17.0512L15.6935 13.44Z" fill="#7B7E86"/>
</svg>
