<svg width="24" height="24" viewBox="0 0 24 24" fill="none" xmlns="http://www.w3.org/2000/svg">
<path d="M15.7131 13.1197C15.9561 12.8554 15.9388 12.4442 15.6746 12.2013C15.4103 11.9583 14.9991 11.9756 14.7561 12.2399L11.6832 15.5824L10.0381 13.9374C9.78431 13.6835 9.37275 13.6835 9.11891 13.9374C8.86507 14.1912 8.86507 14.6028 9.11891 14.8566L11.022 16.7597C11.4041 17.1418 12.0275 17.1287 12.3931 16.7309L15.7131 13.1197Z" fill="#7B7E86"/>
<path fill-rule="evenodd" clip-rule="evenodd" d="M8.13998 1.94995C8.49896 1.94995 8.78998 2.24097 8.78998 2.59995V3.98996H11.35V2.59995C11.35 2.24097 11.641 1.94995 12 1.94995C12.359 1.94995 12.65 2.24097 12.65 2.59995V3.98996H15.2V2.59995C15.2 2.24097 15.491 1.94995 15.85 1.94995C16.209 1.94995 16.5 2.24097 16.5 2.59995V3.98996H17C18.65 3.98996 20 5.32996 20 6.98996V17.12C20 18.78 18.66 20.12 17 20.12H7C5.34 20.12 4 18.78 4 17.12V6.98996C4 5.32996 5.34 3.98996 7 3.98996H7.48998V2.59995C7.48998 2.24097 7.78099 1.94995 8.13998 1.94995ZM7.48998 6.85995V5.28996H7C6.06 5.28996 5.3 6.04996 5.3 6.98996V9.34997H18.7V6.98996C18.7 6.04996 17.94 5.28996 17 5.28996H16.5V6.85995C16.5 7.21894 16.209 7.50995 15.85 7.50995C15.491 7.50995 15.2 7.21894 15.2 6.85995V5.28996H12.65V6.85995C12.65 7.21894 12.359 7.50995 12 7.50995C11.641 7.50995 11.35 7.21894 11.35 6.85995V5.28996H8.78998V6.85995C8.78998 7.21894 8.49896 7.50995 8.13998 7.50995C7.78099 7.50995 7.48998 7.21894 7.48998 6.85995ZM18.7 10.65H5.3V17.12C5.3 18.06 6.06 18.82 7 18.82H17C17.94 18.82 18.7 18.06 18.7 17.12V10.65Z" fill="#7B7E86"/>
</svg>
