<svg width="24" height="24" viewBox="0 0 24 24" fill="none" xmlns="http://www.w3.org/2000/svg">
<path fill-rule="evenodd" clip-rule="evenodd" d="M12.0143 17.1331C14.3616 17.1331 16.2643 15.2303 16.2643 12.8831C16.2643 10.5359 14.3616 8.63312 12.0143 8.63312C9.66713 8.63312 7.76434 10.5359 7.76434 12.8831C7.76434 15.2303 9.66713 17.1331 12.0143 17.1331ZM12.0143 15.8331C13.6436 15.8331 14.9643 14.5124 14.9643 12.8831C14.9643 11.2539 13.6436 9.93312 12.0143 9.93312C10.3851 9.93312 9.06434 11.2539 9.06434 12.8831C9.06434 14.5124 10.3851 15.8331 12.0143 15.8331Z" fill="#7B7E86"/>
<path d="M16.6262 9.63312C16.6262 9.0833 17.0719 8.63312 17.6217 8.63312C18.1715 8.63312 18.6172 9.0833 18.6172 9.63312C18.6172 10.1829 18.1715 10.6331 17.6217 10.6331C17.0719 10.6331 16.6262 10.1829 16.6262 9.63312Z" fill="#7B7E86"/>
<path fill-rule="evenodd" clip-rule="evenodd" d="M6.00002 5.96229H7.65237C8.08895 4.84519 9.17586 4.05389 10.4476 4.05389H13.5524C14.8242 4.05389 15.9111 4.84519 16.3477 5.96229H18C19.6569 5.96229 21 7.30543 21 8.96229V16.9623C21 18.6191 19.6569 19.9623 18 19.9623H6.00002C4.34316 19.9623 3.00002 18.6191 3.00002 16.9623V8.96229C3.00002 7.30543 4.34316 5.96229 6.00002 5.96229ZM15.1368 6.4355L15.46 7.26229H18C18.9389 7.26229 19.7 8.0234 19.7 8.96229V16.9623C19.7 17.9012 18.9389 18.6623 18 18.6623H6.00002C5.06113 18.6623 4.30002 17.9012 4.30002 16.9623V8.96229C4.30002 8.0234 5.06113 7.26229 6.00002 7.26229H8.54006L8.86319 6.4355C9.11146 5.80024 9.72899 5.35389 10.4476 5.35389H13.5524C14.271 5.35389 14.8886 5.80024 15.1368 6.4355Z" fill="#7B7E86"/>
</svg>
