<svg width="24" height="24" viewBox="0 0 24 24" fill="none" xmlns="http://www.w3.org/2000/svg">
<path fill-rule="evenodd" clip-rule="evenodd" d="M18.8875 4.03353C19.107 3.74949 19.0547 3.34127 18.7706 3.12175C18.4866 2.90223 18.0784 2.95453 17.8588 3.23858L16.1027 5.5109C15.5735 4.6589 14.6292 4.09162 13.5524 4.09162H10.4476C9.17585 4.09162 8.08894 4.88292 7.65236 6.00001H6C4.34315 6.00001 3 7.34316 3 9.00001V17C3 18.317 3.84869 19.4359 5.029 19.8394L4.167 20.9548C3.94748 21.2388 3.99978 21.647 4.28383 21.8665C4.56787 22.0861 4.97609 22.0338 5.19561 21.7497L18.8875 4.03353ZM8.51331 15.331L9.36773 14.2254C9.17349 13.8321 9.06434 13.3892 9.06434 12.9209C9.06434 11.2916 10.3851 9.97088 12.0143 9.97088C12.2182 9.97088 12.4172 9.99155 12.6094 10.0309L13.4644 8.92466C13.0119 8.76044 12.5236 8.67088 12.0143 8.67088C9.66713 8.67088 7.76434 10.5737 7.76434 12.9209C7.76434 13.8158 8.04094 14.6461 8.51331 15.331Z" fill="#7B7E86"/>
<path d="M14.8371 12.0613C14.7726 11.8491 14.5025 11.8198 14.3669 11.9953L11.7124 15.43C11.5767 15.6056 11.6735 15.8597 11.8953 15.8685C11.9348 15.8701 11.9745 15.8709 12.0143 15.8709C13.6436 15.8709 14.9643 14.5501 14.9643 12.9209C14.9643 12.6219 14.9199 12.3332 14.8371 12.0613Z" fill="#7B7E86"/>
<path fill-rule="evenodd" clip-rule="evenodd" d="M12.0143 17.1709C11.6838 17.1709 11.362 17.1331 11.0531 17.0617C10.7565 16.9931 10.4371 17.0802 10.2509 17.3211L9.05233 18.872C8.69673 19.3321 9.02469 20 9.60619 20H18C19.6569 20 21 18.6569 21 17V9.00001C21 7.82724 20.3271 6.81164 19.3462 6.3183C19.0848 6.18679 18.7765 6.28957 18.5976 6.52115L15.8276 10.1053C15.6413 10.3463 15.6377 10.6777 15.7793 10.9474C16.0891 11.5371 16.2643 12.2085 16.2643 12.9209C16.2643 15.2681 14.3616 17.1709 12.0143 17.1709ZM17.4498 9.64849C17.4498 9.09868 17.8955 8.64849 18.4453 8.64849C18.9952 8.64849 19.4409 9.09868 19.4409 9.64849C19.4409 10.1983 18.9952 10.6485 18.4453 10.6485C17.8955 10.6485 17.4498 10.1983 17.4498 9.64849Z" fill="#7B7E86"/>
</svg>
