<svg width="24" height="24" viewBox="0 0 24 24" fill="none" xmlns="http://www.w3.org/2000/svg">
<path fill-rule="evenodd" clip-rule="evenodd" d="M18.7706 3.08403C19.0547 3.30355 19.107 3.71177 18.8875 3.99581L5.19561 21.712C5.16817 21.7475 5.13778 21.7794 5.10506 21.8076C4.87598 22.0049 4.53236 22.0209 4.28383 21.8288C4.24832 21.8014 4.21644 21.771 4.18825 21.7383C3.99095 21.5092 3.97492 21.1656 4.167 20.917L5.02901 19.8017C3.8487 19.3981 3.00002 18.2793 3.00002 16.9623V8.96229C3.00002 7.30544 4.34316 5.96229 6.00002 5.96229H7.65237C8.08895 4.8452 9.17586 4.0539 10.4476 4.0539H13.5524C14.6292 4.0539 15.5735 4.62118 16.1027 5.47317L17.8588 3.20086C18.0784 2.91681 18.4866 2.86451 18.7706 3.08403ZM15.2114 6.62638L15.1368 6.4355C14.8886 5.80025 14.271 5.3539 13.5524 5.3539H10.4476C9.72899 5.3539 9.11146 5.80025 8.86319 6.4355L8.54006 7.26229H6.00002C5.06113 7.26229 4.30002 8.02341 4.30002 8.96229V16.9623C4.30002 17.8714 5.01366 18.6139 5.91132 18.66L8.51332 15.2932C8.04094 14.6084 7.76434 13.778 7.76434 12.8831C7.76434 10.5359 9.66713 8.63312 12.0143 8.63312C12.5236 8.63312 13.0119 8.72269 13.4644 8.88692L15.2114 6.62638ZM12.6094 9.99317C12.4172 9.9538 12.2182 9.93312 12.0143 9.93312C10.3851 9.93312 9.06434 11.2539 9.06434 12.8831C9.06434 13.3515 9.17349 13.7944 9.36774 14.1877L12.6094 9.99317Z" fill="#7B7E86"/>
<path d="M14.8272 11.9913C14.7464 11.7366 14.7684 11.4525 14.9318 11.2411C15.2226 10.8648 15.7965 10.8851 15.9706 11.3275C16.1602 11.8093 16.2643 12.3341 16.2643 12.8831C16.2643 15.2303 14.3616 17.1331 12.0143 17.1331C11.8429 17.1331 11.6739 17.123 11.5078 17.1032C11.035 17.0471 10.8702 16.4965 11.1613 16.1198C11.3246 15.9086 11.5935 15.8154 11.8601 15.8292C11.9112 15.8318 11.9626 15.8331 12.0143 15.8331C13.6436 15.8331 14.9643 14.5124 14.9643 12.8831C14.9643 12.5723 14.9163 12.2727 14.8272 11.9913Z" fill="#7B7E86"/>
<path d="M9.51551 18.6623C9.31423 18.6623 9.1243 18.7556 9.00121 18.9148C8.67101 19.3421 8.97554 19.9623 9.51551 19.9623H18C19.6569 19.9623 21 18.6191 21 16.9623V8.96229C21 7.84325 20.3873 6.8673 19.4791 6.35163C19.1509 6.16532 18.7509 6.29942 18.5202 6.59799L18.5025 6.62087C18.2998 6.88322 18.4926 7.30114 18.7864 7.45475C19.3294 7.73858 19.7 8.30716 19.7 8.96229V16.9623C19.7 17.9012 18.9389 18.6623 18 18.6623H9.51551Z" fill="#7B7E86"/>
<path d="M16.6262 9.63312C16.6262 9.08331 17.0719 8.63312 17.6217 8.63312C18.1715 8.63312 18.6172 9.08331 18.6172 9.63312C18.6172 10.1829 18.1715 10.6331 17.6217 10.6331C17.0719 10.6331 16.6262 10.1829 16.6262 9.63312Z" fill="#7B7E86"/>
</svg>
