<svg width="25" height="24" viewBox="0 0 25 24" fill="none" xmlns="http://www.w3.org/2000/svg">
<path fill-rule="evenodd" clip-rule="evenodd" d="M3.31409 12C3.31409 16.9706 7.34352 21 12.3141 21C17.2846 21 21.3141 16.9706 21.3141 12C21.3141 7.02944 17.2846 3 12.3141 3C7.34352 3 3.31409 7.02944 3.31409 12ZM14.5004 7.60592C14.3704 7.46592 14.2004 7.39592 14.0204 7.39592C13.8604 7.39592 13.7104 7.44592 13.5804 7.56592L9.5404 11.4896C9.2304 11.7696 9.2304 12.2496 9.5404 12.5296L13.6004 16.4359C13.8704 16.6759 14.2804 16.6559 14.5204 16.3959C14.7604 16.1259 14.7504 15.7159 14.4804 15.4759L10.9067 12.0024L14.4604 8.52592C14.7204 8.28592 14.7404 7.87592 14.5004 7.60592Z" fill="#7B7E86"/>
</svg>
