<svg width="24" height="24" viewBox="0 0 24 24" fill="none" xmlns="http://www.w3.org/2000/svg">
<path d="M14.4799 9.12012C14.4799 8.76114 14.1889 8.47012 13.8299 8.47012C13.4709 8.47012 13.1799 8.76114 13.1799 9.12012V15.4701C13.1799 15.8291 13.4709 16.1201 13.8299 16.1201C14.1889 16.1201 14.4799 15.8291 14.4799 15.4701V9.12012Z" fill="#7B7E86"/>
<path d="M10.1799 8.47012C10.5389 8.47012 10.8299 8.76114 10.8299 9.12012V15.4701C10.8299 15.8291 10.5389 16.1201 10.1799 16.1201C9.82095 16.1201 9.52993 15.8291 9.52993 15.4701V9.12012C9.52993 8.76114 9.82095 8.47012 10.1799 8.47012Z" fill="#7B7E86"/>
<path fill-rule="evenodd" clip-rule="evenodd" d="M12 2.01993C12.359 2.01993 12.65 2.31094 12.65 2.66993V4.65005H19.68C20.0389 4.65005 20.33 4.94107 20.33 5.30006C20.33 5.65904 20.0389 5.95006 19.68 5.95006H18.8958L18.12 17.44C18.03 19.02 16.71 20.25 15.13 20.25H8.76996C7.18996 20.25 5.87996 19.02 5.77996 17.44L5.02258 5.95006H4.32995C3.97097 5.95006 3.67995 5.65904 3.67995 5.30006C3.67995 4.94107 3.97097 4.65005 4.32995 4.65005H11.35V2.66993C11.35 2.31094 11.641 2.01993 12 2.01993ZM6.37768 5.95006L7.07996 17.35C7.13996 18.25 7.87996 18.95 8.77996 18.95H15.14C16.04 18.95 16.78 18.25 16.84 17.36L17.5423 5.95006H6.37768Z" fill="#7B7E86"/>
</svg>
