<svg width="24" height="24" viewBox="0 0 24 24" fill="none" xmlns="http://www.w3.org/2000/svg">
<path d="M11.35 5.15005H11.85V4.65005V2.66993C11.85 2.58709 11.9172 2.51993 12 2.51993C12.0828 2.51993 12.15 2.58708 12.15 2.66993V4.65005V5.15005H12.65H19.68C19.7628 5.15005 19.83 5.21721 19.83 5.30006C19.83 5.3829 19.7628 5.45006 19.68 5.45006H18.8958H18.4284L18.397 5.91637L17.6211 17.4063L17.6211 17.4063L17.6208 17.4116C17.5461 18.7234 16.4484 19.75 15.13 19.75H8.76997C7.45425 19.75 6.36233 18.7255 6.27897 17.4084L6.27888 17.4071L5.52151 5.91717L5.49072 5.45006H5.02259H4.32996C4.24712 5.45006 4.17996 5.3829 4.17996 5.30006C4.17996 5.21721 4.24712 5.15005 4.32996 5.15005H11.35ZM11.3299 9.12012C11.3299 8.485 10.8151 7.97012 10.1799 7.97012C9.54481 7.97012 9.02994 8.485 9.02994 9.12012V15.4701C9.02994 16.1053 9.54481 16.6201 10.1799 16.6201C10.8151 16.6201 11.3299 16.1053 11.3299 15.4701V9.12012ZM14.9799 9.12012C14.9799 8.485 14.4651 7.97012 13.8299 7.97012C13.1948 7.97012 12.6799 8.485 12.6799 9.12012V15.4701C12.6799 16.1053 13.1948 16.6201 13.8299 16.6201C14.4651 16.6201 14.9799 16.1053 14.9799 15.4701V9.12012Z" fill="#7B7E86" stroke="#7B7E86"/>
</svg>
