<svg width="24" height="24" viewBox="0 0 24 24" fill="none" xmlns="http://www.w3.org/2000/svg">
<path d="M6.21875 11.2522C6.21875 11.0722 6.28875 10.9022 6.42875 10.7722C6.69875 10.5322 7.10875 10.5522 7.34875 10.8122L11.3509 14.6386L11.3509 4.65C11.3509 4.29101 11.6419 4 12.0009 4C12.3599 4 12.6509 4.29101 12.6509 4.65V14.5752L16.2987 10.7322C16.5387 10.4622 16.9487 10.4522 17.2187 10.6922C17.4787 10.9322 17.4987 11.3422 17.2587 11.6122L12.5209 16.63C12.2409 16.94 11.7609 16.94 11.4809 16.63L6.38875 11.6922C6.26875 11.5622 6.21875 11.4122 6.21875 11.2522Z" fill="#7B7E86"/>
<path d="M5 18.85C4.64101 18.85 4.35 19.141 4.35 19.5C4.35 19.859 4.64101 20.15 5 20.15H19C19.359 20.15 19.65 19.859 19.65 19.5C19.65 19.141 19.359 18.85 19 18.85H5Z" fill="#7B7E86"/>
</svg>
