<svg width="24" height="24" viewBox="0 0 24 24" fill="none" xmlns="http://www.w3.org/2000/svg">
<g clip-path="url(#clip0)">
<path d="M17.8837 3.88369C17.376 3.37601 16.5529 3.37601 16.0452 3.8837L14.9125 5.01639C14.6417 5.28718 14.6388 5.72532 14.906 5.9997L16.9243 8.07252C17.1966 8.35212 17.6449 8.3551 17.9208 8.07916L19.0403 6.95964C19.548 6.45196 19.548 5.62885 19.0403 5.12117L17.8837 3.88369Z" fill="#7B7E86"/>
<path d="M16.0116 9.98843C16.2824 9.71764 16.2853 9.27949 16.0181 9.00512L13.9997 6.9323C13.7275 6.6527 13.2792 6.64972 13.0033 6.92566L5.57287 14.3561C5.17529 14.7536 4.89744 15.2549 4.77101 15.8028L4.37153 17.5339C4.15551 18.47 4.45405 18.8494 5.39014 18.6333L7.12125 18.2339C7.66911 18.1074 8.17041 17.8296 8.56799 17.432L16.0116 9.98843Z" fill="#7B7E86"/>
</g>
<defs>
<clipPath id="clip0">
<rect width="24" height="24" fill="white"/>
</clipPath>
</defs>
</svg>
