<svg width="24" height="24" viewBox="0 0 24 24" fill="none" xmlns="http://www.w3.org/2000/svg">
<path fill-rule="evenodd" clip-rule="evenodd" d="M6.09999 4.98999C4.43999 4.98999 3.09999 6.32999 3.09999 7.98999V16.12C3.09999 17.78 4.43999 19.12 6.09999 19.12H18.1C19.76 19.12 21.1 17.78 21.1 16.12V7.98999C21.1 6.32999 19.75 4.98999 18.1 4.98999H6.09999ZM19.8 8.93676L15.4527 12.2123L18.0233 14.1464C18.3101 14.3622 18.3677 14.7697 18.1519 15.0566C17.936 15.3435 17.5285 15.401 17.2417 15.1852L14.3724 13.0264L14.1965 13.1589C12.8961 14.1387 11.1039 14.1387 9.80351 13.1589L9.62764 13.0264L6.75834 15.1852C6.47149 15.401 6.06398 15.3435 5.84815 15.0566C5.63231 14.7697 5.68989 14.3622 5.97675 14.1464L8.54729 12.2123L4.39999 9.08744V16.12C4.39999 17.06 5.15999 17.82 6.09999 17.82H18.1C19.04 17.82 19.8 17.06 19.8 16.12V8.93676ZM18.1 6.28999C18.829 6.28999 19.4497 6.74706 19.6916 7.39068L13.4142 12.1206C12.5769 12.7515 11.4231 12.7515 10.5858 12.1206L4.46817 7.5111C4.6746 6.80482 5.32633 6.28999 6.09999 6.28999H18.1Z" fill="#7B7E86"/>
</svg>
