<svg width="24" height="24" viewBox="0 0 24 24" fill="none" xmlns="http://www.w3.org/2000/svg">
<path fill-rule="evenodd" clip-rule="evenodd" d="M21 8.5C21 11.5376 18.5376 14 15.5 14C12.4624 14 10 11.5376 10 8.5C10 5.46243 12.4624 3 15.5 3C18.5376 3 21 5.46243 21 8.5ZM15.9869 10.0198C16.1169 10.1598 16.2869 10.2298 16.4669 10.2298C16.6269 10.2298 16.7769 10.1798 16.9069 10.0598L18.9463 8.0311C19.2563 7.7511 19.2563 7.2711 18.9463 6.9911L16.9069 5C16.6369 4.76 16.2269 4.78 15.9869 5.04C15.7469 5.31 15.7569 5.72 16.0269 5.96L16.9069 6.8611C16.7496 6.8611 16.6641 6.86019 16.5987 6.85949C16.4823 6.85826 16.4297 6.8577 16.15 6.86412C14.1342 6.86412 12.5 8.49828 12.5 10.5141V10.8639C12.5 11.2229 12.791 11.5139 13.15 11.5139C13.509 11.5139 13.8 11.2229 13.8 10.8639V10.5141C13.8 9.21625 14.8521 8.16412 16.15 8.16412H16.9107L16.0269 9.09981C15.7669 9.33981 15.7469 9.74981 15.9869 10.0198Z" fill="#7B7E86"/>
<path d="M8.84951 4C9.45248 4 9.80156 4.73942 9.51472 5.26979C8.99504 6.23069 8.7 7.33089 8.7 8.5C8.7 12.2555 11.7445 15.3 15.5 15.3C16.0216 15.3 16.5295 15.2413 17.0174 15.1301C17.4991 15.0203 18 15.3613 18 15.8554V17C18 18.6569 16.6569 20 15 20H8C6.34315 20 5 18.6569 5 17V7C5 5.34315 6.34315 4 8 4H8.84951Z" fill="#7B7E86"/>
</svg>
