<svg width="24" height="24" viewBox="0 0 24 24" fill="none" xmlns="http://www.w3.org/2000/svg">
<path d="M16.5 10.7203C16.32 10.7203 16.15 10.6503 16.02 10.5103C15.78 10.2403 15.8 9.8303 16.06 9.5903L18.9511 6.87032H15C13.7021 6.87032 12.65 7.92245 12.65 9.22032V14C12.65 14.359 12.359 14.65 12 14.65C11.641 14.65 11.35 14.359 11.35 14V9.22032C11.35 7.20448 12.9842 5.57032 15 5.57032H18.9606L18.9606 5.55482L16.1 3.14032C15.83 2.90032 15.82 2.49032 16.06 2.22032C16.3 1.96032 16.71 1.94032 16.98 2.18032L21 5.68482C21.31 5.96482 21.31 6.44482 21 6.72482L16.94 10.5503C16.81 10.6703 16.66 10.7203 16.5 10.7203Z" fill="#7B7E86"/>
<path d="M9.35 4C9.70899 4 10 4.29101 10 4.65C10 5.00899 9.70899 5.3 9.35 5.3H8C7.06112 5.3 6.3 6.06112 6.3 7V17C6.3 17.9389 7.06112 18.7 8 18.7H16C16.9389 18.7 17.7 17.9389 17.7 17V12.65C17.7 12.291 17.991 12 18.35 12C18.709 12 19 12.291 19 12.65V17C19 18.6569 17.6569 20 16 20H8C6.34315 20 5 18.6569 5 17V7C5 5.34315 6.34315 4 8 4H9.35Z" fill="#7B7E86"/>
</svg>
