<svg width="24" height="24" viewBox="0 0 24 24" fill="none" xmlns="http://www.w3.org/2000/svg">
<path fill-rule="evenodd" clip-rule="evenodd" d="M15.2859 12.925L14.8117 12.4508L8.27746 18.985C7.44181 19.8206 6.16176 19.941 5.19806 19.3462L4.51807 20.0261C4.26423 20.28 3.85267 20.28 3.59883 20.0261C3.34499 19.7723 3.34499 19.3608 3.59883 19.1069L4.3062 18.3995C3.79789 17.4531 3.94313 16.2482 4.74192 15.4494L11.2761 8.91523L10.7344 8.37356C10.4806 8.11972 10.4806 7.70816 10.7344 7.45432C10.9883 7.20048 11.3998 7.20048 11.6537 7.45432L12.1954 7.99599L15.4395 4.75187C16.4158 3.77556 17.9987 3.77556 18.975 4.75187C19.9513 5.72818 19.9513 7.31109 18.975 8.2874L15.7309 11.5315L16.2051 12.0057C16.459 12.2596 16.459 12.6711 16.2051 12.925C15.9513 13.1788 15.5397 13.1788 15.2859 12.925ZM7.35822 18.0657L13.8924 11.5315L12.1954 9.83447L5.66116 16.3687C5.19253 16.8373 5.19253 17.5971 5.66116 18.0657C6.12979 18.5344 6.88959 18.5344 7.35822 18.0657ZM16.3587 5.6711L13.1146 8.91523L14.8117 10.6123L18.0558 7.36816C18.5244 6.89953 18.5244 6.13974 18.0558 5.67111C17.5871 5.20248 16.8274 5.20248 16.3587 5.6711Z" fill="#7B7E86"/>
</svg>
