<svg width="24" height="24" viewBox="0 0 24 24" fill="none" xmlns="http://www.w3.org/2000/svg">
<path d="M13.4334 12.9098C13.1796 12.656 12.768 12.656 12.5142 12.9098L7.35819 18.0658C6.88957 18.5344 6.12977 18.5344 5.66114 18.0658C5.19251 17.5971 5.19251 16.8373 5.66114 16.3687L10.8171 11.2127C11.0709 10.9589 11.0709 10.5473 10.8171 10.2935C10.5633 10.0397 10.1517 10.0397 9.89786 10.2935L4.7419 15.4495C3.94312 16.2483 3.79787 17.4531 4.30617 18.3995L3.5988 19.1069C3.34496 19.3608 3.34496 19.7723 3.5988 20.0262C3.85264 20.28 4.26419 20.28 4.51804 20.0262L5.19802 19.3462C6.16172 19.941 7.44178 19.8207 8.27743 18.985L13.4334 13.829C13.6872 13.5752 13.6872 13.1636 13.4334 12.9098Z" fill="#7B7E86"/>
<path fill-rule="evenodd" clip-rule="evenodd" d="M15.2998 12.9385C15.5545 13.1788 15.9558 13.1742 16.2051 12.925C16.4589 12.6712 16.4589 12.2596 16.2051 12.0058L15.7309 11.5316L18.975 8.28744C19.9513 7.31113 19.9513 5.72822 18.975 4.75191C17.9987 3.7756 16.4158 3.77559 15.4395 4.7519L12.1953 7.99602L11.6537 7.45433C11.3998 7.20049 10.9883 7.20049 10.7344 7.45433C10.4871 7.70164 10.4807 8.09865 10.7153 8.35367C10.72 8.3581 10.7247 8.36261 10.7293 8.3672L15.2807 12.9186C15.2872 12.9252 15.2936 12.9318 15.2998 12.9385Z" fill="#7B7E86"/>
</svg>
