<svg width="24" height="24" viewBox="0 0 24 24" fill="none" xmlns="http://www.w3.org/2000/svg">
<path fill-rule="evenodd" clip-rule="evenodd" d="M3.79005 4.69009C3.43106 4.69009 3.14005 4.98111 3.14005 5.34009C3.14005 5.69908 3.43106 5.99009 3.79005 5.99009H4.40563L4.56001 7.26996C4.87001 10.38 6.92001 13.24 9.65001 14.17V20.0952C9.65001 20.4798 10.0661 20.7204 10.3994 20.5286L13.8294 18.5542C13.9845 18.465 14.08 18.2997 14.08 18.1208V14.25C16.92 13.38 19.07 10.47 19.39 7.26996L19.5494 5.99009H20.21C20.569 5.99009 20.86 5.69908 20.86 5.34009C20.86 4.98111 20.569 4.69009 20.21 4.69009H3.79005ZM18.1 7.13996L18.24 5.99996H5.72001L5.86001 7.10996C6.12001 9.79996 7.85001 12.18 10.07 12.94L10.95 13.24V18.71L12.78 17.65V13.28L13.7 13C15.98 12.31 17.83 9.83996 18.1 7.13996Z" fill="#7B7E86"/>
</svg>
