<svg width="24" height="24" viewBox="0 0 24 24" fill="none" xmlns="http://www.w3.org/2000/svg">
<path d="M3.78477 4.7C3.42578 4.7 3.13477 4.99101 3.13477 5.35C3.13477 5.70898 3.42578 6 3.78477 6H4.40683L4.56002 7.26995C4.87002 10.38 6.50001 13 10.2506 14.5V19.738C10.2506 20.1226 10.6667 20.3632 11 20.1713L13.2494 18.8867C13.4045 18.7975 13.5 18.6322 13.5 18.4534V14.5C17 13.5 19.07 10.47 19.39 7.26995C19.39 7.26995 19.4986 6.50991 19.5484 6H20.2126C20.5716 6 20.8626 5.70898 20.8626 5.35C20.8626 4.99101 20.5716 4.7 20.2126 4.7H3.78477Z" fill="#7B7E86"/>
</svg>
