<svg width="24" height="24" viewBox="0 0 24 24" fill="none" xmlns="http://www.w3.org/2000/svg">
<path fill-rule="evenodd" clip-rule="evenodd" d="M18 8.99999L21 12C21.2716 12.2348 21.3014 12.6453 21.0666 12.9168C20.8318 13.1884 20.4213 13.2182 20.1497 12.9834L19 11.8336V19.7C19 20.418 18.418 21 17.7 21H14.4994C13.7813 21 13.1993 20.4179 13.1994 19.6999L13.2 14.3H10.8V19.7C10.8 20.418 10.218 21 9.5 21L6.3 21C5.58203 21 5 20.418 5 19.7V11.8336L3.85026 12.9834C3.5787 13.2182 3.16823 13.1884 2.93343 12.9168C2.69864 12.6453 2.72844 12.2348 2.99999 12L6 8.99999L11.0808 3.91924C11.5884 3.41156 12.4116 3.41156 12.9192 3.91924L18 8.99999ZM17.7 19.7H14.5V14.3C14.5 13.582 13.918 13 13.2 13H10.8C10.082 13 9.5 13.582 9.5 14.3V19.7H6.3V10.5385L12 4.83848L17.7 10.5385V19.7Z" fill="#7B7E86"/>
</svg>
