<svg width="24" height="24" viewBox="0 0 24 24" fill="none" xmlns="http://www.w3.org/2000/svg">
<path d="M11.0808 3.91924C11.5884 3.41156 12.4116 3.41156 12.9192 3.91924L21 12C21.2716 12.2348 21.3014 12.6453 21.0666 12.9168C20.8318 13.1884 20.4213 13.2182 20.1497 12.9834L19 11.8337V19.7C19 20.418 18.418 21 17.7 21H14.7C14.3134 21 14 20.6866 14 20.3V15.3C14 14.582 13.418 14 12.7 14H11.3C10.582 14 10 14.582 10 15.3V20.3C10 20.6866 9.6866 21 9.3 21H6.3C5.58203 21 5 20.418 5 19.7V11.8336L3.85026 12.9834C3.5787 13.2182 3.16823 13.1884 2.93343 12.9168C2.69864 12.6453 2.72844 12.2348 2.99999 12L6 9L11.0808 3.91924Z" fill="#7B7E86"/>
</svg>
