<svg width="24" height="24" viewBox="0 0 24 24" fill="none" xmlns="http://www.w3.org/2000/svg">
<path d="M10 4.65C10 4.29101 9.70899 4 9.35 4H8C6.34315 4 5 5.34315 5 7V17C5 18.6569 6.34315 20 8 20H16C17.6569 20 19 18.6569 19 17V8.38863C19 8.02964 18.709 7.73863 18.35 7.73863C17.991 7.73863 17.7 8.02964 17.7 8.38863V17C17.7 17.9389 16.9389 18.7 16 18.7H8C7.06112 18.7 6.3 17.9389 6.3 17V7C6.3 6.06112 7.06112 5.3 8 5.3H9.35C9.70899 5.3 10 5.00899 10 4.65Z" fill="#7B7E86"/>
<path d="M16.3081 9.75682C16.4481 9.88683 16.5181 10.0568 16.5181 10.2368C16.5181 10.3968 16.4681 10.5468 16.3481 10.6768L12.5226 14.7368C12.2426 15.0468 11.7626 15.0468 11.4826 14.7368L7.97815 10.7168C7.73815 10.4468 7.75815 10.0368 8.01815 9.79685C8.28815 9.55685 8.69815 9.56685 8.93815 9.83685L11.3526 12.6974L11.3682 12.6975V7.73684C11.3682 5.72101 13.0023 4.08684 15.0182 4.08684H18.3644C18.7234 4.08684 19.0144 4.37786 19.0144 4.73684C19.0144 5.09583 18.7234 5.38684 18.3644 5.38684H15.0182C13.7203 5.38684 12.6682 6.43898 12.6682 7.73684V12.688L15.3881 9.79683C15.6281 9.53683 16.0381 9.51683 16.3081 9.75682Z" fill="#7B7E86"/>
</svg>
