<svg width="24" height="24" viewBox="0 0 24 24" fill="none" xmlns="http://www.w3.org/2000/svg">
<path fill-rule="evenodd" clip-rule="evenodd" d="M21 8.5C21 11.5376 18.5376 14 15.5 14C12.4624 14 10 11.5376 10 8.5C10 5.46243 12.4624 3 15.5 3C18.5376 3 21 5.46243 21 8.5ZM17.2298 9.46687C17.2298 9.28687 17.1598 9.11687 17.0198 8.98687C16.7498 8.74687 16.3398 8.76687 16.0998 9.02687L15.1641 9.91075V9.15001C15.1641 7.85214 16.2163 6.80001 17.5141 6.80001H17.8639C18.2229 6.80001 18.5139 6.50899 18.5139 6.15001C18.5139 5.79102 18.2229 5.50001 17.8639 5.50001H17.5141C15.4983 5.50001 13.8641 7.13417 13.8641 9.15001C13.8577 9.42965 13.8583 9.48234 13.8595 9.59866C13.8602 9.66406 13.8611 9.74959 13.8611 9.90687L12.96 9.02687C12.72 8.75687 12.31 8.74687 12.04 8.98687C11.78 9.22687 11.76 9.63687 12 9.90687L13.9911 11.9463C14.2711 12.2563 14.7511 12.2563 15.0311 11.9463L17.0598 9.90687C17.1798 9.77687 17.2298 9.62687 17.2298 9.46687Z" fill="#7B7E86"/>
<path d="M9.51472 5.26979C9.80156 4.73942 9.45248 4 8.84951 4H8C6.34315 4 5 5.34315 5 7V17C5 18.6569 6.34315 20 8 20H15C16.6569 20 18 18.6569 18 17V15.8554C18 15.3613 17.4991 15.0203 17.0174 15.1301C16.5295 15.2413 16.0216 15.3 15.5 15.3C11.7445 15.3 8.7 12.2555 8.7 8.5C8.7 7.33089 8.99504 6.23069 9.51472 5.26979Z" fill="#7B7E86"/>
</svg>
