<svg width="24" height="24" viewBox="0 0 24 24" fill="none" xmlns="http://www.w3.org/2000/svg">
<path d="M9.14771 13.9378C8.78872 13.9378 8.4977 14.2288 8.4977 14.5878C8.4977 14.9468 8.78872 15.2378 9.14771 15.2378H14.8523C15.2113 15.2378 15.5023 14.9468 15.5023 14.5878C15.5023 14.2288 15.2113 13.9378 14.8523 13.9378H9.14771Z" fill="#7B7E86"/>
<path d="M15.9953 9.41217C15.9953 9.05319 16.2863 8.76217 16.6453 8.76217L17.3421 8.76217C17.7011 8.76217 17.9921 9.05319 17.9921 9.41217C17.9921 9.77116 17.7011 10.0622 17.3421 10.0622H16.6453C16.2863 10.0622 15.9953 9.77116 15.9953 9.41217Z" fill="#7B7E86"/>
<path d="M6.64807 8.76217C6.28909 8.76217 5.99807 9.05319 5.99807 9.41217C5.99807 9.77116 6.28909 10.0622 6.64807 10.0622H7.34488C7.70386 10.0622 7.99488 9.77116 7.99488 9.41217C7.99488 9.05319 7.70386 8.76217 7.34488 8.76217L6.64807 8.76217Z" fill="#7B7E86"/>
<path d="M9.33047 9.41217C9.33047 9.05319 9.62148 8.76217 9.98047 8.76217L10.6773 8.76217C11.0363 8.76217 11.3273 9.05319 11.3273 9.41217C11.3273 9.77116 11.0363 10.0622 10.6773 10.0622H9.98047C9.62148 10.0622 9.33047 9.77116 9.33047 9.41217Z" fill="#7B7E86"/>
<path d="M13.3129 8.76217C12.9539 8.76217 12.6629 9.05319 12.6629 9.41217C12.6629 9.77116 12.9539 10.0622 13.3129 10.0622H14.0097C14.3687 10.0622 14.6597 9.77116 14.6597 9.41217C14.6597 9.05319 14.3687 8.76217 14.0097 8.76217L13.3129 8.76217Z" fill="#7B7E86"/>
<path d="M15.9953 11.9122C15.9953 11.5532 16.2863 11.2622 16.6453 11.2622H17.3421C17.7011 11.2622 17.9921 11.5532 17.9921 11.9122C17.9921 12.2712 17.7011 12.5622 17.3421 12.5622H16.6453C16.2863 12.5622 15.9953 12.2712 15.9953 11.9122Z" fill="#7B7E86"/>
<path d="M6.64807 11.2622C6.28909 11.2622 5.99807 11.5532 5.99807 11.9122C5.99807 12.2712 6.28909 12.5622 6.64807 12.5622H7.34488C7.70386 12.5622 7.99488 12.2712 7.99488 11.9122C7.99488 11.5532 7.70386 11.2622 7.34488 11.2622H6.64807Z" fill="#7B7E86"/>
<path d="M9.33047 11.9122C9.33047 11.5532 9.62148 11.2622 9.98047 11.2622H10.6773C11.0363 11.2622 11.3273 11.5532 11.3273 11.9122C11.3273 12.2712 11.0363 12.5622 10.6773 12.5622H9.98047C9.62148 12.5622 9.33047 12.2712 9.33047 11.9122Z" fill="#7B7E86"/>
<path d="M13.3129 11.2622C12.9539 11.2622 12.6629 11.5532 12.6629 11.9122C12.6629 12.2712 12.9539 12.5622 13.3129 12.5622H14.0097C14.3687 12.5622 14.6597 12.2712 14.6597 11.9122C14.6597 11.5532 14.3687 11.2622 14.0097 11.2622H13.3129Z" fill="#7B7E86"/>
<path fill-rule="evenodd" clip-rule="evenodd" d="M3 8.60001C3 6.94316 4.34315 5.60001 6 5.60001H18C19.6569 5.60001 21 6.94315 21 8.60001V15.4C21 17.0569 19.6569 18.4 18 18.4H6C4.34315 18.4 3 17.0569 3 15.4V8.60001ZM6 6.90001H18C18.9389 6.90001 19.7 7.66112 19.7 8.60001V15.4C19.7 16.3389 18.9389 17.1 18 17.1H6C5.06112 17.1 4.3 16.3389 4.3 15.4V8.60001C4.3 7.66112 5.06112 6.90001 6 6.90001Z" fill="#7B7E86"/>
</svg>
