<svg width="24" height="24" viewBox="0 0 24 24" fill="none" xmlns="http://www.w3.org/2000/svg">
<path fill-rule="evenodd" clip-rule="evenodd" d="M6 5.60001C4.34315 5.60001 3 6.94316 3 8.60001V15.4C3 17.0569 4.34315 18.4 6 18.4H18C19.6569 18.4 21 17.0569 21 15.4V8.60001C21 6.94315 19.6569 5.60001 18 5.60001H6ZM6.003 9.00807C6.003 8.64908 6.29402 8.35807 6.653 8.35807H7.34981C7.70879 8.35807 7.99981 8.64908 7.99981 9.00807C7.99981 9.36705 7.70879 9.65807 7.34981 9.65807L6.653 9.65807C6.29402 9.65807 6.003 9.36705 6.003 9.00807ZM16.6502 8.35807C16.2912 8.35807 16.0002 8.64908 16.0002 9.00807C16.0002 9.36705 16.2912 9.65807 16.6502 9.65807L17.347 9.65807C17.706 9.65807 17.997 9.36705 17.997 9.00807C17.997 8.64908 17.706 8.35807 17.347 8.35807H16.6502ZM9.14771 14.3581C8.78872 14.3581 8.4977 14.6491 8.4977 15.0081C8.4977 15.3671 8.78872 15.6581 9.14771 15.6581H14.8523C15.2113 15.6581 15.5023 15.3671 15.5023 15.0081C15.5023 14.6491 15.2113 14.3581 14.8523 14.3581H9.14771ZM9.9854 8.35807C9.62641 8.35807 9.3354 8.64908 9.3354 9.00807C9.3354 9.36705 9.62641 9.65807 9.9854 9.65807L10.6822 9.65807C11.0412 9.65807 11.3322 9.36705 11.3322 9.00807C11.3322 8.64908 11.0412 8.35807 10.6822 8.35807H9.9854ZM12.6678 9.00807C12.6678 8.64908 12.9588 8.35807 13.3178 8.35807H14.0146C14.3736 8.35807 14.6646 8.64908 14.6646 9.00807C14.6646 9.36705 14.3736 9.65807 14.0146 9.65807L13.3178 9.65807C12.9588 9.65807 12.6678 9.36705 12.6678 9.00807ZM16.6452 11.2622C16.2863 11.2622 15.9952 11.5532 15.9952 11.9122C15.9952 12.2712 16.2863 12.5622 16.6452 12.5622H17.342C17.701 12.5622 17.992 12.2712 17.992 11.9122C17.992 11.5532 17.701 11.2622 17.342 11.2622H16.6452ZM5.99805 11.9122C5.99805 11.5532 6.28906 11.2622 6.64805 11.2622H7.34485C7.70384 11.2622 7.99485 11.5532 7.99485 11.9122C7.99485 12.2712 7.70384 12.5622 7.34485 12.5622H6.64805C6.28906 12.5622 5.99805 12.2712 5.99805 11.9122ZM9.98044 11.2622C9.62146 11.2622 9.33044 11.5532 9.33044 11.9122C9.33044 12.2712 9.62146 12.5622 9.98044 12.5622H10.6772C11.0362 12.5622 11.3272 12.2712 11.3272 11.9122C11.3272 11.5532 11.0362 11.2622 10.6772 11.2622H9.98044ZM12.6628 11.9122C12.6628 11.5532 12.9539 11.2622 13.3128 11.2622H14.0096C14.3686 11.2622 14.6596 11.5532 14.6596 11.9122C14.6596 12.2712 14.3686 12.5622 14.0096 12.5622H13.3128C12.9539 12.5622 12.6628 12.2712 12.6628 11.9122Z" fill="#7B7E86"/>
</svg>
