<svg width="24" height="24" viewBox="0 0 24 24" fill="none" xmlns="http://www.w3.org/2000/svg">
<path d="M12.0126 4.50317C14.0238 2.49197 17.2846 2.49196 19.2958 4.50317C21.307 6.51437 21.307 9.77517 19.2958 11.7864L16.9553 14.1269C16.7015 14.3807 16.2899 14.3807 16.0361 14.1269C15.7822 13.873 15.7822 13.4615 16.0361 13.2076L18.3766 10.8671C19.8801 9.36361 19.8801 6.92592 18.3766 5.4224C16.8731 3.91889 14.4354 3.91889 12.9319 5.42241L10.5914 7.76292C10.3375 8.01676 9.92597 8.01676 9.67213 7.76292C9.41829 7.50908 9.41829 7.09752 9.67213 6.84368L12.0126 4.50317Z" fill="#7B7E86"/>
<path d="M11.8626 19.2196C9.85142 21.2308 6.59061 21.2308 4.57941 19.2196C2.56821 17.2084 2.56821 13.9476 4.57941 11.9364L6.84369 9.67211C7.09753 9.41827 7.50909 9.41827 7.76293 9.67211C8.01677 9.92595 8.01677 10.3375 7.76293 10.5913L5.49865 12.8556C3.99513 14.3591 3.99513 16.7968 5.49865 18.3003C7.00217 19.8039 9.43986 19.8039 10.9434 18.3003L13.2077 16.0361C13.4615 15.7822 13.873 15.7822 14.1269 16.0361C14.3807 16.2899 14.3807 16.7015 14.1269 16.9553L11.8626 19.2196Z" fill="#7B7E86"/>
<path d="M14.4804 10.2378C14.7343 9.98395 14.7343 9.5724 14.4804 9.31856C14.2266 9.06472 13.815 9.06472 13.5612 9.31856L9.31856 13.5612C9.06472 13.815 9.06472 14.2266 9.31856 14.4804C9.5724 14.7343 9.98396 14.7343 10.2378 14.4804L14.4804 10.2378Z" fill="#7B7E86"/>
</svg>
