<svg width="24" height="24" viewBox="0 0 24 24" fill="none" xmlns="http://www.w3.org/2000/svg">
<path fill-rule="evenodd" clip-rule="evenodd" d="M12.0071 21C16.9777 21 21.0071 16.9706 21.0071 12C21.0071 7.02944 16.9777 3 12.0071 3C7.03658 3 3.00714 7.02944 3.00714 12C3.00714 16.9706 7.03658 21 12.0071 21ZM12.6571 15.6541C12.6571 15.2928 12.3661 15 12.0071 15C11.6481 15 11.3571 15.2928 11.3571 15.6541V17.8459C11.3571 18.2072 11.6481 18.5 12.0071 18.5C12.3661 18.5 12.6571 18.2072 12.6571 17.8459V15.6541ZM9 12C9 12.359 8.70715 12.65 8.34591 12.65H6.15409C5.79285 12.65 5.5 12.359 5.5 12C5.5 11.641 5.79285 11.35 6.15409 11.35H8.34591C8.70715 11.35 9 11.641 9 12ZM8.96373 9.87579C9.21917 10.1312 9.63202 10.1325 9.88586 9.87868C10.1397 9.62484 10.1384 9.21199 9.88297 8.95655L8.33311 7.4067C8.07768 7.15126 7.66483 7.14996 7.41098 7.40381C7.15714 7.65765 7.15844 8.0705 7.41388 8.32594L8.96373 9.87579ZM9.87867 14.1213C10.1325 14.3751 10.1312 14.788 9.87578 15.0434L8.32592 16.5933C8.07049 16.8487 7.65764 16.85 7.40379 16.5962C7.14995 16.3423 7.15125 15.9295 7.40669 15.674L8.95654 14.1242C9.21198 13.8688 9.62483 13.8675 9.87867 14.1213ZM12.6571 6.15409C12.6571 5.79285 12.3661 5.5 12.0071 5.5C11.6481 5.5 11.3571 5.79285 11.3571 6.15409V8.34591C11.3571 8.70716 11.6481 9 12.0071 9C12.3661 9 12.6571 8.70716 12.6571 8.34591V6.15409ZM18.5 12C18.5 12.359 18.2072 12.65 17.8459 12.65H15.6541C15.2928 12.65 15 12.359 15 12C15 11.641 15.2928 11.35 15.6541 11.35H17.8459C18.2072 11.35 18.5 11.641 18.5 12ZM15.6812 16.5933C15.9367 16.8487 16.3495 16.85 16.6034 16.5962C16.8572 16.3424 16.8559 15.9295 16.6005 15.6741L15.0506 14.1242C14.7952 13.8688 14.3823 13.8675 14.1285 14.1213C13.8746 14.3752 13.8759 14.788 14.1314 15.0434L15.6812 16.5933Z" fill="#7B7E86"/>
</svg>
