<svg width="24" height="24" viewBox="0 0 24 24" fill="none" xmlns="http://www.w3.org/2000/svg">
<path fill-rule="evenodd" clip-rule="evenodd" d="M12.6571 3.65C12.6571 3.29101 12.3661 3 12.0071 3C11.6481 3 11.3571 3.29101 11.3571 3.65V7.35C11.3571 7.70899 11.6481 8 12.0071 8C12.3661 8 12.6571 7.70899 12.6571 7.35L12.6571 3.65ZM8.2523 9.17161C8.50614 9.42545 8.91769 9.42545 9.17153 9.17161C9.42537 8.91777 9.42537 8.50621 9.17153 8.25237L6.55524 5.63607C6.3014 5.38223 5.88984 5.38223 5.636 5.63607C5.38216 5.88991 5.38216 6.30147 5.636 6.55531L8.2523 9.17161ZM8 12C8 12.359 7.70899 12.65 7.35 12.65L3.65 12.65C3.29101 12.65 3 12.359 3 12C3 11.641 3.29101 11.35 3.65 11.35H7.35C7.70899 11.35 8 11.641 8 12ZM12.0071 16C12.3661 16 12.6571 16.291 12.6571 16.65L12.6571 20.35C12.6571 20.709 12.3661 21 12.0071 21C11.6481 21 11.3571 20.709 11.3571 20.35V16.65C11.3571 16.291 11.6481 16 12.0071 16ZM9.17869 14.8285C9.43253 15.0823 9.43253 15.4939 9.17869 15.7477L6.56239 18.364C6.30855 18.6178 5.89699 18.6178 5.64315 18.364C5.38931 18.1102 5.38931 17.6986 5.64315 17.4448L8.25945 14.8285C8.51329 14.5746 8.92485 14.5746 9.17869 14.8285ZM21 12C21 12.359 20.709 12.65 20.35 12.65L16.65 12.65C16.291 12.65 16 12.359 16 12C16 11.641 16.291 11.35 16.65 11.35H20.35C20.709 11.35 21 11.641 21 12ZM17.4447 18.364C17.6985 18.6178 18.1101 18.6178 18.3639 18.364C18.6178 18.1101 18.6178 17.6986 18.3639 17.4447L15.7476 14.8285C15.4938 14.5746 15.0822 14.5746 14.8284 14.8285C14.5745 15.0823 14.5745 15.4939 14.8284 15.7477L17.4447 18.364Z" fill="#7B7E86"/>
</svg>
