<svg width="24" height="24" viewBox="0 0 24 24" fill="none" xmlns="http://www.w3.org/2000/svg">
<path fill-rule="evenodd" clip-rule="evenodd" d="M12.5999 2.58007C12.5999 2.22109 12.3089 1.93007 11.9499 1.93007C11.591 1.93007 11.2999 2.22109 11.2999 2.58007V4.62378C9.37162 4.88492 7.76721 6.29301 7.28994 8.22007L5.52498 15.2799H4.80004C4.44105 15.2799 4.15004 15.5709 4.15004 15.9299C4.15004 16.2889 4.44105 16.5799 4.80004 16.5799H19.1C19.459 16.5799 19.75 16.2889 19.75 15.9299C19.75 15.5709 19.459 15.2799 19.1 15.2799H18.3749L16.6099 8.22007C16.1327 6.29301 14.5283 4.88492 12.5999 4.62378V2.58007Z" fill="#7B7E86"/>
<path d="M9.98452 17.9503C9.62564 17.9588 9.34163 18.2567 9.35017 18.6156C9.38106 19.913 10.5236 20.8501 11.8 20.8501C13.0764 20.8501 14.2189 19.913 14.2498 18.6156C14.2584 18.2567 13.9743 17.9588 13.6155 17.9503C12.1113 17.9145 10.9357 17.9276 9.98452 17.9503Z" fill="#7B7E86"/>
</svg>
