<svg width="24" height="24" viewBox="0 0 24 24" fill="none" xmlns="http://www.w3.org/2000/svg">
<path d="M11.0496 15.6685C10.7796 15.9585 10.3196 15.9685 10.0396 15.6885L7.19956 12.8485C6.94956 12.5985 6.94956 12.1785 7.19956 11.9285C7.44956 11.6785 7.86956 11.6785 8.11956 11.9285L10.5196 14.3285L13.9172 10.6328C14.1826 10.3341 14.4782 10.0152 14.8043 9.67841L12.6707 9.67843C12.3105 9.70549 12.0089 9.42751 11.9819 9.06728C11.962 8.714 12.2328 8.40551 12.593 8.37844L16.3162 8.3035C16.733 8.27552 17.0779 8.60937 17.0634 9.02686L17.029 12.7653C17.0248 12.9422 16.9564 13.0847 16.8451 13.1997C16.7199 13.329 16.5514 13.4025 16.3604 13.3985C15.9995 13.3832 15.7188 13.0836 15.7272 12.7299L15.7432 10.5775C15.6658 10.6575 15.5896 10.7356 15.5147 10.8119C15.5009 10.8313 15.4858 10.8503 15.4696 10.8685L11.0496 15.6685Z" fill="#7B7E86"/>
<path fill-rule="evenodd" clip-rule="evenodd" d="M3 12C3 7.02944 7.02944 3 12 3C16.9706 3 21 7.02944 21 12C21 16.9706 16.9706 21 12 21C7.02944 21 3 16.9706 3 12ZM12 4.3C7.74741 4.3 4.3 7.74741 4.3 12C4.3 16.2526 7.74741 19.7 12 19.7C16.2526 19.7 19.7 16.2526 19.7 12C19.7 7.74741 16.2526 4.3 12 4.3Z" fill="#7B7E86"/>
</svg>
