<svg width="24" height="24" viewBox="0 0 24 24" fill="none" xmlns="http://www.w3.org/2000/svg">
<path d="M7.56455 7.96802C7.26364 5.32002 9.33495 3 12 3C14.665 3 16.7364 5.32002 16.4355 7.96803L16.1734 10.274C15.9322 12.3966 14.1362 14 12 14C9.86376 14 8.06779 12.3966 7.82659 10.274L7.56455 7.96802Z" fill="#7B7E86"/>
<path d="M11.1541 15C11.6691 15 12.0139 15.5434 11.8848 16.042C11.7642 16.5078 11.7 16.9964 11.7 17.5C11.7 18.3115 11.8667 19.0841 12.1676 19.7854C12.3958 20.317 12.0443 21 11.4658 21H4.87263C4.42481 21 4.09215 20.5853 4.1893 20.1481L4.28924 19.6984C4.89929 16.9532 7.33417 15 10.1464 15H11.1541Z" fill="#7B7E86"/>
<path fill-rule="evenodd" clip-rule="evenodd" d="M16.0375 13.7656C16.1017 13.3267 16.4971 13 16.9639 13H17.9726C18.4338 13 18.8262 13.3191 18.8969 13.7516C18.9883 14.3109 19.6165 14.6467 20.1767 14.4308C20.6093 14.2642 21.1051 14.4257 21.3386 14.8094L21.8429 15.6384C22.0735 16.0174 21.9785 16.4994 21.6192 16.7738C21.1545 17.1286 21.1621 17.8128 21.6392 18.1653C22.0076 18.4374 22.1081 18.9257 21.8746 19.3094L21.3703 20.1384C21.1397 20.5174 20.6524 20.6804 20.2223 20.5222C19.6375 20.3071 18.993 20.6603 18.8969 21.2484C18.8262 21.681 18.4338 22 17.9726 22H16.9639C16.4971 22 16.1017 21.6733 16.0375 21.2344C15.9544 20.6661 15.3338 20.3177 14.7777 20.5222C14.3476 20.6804 13.8603 20.5174 13.6297 20.1384L13.1254 19.3094C12.8919 18.9257 12.9924 18.4374 13.3608 18.1653C13.8379 17.8128 13.8455 17.1286 13.3808 16.7738C13.0215 16.4994 12.9265 16.0174 13.1571 15.6384L13.6614 14.8094C13.8949 14.4257 14.3907 14.2642 14.8233 14.4308C15.3598 14.6375 15.9579 14.3098 16.0375 13.7656ZM17.5 19C18.3284 19 19 18.3284 19 17.5C19 16.6716 18.3284 16 17.5 16C16.6716 16 16 16.6716 16 17.5C16 18.3284 16.6716 19 17.5 19Z" fill="#7B7E86"/>
</svg>
