<svg width="24" height="24" viewBox="0 0 24 24" fill="none" xmlns="http://www.w3.org/2000/svg">
<path fill-rule="evenodd" clip-rule="evenodd" d="M7.56455 7.96802C7.26364 5.32002 9.33495 3 12 3C14.665 3 16.7364 5.32002 16.4355 7.96803L16.1734 10.274C15.9322 12.3966 14.1362 14 12 14C9.86376 14 8.06779 12.3966 7.82659 10.274L7.56455 7.96802Z" fill="#7B7E86"/>
<path fill-rule="evenodd" clip-rule="evenodd" d="M4.28924 19.6984C4.89929 16.9532 7.33417 15 10.1464 15H13.8536C16.6658 15 19.1007 16.9532 19.7108 19.6984L19.8107 20.1481C19.9078 20.5853 19.5752 21 19.1274 21H4.87263C4.42481 21 4.09215 20.5853 4.1893 20.1481L4.28924 19.6984Z" fill="#7B7E86"/>
</svg>
