<svg width="24" height="24" viewBox="0 0 24 24" fill="none" xmlns="http://www.w3.org/2000/svg">
<path fill-rule="evenodd" clip-rule="evenodd" d="M7.56455 7.96802C7.26364 5.32002 9.33495 3 12 3C14.665 3 16.7364 5.32002 16.4355 7.96803L16.1734 10.274C15.9322 12.3966 14.1362 14 12 14C9.86376 14 8.06779 12.3966 7.82659 10.274L7.56455 7.96802ZM15.1438 7.82124L14.8817 10.1272C14.7152 11.5928 13.4751 12.7 12 12.7C10.5249 12.7 9.28483 11.5928 9.11828 10.1272L8.85624 7.82124C8.64296 5.94439 10.1111 4.3 12 4.3C13.8889 4.3 15.357 5.94439 15.1438 7.82124Z" fill="#7B7E86"/>
<path fill-rule="evenodd" clip-rule="evenodd" d="M4.28924 19.6984C4.89929 16.9532 7.33417 15 10.1464 15H13.8536C16.6658 15 19.1007 16.9532 19.7108 19.6984L19.8107 20.1481C19.9078 20.5853 19.5752 21 19.1274 21H4.87263C4.42481 21 4.09215 20.5853 4.1893 20.1481L4.28924 19.6984ZM13.8536 16.3C15.9595 16.3 17.7953 17.6982 18.3704 19.7H5.62964C6.20473 17.6982 8.0405 16.3 10.1464 16.3H13.8536Z" fill="#7B7E86"/>
</svg>
