<svg width="24" height="24" viewBox="0 0 24 24" fill="none" xmlns="http://www.w3.org/2000/svg">
<path fill-rule="evenodd" clip-rule="evenodd" d="M12 3C9.33495 3 7.26364 5.32002 7.56455 7.96802L7.82659 10.274C8.06779 12.3966 9.86376 14 12 14C14.1362 14 15.9322 12.3966 16.1734 10.274L16.4355 7.96803C16.7364 5.32002 14.665 3 12 3ZM14.8817 10.1272L15.1438 7.82124C15.357 5.94439 13.8889 4.3 12 4.3C10.1111 4.3 8.64296 5.94439 8.85624 7.82124L9.11828 10.1272C9.28483 11.5928 10.5249 12.7 12 12.7C13.4751 12.7 14.7152 11.5928 14.8817 10.1272Z" fill="#7B7E86"/>
<path d="M10.1464 15C7.33417 15 4.89929 16.9532 4.28924 19.6984L4.1893 20.1481C4.09215 20.5853 4.42481 21 4.87263 21H12.6571C13.0161 21 13.3071 20.709 13.3071 20.35C13.3071 19.991 13.0161 19.7 12.6571 19.7H5.62964C6.20473 17.6982 8.0405 16.3 10.1464 16.3H12.6571C13.016 16.3 13.3071 16.009 13.3071 15.65C13.3071 15.291 13.0161 15 12.6571 15H10.1464Z" fill="#7B7E86"/>
<path d="M17.5 14.853C17.859 14.853 18.15 15.144 18.15 15.503V17.353H20C20.359 17.353 20.65 17.644 20.65 18.003C20.65 18.362 20.359 18.653 20 18.653H18.15V20.503C18.15 20.8619 17.859 21.153 17.5 21.153C17.141 21.153 16.85 20.8619 16.85 20.503V18.653H15C14.641 18.653 14.35 18.362 14.35 18.003C14.35 17.644 14.641 17.353 15 17.353H16.85V15.503C16.85 15.144 17.141 14.853 17.5 14.853Z" fill="#7B7E86"/>
</svg>
