<svg width="24" height="24" viewBox="0 0 24 24" fill="none" xmlns="http://www.w3.org/2000/svg">
<path d="M12 3C9.33495 3 7.26364 5.32002 7.56455 7.96802L7.82659 10.274C8.06779 12.3966 9.86376 14 12 14C14.1362 14 15.9322 12.3966 16.1734 10.274L16.4355 7.96803C16.7364 5.32002 14.665 3 12 3Z" fill="#7B7E86"/>
<path d="M11.8848 16.042C12.0139 15.5434 11.6691 15 11.1541 15H10.1464C7.33417 15 4.89929 16.9532 4.28924 19.6984L4.1893 20.1481C4.09215 20.5853 4.42481 21 4.87263 21H11.4658C12.0443 21 12.3958 20.317 12.1676 19.7854C11.8667 19.0841 11.7 18.3115 11.7 17.5C11.7 16.9964 11.7642 16.5078 11.8848 16.042Z" fill="#7B7E86"/>
<path fill-rule="evenodd" clip-rule="evenodd" d="M22 17.5C22 15.0147 19.9853 13 17.5 13C15.0147 13 13 15.0147 13 17.5C13 19.9853 15.0147 22 17.5 22C19.9853 22 22 19.9853 22 17.5ZM14.843 17.5C14.843 17.141 15.134 16.85 15.493 16.85L16.85 16.85V15.6284C16.85 15.2694 17.141 14.9784 17.5 14.9784C17.859 14.9784 18.15 15.2694 18.15 15.6284L18.15 16.85H19.507C19.866 16.85 20.157 17.141 20.157 17.5C20.157 17.859 19.866 18.15 19.507 18.15H18.15L18.15 19.3716C18.15 19.7306 17.859 20.0216 17.5 20.0216C17.141 20.0216 16.85 19.7306 16.85 19.3716V18.15L15.493 18.15C15.134 18.15 14.843 17.859 14.843 17.5Z" fill="#7B7E86"/>
</svg>
