<svg width="24" height="24" viewBox="0 0 24 24" fill="none" xmlns="http://www.w3.org/2000/svg">
<path d="M12.65 4.63282C12.65 4.27383 12.359 3.98282 12 3.98282C11.641 3.98282 11.35 4.27383 11.35 4.63282L11.35 10.34C11.35 10.699 11.641 10.99 12 10.99C12.359 10.99 12.65 10.699 12.65 10.34L12.65 4.63282Z" fill="#7B7E86"/>
<path d="M8.62519 5.30037C9.0419 5.09005 9.50415 5.41468 9.50415 5.88146C9.50415 6.1497 9.34401 6.38966 9.10686 6.515C7.1402 7.5545 5.8 9.62074 5.8 12C5.8 15.4242 8.57583 18.2 12 18.2C15.4242 18.2 18.2 15.4242 18.2 12C18.2 9.6538 16.8968 7.61198 14.9748 6.55893C14.7425 6.4317 14.5867 6.19405 14.5867 5.92927C14.5867 5.45789 15.0565 5.13277 15.4741 5.35143C17.8671 6.60443 19.5 9.11153 19.5 12C19.5 16.1421 16.1421 19.5 12 19.5C7.85786 19.5 4.5 16.1421 4.5 12C4.5 9.07175 6.17815 6.53545 8.62519 5.30037Z" fill="#7B7E86"/>
</svg>
