<svg width="24" height="24" viewBox="0 0 24 24" fill="none" xmlns="http://www.w3.org/2000/svg">
<path fill-rule="evenodd" clip-rule="evenodd" d="M14.7 3H9.29998C8.58201 3 7.99998 3.58203 7.99998 4.3L7.99997 5.99574C7.99997 6.38234 8.31337 6.69574 8.69997 6.69574H15.3C15.6866 6.69574 16 6.38234 16 5.99575L16 4.3C16 3.58203 15.418 3 14.7 3ZM21 15C21 16.6569 19.6569 18 18 18H17.5V13.8C17.5 13.082 16.918 12.5 16.2 12.5L7.8 12.5C7.08203 12.5 6.5 13.082 6.5 13.8V18H6C4.34315 18 3 16.6569 3 15V11C3 9.34315 4.34315 8 6 8H18C19.6569 8 21 9.34315 21 11V15ZM18.4858 11.6691C19.0381 11.6691 19.4858 11.2214 19.4858 10.6691C19.4858 10.1168 19.0381 9.66907 18.4858 9.66907C17.9335 9.66907 17.4858 10.1168 17.4858 10.6691C17.4858 11.2214 17.9335 11.6691 18.4858 11.6691ZM14.7 21C15.418 21 16 20.418 16 19.7L16 14.7C16 14.3134 15.6866 14 15.3 14L8.7 14C8.3134 14 8 14.3134 8 14.7L8 19.7C8 20.418 8.58203 21 9.3 21L14.7 21Z" fill="#7B7E86"/>
</svg>
