<svg width="24" height="24" viewBox="0 0 24 24" fill="none" xmlns="http://www.w3.org/2000/svg">
<path d="M7.23323 7.22436L9.94943 7.22436L9.94943 9.94057L7.23323 9.94057L7.23323 7.22436Z" fill="#7B7E86"/>
<path d="M7.23323 14.0595L9.94943 14.0595L9.94943 16.7757L7.23323 16.7757L7.23323 14.0595Z" fill="#7B7E86"/>
<path d="M14.0682 7.22436L16.7844 7.22436V9.94057L14.0682 9.94057L14.0682 7.22436Z" fill="#7B7E86"/>
<path fill-rule="evenodd" clip-rule="evenodd" d="M19.0504 1.99988H5.05042C3.39356 1.99988 2.05042 3.34302 2.05042 4.99988V18.9999C2.05042 20.6567 3.39356 21.9999 5.05041 21.9999H19.0504C20.7073 21.9999 22.0504 20.6567 22.0504 18.9999V4.99988C22.0504 3.34302 20.7073 1.99988 19.0504 1.99988ZM5.93323 7.22436C5.93323 6.50639 6.51526 5.92436 7.23323 5.92436H9.94943C10.6674 5.92436 11.2494 6.50639 11.2494 7.22436V9.94057C11.2494 10.6585 10.6674 11.2406 9.94943 11.2406H7.23323C6.51526 11.2406 5.93323 10.6585 5.93323 9.94057V7.22436ZM5.93323 14.0595C5.93323 13.3415 6.51526 12.7595 7.23323 12.7595H9.94943C10.6674 12.7595 11.2494 13.3415 11.2494 14.0595V16.7757C11.2494 17.4937 10.6674 18.0757 9.94943 18.0757H7.23323C6.51526 18.0757 5.93323 17.4937 5.93323 16.7757V14.0595ZM14.5853 18.2789H16.7846C17.5026 18.2789 18.0846 17.6969 18.0846 16.9789V14.6064C18.0846 14.2474 17.7936 13.9564 17.4346 13.9564C17.0756 13.9564 16.7846 14.2474 16.7846 14.6064V16.9789H14.5853C14.2263 16.9789 13.9353 17.2699 13.9353 17.6289C13.9353 17.9879 14.2263 18.2789 14.5853 18.2789ZM12.7682 7.22436C12.7682 6.50639 13.3502 5.92436 14.0682 5.92436H16.7844C17.5024 5.92436 18.0844 6.50639 18.0844 7.22436V9.94057C18.0844 10.6585 17.5024 11.2406 16.7844 11.2406H14.0682C13.3502 11.2406 12.7682 10.6585 12.7682 9.94057V7.22436ZM14.068 13.3669C14.068 13.0079 13.777 12.7169 13.418 12.7169C13.059 12.7169 12.768 13.0079 12.768 13.3669V14.3459C12.768 14.7049 13.059 14.9959 13.418 14.9959C13.777 14.9959 14.068 14.7049 14.068 14.3459V13.3669Z" fill="#7B7E86"/>
</svg>
