<svg width="25" height="24" viewBox="0 0 25 24" fill="none" xmlns="http://www.w3.org/2000/svg">
<path d="M5.00891 2H5.80819C6.16717 2 6.45819 2.29101 6.45819 2.65C6.45819 3.00898 6.16717 3.3 5.80819 3.3H5.00891C4.07003 3.3 3.30891 4.06112 3.30891 5V5.69097C3.30891 6.04996 3.0179 6.34097 2.65891 6.34097C2.29993 6.34097 2.00891 6.04996 2.00891 5.69097V5C2.00891 3.34315 3.35206 2 5.00891 2Z" fill="#7B7E86"/>
<path d="M2.65891 17.6589C2.29993 17.6589 2.00891 17.9499 2.00891 18.3089V19C2.00891 20.6569 3.35206 22 5.00891 22H5.80819C6.16717 22 6.45819 21.709 6.45819 21.35C6.45819 20.991 6.16717 20.7 5.80819 20.7H5.00891C4.07003 20.7 3.30891 19.9389 3.30891 19V18.3089C3.30891 17.9499 3.0179 17.6589 2.65891 17.6589Z" fill="#7B7E86"/>
<path d="M21.3589 17.6589C20.9999 17.6589 20.7089 17.9499 20.7089 18.3089V19C20.7089 19.9389 19.9478 20.7 19.0089 20.7H18.4261C18.0671 20.7 17.7761 20.991 17.7761 21.35C17.7761 21.709 18.0671 22 18.4261 22H19.0089C20.6658 22 22.0089 20.6569 22.0089 19V18.3089C22.0089 17.9499 21.7179 17.6589 21.3589 17.6589Z" fill="#7B7E86"/>
<path d="M21.3589 6.34097C21.7179 6.34097 22.0089 6.04996 22.0089 5.69097V5C22.0089 3.34315 20.6658 2 19.0089 2H18.4261C18.0671 2 17.7761 2.29101 17.7761 2.65C17.7761 3.00898 18.0671 3.3 18.4261 3.3H19.0089C19.9478 3.3 20.7089 4.06112 20.7089 5V5.69097C20.7089 6.04996 20.9999 6.34097 21.3589 6.34097Z" fill="#7B7E86"/>
<path fill-rule="evenodd" clip-rule="evenodd" d="M5.93323 7.22435C5.93323 6.50638 6.51526 5.92435 7.23323 5.92435H9.94943C10.6674 5.92435 11.2494 6.50638 11.2494 7.22435V9.94055C11.2494 10.6585 10.6674 11.2406 9.94943 11.2406H7.23323C6.51526 11.2406 5.93323 10.6585 5.93323 9.94055V7.22435ZM7.23323 7.22435L9.94943 7.22435L9.94943 9.94055L7.23323 9.94055L7.23323 7.22435Z" fill="#7B7E86"/>
<path fill-rule="evenodd" clip-rule="evenodd" d="M5.93323 14.0595C5.93323 13.3415 6.51526 12.7595 7.23323 12.7595H9.94943C10.6674 12.7595 11.2494 13.3415 11.2494 14.0595V16.7757C11.2494 17.4936 10.6674 18.0757 9.94943 18.0757H7.23323C6.51526 18.0757 5.93323 17.4936 5.93323 16.7757V14.0595ZM7.23323 14.0595L9.94943 14.0595L9.94943 16.7757L7.23323 16.7757L7.23323 14.0595Z" fill="#7B7E86"/>
<path d="M16.7846 18.2789H14.5853C14.2263 18.2789 13.9353 17.9879 13.9353 17.6289C13.9353 17.2699 14.2263 16.9789 14.5853 16.9789H16.7846L16.7846 14.6063C16.7846 14.2474 17.0756 13.9563 17.4346 13.9563C17.7936 13.9563 18.0846 14.2474 18.0846 14.6063V16.9789C18.0846 17.6969 17.5026 18.2789 16.7846 18.2789Z" fill="#7B7E86"/>
<path fill-rule="evenodd" clip-rule="evenodd" d="M12.7682 7.22435C12.7682 6.50638 13.3502 5.92435 14.0682 5.92435H16.7844C17.5024 5.92435 18.0844 6.50638 18.0844 7.22435V9.94055C18.0844 10.6585 17.5024 11.2406 16.7844 11.2406H14.0682C13.3502 11.2406 12.7682 10.6585 12.7682 9.94055V7.22435ZM14.0682 7.22435L16.7844 7.22435L16.7844 9.94055L14.0682 9.94055L14.0682 7.22435Z" fill="#7B7E86"/>
<path d="M13.418 12.7169C13.777 12.7169 14.068 13.0079 14.068 13.3669V14.3459C14.068 14.7049 13.777 14.9959 13.418 14.9959C13.059 14.9959 12.768 14.7049 12.768 14.3459V13.3669C12.768 13.0079 13.059 12.7169 13.418 12.7169Z" fill="#7B7E86"/>
</svg>
