<svg width="24" height="24" viewBox="0 0 24 24" fill="none" xmlns="http://www.w3.org/2000/svg">
<path fill-rule="evenodd" clip-rule="evenodd" d="M3 12C3 7.02944 7.02944 3 12 3C16.9706 3 21 7.02944 21 12C21 16.9706 16.9706 21 12 21C7.02944 21 3 16.9706 3 12ZM11.9965 7.9C11.3786 7.9 10.7968 8.03766 10.2734 8.27814C9.94717 8.42801 9.56124 8.28507 9.41137 7.95886C9.2615 7.63266 9.40445 7.24672 9.73065 7.09685C10.4164 6.78178 11.1828 6.6 11.9965 6.6C14.9744 6.6 17.4 9.01495 17.4 12C17.4 14.9844 14.982 17.4 11.9965 17.4C9.12588 17.4 6.78907 15.1613 6.61092 12.346L5.97 13C5.72 13.26 5.31 13.28 5.05 13.03C4.79 12.78 4.77 12.37 5.02 12.11L6.83671 10.225C7.11671 9.925 7.58671 9.925 7.85671 10.225L9.5 12.08C9.75 12.34 9.73 12.75 9.47 13C9.36 13.13 9.21 13.18 9.05 13.18C8.88 13.18 8.7 13.11 8.57 12.97L7.90535 12.2113C8.01516 14.374 9.80105 16.1 11.9965 16.1C14.2649 16.1 16.1 14.2656 16.1 12C16.1 9.73505 14.2586 7.9 11.9965 7.9Z" fill="#7B7E86"/>
</svg>
