<svg width="24" height="24" viewBox="0 0 24 24" fill="none" xmlns="http://www.w3.org/2000/svg">
<path d="M10.2215 6.38057C11.0103 6.0179 11.888 5.80999 12.82 5.80999C16.2316 5.80999 19.01 8.5796 19.01 12C19.01 15.421 16.241 18.19 12.82 18.19C9.40085 18.19 6.64001 15.4129 6.64001 12C6.64001 11.8907 6.64282 11.782 6.64843 11.674L7.74 12.84C7.87 12.98 8.05 13.05 8.22 13.05C8.38 13.05 8.53 13 8.64 12.87C8.9 12.62 8.92 12.21 8.67 11.95L6.48 9.59999C6.21 9.29999 5.74 9.29999 5.46 9.59999L3.27 11.95C3.02 12.21 3.04 12.62 3.3 12.87C3.56 13.12 3.97 13.1 4.22 12.84L5.34879 11.6342C5.34293 11.7557 5.34001 11.8777 5.34001 12C5.34001 16.1271 8.67916 19.49 12.82 19.49C16.959 19.49 20.31 16.139 20.31 12C20.31 7.86039 16.9484 4.50999 12.82 4.50999C11.692 4.50999 10.6297 4.76208 9.67848 5.19942C9.35232 5.34938 9.20948 5.73536 9.35944 6.06152C9.5094 6.38768 9.89537 6.53052 10.2215 6.38057Z" fill="#7B7E86"/>
</svg>
