<svg width="24" height="24" viewBox="0 0 24 24" fill="none" xmlns="http://www.w3.org/2000/svg">
<path d="M12 16.7C13.0635 16.7 14.0445 16.3468 14.832 15.7513L8.24873 9.16796C7.65321 9.95554 7.3 10.9365 7.3 12C7.3 14.5957 9.40426 16.7 12 16.7Z" fill="#7B7E86"/>
<path d="M9.16796 8.24873L15.7513 14.832C16.3468 14.0445 16.7 13.0635 16.7 12C16.7 9.40426 14.5957 7.3 12 7.3C10.9365 7.3 9.95554 7.65321 9.16796 8.24873Z" fill="#7B7E86"/>
<path fill-rule="evenodd" clip-rule="evenodd" d="M12 21C16.9706 21 21 16.9706 21 12C21 7.02944 16.9706 3 12 3C7.02944 3 3 7.02944 3 12C3 16.9706 7.02944 21 12 21ZM12 18C15.3137 18 18 15.3137 18 12C18 8.68629 15.3137 6 12 6C8.68629 6 6 8.68629 6 12C6 15.3137 8.68629 18 12 18Z" fill="#7B7E86"/>
</svg>
