<svg width="24" height="24" viewBox="0 0 24 24" fill="none" xmlns="http://www.w3.org/2000/svg">
<path fill-rule="evenodd" clip-rule="evenodd" d="M7.77672 20H17C18.6569 20 20 18.6569 20 17V10.2426C20 9.44699 19.6839 8.68393 19.1213 8.12132L15.8787 4.87868C15.3161 4.31607 14.553 4 13.7574 4H6.99273C5.33922 4.00392 4 5.34557 4 7V17C4 18.6569 5.34315 20 7 20H7.53188C7.57152 20.0076 7.61245 20.0115 7.6543 20.0115C7.69615 20.0115 7.73707 20.0076 7.77672 20ZM17.0103 18.7V13.7C17.0103 12.9544 16.4059 12.35 15.6603 12.35L8.35429 12.35C7.60871 12.35 7.0043 12.9545 7.0043 13.7V18.7H7C6.06112 18.7 5.3 17.9389 5.3 17V7C5.3 6.06354 6.05719 5.30393 6.99273 5.30002V8.29998C6.99273 9.04556 7.59715 9.64998 8.34273 9.64998H12.6483C13.3939 9.64998 13.9983 9.04556 13.9983 8.29998V5.31716C14.3601 5.36896 14.698 5.53646 14.9594 5.79792L18.2021 9.04056C18.5209 9.35937 18.7 9.79177 18.7 10.2426V17C18.7 17.9354 17.9445 18.6944 17.0103 18.7ZM15.7103 18.7V13.7C15.7103 13.6724 15.688 13.65 15.6603 13.65L8.3543 13.65C8.32668 13.65 8.3043 13.6724 8.3043 13.7V18.7H15.7103ZM12.6983 8.29998V5.3H8.29273V8.29998C8.29273 8.32759 8.31512 8.34998 8.34273 8.34998H12.6483C12.6759 8.34998 12.6983 8.32759 12.6983 8.29998Z" fill="#7B7E86"/>
</svg>
