<svg width="24" height="24" viewBox="0 0 24 24" fill="none" xmlns="http://www.w3.org/2000/svg">
<path fill-rule="evenodd" clip-rule="evenodd" d="M7 4C5.34315 4 4 5.34315 4 7V17C4 18.6569 5.34315 20 7 20H17C18.6569 20 20 18.6569 20 17V10.2426C20 9.44699 19.6839 8.68393 19.1213 8.12132L15.8787 4.87868C15.3161 4.31607 14.553 4 13.7574 4H7ZM7.28906 6.00981C7.28906 5.62322 7.60246 5.30981 7.98906 5.30981H12.646C13.0326 5.30981 13.346 5.62322 13.346 6.00981V8.64763C13.346 9.03423 13.0326 9.34763 12.646 9.34763H7.98906C7.60246 9.34763 7.28906 9.03423 7.28906 8.64763V6.00981ZM7.3125 13.3484C7.3125 12.9618 7.6259 12.6484 8.0125 12.6484H15.0109C15.3975 12.6484 15.7109 12.9618 15.7109 13.3484V17.998C15.7109 18.3846 15.3975 18.698 15.0109 18.698H8.0125C7.6259 18.698 7.3125 18.3846 7.3125 17.998V13.3484Z" fill="#7B7E86"/>
</svg>
