<svg width="24" height="24" viewBox="0 0 24 24" fill="none" xmlns="http://www.w3.org/2000/svg">
<path d="M11.5 8.3C9.73011 8.3 8.3 9.73011 8.3 11.5C8.3 13.2699 9.73011 14.7 11.5 14.7C13.2699 14.7 14.7 13.2699 14.7 11.5C14.7 9.73011 13.2699 8.3 11.5 8.3Z" fill="#7B7E86"/>
<path fill-rule="evenodd" clip-rule="evenodd" d="M3 12C3 7.02944 7.02944 3 12 3C16.9706 3 21 7.02944 21 12C21 16.9706 16.9706 21 12 21C7.02944 21 3 16.9706 3 12ZM7 11.5C7 9.01214 9.01214 7 11.5 7C13.9879 7 16 9.01214 16 11.5C16 12.5092 15.6689 13.44 15.1093 14.1901L16.9596 16.0404C17.2135 16.2942 17.2135 16.7058 16.9596 16.9596C16.7058 17.2135 16.2942 17.2135 16.0404 16.9596L14.1901 15.1093C13.44 15.6689 12.5092 16 11.5 16C9.01214 16 7 13.9879 7 11.5Z" fill="#7B7E86"/>
</svg>
