<svg width="24" height="24" viewBox="0 0 24 24" fill="none" xmlns="http://www.w3.org/2000/svg">
<path fill-rule="evenodd" clip-rule="evenodd" d="M16 12C16 14.2091 14.2091 16 12 16C9.79086 16 8 14.2091 8 12C8 9.79086 9.79086 8 12 8C14.2091 8 16 9.79086 16 12ZM14.7 12C14.7 13.4912 13.4912 14.7 12 14.7C10.5088 14.7 9.3 13.4912 9.3 12C9.3 10.5088 10.5088 9.3 12 9.3C13.4912 9.3 14.7 10.5088 14.7 12Z" fill="#7B7E86"/>
<path fill-rule="evenodd" clip-rule="evenodd" d="M10.9831 3.00493C10.0973 3.00493 9.34727 3.65808 9.2255 4.53538C9.07449 5.62338 7.93977 6.27851 6.92203 5.86529C6.10137 5.5321 5.16069 5.8551 4.71784 6.62215L3.7611 8.27927C3.32362 9.03701 3.50379 10.0006 4.18553 10.549C5.06713 11.2583 5.05262 12.626 4.14753 13.3307C3.44864 13.8748 3.25803 14.851 3.70089 15.618L4.65763 17.2751C5.09511 18.0329 6.01965 18.3586 6.83549 18.0424C7.89052 17.6336 9.0678 18.33 9.2255 19.4662C9.34727 20.3435 10.0973 20.9966 10.9831 20.9966H12.8965C13.7715 20.9966 14.5159 20.3588 14.65 19.4942C14.8323 18.3184 16.0551 17.6125 17.1645 18.0424C17.9804 18.3586 18.9049 18.0329 19.3424 17.2751L20.2991 15.618C20.742 14.851 20.5514 13.8748 19.8525 13.3307C18.9474 12.626 18.9329 11.2583 19.8145 10.549C20.4962 10.0006 20.6764 9.03701 20.2389 8.27927L19.2822 6.62215C18.8393 5.8551 17.8986 5.5321 17.078 5.86529C16.0152 6.2968 14.8234 5.62548 14.65 4.50737C14.5159 3.64274 13.7715 3.00493 12.8965 3.00493H10.9831ZM10.5132 4.71411C10.5457 4.47955 10.7463 4.30493 10.9831 4.30493L12.8965 4.30493C13.1305 4.30493 13.3295 4.47545 13.3653 4.70662C13.6697 6.66886 15.7416 7.81094 17.567 7.0698C17.7864 6.98072 18.0379 7.06707 18.1563 7.27215L19.1131 8.92927C19.23 9.13186 19.1819 9.38947 18.9996 9.5361C17.4524 10.7808 17.4993 13.1462 19.0539 14.3565C19.2407 14.5019 19.2917 14.7629 19.1733 14.968L18.2165 16.6251C18.0996 16.8277 17.8524 16.9148 17.6343 16.8303C15.7507 16.1003 13.6749 17.2988 13.3653 19.2949C13.3295 19.5261 13.1305 19.6966 12.8965 19.6966H10.9831C10.7463 19.6966 10.5457 19.522 10.5132 19.2875C10.2423 17.336 8.21726 16.1127 6.36573 16.8303C6.14761 16.9148 5.90042 16.8277 5.78346 16.6251L4.82672 14.968C4.70832 14.7629 4.75928 14.5019 4.94614 14.3565C6.50069 13.1462 6.54758 10.7808 5.00041 9.5361C4.81814 9.38947 4.76997 9.13186 4.88693 8.92927L5.84367 7.27215C5.96207 7.06707 6.21357 6.98072 6.43298 7.0698C8.23572 7.80174 10.2457 6.6413 10.5132 4.71411Z" fill="#7B7E86"/>
</svg>
