<svg width="24" height="24" viewBox="0 0 24 24" fill="none" xmlns="http://www.w3.org/2000/svg">
<path fill-rule="evenodd" clip-rule="evenodd" d="M3 12C3 16.9706 7.02944 21 12 21C16.9706 21 21 16.9706 21 12C21 7.02945 16.9706 3.00001 12 3.00001C7.02944 3.00001 3 7.02944 3 12ZM13.6433 8.82219C13.5133 8.68219 13.3433 8.6122 13.1633 8.6122C13.0033 8.6122 12.8533 8.66219 12.7233 8.78219L9.73354 11.47C9.42354 11.75 9.42354 12.23 9.73354 12.51L12.7191 15.1063C12.9891 15.3463 13.3991 15.3263 13.6391 15.0663C13.8791 14.7963 13.8691 14.3863 13.5991 14.1463L11.1035 11.99L13.6033 9.74219C13.8633 9.50219 13.8833 9.09219 13.6433 8.82219Z" fill="#7B7E86"/>
</svg>
