<svg width="24" height="24" viewBox="0 0 24 24" fill="none" xmlns="http://www.w3.org/2000/svg">
<path fill-rule="evenodd" clip-rule="evenodd" d="M12 3.00001C7.02944 3.00001 3 7.02944 3 12C3 16.9706 7.02944 21 12 21C16.9706 21 21 16.9706 21 12C21 7.02945 16.9706 3.00001 12 3.00001ZM15.1778 13.6433C15.3178 13.5133 15.3878 13.3433 15.3878 13.1633C15.3878 13.0033 15.3378 12.8533 15.2178 12.7233L12.53 9.73355C12.25 9.42355 11.77 9.42355 11.49 9.73355L8.89368 12.7192C8.65368 12.9892 8.67368 13.3991 8.93368 13.6391C9.20368 13.8791 9.61368 13.8692 9.85368 13.5991L12.01 11.1035L14.2578 13.6033C14.4978 13.8633 14.9078 13.8833 15.1778 13.6433Z" fill="#7B7E86"/>
</svg>
