<svg width="24" height="24" viewBox="0 0 24 24" fill="none" xmlns="http://www.w3.org/2000/svg">
<path d="M12 4.97L13.92 8.87L14.22 9.48L14.9 9.58L19.2 10.21L16.09 13.25L15.6 13.73L15.72 14.4L16.46 18.69L12.61 16.67L12 16.34L11.4 16.66L7.55001 18.68L8.29001 14.39L8.41001 13.72L7.92001 13.24L4.81001 10.2L9.11001 9.57L9.79001 9.47L10.09 8.86L12 4.97ZM12 2.92C11.75 2.92 11.5 3.05 11.37 3.31L8.91001 8.3L3.40001 9.1C2.83001 9.18 2.60001 9.89 3.01001 10.29L7.00001 14.17L6.06001 19.65C5.98001 20.1 6.34001 20.47 6.75001 20.47C6.86001 20.47 6.97001 20.44 7.08001 20.39L12 17.81L16.92 20.4C17.03 20.46 17.14 20.48 17.25 20.48C17.66 20.48 18.02 20.11 17.94 19.66L17 14.17L20.98 10.29C21.4 9.89 21.17 9.18 20.59 9.1L15.08 8.3L12.62 3.31C12.5 3.05 12.25 2.92 12 2.92Z" fill="#7B7E86"/>
</svg>
