<svg width="24" height="24" viewBox="0 0 24 24" fill="none" xmlns="http://www.w3.org/2000/svg">
<path d="M12 3C14.6651 3 16.7364 5.32002 16.4355 7.96802L16.1734 10.274C15.9322 12.3966 14.1363 14 12 14C9.86377 14 8.06781 12.3966 7.8266 10.274L7.56456 7.96803C7.26365 5.32002 9.33497 3 12 3Z" fill="#7B7E86"/>
<path d="M12.1152 16.042C11.9861 15.5434 12.3309 15 12.8459 15H13.8537C16.6658 15 19.1007 16.9532 19.7108 19.6984L19.8107 20.1481C19.9079 20.5853 19.5752 21 19.1274 21H12.5342C11.9557 21 11.6042 20.317 11.8324 19.7854C12.1333 19.0841 12.3 18.3115 12.3 17.5C12.3 16.9964 12.2358 16.5078 12.1152 16.042Z" fill="#7B7E86"/>
<path fill-rule="evenodd" clip-rule="evenodd" d="M2.00001 17.5C2.00001 19.9853 4.01473 22 6.50001 22C8.98529 22 11 19.9853 11 17.5C11 15.0147 8.98529 13 6.50001 13C4.01473 13 2.00001 15.0147 2.00001 17.5ZM6.15628 20.144C6.28628 20.284 6.45629 20.354 6.63628 20.354C6.79628 20.354 6.94629 20.304 7.07629 20.184L9.424 17.9466C9.734 17.6666 9.734 17.1866 9.424 16.9066L7.07629 14.6793C6.80628 14.4393 6.39628 14.4593 6.15628 14.7193C5.91628 14.9893 5.92628 15.3993 6.19629 15.6393L7.38457 16.7766H4.01322C3.65424 16.7766 3.36322 17.0676 3.36322 17.4266C3.36322 17.7856 3.65424 18.0766 4.01322 18.0766H7.39162L6.19629 19.224C5.93629 19.464 5.91628 19.874 6.15628 20.144Z" fill="#7B7E86"/>
</svg>
