<svg width="24" height="24" viewBox="0 0 24 24" fill="none" xmlns="http://www.w3.org/2000/svg">
<path d="M3.37705 17.9062C3.38989 17.5684 3.66771 17.3014 4.00568 17.302L7.46108 17.308L6.01053 15.9707C5.75917 15.7308 5.7636 15.3362 6.00358 15.0849C6.24321 14.8432 6.63806 14.838 6.88942 15.0779L9.4173 17.5333C9.70574 17.8131 9.68931 18.2746 9.38169 18.5332L6.68816 20.9164C6.55907 21.0273 6.41315 21.0702 6.25933 21.0648C6.08628 21.0586 5.92524 20.9855 5.80506 20.8464C5.58357 20.5787 5.61684 20.1852 5.87502 19.9633L7.42335 18.5581C7.42335 18.5581 5.63876 18.5674 3.99782 18.5566C3.64426 18.5543 3.36361 18.2595 3.37705 17.9062Z" fill="#7B7E86"/>
<path fill-rule="evenodd" clip-rule="evenodd" d="M12 3C14.6651 3 16.7364 5.32002 16.4355 7.96802L16.1734 10.274C15.9322 12.3966 14.1363 14 12 14C9.86377 14 8.0678 12.3966 7.8266 10.274L7.56456 7.96803C7.26365 5.32002 9.33496 3 12 3ZM9.11829 10.1272L8.85625 7.82124C8.64297 5.94439 10.1111 4.3 12 4.3C13.8889 4.3 15.3571 5.94439 15.1438 7.82124L14.8817 10.1272C14.7152 11.5928 13.4751 12.7 12 12.7C10.5249 12.7 9.28484 11.5928 9.11829 10.1272Z" fill="#7B7E86"/>
<path d="M13.8536 15C16.6658 15 19.1007 16.9532 19.7108 19.6984L19.8107 20.1481C19.9079 20.5853 19.5752 21 19.1274 21H11.3429C10.984 21 10.6929 20.709 10.6929 20.35C10.6929 19.991 10.984 19.7 11.3429 19.7H18.3704C17.7953 17.6982 15.9595 16.3 13.8536 16.3H11.3429C10.984 16.3 10.6929 16.009 10.6929 15.65C10.6929 15.291 10.984 15 11.3429 15H13.8536Z" fill="#7B7E86"/>
</svg>
