<svg width="24" height="24" viewBox="0 0 24 24" fill="none" xmlns="http://www.w3.org/2000/svg">
<circle cx="18" cy="15" r="3" fill="#7B7E86"/>
<circle r="3" transform="matrix(1 0 0 -1 6 14.9971)" fill="#7B7E86"/>
<circle r="3" transform="matrix(1 0 0 -1 12 9)" fill="#7B7E86"/>
<path d="M12 7.17205C12.359 7.17205 12.65 6.88103 12.65 6.52205L12.65 3.63511C12.65 3.27612 12.359 2.98511 12 2.98511C11.641 2.98511 11.35 3.27612 11.35 3.63511V6.52205C11.35 6.88103 11.641 7.17205 12 7.17205Z" fill="#7B7E86"/>
<path d="M12 21.012C12.359 21.012 12.65 20.721 12.65 20.362V14.4971C12.65 14.1381 12.359 13.8471 12 13.8471C11.641 13.8471 11.35 14.1381 11.35 14.4971V20.362C11.35 20.721 11.641 21.012 12 21.012Z" fill="#7B7E86"/>
<path d="M6 10.1721C6.35898 10.1721 6.65 9.88105 6.65 9.52206L6.65 3.63513C6.65 3.27614 6.35898 2.98512 6 2.98512C5.64101 2.98512 5.35 3.27614 5.35 3.63513V9.52206C5.35 9.88105 5.64101 10.1721 6 10.1721Z" fill="#7B7E86"/>
<path d="M18 2.98514C18.359 2.98514 18.65 3.27615 18.65 3.63514V9.52495C18.65 9.88394 18.359 10.175 18 10.175C17.641 10.175 17.35 9.88394 17.35 9.52495V3.63514C17.35 3.27615 17.641 2.98514 18 2.98514Z" fill="#7B7E86"/>
<path d="M18 16.85C18.359 16.85 18.65 17.141 18.65 17.5V20.362C18.65 20.721 18.359 21.012 18 21.012C17.641 21.012 17.35 20.721 17.35 20.362V17.5C17.35 17.141 17.641 16.85 18 16.85Z" fill="#7B7E86"/>
<path d="M6.65 20.362C6.65 20.721 6.35898 21.012 6 21.012C5.64101 21.012 5.35 20.721 5.35 20.362V17.4971C5.35 17.1381 5.64101 16.8471 6 16.8471C6.35898 16.8471 6.65 17.1381 6.65 17.4971L6.65 20.362Z" fill="#7B7E86"/>
</svg>
