<svg width="24" height="24" viewBox="0 0 24 24" fill="none" xmlns="http://www.w3.org/2000/svg">
<path d="M7.12998 11.54C6.99998 11.68 6.82998 11.75 6.64999 11.75C6.48999 11.75 6.33999 11.7 6.20999 11.58L3.49999 9.00446C3.18999 8.72446 3.18999 8.24446 3.49999 7.96446L6.20999 5.49996C6.47999 5.25996 6.88999 5.27996 7.12998 5.53996C7.36998 5.80996 7.35998 6.21996 7.08998 6.45996L5.53942 7.83446C5.71769 7.83446 5.89029 7.83548 6.05727 7.83748L16.85 7.8557C18.8658 7.8557 20.5 9.48986 20.5 11.5057V13.85C20.5 15.8658 18.8658 17.5 16.85 17.5L10.65 17.5C10.291 17.5 10 17.209 10 16.85C10 16.491 10.291 16.2 10.65 16.2L16.85 16.2C18.1479 16.2 19.2 15.1479 19.2 13.85V11.5057C19.2 10.2078 18.1479 9.1557 16.85 9.1557L5.53554 9.13748L7.08998 10.62C7.34998 10.86 7.36998 11.27 7.12998 11.54Z" fill="#7B7E86"/>
</svg>
