<svg width="24" height="24" viewBox="0 0 24 24" fill="none" xmlns="http://www.w3.org/2000/svg">
<path fill-rule="evenodd" clip-rule="evenodd" d="M12 3C16.9706 3 21 7.02944 21 12C21 16.9706 16.9706 21 12 21C7.02944 21 3 16.9706 3 12C3 7.02944 7.02944 3 12 3ZM10.15 12.7682C10.33 12.7682 10.5 12.6982 10.63 12.5582C10.87 12.2882 10.85 11.8782 10.59 11.6382L9.03555 10.1557H14.2675C15.5654 10.1557 16.6175 11.2078 16.6175 12.5057V12.85C16.6175 14.1479 15.5654 15.2 14.2675 15.2H12.6246C12.2656 15.2 11.9746 15.491 11.9746 15.85C11.9746 16.209 12.2656 16.5 12.6246 16.5H14.2675C16.2833 16.5 17.9175 14.8658 17.9175 12.85V12.5057C17.9175 10.4899 16.2833 8.8557 14.2675 8.8557H9.55729C9.3903 8.8537 9.2177 8.85267 9.03944 8.85267L10.59 7.47818C10.86 7.23818 10.87 6.82818 10.63 6.55818C10.39 6.29818 9.98 6.27818 9.71 6.51818L7 8.98267C6.69 9.26268 6.69 9.74267 7 10.0227L9.71 12.5982C9.84 12.7182 9.99 12.7682 10.15 12.7682Z" fill="#7B7E86"/>
</svg>
