<svg width="24" height="24" viewBox="0 0 24 24" fill="none" xmlns="http://www.w3.org/2000/svg">
<path fill-rule="evenodd" clip-rule="evenodd" d="M12 20.9999C16.9706 20.9999 21 16.9705 21 11.9999C21 7.02938 16.9706 2.99994 12 2.99994C7.02944 2.99994 3 7.02938 3 11.9999C3 16.9705 7.02944 20.9999 12 20.9999ZM14.8802 7.13916L14.6524 6.27216C14.5539 5.92516 14.7434 5.56102 15.0904 5.46256C15.4374 5.3641 15.8016 5.55357 15.9 5.90057L16.6117 8.41992C16.7296 8.81299 16.4926 9.21886 16.0974 9.30074L13.6669 9.78442C13.3163 9.8692 12.9723 9.64519 12.8875 9.2946C12.8307 9.13406 12.8632 8.97931 12.9439 8.84114C13.0296 8.69434 13.1808 8.5742 13.3673 8.53253L14.3291 8.32595C13.4572 7.77263 12.3871 7.52656 11.289 7.70846C9.07627 8.07503 7.53145 10.0521 7.65625 12.2414C7.67668 12.5998 7.40269 12.9069 7.04429 12.9274C6.68589 12.9478 6.37878 12.6738 6.35835 12.3154C6.19617 9.47024 8.20156 6.90222 11.0766 6.42594C12.443 6.19958 13.776 6.48426 14.8802 7.13916ZM17.6416 11.6845C17.6211 11.3261 17.314 11.0521 16.9556 11.0726C16.5972 11.093 16.3233 11.4001 16.3437 11.7585C16.4685 13.9478 14.9237 15.9249 12.7109 16.2915C11.6128 16.4734 10.5428 16.2274 9.67085 15.674L10.6328 15.4674C10.8192 15.4258 10.9704 15.3056 11.0562 15.1588C11.1369 15.0206 11.1693 14.8659 11.1125 14.7054C11.0277 14.3548 10.6838 14.1308 10.3332 14.2155L7.90264 14.6992C7.50743 14.7811 7.27043 15.187 7.3883 15.58L8.10002 18.0994C8.19848 18.4464 8.56262 18.6359 8.90962 18.5374C9.25661 18.4389 9.44609 18.0748 9.34763 17.7278L9.1199 16.8609C10.224 17.5157 11.5571 17.8004 12.9234 17.574C15.7984 17.0977 17.8038 14.5297 17.6416 11.6845Z" fill="#7B7E86"/>
</svg>
