<svg width="24" height="24" viewBox="0 0 24 24" fill="none" xmlns="http://www.w3.org/2000/svg">
<path d="M13.1792 8.24902C13.048 8.12578 12.972 7.95836 12.9731 7.76731C12.9831 7.4062 13.2784 7.12107 13.6322 7.12417L15.7846 7.10796L15.795 7.09676C14.7462 6.28386 13.4296 5.8 12 5.8C8.57583 5.8 5.8 8.57583 5.8 12C5.8 12.1842 5.80803 12.3665 5.82377 12.5466C5.85289 12.8801 5.65987 13.202 5.33927 13.2982C4.96965 13.4091 4.58203 13.1785 4.54161 12.7948C4.5141 12.5336 4.5 12.2684 4.5 12C4.5 7.85786 7.85786 4.5 12 4.5C13.7642 4.5 15.3862 5.10916 16.667 6.12863L16.4805 4.09221C16.4481 3.73242 16.7215 3.42675 17.0813 3.39429C17.4342 3.36912 17.7467 3.63526 17.7792 3.99505L18.0669 7.64677C18.1012 8.0631 17.7725 8.41294 17.3549 8.40476L13.6163 8.42638C13.4394 8.42483 13.2958 8.35857 13.1792 8.24902Z" fill="#7B7E86"/>
<path d="M10.2902 15.2936C10.4214 15.4168 10.4974 15.5842 10.4963 15.7753C10.4864 16.1364 10.1911 16.4215 9.83724 16.4184L7.68488 16.4346L7.67643 16.4437C8.7933 17.5306 10.3185 18.2 12 18.2C15.4242 18.2 18.2 15.4242 18.2 12C18.2 11.618 18.1654 11.244 18.0993 10.881C18.0377 10.543 18.2109 10.196 18.5338 10.0786C18.8872 9.95012 19.2786 10.1451 19.3527 10.5137C19.4493 10.9941 19.5 11.4911 19.5 12C19.5 16.1421 16.1421 19.5 12 19.5C9.98183 19.5 8.14984 18.7029 6.8017 17.4063L6.98893 19.4504C7.02139 19.8102 6.74796 20.1158 6.38817 20.1483C6.03524 20.1735 5.72272 19.9073 5.69026 19.5475L5.40252 15.8958C5.3683 15.4795 5.69695 15.1297 6.1146 15.1378L9.85316 15.1162C10.0301 15.1178 10.1736 15.184 10.2902 15.2936Z" fill="#7B7E86"/>
</svg>
