<svg width="24" height="24" viewBox="0 0 24 24" fill="none" xmlns="http://www.w3.org/2000/svg">
<path d="M12 3C9.33497 3 7.26365 5.32002 7.56456 7.96802L7.8266 10.274C8.06781 12.3966 9.86377 14 12 14C14.1363 14 15.9322 12.3966 16.1734 10.274L16.4355 7.96803C16.7364 5.32002 14.6651 3 12 3Z" fill="#7B7E86"/>
<path d="M11.8848 16.042C12.0139 15.5434 11.6692 15 11.1541 15H10.1464C7.33419 15 4.89931 16.9532 4.28926 19.6984L4.18932 20.1481C4.09217 20.5853 4.42482 21 4.87265 21H11.4658C12.0443 21 12.3958 20.317 12.1677 19.7854C11.8667 19.0841 11.7 18.3115 11.7 17.5C11.7 16.9964 11.7642 16.5078 11.8848 16.042Z" fill="#7B7E86"/>
<path fill-rule="evenodd" clip-rule="evenodd" d="M22 17.5C22 19.9853 19.9853 22 17.5 22C15.0147 22 13 19.9853 13 17.5C13 15.0147 15.0147 13 17.5 13C19.9853 13 22 15.0147 22 17.5ZM17.8437 20.144C17.7137 20.284 17.5437 20.354 17.3637 20.354C17.2037 20.354 17.0537 20.304 16.9237 20.184L14.576 17.9466C14.266 17.6666 14.266 17.1866 14.576 16.9066L16.9237 14.6793C17.1937 14.4393 17.6037 14.4593 17.8437 14.7193C18.0837 14.9893 18.0737 15.3993 17.8037 15.6393L16.6155 16.7766H19.9868C20.3458 16.7766 20.6368 17.0676 20.6368 17.4266C20.6368 17.7856 20.3458 18.0766 19.9868 18.0766H16.6084L17.8037 19.224C18.0637 19.464 18.0837 19.874 17.8437 20.144Z" fill="#7B7E86"/>
</svg>
