<svg width="24" height="24" viewBox="0 0 24 24" fill="none" xmlns="http://www.w3.org/2000/svg">
<path fill-rule="evenodd" clip-rule="evenodd" d="M7.56456 7.96802C7.26365 5.32002 9.33497 3 12 3C14.6651 3 16.7364 5.32002 16.4355 7.96803L16.1734 10.274C15.9322 12.3966 14.1363 14 12 14C9.86377 14 8.06781 12.3966 7.8266 10.274L7.56456 7.96802ZM15.1438 7.82124L14.8817 10.1272C14.7152 11.5928 13.4751 12.7 12 12.7C10.5249 12.7 9.28484 11.5928 9.11829 10.1272L8.85625 7.82124C8.64297 5.94439 10.1111 4.3 12 4.3C13.889 4.3 15.3571 5.94439 15.1438 7.82124Z" fill="#7B7E86"/>
<path d="M4.28926 19.6984C4.89931 16.9532 7.33419 15 10.1464 15H12.6571C13.0161 15 13.3071 15.291 13.3071 15.65C13.3071 16.009 13.0161 16.3 12.6571 16.3H10.1464C8.04051 16.3 6.20474 17.6982 5.62966 19.7H12.6571C13.0161 19.7 13.3071 19.991 13.3071 20.35C13.3071 20.709 13.0161 21 12.6571 21H4.87265C4.42482 21 4.09217 20.5853 4.18932 20.1481L4.28926 19.6984Z" fill="#7B7E86"/>
<path d="M18.206 21.029C18.076 21.169 17.906 21.239 17.726 21.239C17.566 21.239 17.416 21.189 17.286 21.069L14.576 18.4935C14.266 18.2135 14.266 17.7335 14.576 17.4535L17.286 14.989C17.556 14.749 17.966 14.769 18.206 15.029C18.446 15.299 18.436 15.709 18.166 15.949L16.6155 17.3235H19.9868C20.3458 17.3235 20.6368 17.6145 20.6368 17.9735C20.6368 18.3325 20.3458 18.6235 19.9868 18.6235H16.6084L18.166 20.109C18.426 20.349 18.446 20.759 18.206 21.029Z" fill="#7B7E86"/>
</svg>
