<svg width="24" height="24" viewBox="0 0 24 24" fill="none" xmlns="http://www.w3.org/2000/svg">
<path fill-rule="evenodd" clip-rule="evenodd" d="M12 3C9.33497 3 7.26365 5.32002 7.56456 7.96802L7.8266 10.274C8.06781 12.3966 9.86377 14 12 14C14.1363 14 15.9322 12.3966 16.1734 10.274L16.4355 7.96803C16.7364 5.32002 14.6651 3 12 3ZM14.8817 10.1272L15.1438 7.82124C15.3571 5.94439 13.889 4.3 12 4.3C10.1111 4.3 8.64297 5.94439 8.85625 7.82124L9.11829 10.1272C9.28484 11.5928 10.5249 12.7 12 12.7C13.4751 12.7 14.7152 11.5928 14.8817 10.1272Z" fill="#7B7E86"/>
<path d="M10.1464 15C7.33419 15 4.89931 16.9532 4.28926 19.6984L4.18932 20.1481C4.09217 20.5853 4.42482 21 4.87265 21H12.6571C13.0161 21 13.3071 20.709 13.3071 20.35C13.3071 19.991 13.0161 19.7 12.6571 19.7H5.62966C6.20474 17.6982 8.04051 16.3 10.1464 16.3H12.6571C13.0161 16.3 13.3071 16.009 13.3071 15.65C13.3071 15.291 13.0161 15 12.6571 15H10.1464Z" fill="#7B7E86"/>
<path d="M20.7971 16.1046C21.0557 15.8556 21.0633 15.4441 20.8142 15.1856C20.5651 14.9271 20.1536 14.9194 19.8951 15.1685L17.968 17.0254L16.0409 15.1685C15.7823 14.9194 15.3709 14.9271 15.1218 15.1856C14.8727 15.4441 14.8803 15.8556 15.1388 16.1046L17.0312 17.928L15.1388 19.7514C14.8803 20.0005 14.8727 20.412 15.1217 20.6705C15.3708 20.929 15.7823 20.9367 16.0408 20.6876L17.968 18.8307L19.8952 20.6876C20.1537 20.9367 20.5652 20.929 20.8142 20.6705C21.0633 20.412 21.0557 20.0005 20.7972 19.7514L18.9048 17.928L20.7971 16.1046Z" fill="#7B7E86"/>
</svg>
