<svg width="24" height="24" viewBox="0 0 24 24" fill="none" xmlns="http://www.w3.org/2000/svg">
<path d="M7.56455 7.96802C7.26364 5.32002 9.33495 3 12 3C14.665 3 16.7364 5.32002 16.4355 7.96803L16.1734 10.274C15.9322 12.3966 14.1362 14 12 14C9.86376 14 8.06779 12.3966 7.82659 10.274L7.56455 7.96802Z" fill="#7B7E86"/>
<path d="M11.1541 15C11.6691 15 12.0139 15.5434 11.8848 16.042C11.7642 16.5078 11.7 16.9964 11.7 17.5C11.7 18.3115 11.8667 19.0841 12.1676 19.7854C12.3958 20.317 12.0443 21 11.4658 21H4.87263C4.42481 21 4.09215 20.5853 4.1893 20.1481L4.28924 19.6984C4.89929 16.9532 7.33417 15 10.1464 15H11.1541Z" fill="#7B7E86"/>
<path fill-rule="evenodd" clip-rule="evenodd" d="M20.682 14.318C22.4393 16.0753 22.4393 18.9246 20.682 20.6819C18.9246 22.4393 16.0754 22.4393 14.318 20.6819C12.5607 18.9246 12.5607 16.0753 14.318 14.318C16.0754 12.5606 18.9246 12.5606 20.682 14.318ZM16.5405 15.6212C16.2866 15.3674 15.8751 15.3674 15.6212 15.6212C15.3674 15.875 15.3674 16.2866 15.6212 16.5404L16.5808 17.5L15.7169 18.3638C15.4631 18.6176 15.4631 19.0292 15.7169 19.283C15.9708 19.5369 16.3823 19.5369 16.6362 19.283L17.5 18.4192L18.4596 19.3788C18.7134 19.6326 19.125 19.6326 19.3788 19.3788C19.6326 19.1249 19.6326 18.7134 19.3788 18.4595L18.4192 17.5L19.283 16.6362C19.5369 16.3823 19.5369 15.9708 19.283 15.7169C19.0292 15.4631 18.6176 15.4631 18.3638 15.7169L17.5 16.5807L16.5405 15.6212Z" fill="#7B7E86"/>
</svg>
