<svg width="24" height="24" viewBox="0 0 24 24" fill="none" xmlns="http://www.w3.org/2000/svg">
<path d="M11.6532 7.99595C11.6532 7.63696 11.3622 7.34595 11.0032 7.34595C10.6442 7.34595 10.3532 7.63696 10.3532 7.99595V10.3459H8.00323C7.64425 10.3459 7.35323 10.637 7.35323 10.9959C7.35323 11.3549 7.64425 11.6459 8.00323 11.6459L10.3532 11.6459V13.9959C10.3532 14.3549 10.6442 14.6459 11.0032 14.6459C11.3622 14.6459 11.6532 14.3549 11.6532 13.9959V11.6459H14.0032C14.3622 11.6459 14.6532 11.3549 14.6532 10.9959C14.6532 10.637 14.3622 10.3459 14.0032 10.3459H11.6532V7.99595Z" fill="#7B7E86"/>
<path fill-rule="evenodd" clip-rule="evenodd" d="M11 4C7.13 4 4 7.13 4 11C4 14.87 7.13 18 11 18C12.639 18 14.1453 17.4386 15.3373 16.4973L18.8598 20.029C19.1133 20.2832 19.5248 20.2837 19.779 20.0302C20.0332 19.7767 20.0337 19.3652 19.7802 19.111L16.2789 15.6005C17.3511 14.3708 18 12.7621 18 11C18 7.13 14.87 4 11 4ZM11 5.3C14.14 5.3 16.7 7.86 16.7 11C16.7 14.14 14.14 16.7 11 16.7C7.86 16.7 5.3 14.14 5.3 11C5.3 7.86 7.86 5.3 11 5.3Z" fill="#7B7E86"/>
</svg>
