<svg width="24" height="24" viewBox="0 0 24 24" fill="none" xmlns="http://www.w3.org/2000/svg">
<path d="M13.8581 10.9959C13.8581 10.637 13.5671 10.3459 13.2081 10.3459H8.84116C8.48217 10.3459 8.19116 10.637 8.19116 10.9959C8.19116 11.3549 8.48217 11.6459 8.84116 11.6459L13.2081 11.6459C13.5671 11.6459 13.8581 11.3549 13.8581 10.9959Z" fill="#7B7E86"/>
<path fill-rule="evenodd" clip-rule="evenodd" d="M11 4C7.13 4 4 7.13 4 11C4 14.87 7.13 18 11 18C12.639 18 14.1453 17.4386 15.3373 16.4973L18.8598 20.029C19.1133 20.2832 19.5248 20.2837 19.779 20.0302C20.0332 19.7767 20.0337 19.3652 19.7802 19.111L16.2789 15.6005C17.3511 14.3708 18 12.7621 18 11C18 7.13 14.87 4 11 4ZM11 5.3C14.14 5.3 16.7 7.86 16.7 11C16.7 14.14 14.14 16.7 11 16.7C7.86 16.7 5.3 14.14 5.3 11C5.3 7.86 7.86 5.3 11 5.3Z" fill="#7B7E86"/>
</svg>
