<svg width="28" height="20" viewBox="0 0 28 20" fill="none" xmlns="http://www.w3.org/2000/svg">
<rect width="28" height="20" rx="2" fill="white"/>
<mask id="mask0" mask-type="alpha" maskUnits="userSpaceOnUse" x="0" y="0" width="28" height="20">
<rect width="28" height="20" rx="2" fill="white"/>
</mask>
<g mask="url(#mask0)">
<path fill-rule="evenodd" clip-rule="evenodd" d="M0 4H28V0H0V4Z" fill="#1461B6"/>
<path fill-rule="evenodd" clip-rule="evenodd" d="M0 20H28V16H0V20Z" fill="#1461B6"/>
<path fill-rule="evenodd" clip-rule="evenodd" d="M0 16H28V4H0V16Z" fill="white"/>
<path fill-rule="evenodd" clip-rule="evenodd" d="M0 14.6667H28V5.33334H0V14.6667Z" fill="#F53846"/>
<path fill-rule="evenodd" clip-rule="evenodd" d="M13.3333 10C13.3333 11.8409 11.841 13.3333 10 13.3333C8.15906 13.3333 6.66667 11.8409 6.66667 10C6.66667 8.15905 8.15906 6.66666 10 6.66666L9.2138 8.91787L6.82982 8.96994L8.72789 10.4133L8.04072 12.6967L10 11.3376L11.9593 12.6967L11.2721 10.4133L13.1702 8.96994L10.7862 8.91787L10 6.66666C11.841 6.66666 13.3333 8.15905 13.3333 10Z" fill="white"/>
</g>
</svg>
