<svg width="28" height="20" viewBox="0 0 28 20" fill="none" xmlns="http://www.w3.org/2000/svg">
<rect width="28" height="20" rx="2" fill="white"/>
<mask id="mask0" mask-type="alpha" maskUnits="userSpaceOnUse" x="0" y="0" width="28" height="20">
<rect width="28" height="20" rx="2" fill="white"/>
</mask>
<g mask="url(#mask0)">
<path fill-rule="evenodd" clip-rule="evenodd" d="M9.33334 20H18.6667V0H9.33334V20Z" fill="#146BBC"/>
<path fill-rule="evenodd" clip-rule="evenodd" d="M0 20H9.33333V0H0V20Z" fill="#E43642"/>
<path fill-rule="evenodd" clip-rule="evenodd" d="M18.6667 20H28V0H18.6667V20Z" fill="#E43642"/>
<path fill-rule="evenodd" clip-rule="evenodd" d="M4.66667 10L5.33334 10.6667L4.66667 10.6667L4.00001 10.6667L4.66667 10ZM4.66667 12C4.29848 12 4.00001 11.7015 4.00001 11.3333C4.00001 10.9651 4.29848 10.6667 4.66667 10.6667C5.03486 10.6667 5.33334 10.9651 5.33334 11.3333C5.33334 11.7015 5.03486 12 4.66667 12ZM5.33334 12H4.66667H4.00001H2.66667V16H4.00001V14.6667L4.66667 16L5.33334 14.6667V16H6.66667V12H5.33334ZM4.66667 13.3333L5.33334 12V14C5.33334 13.6318 5.03486 13.3333 4.66667 13.3333ZM4.00001 14C4.00001 13.6318 4.29848 13.3333 4.66667 13.3333L4.00001 12V14ZM4.66667 14.6667H4.00001V14C4.00001 14.3682 4.29848 14.6667 4.66667 14.6667ZM4.66667 14.6667H5.33334V14C5.33334 14.3682 5.03486 14.6667 4.66667 14.6667Z" fill="url(#paint0_linear)"/>
</g>
<defs>
<linearGradient id="paint0_linear" x1="2.66667" y1="10" x2="2.66667" y2="16" gradientUnits="userSpaceOnUse">
<stop stop-color="#F8D246"/>
<stop offset="1" stop-color="#F9CE2F"/>
</linearGradient>
</defs>
</svg>
