<svg width="28" height="20" viewBox="0 0 28 20" fill="none" xmlns="http://www.w3.org/2000/svg">
<rect x="0.25" y="0.25" width="27.5" height="19.5" rx="1.75" fill="white" stroke="#F5F5F5" stroke-width="0.5"/>
<mask id="mask0" mask-type="alpha" maskUnits="userSpaceOnUse" x="0" y="0" width="28" height="20">
<rect x="0.25" y="0.25" width="27.5" height="19.5" rx="1.75" fill="white" stroke="white" stroke-width="0.5"/>
</mask>
<g mask="url(#mask0)">
<path fill-rule="evenodd" clip-rule="evenodd" d="M0 20H28V9.33333H12.4444L13.3333 10L0 20Z" fill="#DD1C34"/>
<path fill-rule="evenodd" clip-rule="evenodd" d="M28 9.33333H12.4444L0 0H28V9.33333Z" fill="#0D4BC3"/>
<path fill-rule="evenodd" clip-rule="evenodd" d="M2.00001 4.00001C2.3682 4.00001 2.66668 3.70153 2.66668 3.33334C2.66668 2.96515 2.3682 2.66667 2.00001 2.66667C1.63182 2.66667 1.33334 2.96515 1.33334 3.33334C1.33334 3.70153 1.63182 4.00001 2.00001 4.00001ZM10 10.6667C10.3682 10.6667 10.6667 10.3682 10.6667 10C10.6667 9.63181 10.3682 9.33334 10 9.33334C9.63182 9.33334 9.33334 9.63181 9.33334 10C9.33334 10.3682 9.63182 10.6667 10 10.6667ZM2.66668 16.6667C2.66668 17.0349 2.3682 17.3333 2.00001 17.3333C1.63182 17.3333 1.33334 17.0349 1.33334 16.6667C1.33334 16.2985 1.63182 16 2.00001 16C2.3682 16 2.66668 16.2985 2.66668 16.6667ZM4.53209 11.3266L3.39107 13.0796L3.8238 11.0332C3.75416 10.9763 3.69038 10.9125 3.63351 10.8429L1.58708 11.2756L3.34005 10.1346C3.33562 10.0903 3.33334 10.0454 3.33334 10C3.33334 9.95458 3.33562 9.90968 3.34005 9.86541L1.58708 8.72439L3.63351 9.15712C3.69038 9.08749 3.75416 9.02371 3.8238 8.96684L3.39107 6.92041L4.53209 8.67338C4.57635 8.66894 4.62125 8.66667 4.66668 8.66667C4.71211 8.66667 4.75701 8.66894 4.80127 8.67338L5.94229 6.92041L5.50956 8.96684C5.57919 9.02371 5.64297 9.08749 5.69985 9.15712L7.74628 8.72439L5.9933 9.86541C5.99774 9.90967 6.00001 9.95457 6.00001 10C6.00001 10.0454 5.99774 10.0903 5.9933 10.1346L7.74628 11.2756L5.69985 10.8429C5.64297 10.9125 5.57919 10.9763 5.50956 11.0332L5.94229 13.0796L4.80127 11.3266C4.75701 11.3311 4.71211 11.3333 4.66668 11.3333C4.62125 11.3333 4.57635 11.3311 4.53209 11.3266Z" fill="#FDD64D"/>
</g>
</svg>
