<svg width="24" height="24" viewBox="0 0 24 24" fill="none" xmlns="http://www.w3.org/2000/svg">
<path fill-rule="evenodd" clip-rule="evenodd" d="M5 1.99986H19C20.6569 1.99986 22 3.34301 22 4.99986V18.9999C22 20.6567 20.6569 21.9999 19 21.9999H5C3.34315 21.9999 2 20.6567 2 18.9999V4.99986C2 3.34301 3.34315 1.99986 5 1.99986ZM7.5 8.00987C7.85898 8.00987 8.15 8.30089 8.15 8.65987V10.4074C8.15 10.7664 7.85898 11.0574 7.5 11.0574C7.14101 11.0574 6.85 10.7664 6.85 10.4074V8.65987C6.85 8.30089 7.14101 8.00987 7.5 8.00987ZM12.6502 8.65987C12.6502 8.30089 12.3592 8.00987 12.0002 8.00987C11.6412 8.00987 11.3502 8.30089 11.3502 8.65987V11.8055C11.3502 12.3203 10.9422 12.7283 10.4274 12.7283H10.34C9.98101 12.7283 9.69 13.0193 9.69 13.3783C9.69 13.7373 9.98101 14.0283 10.34 14.0283H10.4274C11.6601 14.0283 12.6502 13.0383 12.6502 11.8055V8.65987ZM16.013 16.1821C16.2586 15.9202 16.2453 15.5088 15.9834 15.2633C15.7215 15.0178 15.3102 15.0311 15.0646 15.2929C14.5556 15.836 13.5103 16.2966 12.3117 16.3665C11.1306 16.4354 9.93436 16.1167 9.09558 15.2779C8.84174 15.0241 8.43018 15.0241 8.17634 15.2779C7.9225 15.5317 7.9225 15.9433 8.17634 16.1971C9.34725 17.368 10.9472 17.7483 12.3874 17.6643C13.8101 17.5813 15.2114 17.0371 16.013 16.1821ZM17.15 8.65987C17.15 8.30089 16.859 8.00987 16.5 8.00987C16.141 8.00987 15.85 8.30089 15.85 8.65987V10.4074C15.85 10.7664 16.141 11.0574 16.5 11.0574C16.859 11.0574 17.15 10.7664 17.15 10.4074V8.65987Z" fill="#7B7E86"/>
</svg>
