<svg width="24" height="24" viewBox="0 0 24 24" fill="none" xmlns="http://www.w3.org/2000/svg">
<path fill-rule="evenodd" clip-rule="evenodd" d="M12.0002 8.00613C12.3591 8.00613 12.6502 8.29714 12.6502 8.65613V11.8017C12.6502 13.0345 11.6601 14.0246 10.4273 14.0246H10.34C9.98098 14.0246 9.68997 13.7335 9.68997 13.3746C9.68997 13.0156 9.98098 12.7246 10.34 12.7246H10.4273C10.9421 12.7246 11.3502 12.3165 11.3502 11.8017V8.65613C11.3502 8.29714 11.6412 8.00613 12.0002 8.00613Z" fill="#7B7E86"/>
<path fill-rule="evenodd" clip-rule="evenodd" d="M15.9834 15.2596C16.2453 15.5051 16.2585 15.9164 16.013 16.1783C15.2114 17.0334 13.8101 17.5776 12.3874 17.6606C10.9471 17.7446 9.34723 17.3643 8.17631 16.1934C7.92247 15.9395 7.92247 15.528 8.17631 15.2741C8.43015 15.0203 8.84171 15.0203 9.09555 15.2741C9.93433 16.1129 11.1305 16.4317 12.3117 16.3628C13.5102 16.2929 14.5555 15.8322 15.0646 15.2892C15.3101 15.0273 15.7215 15.014 15.9834 15.2596Z" fill="#7B7E86"/>
<path fill-rule="evenodd" clip-rule="evenodd" d="M7.49997 8.00613C7.85895 8.00613 8.14997 8.29714 8.14997 8.65613V10.4037C8.14997 10.7627 7.85895 11.0537 7.49997 11.0537C7.14098 11.0537 6.84997 10.7627 6.84997 10.4037V8.65613C6.84997 8.29714 7.14098 8.00613 7.49997 8.00613Z" fill="#7B7E86"/>
<path fill-rule="evenodd" clip-rule="evenodd" d="M16.5 8.00613C16.859 8.00613 17.15 8.29714 17.15 8.65613V10.4037C17.15 10.7627 16.859 11.0537 16.5 11.0537C16.141 11.0537 15.85 10.7627 15.85 10.4037V8.65613C15.85 8.29714 16.141 8.00613 16.5 8.00613Z" fill="#7B7E86"/>
<path d="M4.89172 2H5.691C6.04998 2 6.341 2.29101 6.341 2.65C6.341 3.00898 6.04998 3.3 5.691 3.3H4.89172C3.95284 3.3 3.19172 4.06112 3.19172 5V5.69097C3.19172 6.04996 2.90071 6.34097 2.54172 6.34097C2.18274 6.34097 1.89172 6.04996 1.89172 5.69097V5C1.89172 3.34315 3.23487 2 4.89172 2Z" fill="#7B7E86"/>
<path d="M2.54172 17.6589C2.18274 17.6589 1.89172 17.9499 1.89172 18.3089V19C1.89172 20.6569 3.23487 22 4.89172 22H5.691C6.04998 22 6.341 21.709 6.341 21.35C6.341 20.991 6.04998 20.7 5.691 20.7H4.89172C3.95284 20.7 3.19172 19.9389 3.19172 19V18.3089C3.19172 17.9499 2.90071 17.6589 2.54172 17.6589Z" fill="#7B7E86"/>
<path d="M21.2417 17.6589C20.8827 17.6589 20.5917 17.9499 20.5917 18.3089V19C20.5917 19.9389 19.8306 20.7 18.8917 20.7H18.3089C17.9499 20.7 17.6589 20.991 17.6589 21.35C17.6589 21.709 17.9499 22 18.3089 22H18.8917C20.5486 22 21.8917 20.6569 21.8917 19V18.3089C21.8917 17.9499 21.6007 17.6589 21.2417 17.6589Z" fill="#7B7E86"/>
<path d="M21.2417 6.34097C21.6007 6.34097 21.8917 6.04996 21.8917 5.69097V5C21.8917 3.34315 20.5486 2 18.8917 2H18.3089C17.9499 2 17.6589 2.29101 17.6589 2.65C17.6589 3.00898 17.9499 3.3 18.3089 3.3H18.8917C19.8306 3.3 20.5917 4.06112 20.5917 5V5.69097C20.5917 6.04996 20.8827 6.34097 21.2417 6.34097Z" fill="#7B7E86"/>
</svg>
