<svg width="24" height="24" viewBox="0 0 24 24" fill="none" xmlns="http://www.w3.org/2000/svg">
<path d="M5.691 2H4.89172C3.23487 2 1.89172 3.34315 1.89172 5V5.69097C1.89172 6.04996 2.18274 6.34097 2.54172 6.34097C2.90071 6.34097 3.19172 6.04996 3.19172 5.69097V5C3.19172 4.06112 3.95284 3.3 4.89172 3.3H5.691C6.04998 3.3 6.341 3.00898 6.341 2.65C6.341 2.29101 6.04998 2 5.691 2Z" fill="#7B7E86"/>
<path d="M1.89172 18.3089C1.89172 17.9499 2.18274 17.6589 2.54172 17.6589C2.90071 17.6589 3.19172 17.9499 3.19172 18.3089V19C3.19172 19.9389 3.95284 20.7 4.89172 20.7H5.691C6.04998 20.7 6.341 20.991 6.341 21.35C6.341 21.709 6.04998 22 5.691 22H4.89172C3.23487 22 1.89172 20.6569 1.89172 19V18.3089Z" fill="#7B7E86"/>
<path d="M21.2417 17.6589C20.8827 17.6589 20.5917 17.9499 20.5917 18.3089V19C20.5917 19.9389 19.8306 20.7 18.8917 20.7H18.3089C17.9499 20.7 17.6589 20.991 17.6589 21.35C17.6589 21.709 17.9499 22 18.3089 22H18.8917C20.5486 22 21.8917 20.6569 21.8917 19V18.3089C21.8917 17.9499 21.6007 17.6589 21.2417 17.6589Z" fill="#7B7E86"/>
<path d="M21.8917 5.69097C21.8917 6.04996 21.6007 6.34097 21.2417 6.34097C20.8827 6.34097 20.5917 6.04996 20.5917 5.69097V5C20.5917 4.06112 19.8306 3.3 18.8917 3.3H18.3089C17.9499 3.3 17.6589 3.00898 17.6589 2.65C17.6589 2.29101 17.9499 2 18.3089 2H18.8917C20.5486 2 21.8917 3.34315 21.8917 5V5.69097Z" fill="#7B7E86"/>
<path d="M8.01427 7.14495C9.1079 6.27325 10.4923 5.7527 12 5.7527C13.6878 5.7527 15.2218 6.4052 16.3658 7.47294C16.6282 7.71789 17.0395 7.70371 17.2845 7.44127C17.5294 7.17884 17.5153 6.76753 17.2528 6.52258C15.8777 5.23907 14.0299 4.4527 12 4.4527C10.1874 4.4527 8.51952 5.0798 7.20399 6.12837C5.43536 7.53809 4.29999 9.71302 4.29999 12.1527C4.29999 12.6986 4.35691 13.232 4.46536 13.7469C4.53934 14.0982 4.88409 14.323 5.23536 14.249C5.58664 14.175 5.81143 13.8302 5.73745 13.479C5.64744 13.0516 5.59999 12.6081 5.59999 12.1527C5.59999 10.1255 6.54179 8.31862 8.01427 7.14495Z" fill="#7B7E86"/>
<path d="M18.9404 8.81415C18.7846 8.49075 18.3961 8.3549 18.0727 8.51073C17.7493 8.66655 17.6134 9.05505 17.7692 9.37845C18.1733 10.2169 18.4 11.1574 18.4 12.1527V12.1742C18.4 12.939 18.4 13.3307 18.1771 14.7495C18.1214 15.1042 18.3637 15.4368 18.7183 15.4925C19.073 15.5482 19.4056 15.3059 19.4613 14.9513C19.6979 13.4458 19.7 12.9922 19.7 12.1527C19.7 10.9579 19.4274 9.82488 18.9404 8.81415Z" fill="#7B7E86"/>
<path d="M12 7.3869C11.641 7.3869 11.35 7.67792 11.35 8.0369C11.35 8.39589 11.641 8.6869 12 8.6869C13.6624 8.6869 15.0516 9.86316 15.3779 11.4292C15.4511 11.7807 15.7954 12.0062 16.1468 11.9329C16.4983 11.8597 16.7238 11.5154 16.6506 11.164C16.2011 9.00737 14.2906 7.3869 12 7.3869Z" fill="#7B7E86"/>
<path d="M10.0363 9.29936C10.3313 9.09483 10.4047 8.68986 10.2001 8.39484C9.99562 8.09982 9.59065 8.02645 9.29563 8.23098C8.06043 9.08729 7.2495 10.5171 7.2495 12.1374C7.2495 13.2346 7.14824 13.9004 6.96653 14.424C6.78455 14.9484 6.50746 15.3757 6.06435 15.9977C5.85604 16.29 5.92418 16.6959 6.21655 16.9042C6.50891 17.1125 6.91479 17.0444 7.1231 16.752C7.57061 16.1239 7.94641 15.5656 8.19467 14.8503C8.44318 14.1342 8.5495 13.3063 8.5495 12.1374C8.5495 10.9611 9.1366 9.92307 10.0363 9.29936Z" fill="#7B7E86"/>
<path d="M12 11.2751C11.539 11.2751 11.1652 11.6488 11.1652 12.1099C11.1652 12.4689 10.8742 12.7599 10.5152 12.7599C10.1562 12.7599 9.8652 12.4689 9.8652 12.1099C9.8652 10.9309 10.821 9.97508 12 9.97508C13.179 9.97508 14.1348 10.9309 14.1348 12.1099C14.1348 14.6292 13.7997 16.3799 12.4629 19.2146C12.3098 19.5393 11.9224 19.6784 11.5977 19.5252C11.273 19.3721 11.1339 18.9848 11.2871 18.6601C12.544 15.9947 12.8348 14.433 12.8348 12.1099C12.8348 11.6488 12.4611 11.2751 12 11.2751Z" fill="#7B7E86"/>
<path d="M10.6502 13.6609C11.0014 13.7355 11.2256 14.0806 11.151 14.4317C10.7045 16.534 9.9182 17.7433 9.32067 18.5566C9.10813 18.8459 8.7013 18.9081 8.412 18.6955C8.1227 18.483 8.06048 18.0762 8.27303 17.7869C8.8005 17.0689 9.48294 16.0282 9.87938 14.1617C9.95396 13.8105 10.2991 13.5863 10.6502 13.6609Z" fill="#7B7E86"/>
<path d="M16.9939 13.672C16.9939 13.313 16.7028 13.0219 16.3438 13.0219C15.9847 13.0219 15.6936 13.313 15.6936 13.672C15.6936 14.8338 15.491 15.8725 15.2867 16.623C15.1848 16.9971 15.0834 17.2965 15.0084 17.5C14.971 17.6016 14.9403 17.6791 14.9195 17.7298C14.9092 17.7551 14.9013 17.7737 14.8963 17.7852L14.8912 17.7971L14.8904 17.799C14.7444 18.1266 14.8913 18.5106 15.2188 18.6571C15.543 18.8021 15.9339 18.6515 16.0784 18.3275L16.0793 18.3253L16.0822 18.3189L16.0914 18.2976C16.099 18.2798 16.1096 18.2546 16.1228 18.2226C16.149 18.1585 16.1855 18.0665 16.2286 17.9493C16.3148 17.7152 16.4283 17.3797 16.5413 16.9646C16.7668 16.1366 16.9939 14.9796 16.9939 13.672Z" fill="#7B7E86"/>
</svg>
