<svg width="24" height="24" viewBox="0 0 24 24" fill="none" xmlns="http://www.w3.org/2000/svg">
<path fill-rule="evenodd" clip-rule="evenodd" d="M19 2.00024H5C3.34315 2.00024 2 3.34339 2 5.00024V19.0002C2 20.6571 3.34315 22.0002 5 22.0002H19C20.6569 22.0002 22 20.6571 22 19.0002V5.00024C22 3.34339 20.6569 2.00024 19 2.00024ZM8.01432 7.14525C9.10794 6.27356 10.4923 5.753 12 5.753C13.6879 5.753 15.2219 6.40551 16.3658 7.47325C16.6283 7.71819 17.0396 7.70401 17.2845 7.44158C17.5295 7.17914 17.5153 6.76783 17.2529 6.52289C15.8777 5.23938 14.03 4.453 12 4.453C10.1875 4.453 8.51957 5.0801 7.20403 6.12867C5.4354 7.5384 4.30003 9.71332 4.30003 12.153C4.30003 12.6989 4.35695 13.2323 4.4654 13.7472C4.53939 14.0985 4.88413 14.3233 5.23541 14.2493C5.58669 14.1753 5.81148 13.8305 5.73749 13.4793C5.64749 13.0519 5.60003 12.6084 5.60003 12.153C5.60003 10.1258 6.54183 8.31893 8.01432 7.14525ZM18.9404 8.81446C18.7846 8.49105 18.3961 8.35521 18.0727 8.51103C17.7493 8.66686 17.6135 9.05535 17.7693 9.37875C18.1733 10.2172 18.4 11.1577 18.4 12.153V12.1745C18.4001 12.9393 18.4001 13.331 18.1771 14.7498C18.1214 15.1045 18.3637 15.4371 18.7184 15.4928C19.073 15.5486 19.4057 15.3062 19.4614 14.9516C19.6979 13.4461 19.7 12.9925 19.7 12.153C19.7 10.9582 19.4274 9.82518 18.9404 8.81446ZM12.0001 7.38721C11.6411 7.38721 11.3501 7.67822 11.3501 8.03721C11.3501 8.39619 11.6411 8.68721 12.0001 8.68721C13.6625 8.68721 15.0516 9.86347 15.378 11.4295C15.4512 11.781 15.7955 12.0065 16.1469 11.9333C16.4983 11.86 16.7239 11.5158 16.6506 11.1643C16.2012 9.00768 14.2906 7.38721 12.0001 7.38721ZM10.0363 9.29966C10.3314 9.09514 10.4047 8.69017 10.2002 8.39515C9.99567 8.10012 9.5907 8.02676 9.29568 8.23129C8.06048 9.08759 7.24955 10.5174 7.24955 12.1377C7.24955 13.2349 7.14829 13.9007 6.96657 14.4243C6.7846 14.9487 6.50751 15.376 6.0644 15.998C5.85609 16.2903 5.92423 16.6962 6.21659 16.9045C6.50896 17.1128 6.91483 17.0447 7.12315 16.7523C7.57066 16.1242 7.94646 15.5659 8.19471 14.8506C8.44323 14.1345 8.54955 13.3066 8.54955 12.1377C8.54955 10.9614 9.13664 9.92338 10.0363 9.29966ZM12.0001 11.2754C11.539 11.2754 11.1652 11.6491 11.1652 12.1102C11.1652 12.4692 10.8742 12.7602 10.5152 12.7602C10.1563 12.7602 9.86524 12.4692 9.86524 12.1102C9.86524 10.9312 10.821 9.97539 12.0001 9.97539C13.1791 9.97539 14.1349 10.9312 14.1349 12.1102C14.1349 14.6295 13.7997 16.3802 12.4629 19.2149C12.3098 19.5396 11.9225 19.6787 11.5978 19.5255C11.2731 19.3724 11.134 18.9851 11.2871 18.6604C12.5441 15.995 12.8349 14.4333 12.8349 12.1102C12.8349 11.6491 12.4611 11.2754 12.0001 11.2754ZM10.6503 13.6612C11.0014 13.7358 11.2256 14.0809 11.1511 14.4321C10.7046 16.5343 9.91825 17.7436 9.32072 18.5569C9.10817 18.8462 8.70135 18.9084 8.41205 18.6958C8.12275 18.4833 8.06053 18.0765 8.27307 17.7872C8.80054 17.0692 9.48299 16.0285 9.87943 14.162C9.95401 13.8108 10.2991 13.5866 10.6503 13.6612ZM16.994 13.6723C16.994 13.3133 16.7029 13.0222 16.3438 13.0222C15.9848 13.0222 15.6937 13.3133 15.6937 13.6723C15.6937 14.8341 15.4911 15.8729 15.2867 16.6233C15.1849 16.9974 15.0834 17.2968 15.0085 17.5003C14.971 17.6019 14.9403 17.6794 14.9196 17.7301C14.9092 17.7554 14.9013 17.774 14.8964 17.7855L14.8912 17.7974L14.8904 17.7993C14.7444 18.1269 14.8914 18.5109 15.2189 18.6574C15.5431 18.8024 15.9339 18.6518 16.0784 18.3278L16.0794 18.3256L16.0822 18.3192L16.0914 18.2979C16.0991 18.2801 16.1097 18.255 16.1228 18.2229C16.1491 18.1588 16.1855 18.0668 16.2286 17.9496C16.3149 17.7155 16.4283 17.38 16.5413 16.9649C16.7668 16.1369 16.994 14.9799 16.994 13.6723Z" fill="#7B7E86"/>
</svg>
