<svg width="24" height="25" viewBox="0 0 24 25" fill="none" xmlns="http://www.w3.org/2000/svg">
<path fill-rule="evenodd" clip-rule="evenodd" d="M12.4085 3.71593C11.2369 2.54435 9.33745 2.54435 8.16588 3.71593L3.92324 7.95857C2.75166 9.13014 2.75166 11.0296 3.92324 12.2012L6.04456 14.3225C7.21613 15.4941 9.11562 15.4941 10.2872 14.3225L10.6202 13.9895L17.3072 20.6765C17.5581 20.9274 17.8751 21.102 18.2212 21.1799C19.2115 21.4031 20.1996 20.7978 20.4508 19.8143L20.6114 19.1854C20.8336 18.3154 20.5807 17.3927 19.9458 16.7577L19.6016 16.4133C19.3578 16.1694 19.027 16.0324 18.6822 16.0324H18.0749C17.7398 16.0324 17.4517 15.795 17.3877 15.466L16.9994 13.4689C16.9492 13.2107 16.8218 12.9738 16.6341 12.7895L14.2052 10.4045L14.5298 10.0799C15.7014 8.90831 15.7014 7.00882 14.5298 5.83725L12.4085 3.71593ZM10.5317 7.92617C10.7856 7.67233 10.7856 7.26078 10.5317 7.00693C10.2779 6.75309 9.86633 6.75309 9.61249 7.00693L7.25358 9.36584C6.99974 9.61968 6.99974 10.0312 7.25358 10.2851C7.50742 10.5389 7.91898 10.5389 8.17282 10.2851L10.5317 7.92617Z" fill="#7B7E86"/>
</svg>
