<svg width="24" height="25" viewBox="0 0 24 25" fill="none" xmlns="http://www.w3.org/2000/svg">
<path d="M10.5317 7.92618C10.7856 7.67234 10.7856 7.26078 10.5317 7.00694C10.2779 6.7531 9.86632 6.7531 9.61248 7.00694L7.25357 9.36585C6.99973 9.61969 6.99973 10.0312 7.25357 10.2851C7.50741 10.5389 7.91897 10.5389 8.17281 10.2851L10.5317 7.92618Z" fill="#7B7E86"/>
<path fill-rule="evenodd" clip-rule="evenodd" d="M8.16588 3.71594C9.33745 2.54437 11.2369 2.54437 12.4085 3.71594L14.5298 5.83726C15.7014 7.00883 15.7014 8.90833 14.5298 10.0799L14.2052 10.4046L16.6341 12.7895C16.8218 12.9738 16.9492 13.2107 16.9994 13.469L17.3878 15.466C17.4517 15.795 17.7398 16.0324 18.0749 16.0324H18.6822C19.027 16.0324 19.3578 16.1695 19.6016 16.4133L19.9458 16.7577C20.5807 17.3927 20.8336 18.3154 20.6114 19.1854L20.4508 19.8143C20.1996 20.7979 19.2115 21.4031 18.2212 21.18C17.8751 21.102 17.5581 20.9274 17.3072 20.6765L10.6202 13.9895L10.2872 14.3225C9.11562 15.4941 7.21613 15.4941 6.04456 14.3225L3.92324 12.2012C2.75166 11.0296 2.75166 9.13015 3.92324 7.95858L8.16588 3.71594ZM4.84247 8.87782L9.08511 4.63518C9.74901 3.97129 10.8254 3.97129 11.4893 4.63518L13.6106 6.7565C14.2745 7.42039 14.2745 8.49677 13.6106 9.16066L9.36796 13.4033C8.70407 14.0672 7.62769 14.0672 6.96379 13.4033L4.84247 11.282C4.17858 10.6181 4.17858 9.54171 4.84247 8.87782ZM13.2881 11.326L15.7233 13.7171L16.1117 15.7142C16.2944 16.654 17.1175 17.3324 18.0749 17.3324L18.6822 17.3324L19.0265 17.6768C19.3368 17.9873 19.4605 18.4384 19.3519 18.8637L19.1912 19.4926C19.1141 19.7945 18.8109 19.9802 18.507 19.9118C18.4007 19.8878 18.3035 19.8342 18.2264 19.7572L11.5417 13.0725L13.2881 11.326Z" fill="#7B7E86"/>
</svg>
