<svg width="24" height="24" viewBox="0 0 24 24" fill="none" xmlns="http://www.w3.org/2000/svg">
<path d="M12.65 13.6418C12.65 13.2828 12.359 12.9918 12 12.9918C11.641 12.9918 11.35 13.2828 11.35 13.6418V15.3582C11.35 15.7172 11.641 16.0082 12 16.0082C12.359 16.0082 12.65 15.7172 12.65 15.3582V13.6418Z" fill="#7B7E86"/>
<path fill-rule="evenodd" clip-rule="evenodd" d="M8.0156 7.08428L8.01561 9H8C6.34315 9 5 10.3431 5 12V17C5 18.6569 6.34315 20 8 20H16C17.6569 20 19 18.6569 19 17V12C19 10.3431 17.6569 9 16 9H15.9602L15.9602 7.08427C15.9602 4.89044 14.1817 3.11198 11.9879 3.11198C9.79406 3.11198 8.0156 4.89044 8.0156 7.08428ZM11.9879 4.44198C10.5286 4.44198 9.3456 5.62498 9.3456 7.08428L9.34561 9H14.6302L14.6302 7.08427C14.6302 5.62498 13.4472 4.44198 11.9879 4.44198ZM16 10.3H8C7.06112 10.3 6.3 11.0611 6.3 12V17C6.3 17.9389 7.06112 18.7 8 18.7H16C16.9389 18.7 17.7 17.9389 17.7 17V12C17.7 11.0611 16.9389 10.3 16 10.3Z" fill="#7B7E86"/>
</svg>
