<svg width="24" height="24" viewBox="0 0 24 24" fill="none" xmlns="http://www.w3.org/2000/svg">
<path d="M7.74997 11.9999C7.74997 12.8283 7.0784 13.4999 6.24997 13.4999C5.42154 13.4999 4.74997 12.8283 4.74997 11.9999C4.74997 11.1715 5.42154 10.4999 6.24997 10.4999C7.0784 10.4999 7.74997 11.1715 7.74997 11.9999Z" fill="#7B7E86"/>
<path d="M13.5 11.9999C13.5 12.8283 12.8284 13.4999 12 13.4999C11.1715 13.4999 10.5 12.8283 10.5 11.9999C10.5 11.1715 11.1715 10.4999 12 10.4999C12.8284 10.4999 13.5 11.1715 13.5 11.9999Z" fill="#7B7E86"/>
<path d="M19.25 11.9999C19.25 12.8283 18.5784 13.4999 17.75 13.4999C16.9215 13.4999 16.25 12.8283 16.25 11.9999C16.25 11.1715 16.9215 10.4999 17.75 10.4999C18.5784 10.4999 19.25 11.1715 19.25 11.9999Z" fill="#7B7E86"/>
<path d="M4.89172 2H5.691C6.04998 2 6.341 2.29101 6.341 2.65C6.341 3.00898 6.04998 3.3 5.691 3.3H4.89172C3.95284 3.3 3.19172 4.06112 3.19172 5V5.69097C3.19172 6.04996 2.90071 6.34097 2.54172 6.34097C2.18274 6.34097 1.89172 6.04996 1.89172 5.69097V5C1.89172 3.34315 3.23487 2 4.89172 2Z" fill="#7B7E86"/>
<path d="M2.54172 17.6589C2.18274 17.6589 1.89172 17.9499 1.89172 18.3089V19C1.89172 20.6569 3.23487 22 4.89172 22H5.691C6.04998 22 6.341 21.709 6.341 21.35C6.341 20.991 6.04998 20.7 5.691 20.7H4.89172C3.95284 20.7 3.19172 19.9389 3.19172 19V18.3089C3.19172 17.9499 2.90071 17.6589 2.54172 17.6589Z" fill="#7B7E86"/>
<path d="M21.2417 17.6589C20.8827 17.6589 20.5917 17.9499 20.5917 18.3089V19C20.5917 19.9389 19.8306 20.7 18.8917 20.7H18.3089C17.9499 20.7 17.6589 20.991 17.6589 21.35C17.6589 21.709 17.9499 22 18.3089 22H18.8917C20.5486 22 21.8917 20.6569 21.8917 19V18.3089C21.8917 17.9499 21.6007 17.6589 21.2417 17.6589Z" fill="#7B7E86"/>
<path d="M21.2417 6.34097C21.6007 6.34097 21.8917 6.04996 21.8917 5.69097V5C21.8917 3.34315 20.5486 2 18.8917 2H18.3089C17.9499 2 17.6589 2.29101 17.6589 2.65C17.6589 3.00898 17.9499 3.3 18.3089 3.3H18.8917C19.8306 3.3 20.5917 4.06112 20.5917 5V5.69097C20.5917 6.04996 20.8827 6.34097 21.2417 6.34097Z" fill="#7B7E86"/>
</svg>
