<svg width="24" height="24" viewBox="0 0 24 24" fill="none" xmlns="http://www.w3.org/2000/svg">
<path fill-rule="evenodd" clip-rule="evenodd" d="M5 1.99988H19C20.6569 1.99988 22 3.34302 22 4.99988V18.9999C22 20.6567 20.6569 21.9999 19 21.9999H5C3.34315 21.9999 2 20.6567 2 18.9999V4.99988C2 3.34302 3.34315 1.99988 5 1.99988ZM7.75 11.9999C7.75 12.8283 7.07843 13.4999 6.25 13.4999C5.42157 13.4999 4.75 12.8283 4.75 11.9999C4.75 11.1715 5.42157 10.4999 6.25 10.4999C7.07843 10.4999 7.75 11.1715 7.75 11.9999ZM13.5 11.9999C13.5 12.8283 12.8284 13.4999 12 13.4999C11.1716 13.4999 10.5 12.8283 10.5 11.9999C10.5 11.1715 11.1716 10.4999 12 10.4999C12.8284 10.4999 13.5 11.1715 13.5 11.9999ZM17.75 13.4999C18.5784 13.4999 19.25 12.8283 19.25 11.9999C19.25 11.1715 18.5784 10.4999 17.75 10.4999C16.9216 10.4999 16.25 11.1715 16.25 11.9999C16.25 12.8283 16.9216 13.4999 17.75 13.4999Z" fill="#7B7E86"/>
</svg>
