<svg width="24" height="24" viewBox="0 0 24 24" fill="none" xmlns="http://www.w3.org/2000/svg">
<path d="M12.65 13.6418C12.65 13.2828 12.359 12.9918 12 12.9918C11.641 12.9918 11.35 13.2828 11.35 13.6418V15.3582C11.35 15.7172 11.641 16.0082 12 16.0082C12.359 16.0082 12.65 15.7172 12.65 15.3582V13.6418Z" fill="#7B7E86"/>
<path fill-rule="evenodd" clip-rule="evenodd" d="M17.0072 4.42698C15.5225 4.42698 14.3188 5.6306 14.3188 7.11536L14.3188 9H16C17.6569 9 19 10.3431 19 12V17C19 18.6569 17.6569 20 16 20H8C6.34315 20 5 18.6569 5 17V12C5 10.3431 6.34315 9 8 9H13.0188L13.0188 7.11536C13.0188 4.91263 14.8045 3.12698 17.0072 3.12698C19.21 3.12698 20.9956 4.91264 20.9956 7.11536V7.19511C20.9956 7.5541 20.7046 7.84511 20.3456 7.84511C19.9866 7.84511 19.6956 7.5541 19.6956 7.19511V7.11536C19.6956 5.63061 18.492 4.42698 17.0072 4.42698ZM16 10.3H8C7.06112 10.3 6.3 11.0611 6.3 12V17C6.3 17.9389 7.06112 18.7 8 18.7H16C16.9389 18.7 17.7 17.9389 17.7 17V12C17.7 11.0611 16.9389 10.3 16 10.3Z" fill="#7B7E86"/>
</svg>
