<svg width="24" height="24" viewBox="0 0 24 24" fill="none" xmlns="http://www.w3.org/2000/svg">
<path fill-rule="evenodd" clip-rule="evenodd" d="M8.83582 6.67967L10.2765 13H5.58456C4.76459 13 4.1494 13.7499 4.30962 14.554L4.51909 15.6054C4.79867 17.0087 6.03039 18.0193 7.46126 18.0193H16.5387C17.9696 18.0193 19.2013 17.0087 19.4809 15.6054L19.6904 14.554C19.8506 13.7499 19.2354 13 18.4154 13H13.8437L15.2156 6.64606C15.6191 4.77729 14.195 3.01294 12.2832 3.01294H11.7608C9.83484 3.01294 8.40778 4.80189 8.83582 6.67967ZM12.2832 4.31294H11.7608C10.6694 4.31294 9.86075 5.32668 10.1033 6.39076L11.6099 13H12.5138L13.9449 6.37171C14.1735 5.31274 13.3665 4.31294 12.2832 4.31294ZM5.58456 14.3H18.4154L18.206 15.3514C18.0475 16.1466 17.3496 16.7193 16.5387 16.7193H7.46126C6.65043 16.7193 5.95246 16.1466 5.79403 15.3514L5.58456 14.3Z" fill="#7B7E86"/>
<path d="M7.07599 19.6784C6.71701 19.6784 6.42599 19.9694 6.42599 20.3284C6.42599 20.6874 6.71701 20.9784 7.07599 20.9784H16.924C17.283 20.9784 17.574 20.6874 17.574 20.3284C17.574 19.9694 17.283 19.6784 16.924 19.6784H7.07599Z" fill="#7B7E86"/>
</svg>
