<svg width="24" height="24" viewBox="0 0 24 24" fill="none" xmlns="http://www.w3.org/2000/svg">
<path d="M8.83582 6.67961C8.40778 4.80183 9.83484 3.01288 11.7608 3.01288H12.2832C14.195 3.01288 15.6191 4.77723 15.2156 6.646L13.8437 13H18.4154C19.2354 13 19.8506 13.7498 19.6904 14.554L19.4809 15.6054C19.2013 17.0087 17.9696 18.0192 16.5387 18.0192H7.46126C6.03039 18.0192 4.79867 17.0087 4.51909 15.6054L4.30962 14.554C4.1494 13.7498 4.76459 13 5.58456 13H10.2765L8.83582 6.67961Z" fill="#7B7E86"/>
<path d="M7.07599 19.6783C6.71701 19.6783 6.42599 19.9693 6.42599 20.3283C6.42599 20.6873 6.71701 20.9783 7.07599 20.9783H16.924C17.283 20.9783 17.574 20.6873 17.574 20.3283C17.574 19.9693 17.283 19.6783 16.924 19.6783H7.07599Z" fill="#7B7E86"/>
</svg>
