<svg width="24" height="24" viewBox="0 0 24 24" fill="none" xmlns="http://www.w3.org/2000/svg">
<path fill-rule="evenodd" clip-rule="evenodd" d="M4 8C4 6.34315 5.34315 5 7 5H17C18.6569 5 20 6.34315 20 8V14C20 15.6569 18.6569 17 17 17H9.52751L6.1121 19.7323C5.26091 20.4133 4 19.8073 4 18.7172V8ZM12.6403 8.49552C12.6403 8.13653 12.3493 7.84552 11.9903 7.84552C11.6313 7.84552 11.3403 8.13653 11.3403 8.49552V10.3455H9.49033C9.13135 10.3455 8.84033 10.6365 8.84033 10.9955C8.84033 11.3545 9.13135 11.6455 9.49033 11.6455H11.3403V13.4955C11.3403 13.8545 11.6313 14.1455 11.9903 14.1455C12.3493 14.1455 12.6403 13.8545 12.6403 13.4955V11.6455H14.4903C14.8493 11.6455 15.1403 11.3545 15.1403 10.9955C15.1403 10.6365 14.8493 10.3455 14.4903 10.3455H12.6403V8.49552Z" fill="#7B7E86"/>
</svg>
