<svg width="24" height="24" viewBox="0 0 24 24" fill="none" xmlns="http://www.w3.org/2000/svg">
<path d="M12 0.5C12.3973 0.5 12.7194 0.82211 12.7194 1.21945V3.1011C12.7194 3.49844 12.3973 3.82055 12 3.82055C11.6026 3.82055 11.2805 3.49844 11.2805 3.1011V1.21945C11.2805 0.82211 11.6026 0.5 12 0.5Z" fill="#7B7E86"/>
<path fill-rule="evenodd" clip-rule="evenodd" d="M12 5C8.13401 5 5 8.13401 5 12V17.7C5 18.0866 5.3134 18.4 5.7 18.4H18.3C18.6866 18.4 19 18.0866 19 17.7V12C19 8.13401 15.866 5 12 5ZM12 12.7493C12.359 12.7493 12.65 12.4583 12.65 12.0993V9.04688C12.65 8.68789 12.359 8.39688 12 8.39688C11.641 8.39688 11.35 8.68789 11.35 9.04688V12.0993C11.35 12.4583 11.641 12.7493 12 12.7493ZM12 15.6031C12.4142 15.6031 12.75 15.2673 12.75 14.8531C12.75 14.4389 12.4142 14.1031 12 14.1031C11.5858 14.1031 11.25 14.4389 11.25 14.8531C11.25 15.2673 11.5858 15.6031 12 15.6031Z" fill="#7B7E86"/>
<path d="M0.498169 12.0017C0.498169 11.6043 0.820279 11.2822 1.21762 11.2822H3.09927C3.49661 11.2822 3.81872 11.6043 3.81872 12.0017C3.81872 12.399 3.49661 12.7211 3.09927 12.7211H1.21762C0.820279 12.7211 0.498169 12.399 0.498169 12.0017Z" fill="#7B7E86"/>
<path d="M20.1812 12.0017C20.1812 11.6043 20.5033 11.2822 20.9007 11.2822H22.7823C23.1797 11.2822 23.5018 11.6043 23.5018 12.0017C23.5018 12.399 23.1797 12.7211 22.7823 12.7211H20.9007C20.5033 12.7211 20.1812 12.399 20.1812 12.0017Z" fill="#7B7E86"/>
<path d="M3.86697 3.86871C4.14794 3.58775 4.60347 3.58775 4.88443 3.86871L6.21496 5.19924C6.49592 5.4802 6.49592 5.93573 6.21496 6.2167C5.93399 6.49766 5.47846 6.49766 5.1975 6.2167L3.86697 4.88617C3.58601 4.60521 3.58601 4.14968 3.86697 3.86871Z" fill="#7B7E86"/>
<path d="M17.785 6.21674C17.504 5.93577 17.504 5.48024 17.785 5.19928L19.1155 3.86875C19.3965 3.58779 19.852 3.58779 20.133 3.86875C20.4139 4.14972 20.4139 4.60525 20.133 4.88621L18.8025 6.21674C18.5215 6.4977 18.066 6.4977 17.785 6.21674Z" fill="#7B7E86"/>
<path d="M3.7952 19.7C3.43622 19.7 3.1452 19.991 3.1452 20.35C3.1452 20.7089 3.43622 21 3.7952 21H20.2048C20.5638 21 20.8548 20.7089 20.8548 20.35C20.8548 19.991 20.5638 19.7 20.2048 19.7H3.7952Z" fill="#7B7E86"/>
</svg>
