<svg width="24" height="24" viewBox="0 0 24 24" fill="none" xmlns="http://www.w3.org/2000/svg">
<path d="M12.7165 3.23045C12.2745 2.94987 11.7102 2.95014 11.2684 3.23113L4.56559 7.49492C3.4259 8.2199 3.93944 9.98399 5.29017 9.98399H18.7098C20.0612 9.98399 20.5742 8.2185 19.4333 7.49424L12.7165 3.23045Z" fill="#7B7E86"/>
<path d="M12 11.2724C12.359 11.2724 12.65 11.5634 12.65 11.9224V16.8049C12.65 17.1639 12.359 17.4549 12 17.4549C11.641 17.4549 11.35 17.1639 11.35 16.8049V11.9224C11.35 11.5634 11.641 11.2724 12 11.2724Z" fill="#7B7E86"/>
<path d="M3.98688 19.4C3.98688 19.041 4.27789 18.75 4.63688 18.75H19.3631C19.722 18.75 20.0131 19.041 20.0131 19.4C20.0131 19.759 19.722 20.05 19.3631 20.05H4.63688C4.27789 20.05 3.98688 19.759 3.98688 19.4Z" fill="#7B7E86"/>
<path d="M8.28273 11.9224C8.28273 11.5634 7.99171 11.2724 7.63273 11.2724C7.27374 11.2724 6.98273 11.5634 6.98273 11.9224V16.8049C6.98273 17.1639 7.27374 17.4549 7.63273 17.4549C7.99171 17.4549 8.28273 17.1639 8.28273 16.8049V11.9224Z" fill="#7B7E86"/>
<path d="M16.3673 11.2724C16.7263 11.2724 17.0173 11.5634 17.0173 11.9224V16.8049C17.0173 17.1639 16.7263 17.4549 16.3673 17.4549C16.0083 17.4549 15.7173 17.1639 15.7173 16.8049V11.9224C15.7173 11.5634 16.0083 11.2724 16.3673 11.2724Z" fill="#7B7E86"/>
</svg>
