<svg width="24" height="24" viewBox="0 0 24 24" fill="none" xmlns="http://www.w3.org/2000/svg">
<path fill-rule="evenodd" clip-rule="evenodd" d="M12.7144 3.23045C12.2724 2.94987 11.708 2.95014 11.2663 3.23113L4.56345 7.49492C3.42377 8.2199 3.9373 9.98399 5.28803 9.98399H18.7077C20.0591 9.98399 20.5721 8.2185 19.4312 7.49424L12.7144 3.23045ZM11.9641 4.32801C11.9804 4.31761 12.0013 4.3176 12.0177 4.32799L18.7345 8.59178C18.748 8.60035 18.7531 8.60654 18.7545 8.60824L18.756 8.61053L18.7572 8.61307C18.7586 8.61735 18.7609 8.63 18.7557 8.64795C18.7505 8.66589 18.7418 8.67535 18.7382 8.67818L18.7355 8.67994L18.7334 8.68082C18.7313 8.68154 18.7237 8.684 18.7077 8.684H5.28803C5.27207 8.684 5.2644 8.68154 5.26235 8.68082C5.26009 8.68002 5.25749 8.67818 5.25749 8.67818C5.25395 8.67534 5.24524 8.6659 5.24002 8.64797C5.23481 8.63005 5.23708 8.6174 5.23854 8.61311C5.23854 8.61311 5.23975 8.61016 5.24123 8.60827C5.24257 8.60656 5.24772 8.60038 5.2612 8.59181L11.9641 4.32801Z" fill="#7B7E86"/>
<path d="M12 11.2724C12.359 11.2724 12.65 11.5634 12.65 11.9224V16.8049C12.65 17.1639 12.359 17.4549 12 17.4549C11.641 17.4549 11.35 17.1639 11.35 16.8049V11.9224C11.35 11.5634 11.641 11.2724 12 11.2724Z" fill="#7B7E86"/>
<path d="M3.98688 19.4C3.98688 19.041 4.27789 18.75 4.63688 18.75H19.3631C19.722 18.75 20.0131 19.041 20.0131 19.4C20.0131 19.759 19.722 20.05 19.3631 20.05H4.63688C4.27789 20.05 3.98688 19.759 3.98688 19.4Z" fill="#7B7E86"/>
<path d="M8.28273 11.9224C8.28273 11.5634 7.99171 11.2724 7.63273 11.2724C7.27374 11.2724 6.98273 11.5634 6.98273 11.9224V16.8049C6.98273 17.1639 7.27374 17.4549 7.63273 17.4549C7.99171 17.4549 8.28273 17.1639 8.28273 16.8049V11.9224Z" fill="#7B7E86"/>
<path d="M16.3673 11.2724C16.7263 11.2724 17.0173 11.5634 17.0173 11.9224V16.8049C17.0173 17.1639 16.7263 17.4549 16.3673 17.4549C16.0083 17.4549 15.7173 17.1639 15.7173 16.8049V11.9224C15.7173 11.5634 16.0083 11.2724 16.3673 11.2724Z" fill="#7B7E86"/>
</svg>
