<svg width="24" height="24" viewBox="0 0 24 24" fill="none" xmlns="http://www.w3.org/2000/svg">
<path fill-rule="evenodd" clip-rule="evenodd" d="M6.89853 6.3454C6.61503 5.83736 6.50399 5.22627 6.63707 4.60063L6.65501 4.51629C6.83163 3.686 7.43965 3.01402 8.2482 2.75552C9.70263 2.29053 11.2069 2.88308 12 4.0525C12.7931 2.88308 14.2974 2.29053 15.7518 2.75552C16.5603 3.01402 17.1684 3.686 17.345 4.51629L17.3629 4.60063C17.496 5.22627 17.385 5.83736 17.1015 6.34541C18.7113 6.39891 20 7.72082 20 9.34372V11.2827C20 11.6693 19.6866 11.9827 19.3 11.9827H4.7C4.3134 11.9827 4 11.6693 4 11.2827V9.34372C4 7.72083 5.28865 6.39891 6.89853 6.3454ZM12.7504 5.63955L12.6559 6.33654L12.6561 6.33741H14.9042C15.6762 6.33741 16.252 5.62621 16.0914 4.87111L16.0734 4.78677C15.9939 4.41283 15.7201 4.1102 15.3559 3.99378C14.1646 3.61291 12.9182 4.40015 12.7504 5.63955ZM11.2496 5.63955L11.3441 6.33655L11.3439 6.33741H9.09583C8.32384 6.33741 7.74801 5.62621 7.90863 4.87111L7.92657 4.78677C8.00611 4.41283 8.27994 4.1102 8.64408 3.99378C9.83539 3.61291 11.0817 4.40015 11.2496 5.63955ZM19.3 13.2827C19.6866 13.2827 20 13.5961 20 13.9827V17C20 18.6569 18.6569 20 17 20H7C5.34315 20 4 18.6569 4 17V13.9827C4 13.5961 4.3134 13.2827 4.7 13.2827H19.3Z" fill="#7B7E86"/>
</svg>
