<svg width="24" height="24" viewBox="0 0 24 24" fill="none" xmlns="http://www.w3.org/2000/svg">
<path fill-rule="evenodd" clip-rule="evenodd" d="M17.3629 4.60063C17.4959 5.22627 17.3849 5.83736 17.1014 6.3454C18.7113 6.39888 20 7.7208 20 9.34372V17C20 18.6569 18.6569 20 17 20H7C5.34315 20 4 18.6569 4 17V9.34372C4 7.7208 5.28868 6.39887 6.89859 6.3454C6.61509 5.83735 6.50406 5.22627 6.63714 4.60063L6.65508 4.51629C6.83169 3.686 7.43971 3.01402 8.24827 2.75552C9.70266 2.29054 11.2069 2.88305 12 4.05241C12.7931 2.88305 14.2973 2.29054 15.7517 2.75552C16.5603 3.01402 17.1683 3.686 17.3449 4.51629L17.3629 4.60063ZM11.3439 6.33741H9.09589C8.3239 6.33741 7.74807 5.62621 7.90869 4.87111L7.92663 4.78677C8.00617 4.41283 8.28 4.1102 8.64414 3.99378C9.83546 3.61291 11.0818 4.40015 11.2497 5.63955L11.3441 6.33609L11.3439 6.33741ZM12.6561 6.33741H14.9041C15.6761 6.33741 16.2519 5.62621 16.0913 4.87111L16.0734 4.78677C15.9938 4.41283 15.72 4.1102 15.3559 3.99378C14.1645 3.61291 12.9182 4.40015 12.7503 5.63955L12.6559 6.33609L12.6561 6.33741ZM15.5 7.64372H17C17.9389 7.64372 18.7 8.40483 18.7 9.34372V11.9827H15.5V7.64372ZM15.5 13.2827V16.2984C15.5 16.8687 14.8547 17.1996 14.3916 16.8669L12 15.1487L9.60843 16.8669C9.14532 17.1996 8.5 16.8687 8.5 16.2984V13.2827H5.3V17C5.3 17.9389 6.06112 18.7 7 18.7H17C17.9389 18.7 18.7 17.9389 18.7 17V13.2827H15.5ZM8.5 11.9827H5.3V9.34372C5.3 8.40483 6.06112 7.64372 7 7.64372H8.5V11.9827ZM14.2 15.1286V7.64372H9.8V15.1286L11.2415 14.0929C11.6947 13.7673 12.3053 13.7673 12.7585 14.0929L14.2 15.1286Z" fill="#7B7E86"/>
</svg>
