<svg width="24" height="24" viewBox="0 0 24 24" fill="none" xmlns="http://www.w3.org/2000/svg">
<path fill-rule="evenodd" clip-rule="evenodd" d="M12 4.05241C12.7931 2.88305 14.2973 2.29054 15.7517 2.75552C16.5603 3.01402 17.1683 3.686 17.3449 4.51629L17.3629 4.60063C17.4959 5.22627 17.3849 5.83736 17.1014 6.3454C18.7113 6.39888 20 7.7208 20 9.34372V11.2827C20 11.6693 19.6866 11.9827 19.3 11.9827H16.4147C16.0557 11.9827 15.7647 12.2737 15.7647 12.6327C15.7647 12.9916 16.0557 13.2827 16.4147 13.2827H19.3C19.6866 13.2827 20 13.5961 20 13.9827V17C20 18.6569 18.6569 20 17 20H7C5.34315 20 4 18.6569 4 17V13.9827C4 13.5961 4.3134 13.2827 4.7 13.2827H7.58251C7.9415 13.2827 8.23251 12.9916 8.23251 12.6327C8.23251 12.2737 7.9415 11.9827 7.58251 11.9827H4.7C4.3134 11.9827 4 11.6693 4 11.2827V9.34372C4 7.7208 5.28868 6.39887 6.89859 6.3454C6.61509 5.83735 6.50406 5.22627 6.63714 4.60063L6.65508 4.51629C6.83169 3.686 7.43971 3.01402 8.24827 2.75552C9.70266 2.29054 11.2069 2.88305 12 4.05241ZM10.0944 7.63741C9.78442 7.70944 9.55345 7.98738 9.55345 8.31926V15.2569C9.55345 15.8523 10.2496 16.1758 10.7047 15.792L11.9929 14.8381L13.3503 15.792C13.8054 16.1758 14.5015 15.8523 14.5015 15.2569V8.31926C14.5015 7.98738 14.2706 7.70944 13.9606 7.63741H10.0944ZM12.6561 6.33741H14.9041C15.6761 6.33741 16.2519 5.62621 16.0913 4.87111L16.0734 4.78677C15.9938 4.41283 15.72 4.1102 15.3559 3.99378C14.1645 3.61291 12.9182 4.40015 12.7503 5.63955L12.6559 6.33609L12.6561 6.33741ZM11.3441 6.33609L11.2497 5.63955C11.0818 4.40015 9.83546 3.61291 8.64414 3.99378C8.28 4.1102 8.00617 4.41283 7.92663 4.78677L7.90869 4.87111C7.74807 5.62621 8.3239 6.33741 9.09589 6.33741H11.3439L11.3441 6.33609Z" fill="#7B7E86"/>
</svg>
