<svg width="24" height="24" viewBox="0 0 24 24" fill="none" xmlns="http://www.w3.org/2000/svg">
<path fill-rule="evenodd" clip-rule="evenodd" d="M17.1014 6.3454C17.3849 5.83736 17.4959 5.22627 17.3629 4.60063L17.3449 4.51629C17.1683 3.686 16.5603 3.01402 15.7517 2.75552C14.2973 2.29054 12.7931 2.88305 12 4.05241C11.2069 2.88305 9.70266 2.29054 8.24827 2.75552C7.43971 3.01402 6.83169 3.686 6.65508 4.51629L6.63714 4.60063C6.50406 5.22627 6.61509 5.83735 6.89859 6.3454C5.28868 6.39887 4 7.7208 4 9.34372V17C4 18.6569 5.34315 20 7 20H17C18.6569 20 20 18.6569 20 17V9.34372C20 7.7208 18.7113 6.39888 17.1014 6.3454ZM9.09589 6.33741H11.3439L11.3441 6.33609L11.2497 5.63955C11.0818 4.40015 9.83546 3.61291 8.64414 3.99378C8.28 4.1102 8.00617 4.41283 7.92663 4.78677L7.90869 4.87111C7.74807 5.62621 8.3239 6.33741 9.09589 6.33741ZM14.9041 6.33741H12.6561L12.6559 6.33609L12.7503 5.63955C12.9182 4.40015 14.1645 3.61291 15.3559 3.99378C15.72 4.1102 15.9938 4.41283 16.0734 4.78677L16.0913 4.87111C16.2519 5.62621 15.6761 6.33741 14.9041 6.33741ZM17 7.64372C17.9389 7.64372 18.7 8.40483 18.7 9.34372V11.9827H5.3V9.34372C5.3 8.40483 6.06112 7.64372 7 7.64372H17ZM5.3 13.2827V17C5.3 17.9389 6.06112 18.7 7 18.7H17C17.9389 18.7 18.7 17.9389 18.7 17V13.2827H5.3Z" fill="#7B7E86"/>
</svg>
