<svg width="24" height="24" viewBox="0 0 24 24" fill="none" xmlns="http://www.w3.org/2000/svg">
<path fill-rule="evenodd" clip-rule="evenodd" d="M16.4144 4C17.5373 4 18.5662 4.62704 19.0808 5.62502L21.1576 9.65223C21.6791 10.192 22 10.9269 22 11.7367L22 18.6093C22 19.7139 21.1046 20.6093 20 20.6093H19.0156C17.9111 20.6093 17.0156 19.7139 17.0156 18.6093V18H6.98437V18.6093C6.98437 19.7139 6.08894 20.6093 4.98437 20.6093H4C2.89543 20.6093 2 19.7139 2 18.6093V11.7367C2 10.9268 2.32089 10.192 2.84246 9.65222L4.91922 5.62501C5.43386 4.62704 6.46271 4 7.58557 4H16.4144ZM7.58557 5.3H16.4144C17.0507 5.3 17.6337 5.65532 17.9254 6.22084L19.2038 8.7H4.79618L6.07464 6.22084C6.36626 5.65532 6.94928 5.3 7.58557 5.3ZM18.3156 18H20.7V18.6093C20.7 18.9959 20.3866 19.3093 20 19.3093H19.0156C18.629 19.3093 18.3156 18.9959 18.3156 18.6093V18ZM3.3 18H5.68437V18.6093C5.68437 18.9959 5.37097 19.3093 4.98437 19.3093H4C3.6134 19.3093 3.3 18.9959 3.3 18.6093V18ZM5 10.0367H19C19.8222 10.0367 20.5081 10.6204 20.6659 11.396H18.596C18.237 11.396 17.946 11.687 17.946 12.046C17.946 12.405 18.237 12.696 18.596 12.696H20.7V16.7H18.0754C18.068 16.6766 18.0597 16.6533 18.0504 16.63L16.7185 13.2855C16.264 12.1442 15.1598 11.3954 13.9314 11.3954H10.0686C8.84025 11.3954 7.73597 12.1442 7.2815 13.2855L5.94959 16.63C5.94033 16.6533 5.932 16.6766 5.92458 16.7H3.3V12.696H5.40402C5.76301 12.696 6.05402 12.405 6.05402 12.046C6.05402 11.687 5.76301 11.396 5.40402 11.396H3.33415C3.49193 10.6204 4.1778 10.0367 5 10.0367ZM7.32102 16.7H16.679L15.5107 13.7664C15.2532 13.1197 14.6275 12.6954 13.9314 12.6954H10.0686C9.37254 12.6954 8.74679 13.1197 8.48926 13.7664L7.32102 16.7Z" fill="#7B7E86"/>
</svg>
