<svg width="24" height="24" viewBox="0 0 24 24" fill="none" xmlns="http://www.w3.org/2000/svg">
<path d="M19.078 5.68187C19.078 6.78644 18.1825 7.68187 17.078 7.68187C16.7418 7.68187 16.425 7.59893 16.1469 7.4524L13.8605 9.57156C13.9505 9.79916 14 10.0472 14 10.3069C14 11.4114 13.1045 12.3069 12 12.3069C10.8954 12.3069 9.99996 11.4114 9.99996 10.3069C9.99996 10.2418 10.0031 10.1775 10.0091 10.1141L8.25493 9.17283C7.90112 9.48939 7.43396 9.68187 6.92184 9.68187C5.81727 9.68187 4.92184 8.78644 4.92184 7.68187C4.92184 6.5773 5.81727 5.68187 6.92184 5.68187C8.02641 5.68187 8.92184 6.5773 8.92184 7.68187C8.92184 7.80354 8.91097 7.92268 8.89016 8.03836L10.5502 8.92911C10.9146 8.54582 11.4294 8.30687 12 8.30687C12.3703 8.30687 12.7172 8.40754 13.0146 8.583L15.2553 6.50632C15.1414 6.25494 15.078 5.97581 15.078 5.68187C15.078 4.5773 15.9734 3.68187 17.078 3.68187C18.1825 3.68187 19.078 4.5773 19.078 5.68187Z" fill="#7B7E86"/>
<path d="M18.7305 10.6819V18.6881H20.0664C20.4254 18.6881 20.7164 18.9791 20.7164 19.3381C20.7164 19.6971 20.4254 19.9881 20.0664 19.9881H17.7903L17.7805 19.9881H16.3805L16.3707 19.9881H12.7104L12.7006 19.9881H11.2994L11.2896 19.9881H7.62785L7.61804 19.9881H6.21804L6.20823 19.9881H3.93357C3.57458 19.9881 3.28357 19.6971 3.28357 19.3381C3.28357 18.9791 3.57458 18.6881 3.93357 18.6881H5.26804L5.26804 12.6819C5.26804 11.7706 6.00677 11.0319 6.91804 11.0319C7.82931 11.0319 8.56804 11.7706 8.56804 12.6819L8.56804 18.6881H10.3494V15.245C10.3494 14.3334 11.0884 13.5944 12 13.5944C12.9116 13.5944 13.6506 14.3334 13.6506 15.245V18.6881H15.4305V10.6819C15.4305 9.77062 16.1692 9.03189 17.0805 9.03189C17.9918 9.03189 18.7305 9.77062 18.7305 10.6819Z" fill="#7B7E86"/>
</svg>
