<svg width="24" height="24" viewBox="0 0 24 24" fill="none" xmlns="http://www.w3.org/2000/svg">
<path fill-rule="evenodd" clip-rule="evenodd" d="M19.028 18.6973V10.991C19.028 9.91405 18.1549 9.041 17.078 9.041C16.001 9.041 15.128 9.91405 15.128 10.991L15.128 18.6973H13.95V15.5535C13.95 14.4765 13.0769 13.6035 12 13.6035C10.923 13.6035 10.05 14.4765 10.05 15.5535V18.6973H8.87185L8.87185 12.991C8.87185 11.914 7.9988 11.041 6.92185 11.041C5.84489 11.041 4.97185 11.914 4.97185 12.991L4.97185 18.6973H3.93357C3.57458 18.6973 3.28357 18.9883 3.28357 19.3473C3.28357 19.7062 3.57458 19.9973 3.93357 19.9973H5.92137C5.92153 19.9973 5.92121 19.9973 5.92137 19.9973H7.92185C7.92207 19.9973 7.92162 19.9973 7.92185 19.9973H10.9991C10.9994 19.9973 10.9988 19.9973 10.9991 19.9973H13C13.0003 19.9973 13.0007 19.9973 13.001 19.9973H16.0768C16.0772 19.9973 16.0776 19.9973 16.078 19.9973H18.078C18.0784 19.9973 18.0788 19.9973 18.0792 19.9973H20.0664C20.4254 19.9973 20.7164 19.7062 20.7164 19.3473C20.7164 18.9883 20.4254 18.6973 20.0664 18.6973H19.028ZM17.728 18.6973V10.991C17.728 10.632 17.437 10.341 17.078 10.341C16.719 10.341 16.428 10.632 16.428 10.991V18.6973H17.728ZM6.27185 18.6973L6.27185 12.991C6.27185 12.632 6.56286 12.341 6.92185 12.341C7.28083 12.341 7.57185 12.632 7.57185 12.991V18.6973H6.27185ZM11.35 18.6973H12.65V15.5535C12.65 15.1945 12.359 14.9035 12 14.9035C11.641 14.9035 11.35 15.1945 11.35 15.5535V18.6973Z" fill="#7B7E86"/>
<path fill-rule="evenodd" clip-rule="evenodd" d="M19.078 5.69098C19.078 6.79555 18.1825 7.69098 17.078 7.69098C16.7418 7.69098 16.425 7.60804 16.1469 7.46151L13.8605 9.58068C13.8547 9.5662 13.8489 9.5518 13.8428 9.53749C13.944 9.77677 14 10.0398 14 10.316C14 11.4205 13.1045 12.316 12 12.316C10.8954 12.316 9.99997 11.4205 9.99997 10.316C9.99997 10.251 10.0031 10.1867 10.0091 10.1232L8.25492 9.18194C7.90112 9.4985 7.43396 9.69098 6.92184 9.69098C5.81727 9.69098 4.92184 8.79555 4.92184 7.69098C4.92184 6.58641 5.81727 5.69098 6.92184 5.69098C8.02641 5.69098 8.92184 6.58641 8.92184 7.69098C8.92184 7.81265 8.91098 7.93179 8.89016 8.04747L10.5502 8.93823C10.5178 8.9723 10.4866 9.00751 10.4567 9.04379C10.8235 8.5993 11.3786 8.31598 12 8.31598C12.3703 8.31598 12.7172 8.41665 13.0147 8.59212C13.0147 8.59212 13.0147 8.59213 13.0147 8.59212L15.2553 6.51544C15.1414 6.26405 15.078 5.98492 15.078 5.69098C15.078 4.58641 15.9734 3.69098 17.078 3.69098C18.1825 3.69098 19.078 4.58641 19.078 5.69098ZM17.778 5.69098C17.778 6.07758 17.4646 6.39098 17.078 6.39098C16.6914 6.39098 16.378 6.07758 16.378 5.69098C16.378 5.30438 16.6914 4.99098 17.078 4.99098C17.4646 4.99098 17.778 5.30438 17.778 5.69098ZM7.62184 7.69098C7.62184 8.07758 7.30844 8.39098 6.92184 8.39098C6.53524 8.39098 6.22184 8.07758 6.22184 7.69098C6.22184 7.30438 6.53524 6.99098 6.92184 6.99098C7.30844 6.99098 7.62184 7.30438 7.62184 7.69098ZM12 11.016C12.3866 11.016 12.7 10.7026 12.7 10.316C12.7 9.92938 12.3866 9.61598 12 9.61598C11.6134 9.61598 11.3 9.92938 11.3 10.316C11.3 10.7026 11.6134 11.016 12 11.016Z" fill="#7B7E86"/>
</svg>
