<svg width="24" height="24" viewBox="0 0 24 24" fill="none" xmlns="http://www.w3.org/2000/svg">
<path d="M8.5 10C9.05228 10 9.5 10.4477 9.5 11C9.5 11.5523 9.05228 12 8.5 12C7.94772 12 7.5 11.5523 7.5 11C7.5 10.4477 7.94772 10 8.5 10Z" fill="#7B7E86"/>
<path d="M15.5 10C16.0523 10 16.5 10.4477 16.5 11C16.5 11.5523 16.0523 12 15.5 12C14.9477 12 14.5 11.5523 14.5 11C14.5 10.4477 14.9477 10 15.5 10Z" fill="#7B7E86"/>
<path d="M12 10C12.5523 10 13 10.4477 13 11C13 11.5523 12.5523 12 12 12C11.4477 12 11 11.5523 11 11C11 10.4477 11.4477 10 12 10Z" fill="#7B7E86"/>
<path fill-rule="evenodd" clip-rule="evenodd" d="M7 5C5.34315 5 4 6.34315 4 8V18.7129C4 19.803 5.26091 20.409 6.1121 19.7281L9.52219 17H17C18.6569 17 20 15.6569 20 14V8C20 6.34315 18.6569 5 17 5H7ZM9.06617 15.7L5.3 18.7129L5.3 8C5.3 7.06112 6.06112 6.3 7 6.3H17C17.9389 6.3 18.7 7.06112 18.7 8V14C18.7 14.9389 17.9389 15.7 17 15.7H9.06617Z" fill="#7B7E86"/>
</svg>
