<svg width="24" height="24" viewBox="0 0 24 24" fill="none" xmlns="http://www.w3.org/2000/svg">
<path d="M13.7001 13.3458C13.7001 13.5115 13.5657 13.6458 13.4001 13.6458L10.6 13.6458C10.4343 13.6458 10.3 13.5115 10.3 13.3458L10.3 10.5457C10.3 10.3801 10.4343 10.2457 10.6 10.2457L13.4001 10.2457C13.5657 10.2457 13.7001 10.3801 13.7001 10.5457V13.3458Z" fill="#7B7E86"/>
<path fill-rule="evenodd" clip-rule="evenodd" d="M11.3501 2.94565V5.94565L9.6501 5.94575V3.94563C9.6501 3.58665 9.35908 3.29563 9.0001 3.29563C8.64111 3.29563 8.3501 3.58665 8.3501 3.94563V6.01635C7.21499 6.26708 6.32136 7.16073 6.07066 8.29585L4.00008 8.29585C3.6411 8.29585 3.35008 8.58686 3.35008 8.94585C3.35008 9.30484 3.6411 9.59585 4.00008 9.59585H6.00007L6.00007 11.2958L3.0001 11.2959C2.64111 11.2959 2.3501 11.5869 2.3501 11.9459C2.3501 12.3048 2.64111 12.5958 3.0001 12.5958H6.00007L6.00007 14.2958H4.00008C3.6411 14.2958 3.35008 14.5869 3.35008 14.9459C3.35008 15.3048 3.6411 15.5958 4.00008 15.5958H6.0707C6.32146 16.7309 7.21506 17.6244 8.3501 17.8752V19.9457C8.3501 20.3046 8.64111 20.5957 9.0001 20.5957C9.35908 20.5957 9.6501 20.3046 9.6501 19.9457L9.6501 17.9458H11.3501V20.9457C11.3501 21.3046 11.6411 21.5957 12.0001 21.5957C12.3591 21.5957 12.6501 21.3046 12.6501 20.9457V17.9458H14.3501V19.9457C14.3501 20.3046 14.6411 20.5957 15.0001 20.5957C15.3591 20.5957 15.6501 20.3046 15.6501 19.9457V17.8751C16.7851 17.6244 17.6787 16.7309 17.9294 15.5958H20.0001C20.3591 15.5958 20.6501 15.3048 20.6501 14.9458C20.6501 14.5869 20.3591 14.2958 20.0001 14.2958L18.0001 14.2959L18.0001 12.5958H21.0001C21.3591 12.5958 21.6501 12.3048 21.6501 11.9458C21.6501 11.5869 21.3591 11.2958 21.0001 11.2958H18.0001V9.59585L20.0001 9.59585C20.3591 9.59585 20.6501 9.30483 20.6501 8.94585C20.6501 8.58686 20.3591 8.29585 20.0001 8.29585L17.9295 8.29585C17.6788 7.16075 16.7852 6.26711 15.6501 6.01636V3.94563C15.6501 3.58665 15.3591 3.29563 15.0001 3.29563C14.6411 3.29563 14.3501 3.58665 14.3501 3.94563V5.94575L12.6501 5.94565V2.94565C12.6501 2.58667 12.3591 2.29565 12.0001 2.29565C11.6411 2.29565 11.3501 2.58667 11.3501 2.94565ZM15.0001 14.3458C15.0001 14.6772 14.7314 14.9458 14.4001 14.9458H9.6C9.26863 14.9458 9 14.6772 9 14.3458L9 9.54574C9 9.21437 9.26863 8.94574 9.6 8.94574L14.4001 8.94574C14.7314 8.94574 15.0001 9.21437 15.0001 9.54574V14.3458Z" fill="#7B7E86"/>
</svg>
