<svg width="24" height="24" viewBox="0 0 24 24" fill="none" xmlns="http://www.w3.org/2000/svg">
<path fill-rule="evenodd" clip-rule="evenodd" d="M14.4001 15.0002C14.7314 15.0002 15.0001 14.7316 15.0001 14.4002V9.60014C15.0001 9.26877 14.7314 9.00014 14.4001 9.00014L9.60002 9.00014C9.26865 9.00014 9.00002 9.26877 9.00002 9.60014L9.00002 14.4002C9.00002 14.7316 9.26865 15.0002 9.60002 15.0002H14.4001ZM13.7001 10.6001C13.7001 10.4345 13.5658 10.3001 13.4001 10.3001L10.6 10.3001C10.4343 10.3001 10.3 10.4345 10.3 10.6001L10.3 13.4002C10.3 13.5659 10.4343 13.7002 10.6 13.7002L13.4001 13.7002C13.5658 13.7002 13.7001 13.5659 13.7001 13.4002V10.6001Z" fill="#7B7E86"/>
<path fill-rule="evenodd" clip-rule="evenodd" d="M11.3501 3.0001V6.0001L9.6501 6.00019V4.00015C9.6501 3.64117 9.35908 3.35015 9.0001 3.35015C8.64111 3.35015 8.3501 3.64117 8.3501 4.00015V6.0708C7.21499 6.32153 6.32136 7.21518 6.07066 8.35029L4.00008 8.35029C3.6411 8.35029 3.35008 8.64131 3.35008 9.00029C3.35008 9.35928 3.6411 9.65029 4.00008 9.65029H6.00007L6.00007 11.3503L3.0001 11.3503C2.64111 11.3503 2.3501 11.6413 2.3501 12.0003C2.3501 12.3593 2.64111 12.6503 3.0001 12.6503H6.00007L6.00007 14.3503H4.00008C3.6411 14.3503 3.35008 14.6413 3.35008 15.0003C3.35008 15.3593 3.6411 15.6503 4.00008 15.6503H6.0707C6.32146 16.7853 7.21506 17.6789 8.3501 17.9296V20.0001C8.3501 20.3591 8.64111 20.6501 9.0001 20.6501C9.35908 20.6501 9.6501 20.3591 9.6501 20.0001L9.6501 18.0002H11.3501V21.0001C11.3501 21.3591 11.6411 21.6501 12.0001 21.6501C12.3591 21.6501 12.6501 21.3591 12.6501 21.0001V18.0002H14.3501V20.0001C14.3501 20.3591 14.6411 20.6501 15.0001 20.6501C15.3591 20.6501 15.6501 20.3591 15.6501 20.0001V17.9296C16.7851 17.6789 17.6787 16.7853 17.9294 15.6503H20.0001C20.3591 15.6503 20.6501 15.3593 20.6501 15.0003C20.6501 14.6413 20.3591 14.3503 20.0001 14.3503L18.0001 14.3503L18.0001 12.6503H21.0001C21.3591 12.6503 21.6501 12.3593 21.6501 12.0003C21.6501 11.6413 21.3591 11.3503 21.0001 11.3503H18.0001V9.65029L20.0001 9.65029C20.3591 9.65029 20.6501 9.35928 20.6501 9.00029C20.6501 8.64131 20.3591 8.35029 20.0001 8.35029L17.9295 8.35029C17.6788 7.21519 16.7852 6.32155 15.6501 6.07081V4.00015C15.6501 3.64117 15.3591 3.35015 15.0001 3.35015C14.6411 3.35015 14.3501 3.64117 14.3501 4.00015V6.00019L12.6501 6.0001V3.0001C12.6501 2.64111 12.3591 2.3501 12.0001 2.3501C11.6411 2.3501 11.3501 2.64111 11.3501 3.0001ZM16.6917 15.0003C16.6917 14.9646 16.6945 14.9296 16.7001 14.8954L16.7001 9.00019C16.7001 8.06131 15.939 7.30019 15.0001 7.30019L9.00007 7.30019C8.06119 7.30019 7.30007 8.06131 7.30007 9.0002L7.30007 15.0002C7.30007 15.9391 8.06119 16.7002 9.00007 16.7002H15.0001C15.9089 16.7002 16.6512 15.987 16.6978 15.0897C16.6937 15.0605 16.6917 15.0306 16.6917 15.0003Z" fill="#7B7E86"/>
</svg>
