<svg width="24" height="24" viewBox="0 0 24 24" fill="none" xmlns="http://www.w3.org/2000/svg">
<path d="M14.4785 12.4399C14.7215 12.1756 14.7042 11.7645 14.4399 11.5215C14.1756 11.2785 13.7645 11.2958 13.5215 11.5601L11.4826 13.7778L10.4596 12.7548C10.2058 12.5009 9.79422 12.5009 9.54038 12.7548C9.28654 13.0086 9.28654 13.4202 9.54038 13.674L10.8215 14.9551C11.2036 15.3372 11.8269 15.3241 12.1926 14.9263L14.4785 12.4399Z" fill="#7B7E86"/>
<path fill-rule="evenodd" clip-rule="evenodd" d="M10.1259 5C10.0445 4.78215 10 4.54629 10 4.30005C10 3.19548 10.8954 2.30005 12 2.30005C13.1046 2.30005 14 3.19548 14 4.30005C14 4.54629 13.9555 4.78215 13.8741 5H16C17.6569 5 19 6.34315 19 8V18C19 19.6569 17.6569 21 16 21H8C6.34315 21 5 19.6569 5 18V8C5 6.34315 6.34315 5 8 5H10.1259ZM11.9916 5C11.6089 4.99552 11.3 4.68386 11.3 4.30005C11.3 3.91345 11.6134 3.60005 12 3.60005C12.3866 3.60005 12.7 3.91345 12.7 4.30005C12.7 4.68386 12.3911 4.99552 12.0084 5H11.9916ZM11.9859 6.3H9.34733C9.52721 7.04587 10.1989 7.6 11 7.6H13C13.8011 7.6 14.4728 7.04587 14.6527 6.3H12.0141C12.0094 6.30003 12.0047 6.30005 12 6.30005C11.9953 6.30005 11.9906 6.30003 11.9859 6.3ZM8 6.3H8.02643C8.22199 7.76774 9.47877 8.9 11 8.9H13C14.5212 8.9 15.778 7.76774 15.9736 6.3H16C16.9389 6.3 17.7 7.06112 17.7 8V18C17.7 18.9389 16.9389 19.7 16 19.7H8C7.06112 19.7 6.3 18.9389 6.3 18V8C6.3 7.06112 7.06112 6.3 8 6.3Z" fill="#7B7E86"/>
</svg>
