<svg width="24" height="24" viewBox="0 0 24 24" fill="none" xmlns="http://www.w3.org/2000/svg">
<path d="M8.47798 14.2461C8.55755 14.3707 8.54573 14.535 8.44125 14.6395L5.66974 17.411C5.54634 17.5344 5.34367 17.5271 5.23483 17.3907C4.24528 16.1505 3.58963 14.6322 3.40399 12.9718C3.38461 12.7984 3.52274 12.65 3.69718 12.65H7.61673C7.76453 12.65 7.88914 12.758 7.92093 12.9023C8.02772 13.3872 8.21878 13.8406 8.47798 14.2461Z" fill="#7B7E86"/>
<path d="M8.44128 9.3604C8.54576 9.46488 8.55758 9.62927 8.47801 9.75378C8.21879 10.1594 8.02772 10.6127 7.92093 11.0977C7.88914 11.242 7.76453 11.35 7.61672 11.35H3.69717C3.52273 11.35 3.3846 11.2016 3.40398 11.0282C3.5896 9.36779 4.24526 7.84939 5.23482 6.60916C5.34367 6.47275 5.54634 6.46546 5.66974 6.58886L8.44128 9.3604Z" fill="#7B7E86"/>
<path d="M11.35 7.61672C11.35 7.76452 11.242 7.88913 11.0977 7.92092C10.6128 8.0277 10.1595 8.21875 9.75391 8.47792C9.6294 8.55748 9.46502 8.54566 9.36054 8.44119L6.58898 5.66963C6.46558 5.54623 6.47287 5.34355 6.60929 5.23471C7.84949 4.24518 9.36785 3.58954 11.0282 3.40392C11.2016 3.38454 11.35 3.52267 11.35 3.69711V7.61672Z" fill="#7B7E86"/>
<path d="M14.6395 8.44124C14.535 8.54572 14.3707 8.55754 14.2462 8.47797C13.8406 8.21878 13.3873 8.02772 12.9023 7.92093C12.758 7.88914 12.65 7.76453 12.65 7.61672V3.69711C12.65 3.52267 12.7984 3.38454 12.9718 3.40392C14.6322 3.58955 16.1506 4.2452 17.3908 5.23476C17.5272 5.3436 17.5345 5.54628 17.4111 5.66968L14.6395 8.44124Z" fill="#7B7E86"/>
<path d="M16.3833 11.35C16.2354 11.35 16.1108 11.242 16.0791 11.0977C15.9723 10.6127 15.7812 10.1594 15.522 9.75386C15.4425 9.62935 15.4543 9.46497 15.5588 9.36049L18.3303 6.58892C18.4537 6.46552 18.6564 6.47281 18.7652 6.60923C19.7548 7.84944 20.4104 9.36782 20.596 11.0282C20.6154 11.2016 20.4773 11.35 20.3028 11.35H16.3833Z" fill="#7B7E86"/>
<path d="M15.5588 14.6394C15.4543 14.535 15.4425 14.3706 15.5221 14.2461C15.7812 13.8405 15.9723 13.3872 16.079 12.9023C16.1108 12.758 16.2354 12.65 16.3833 12.65H20.3028C20.4773 12.65 20.6154 12.7984 20.596 12.9718C20.4104 14.6321 19.7548 16.1505 18.7652 17.3907C18.6564 17.5271 18.4537 17.5344 18.3303 17.411L15.5588 14.6394Z" fill="#7B7E86"/>
<path d="M12.65 16.3832C12.65 16.2354 12.758 16.1108 12.9023 16.079C13.3873 15.9722 13.8406 15.7812 14.2462 15.522C14.3707 15.4424 14.5351 15.4542 14.6396 15.5587L17.4111 18.3302C17.5345 18.4536 17.5272 18.6563 17.3908 18.7651C16.1506 19.7547 14.6322 20.4103 12.9718 20.596C12.7984 20.6153 12.65 20.4772 12.65 20.3028V16.3832Z" fill="#7B7E86"/>
<path d="M11.35 16.3833C11.35 16.2354 11.242 16.1108 11.0977 16.079C10.6128 15.9723 10.1594 15.7812 9.75386 15.522C9.62936 15.4425 9.46497 15.4543 9.3605 15.5588L6.58899 18.3303C6.46559 18.4537 6.47288 18.6563 6.60929 18.7652C7.8495 19.7547 9.36785 20.4103 11.0282 20.596C11.2016 20.6153 11.35 20.4772 11.35 20.3028V16.3833Z" fill="#7B7E86"/>
</svg>
