<svg width="24" height="24" viewBox="0 0 24 24" fill="none" xmlns="http://www.w3.org/2000/svg">
<path fill-rule="evenodd" clip-rule="evenodd" d="M3.35004 12C3.35004 7.22271 7.22277 3.34998 12 3.34998C16.7773 3.34998 20.65 7.22271 20.65 12C20.65 16.7772 16.7773 20.65 12 20.65C7.22277 20.65 3.35004 16.7772 3.35004 12ZM7.51437 6.59502C7.38985 6.4705 7.39855 6.26556 7.53842 6.15856C8.53171 5.39874 9.72448 4.88654 11.0245 4.71414C11.199 4.691 11.35 4.82974 11.35 5.00576V7.61677C11.35 7.76457 11.2421 7.88918 11.0977 7.92097C10.6128 8.02775 10.1595 8.2188 9.75396 8.47798C9.62946 8.55754 9.46507 8.54572 9.3606 8.44125L7.51437 6.59502ZM8.47807 9.75385C8.55764 9.62934 8.54583 9.46495 8.44135 9.36047L6.59512 7.51425C6.4706 7.38973 6.26566 7.39844 6.15867 7.5383C5.39881 8.53162 4.88659 9.72443 4.7142 11.0245C4.69106 11.199 4.8298 11.35 5.00581 11.35H7.61682C7.76462 11.35 7.88923 11.2421 7.92102 11.0977C8.02781 10.6128 8.21887 10.1594 8.47807 9.75385ZM7.92102 12.9023C7.88924 12.758 7.76462 12.65 7.61682 12.65H5.00583C4.82981 12.65 4.69107 12.801 4.71421 12.9755C4.88662 14.2756 5.39884 15.4684 6.15867 16.4617C6.26567 16.6015 6.47061 16.6102 6.59513 16.4857L8.44132 14.6395C8.54579 14.535 8.55761 14.3707 8.47805 14.2461C8.21886 13.8406 8.02781 13.3873 7.92102 12.9023ZM9.75392 15.522C9.62942 15.4425 9.46503 15.4543 9.36055 15.5588L7.51437 17.4049C7.38985 17.5295 7.39856 17.7344 7.53842 17.8414C8.53172 18.6012 9.72449 19.1134 11.0245 19.2858C11.199 19.3089 11.35 19.1702 11.35 18.9942V16.3833C11.35 16.2355 11.2421 16.1109 11.0977 16.0791C10.6128 15.9723 10.1595 15.7812 9.75392 15.522ZM12.9023 16.0791C12.758 16.1109 12.65 16.2355 12.65 16.3833V18.9942C12.65 19.1702 12.801 19.3089 12.9755 19.2858C14.2756 19.1134 15.4684 18.6012 16.4617 17.8413C16.6016 17.7344 16.6103 17.5294 16.4858 17.4049L14.6396 15.5588C14.5351 15.4543 14.3708 15.4425 14.2463 15.522C13.8407 15.7812 13.3873 15.9723 12.9023 16.0791ZM15.5221 14.2461C15.4426 14.3706 15.4544 14.535 15.5589 14.6395L17.405 16.4856C17.5295 16.6102 17.7345 16.6015 17.8414 16.4616C18.6013 15.4683 19.1135 14.2756 19.2859 12.9755C19.309 12.801 19.1703 12.65 18.9942 12.65H16.3833C16.2355 12.65 16.1109 12.758 16.0791 12.9023C15.9724 13.3873 15.7813 13.8406 15.5221 14.2461ZM16.0791 11.0977C16.1109 11.2421 16.2355 11.35 16.3833 11.35H18.9943C19.1703 11.35 19.309 11.199 19.2859 11.0245C19.1135 9.72446 18.6013 8.53167 17.8415 7.53836C17.7345 7.3985 17.5295 7.38979 17.405 7.51431L15.5588 9.36049C15.4543 9.46497 15.4425 9.62936 15.5221 9.75386C15.7813 10.1594 15.9724 10.6128 16.0791 11.0977ZM14.2462 8.47799C14.3707 8.55755 14.5351 8.54573 14.6396 8.44125L16.4858 6.59506C16.6103 6.47055 16.6016 6.2656 16.4617 6.15861C15.4684 5.39876 14.2756 4.88654 12.9755 4.71414C12.801 4.691 12.65 4.82974 12.65 5.00576V7.61675C12.65 7.76455 12.758 7.88916 12.9023 7.92095C13.3873 8.02773 13.8406 8.21879 14.2462 8.47799ZM9.1233 12C9.1233 10.4112 10.4113 9.12324 12.0001 9.12324C13.5889 9.12324 14.8769 10.4112 14.8769 12C14.8769 13.5888 13.5889 14.8768 12.0001 14.8768C10.4113 14.8768 9.1233 13.5888 9.1233 12Z" fill="#7B7E86"/>
</svg>
