<svg width="24" height="24" viewBox="0 0 24 24" fill="none" xmlns="http://www.w3.org/2000/svg">
<path fill-rule="evenodd" clip-rule="evenodd" d="M7 5C5.34315 5 4 6.34315 4 8V18.7129C4 19.803 5.26091 20.409 6.1121 19.7281L9.52219 17H17C18.6569 17 20 15.6569 20 14V8C20 6.34315 18.6569 5 17 5H7ZM9.06617 15.7L5.3 18.7129L5.3 8C5.3 7.06112 6.06112 6.3 7 6.3H17C17.9389 6.3 18.7 7.06112 18.7 8V14C18.7 14.9389 17.9389 15.7 17 15.7H9.06617Z" fill="#7B7E86"/>
<path d="M9.14213 8.99356C8.78314 8.99356 8.49213 9.28458 8.49213 9.64356C8.49213 10.0025 8.78314 10.2936 9.14213 10.2936L14.8578 10.2936C15.2168 10.2936 15.5078 10.0025 15.5078 9.64356C15.5078 9.28458 15.2168 8.99356 14.8578 8.99356H9.14213Z" fill="#7B7E86"/>
<path d="M9.14213 11.9861C8.78314 11.9861 8.49213 12.2771 8.49213 12.6361C8.49213 12.9951 8.78314 13.2861 9.14213 13.2861L12.7912 13.2861C13.1501 13.2861 13.4412 12.9951 13.4412 12.6361C13.4412 12.2771 13.1501 11.9861 12.7912 11.9861L9.14213 11.9861Z" fill="#7B7E86"/>
</svg>
