<svg width="24" height="24" viewBox="0 0 24 24" fill="none" xmlns="http://www.w3.org/2000/svg">
<path fill-rule="evenodd" clip-rule="evenodd" d="M4 8C4 6.34315 5.34315 5 7 5H17C18.6569 5 20 6.34315 20 8V14C20 15.6569 18.6569 17 17 17H9.52219L6.1121 19.7281C5.26091 20.409 4 19.803 4 18.7129V8ZM8.49213 9.64353C8.49213 9.28455 8.78314 8.99353 9.14213 8.99353H14.8578C15.2168 8.99353 15.5078 9.28455 15.5078 9.64353C15.5078 10.0025 15.2168 10.2935 14.8578 10.2935L9.14213 10.2935C8.78314 10.2935 8.49213 10.0025 8.49213 9.64353ZM8.49213 12.6361C8.49213 12.2771 8.78314 11.9861 9.14213 11.9861L12.7912 11.9861C13.1501 11.9861 13.4412 12.2771 13.4412 12.6361C13.4412 12.9951 13.1501 13.2861 12.7912 13.2861L9.14213 13.2861C8.78314 13.2861 8.49213 12.9951 8.49213 12.6361Z" fill="#7B7E86"/>
</svg>
