<svg width="24" height="24" viewBox="0 0 24 24" fill="none" xmlns="http://www.w3.org/2000/svg">
<path fill-rule="evenodd" clip-rule="evenodd" d="M15.3004 6.30034C15.3004 8.12307 13.8228 9.60069 12.0001 9.60069C10.1773 9.60069 8.69971 8.12307 8.69971 6.30034C8.69971 4.47761 10.1773 3 12.0001 3C13.8228 3 15.3004 4.47761 15.3004 6.30034ZM14.0004 6.30034C14.0004 7.4051 13.1048 8.30069 12.0001 8.30069C10.8953 8.30069 9.99971 7.4051 9.99971 6.30034C9.99971 5.19558 10.8953 4.3 12.0001 4.3C13.1048 4.3 14.0004 5.19558 14.0004 6.30034Z" fill="#7B7E86"/>
<path fill-rule="evenodd" clip-rule="evenodd" d="M15.3022 17.698C15.3022 19.5217 13.8238 21.0001 12.0001 21.0001C10.1764 21.0001 8.698 19.5217 8.698 17.698C8.698 15.8743 10.1764 14.3959 12.0001 14.3959C13.8238 14.3959 15.3022 15.8743 15.3022 17.698ZM14.0022 17.698C14.0022 18.8037 13.1058 19.7001 12.0001 19.7001C10.8944 19.7001 9.998 18.8037 9.998 17.698C9.998 16.5922 10.8944 15.6959 12.0001 15.6959C13.1058 15.6959 14.0022 16.5922 14.0022 17.698Z" fill="#7B7E86"/>
<path fill-rule="evenodd" clip-rule="evenodd" d="M9.6003 12.0001C9.6003 10.1774 8.12279 8.69993 6.30018 8.69993C4.47757 8.69993 3.00006 10.1774 3.00006 12.0001C3.00006 13.8227 4.47758 15.3002 6.30018 15.3002C8.12279 15.3002 9.6003 13.8227 9.6003 12.0001ZM8.3003 12.0001C8.3003 10.8954 7.40482 9.99993 6.30018 9.99993C5.19554 9.99993 4.30006 10.8954 4.30006 12.0001C4.30006 13.1047 5.19555 14.0002 6.30018 14.0002C7.40482 14.0002 8.3003 13.1047 8.3003 12.0001Z" fill="#7B7E86"/>
<path fill-rule="evenodd" clip-rule="evenodd" d="M17.701 8.70102C19.523 8.70102 21 10.178 21 12C21 13.822 19.523 15.2991 17.701 15.2991C15.879 15.2991 14.402 13.822 14.402 12C14.402 10.178 15.879 8.70102 17.701 8.70102ZM17.701 10.001C18.805 10.001 19.7 10.896 19.7 12C19.7 13.1041 18.805 13.9991 17.701 13.9991C16.597 13.9991 15.702 13.1041 15.702 12C15.702 10.896 16.597 10.001 17.701 10.001Z" fill="#7B7E86"/>
</svg>
