<svg width="24" height="24" viewBox="0 0 24 24" fill="none" xmlns="http://www.w3.org/2000/svg">
<path d="M12.0001 9.60069C13.8228 9.60069 15.3004 8.12307 15.3004 6.30034C15.3004 4.47761 13.8228 3 12.0001 3C10.1773 3 8.69971 4.47761 8.69971 6.30034C8.69971 8.12307 10.1773 9.60069 12.0001 9.60069Z" fill="#7B7E86"/>
<path d="M12.0001 21.0001C13.8238 21.0001 15.3022 19.5217 15.3022 17.698C15.3022 15.8743 13.8238 14.3959 12.0001 14.3959C10.1764 14.3959 8.698 15.8743 8.698 17.698C8.698 19.5217 10.1764 21.0001 12.0001 21.0001Z" fill="#7B7E86"/>
<path d="M6.30018 8.69993C8.12279 8.69993 9.6003 10.1774 9.6003 12.0001C9.6003 13.8227 8.12279 15.3002 6.30018 15.3002C4.47758 15.3002 3.00006 13.8227 3.00006 12.0001C3.00006 10.1774 4.47757 8.69993 6.30018 8.69993Z" fill="#7B7E86"/>
<path d="M21 12C21 10.178 19.523 8.70102 17.701 8.70102C15.879 8.70102 14.402 10.178 14.402 12C14.402 13.822 15.879 15.2991 17.701 15.2991C19.523 15.2991 21 13.822 21 12Z" fill="#7B7E86"/>
</svg>
