<svg width="24" height="24" viewBox="0 0 24 24" fill="none" xmlns="http://www.w3.org/2000/svg">
<path fill-rule="evenodd" clip-rule="evenodd" d="M9.00064 12.6723C10.1052 12.6723 11.0006 11.7769 11.0006 10.6723C11.0006 9.56773 10.1052 8.6723 9.00064 8.6723C7.89607 8.6723 7.00064 9.56773 7.00064 10.6723C7.00064 11.7769 7.89607 12.6723 9.00064 12.6723ZM9.00064 11.3723C9.38724 11.3723 9.70064 11.0589 9.70064 10.6723C9.70064 10.2857 9.38724 9.9723 9.00064 9.9723C8.61404 9.9723 8.30064 10.2857 8.30064 10.6723C8.30064 11.0589 8.61404 11.3723 9.00064 11.3723Z" fill="#7B7E86"/>
<path d="M15.5064 10.4829C15.7594 10.2283 15.7581 9.81673 15.5035 9.5637C15.2488 9.31067 14.8373 9.31198 14.5842 9.56663L8.58059 15.6086C8.32756 15.8633 8.32887 16.2748 8.58352 16.5278C8.83817 16.7809 9.24972 16.7796 9.50275 16.5249L15.5064 10.4829Z" fill="#7B7E86"/>
<path fill-rule="evenodd" clip-rule="evenodd" d="M17.0031 15.4859C17.0031 16.5905 16.1076 17.4859 15.0031 17.4859C13.8985 17.4859 13.0031 16.5905 13.0031 15.4859C13.0031 14.3813 13.8985 13.4859 15.0031 13.4859C16.1076 13.4859 17.0031 14.3813 17.0031 15.4859ZM15.7031 15.4859C15.7031 15.8725 15.3897 16.1859 15.0031 16.1859C14.6165 16.1859 14.3031 15.8725 14.3031 15.4859C14.3031 15.0993 14.6165 14.7859 15.0031 14.7859C15.3897 14.7859 15.7031 15.0993 15.7031 15.4859Z" fill="#7B7E86"/>
<path fill-rule="evenodd" clip-rule="evenodd" d="M8.78998 2.60001C8.78998 2.24103 8.49896 1.95001 8.13998 1.95001C7.78099 1.95001 7.48998 2.24103 7.48998 2.60001V3.99002H7C5.34 3.99002 4 5.33002 4 6.99002V17C4 18.66 5.34 20 7 20H17C18.66 20 20 18.66 20 17V6.99002C20 5.33002 18.65 3.99002 17 3.99002H16.5V2.60001C16.5 2.24103 16.209 1.95001 15.85 1.95001C15.491 1.95001 15.2 2.24103 15.2 2.60001V3.99002H12.65V2.60001C12.65 2.24103 12.359 1.95001 12 1.95001C11.641 1.95001 11.35 2.24103 11.35 2.60001V3.99002H8.78998V2.60001ZM7.48998 5.29002V6.86001C7.48998 7.219 7.78099 7.51001 8.13998 7.51001C8.49896 7.51001 8.78998 7.219 8.78998 6.86001V5.29002H11.35V6.86001C11.35 7.219 11.641 7.51001 12 7.51001C12.359 7.51001 12.65 7.219 12.65 6.86001V5.29002H15.2V6.86001C15.2 7.219 15.491 7.51001 15.85 7.51001C16.209 7.51001 16.5 7.219 16.5 6.86001V5.29002H17C17.94 5.29002 18.7 6.05002 18.7 6.99002V17C18.7 17.94 17.94 18.7 17 18.7H7C6.06 18.7 5.3 17.94 5.3 17V6.99002C5.3 6.05002 6.06 5.29002 7 5.29002H7.48998Z" fill="#7B7E86"/>
</svg>
