<svg width="24" height="24" viewBox="0 0 24 24" fill="none" xmlns="http://www.w3.org/2000/svg">
<path d="M9 10.2932C9.3866 10.2932 9.7 9.9798 9.7 9.5932C9.7 9.2066 9.3866 8.8932 9 8.8932C8.6134 8.8932 8.3 9.2066 8.3 9.5932C8.3 9.9798 8.6134 10.2932 9 10.2932Z" fill="#7B7E86"/>
<path d="M15.0024 15.1068C15.389 15.1068 15.7024 14.7934 15.7024 14.4068C15.7024 14.0202 15.389 13.7068 15.0024 13.7068C14.6158 13.7068 14.3024 14.0202 14.3024 14.4068C14.3024 14.7934 14.6158 15.1068 15.0024 15.1068Z" fill="#7B7E86"/>
<path fill-rule="evenodd" clip-rule="evenodd" d="M8.13998 1.95001C8.49896 1.95001 8.78998 2.24103 8.78998 2.60001V3.99002H11.35V2.60001C11.35 2.24103 11.641 1.95001 12 1.95001C12.359 1.95001 12.65 2.24103 12.65 2.60001V3.99002H15.2V2.60001C15.2 2.24103 15.491 1.95001 15.85 1.95001C16.209 1.95001 16.5 2.24103 16.5 2.60001V3.99002H17C18.65 3.99002 20 5.33002 20 6.99002V17C20 18.66 18.66 20 17 20H7C5.34 20 4 18.66 4 17V6.99002C4 5.33002 5.34 3.99002 7 3.99002H7.48998V2.60001C7.48998 2.24103 7.78099 1.95001 8.13998 1.95001ZM9 11.5932C10.1046 11.5932 11 10.6978 11 9.5932C11 8.48863 10.1046 7.5932 9 7.5932C7.89543 7.5932 7 8.48863 7 9.5932C7 10.6978 7.89543 11.5932 9 11.5932ZM15.5058 9.40383C15.7588 9.14919 15.7575 8.73763 15.5028 8.4846C15.2482 8.23157 14.8366 8.23288 14.5836 8.48752L8.57995 14.5295C8.32692 14.7842 8.32823 15.1957 8.58288 15.4487C8.83752 15.7018 9.24908 15.7005 9.50211 15.4458L15.5058 9.40383ZM15.0024 16.4068C16.107 16.4068 17.0024 15.5114 17.0024 14.4068C17.0024 13.3022 16.107 12.4068 15.0024 12.4068C13.8978 12.4068 13.0024 13.3022 13.0024 14.4068C13.0024 15.5114 13.8978 16.4068 15.0024 16.4068Z" fill="#7B7E86"/>
</svg>
