<svg width="24" height="24" viewBox="0 0 24 24" fill="none" xmlns="http://www.w3.org/2000/svg">
<path d="M10.727 3C10.7093 3.08543 10.7 3.17392 10.7 3.26457V4.90525C10.7 5.62322 11.2821 6.20525 12 6.20525C12.718 6.20525 13.3 5.62322 13.3 4.90525V3.26457C13.3 3.17392 13.2908 3.08543 13.2731 3H15.9355C17.5923 3 18.9355 4.34315 18.9355 6V11.4169C18.9355 11.8072 18.6123 12.1145 18.2312 12.1988C18.1725 12.2118 18.1138 12.2265 18.0552 12.2431L12.6623 13.7699C12.221 13.7699 12.0121 13.2696 12.5084 12.9372C13.9812 11.9863 14.1144 9.93648 13.1645 8.51158C12.1723 7.02325 10.1826 6.58267 8.65482 7.51302L6.12865 9.05132C5.66217 9.33538 5.06458 8.99961 5.06458 8.45345V6C5.06458 4.34315 6.40772 3 8.06458 3H10.727Z" fill="#7B7E86"/>
<path d="M3.80857 11.9862C2.77593 12.6151 2.22168 13.8023 2.40269 14.9977L2.63424 16.5268C2.82437 17.7824 3.78444 18.7823 5.03127 19.0232L10.8702 20.1514C11.4768 20.2687 12.1048 20.1957 12.6684 19.9426L19.62 16.8207C20.4409 16.452 20.856 15.5272 20.5858 14.6688C20.2976 13.753 19.3333 13.2324 18.4094 13.4939L13.0166 15.0207C12.5669 15.148 12.0937 15.1685 11.6347 15.0806L10.1316 14.7925C9.87878 14.7441 9.66878 14.5687 9.57605 14.3285C9.46019 14.0285 9.54967 13.6879 9.79805 13.4836L11.6826 11.9333C12.4896 11.2694 12.6626 10.1022 12.083 9.23267C11.4775 8.32446 10.2633 8.05562 9.33106 8.62333L3.80857 11.9862Z" fill="#7B7E86"/>
</svg>
