<svg width="25" height="24" viewBox="0 0 25 24" fill="none" xmlns="http://www.w3.org/2000/svg">
<path fill-rule="evenodd" clip-rule="evenodd" d="M5.58142 6.63721C5.58142 4.62137 7.22371 2.98721 9.24958 2.98721H15.9747C18.0006 2.98721 19.6429 4.62137 19.6429 6.63721V11C19.6429 11.359 19.3504 11.65 18.9897 11.65C18.6289 11.65 18.3364 11.359 18.3364 11V6.63721C18.3364 5.33934 17.2791 4.28721 15.9747 4.28721H13.9186V5.66257C13.9186 6.38054 13.3337 6.96257 12.6121 6.96257C11.8906 6.96257 11.3057 6.38054 11.3057 5.66257V4.28721H9.24958C7.94525 4.28721 6.88788 5.33934 6.88788 6.63721V7.50001C6.88788 7.85899 6.59542 8.15001 6.23465 8.15001C5.87388 8.15001 5.58142 7.85899 5.58142 7.50001V6.63721ZM10.6225 9.33852C11.2321 8.96913 12.0261 9.14406 12.422 9.73501C12.8011 10.3008 12.6879 11.0603 12.1602 11.4922L10.323 12.9962C9.86339 13.3724 9.69783 13.9994 9.91221 14.5519C10.0838 14.9941 10.4724 15.317 10.9403 15.4062L12.3846 15.6816C12.9458 15.7886 13.5244 15.7637 14.0742 15.6088L19.3111 14.1336C19.8717 13.9756 20.4569 14.29 20.6318 14.843C20.7957 15.3613 20.5438 15.9197 20.0457 16.1423L13.2948 19.1591C12.8511 19.3574 12.3567 19.4145 11.8792 19.3227L6.27747 18.2457C5.29592 18.0569 4.54013 17.2737 4.39045 16.2902L4.18325 14.9286C4.04075 13.9922 4.47708 13.0622 5.29 12.5697L10.6225 9.33852ZM13.5091 9.0139C12.7245 7.84282 11.1511 7.49616 9.943 8.22819L4.6105 11.4593C3.34787 12.2244 2.67018 13.6689 2.89151 15.1233L3.09871 16.4848C3.33118 18.0124 4.50508 19.2289 6.0296 19.5221L11.6313 20.5991C12.373 20.7417 13.1409 20.653 13.83 20.345L20.5809 17.3282C21.6834 16.8356 22.2408 15.5998 21.878 14.4527C21.4909 13.2288 20.1958 12.5332 18.9552 12.8827L13.7183 14.358C13.3643 14.4577 12.9918 14.4738 12.6305 14.4049L11.1862 14.1295C11.161 14.1247 11.1402 14.1073 11.131 14.0836C11.1195 14.0539 11.1284 14.0203 11.153 14.0001L12.9902 12.4962C14.036 11.6401 14.2602 10.1351 13.5091 9.0139Z" fill="#7E7E7E"/>
</svg>
