<svg width="24" height="24" viewBox="0 0 24 24" fill="none" xmlns="http://www.w3.org/2000/svg">
<path d="M13 12C13 12.5523 12.5523 13 12 13C11.4477 13 11 12.5523 11 12C11 11.4477 11.4477 11 12 11C12.5523 11 13 11.4477 13 12Z" fill="#7B7E86"/>
<path fill-rule="evenodd" clip-rule="evenodd" d="M15.9478 12.6479C15.6381 14.5489 13.9885 16 12 16C9.79084 16 7.99998 14.2091 7.99998 12C7.99998 9.79086 9.79084 8 12 8C13.9885 8 15.6381 9.45105 15.9478 11.3521C15.965 11.3507 15.9824 11.35 16 11.35H17C17.359 11.35 17.65 11.641 17.65 12C17.65 12.359 17.359 12.65 17 12.65H16C15.9824 12.65 15.965 12.6493 15.9478 12.6479ZM14.7 12C14.7 13.4912 13.4911 14.7 12 14.7C10.5088 14.7 9.29998 13.4912 9.29998 12C9.29998 10.5088 10.5088 9.3 12 9.3C13.4911 9.3 14.7 10.5088 14.7 12Z" fill="#7B7E86"/>
<path fill-rule="evenodd" clip-rule="evenodd" d="M3.99998 17V15.65H2.99998C2.64099 15.65 2.34998 15.359 2.34998 15C2.34998 14.641 2.64099 14.35 2.99998 14.35H3.99998V9.65H2.99998C2.64099 9.65 2.34998 9.35898 2.34998 9C2.34998 8.64102 2.64099 8.35 2.99998 8.35H3.99998V7C3.99998 5.34315 5.34312 4 6.99998 4H17C18.6568 4 20 5.34315 20 7V17C20 18.6569 18.6568 20 17 20H6.99998C5.34312 20 3.99998 18.6569 3.99998 17ZM6.99998 5.3H17C17.9389 5.3 18.7 6.06112 18.7 7V17C18.7 17.9389 17.9389 18.7 17 18.7H6.99998C6.06109 18.7 5.29998 17.9389 5.29998 17V15.65H5.99998C6.35896 15.65 6.64998 15.359 6.64998 15C6.64998 14.641 6.35896 14.35 5.99998 14.35H5.29998V9.65H5.99998C6.35896 9.65 6.64998 9.35898 6.64998 9C6.64998 8.64102 6.35896 8.35 5.99998 8.35H5.29998V7C5.29998 6.06112 6.06109 5.3 6.99998 5.3Z" fill="#7B7E86"/>
</svg>
