<svg width="24" height="24" viewBox="0 0 24 24" fill="none" xmlns="http://www.w3.org/2000/svg">
<path fill-rule="evenodd" clip-rule="evenodd" d="M12 14.7C13.4912 14.7 14.7 13.4912 14.7 12C14.7 10.5088 13.4912 9.3 12 9.3C10.5088 9.3 9.3 10.5088 9.3 12C9.3 13.4912 10.5088 14.7 12 14.7ZM13 12C13 12.5523 12.5523 13 12 13C11.4477 13 11 12.5523 11 12C11 11.4477 11.4477 11 12 11C12.5523 11 13 11.4477 13 12Z" fill="#7B7E86"/>
<path fill-rule="evenodd" clip-rule="evenodd" d="M4 7C4 5.34315 5.34315 4 7 4H17C18.6569 4 20 5.34315 20 7V17C20 18.6569 18.6569 20 17 20H7C5.34315 20 4 18.6569 4 17V15.6501H2.65C2.29101 15.6501 2 15.3591 2 15.0001C2 14.6411 2.29101 14.3501 2.65 14.3501H4V9.6501H2.65C2.29101 9.6501 2 9.35908 2 9.0001C2 8.64111 2.29101 8.3501 2.65 8.3501H4V7ZM15.9478 12.6479C15.6382 14.549 13.9885 16 12 16C9.79086 16 8 14.2091 8 12C8 9.79086 9.79086 8 12 8C13.9885 8 15.6382 9.45105 15.9478 11.3521C15.965 11.3507 15.9824 11.35 16 11.35H17C17.359 11.35 17.65 11.641 17.65 12C17.65 12.359 17.359 12.65 17 12.65H16C15.9824 12.65 15.965 12.6493 15.9478 12.6479Z" fill="#7B7E86"/>
</svg>
