<svg width="24" height="24" viewBox="0 0 24 24" fill="none" xmlns="http://www.w3.org/2000/svg">
<path fill-rule="evenodd" clip-rule="evenodd" d="M3 7C3 5.34315 4.34315 4 6 4H18C19.6569 4 21 5.34315 21 7V14.0022C21 15.659 19.6569 17.0022 18 17.0022H14V18.7H15.3512C15.7102 18.7 16.0012 18.991 16.0012 19.35C16.0012 19.709 15.7102 20 15.3512 20H8.6488C8.2898 20 7.99878 19.709 7.99878 19.35C7.99878 18.991 8.2898 18.7 8.6488 18.7H10V17.0022H6C4.34315 17.0022 3 15.659 3 14.0022V7ZM4.34677 14.3999C4.52582 15.1469 5.19806 15.7022 6 15.7022H18C18.8019 15.7022 19.4742 15.1469 19.6532 14.3999H4.34677Z" fill="#7B7E86"/>
</svg>
