<svg width="24" height="24" viewBox="0 0 24 24" fill="none" xmlns="http://www.w3.org/2000/svg">
<path fill-rule="evenodd" clip-rule="evenodd" d="M6.58354 4.44407C6.8304 4.16187 7.18707 4 7.562 4H16.4192C16.7932 4 17.1491 4.16108 17.3959 4.44208L21.2442 8.82321C21.6762 9.31505 21.6751 10.0514 21.2416 10.542L12.9742 19.8976C12.4567 20.4832 11.5433 20.4832 11.0259 19.8976L2.75688 10.5402C2.32406 10.0504 2.32221 9.3154 2.75257 8.82344L6.58354 4.44407ZM12.0127 5.3H12.025L14.8538 8.98642H9.18387L12.0127 5.3ZM10.374 5.3H7.562L4.33721 8.98642H7.54524L10.374 5.3ZM7.62014 10.2864H4.26747L9.83588 16.5878L7.62014 10.2864ZM12.0188 18.8769L15.0395 10.2864H8.99817L12.0188 18.8769ZM16.4924 8.98642L13.6636 5.3H16.4192L19.6573 8.98642H16.4924ZM16.4175 10.2864L14.2266 16.5171L19.7326 10.2864H16.4175Z" fill="#7B7E86"/>
</svg>
