<svg width="24" height="24" viewBox="0 0 24 24" fill="none" xmlns="http://www.w3.org/2000/svg">
<path d="M3.06178 8.49023C2.89314 8.68441 3.03141 8.98641 3.28859 8.98641L7.3834 8.98641C7.48305 8.98641 7.5762 8.93693 7.63199 8.85435L10.5953 4.46794C10.7299 4.2687 10.5872 4 10.3467 4H7.56198C7.18705 4 6.83038 4.16187 6.58352 4.44407C5.62414 5.54079 3.8713 7.55811 3.06178 8.49023Z" fill="#7B7E86"/>
<path d="M3.24305 10.2864C2.98519 10.2864 2.84564 10.588 3.01579 10.7817C5.23696 13.311 8.98606 17.548 10.5344 19.2969C10.6809 19.4625 10.9455 19.3002 10.8692 19.0926L7.70242 10.4829C7.65902 10.3648 7.54661 10.2864 7.42086 10.2864L3.24305 10.2864Z" fill="#7B7E86"/>
<path d="M13.2922 18.9498C13.2174 19.1575 13.4831 19.3171 13.6289 19.1514C15.1275 17.448 18.7171 13.3667 20.9836 10.7821C21.1537 10.5882 21.0142 10.2864 20.7564 10.2864L16.623 10.2864C16.4965 10.2864 16.3836 10.3658 16.3408 10.4848L13.2922 18.9498Z" fill="#7B7E86"/>
<path d="M20.707 8.98641C20.9645 8.98641 21.1026 8.68382 20.9334 8.48976C20.1201 7.55707 18.3594 5.53897 17.3959 4.44208C17.1491 4.16108 16.7932 4 16.4192 4H13.3965C13.1502 4 13.0088 4.28045 13.1554 4.47845L16.4013 8.86486C16.4579 8.94132 16.5473 8.98641 16.6424 8.98641L20.707 8.98641Z" fill="#7B7E86"/>
<path d="M14.8858 10.6881C14.9562 10.4926 14.8114 10.2864 14.6036 10.2864L9.44531 10.2864C9.23665 10.2864 9.09172 10.4941 9.16375 10.69L11.7701 17.7761C11.8668 18.0389 12.239 18.0377 12.3339 17.7742L14.8858 10.6881Z" fill="#7B7E86"/>
<path d="M14.4764 8.50631C14.6248 8.70406 14.4837 8.98641 14.2364 8.98641L9.72856 8.98641C9.48608 8.98641 9.34378 8.71365 9.48252 8.51477L11.6539 5.40222C11.7707 5.23469 12.0172 5.2304 12.1398 5.39376L14.4764 8.50631Z" fill="#7B7E86"/>
</svg>
