<svg width="24" height="24" viewBox="0 0 24 24" fill="none" xmlns="http://www.w3.org/2000/svg">
<path d="M11.1352 3.49608C11.3225 3.29518 11.1761 2.96936 10.9036 3.00232C8.26225 3.32185 5.97129 4.78119 4.53533 6.87489C4.40234 7.06879 4.54542 7.32485 4.78026 7.32485H8.28787C8.40377 7.32485 8.50918 7.25821 8.56086 7.15428C8.67554 6.92364 8.79476 6.69969 8.91694 6.48309C9.53601 5.38554 10.2858 4.40677 11.1352 3.49608Z" fill="#7B7E86"/>
<path d="M3.79902 8.63444C3.6757 8.63444 3.56435 8.70946 3.52112 8.82515C3.26086 9.52175 3.08369 10.259 3.00169 11.0247C2.98302 11.1991 3.12179 11.348 3.29686 11.348H7.06767C7.22574 11.348 7.35648 11.2257 7.37278 11.0682C7.44526 10.3678 7.59488 9.68823 7.79741 9.0397C7.85956 8.84069 7.71384 8.63444 7.5057 8.63444H3.79902Z" fill="#7B7E86"/>
<path d="M3.29686 12.6576C3.12179 12.6576 2.98302 12.8065 3.00169 12.9809C3.08405 13.7501 3.26244 14.4905 3.52461 15.1898C3.56792 15.3054 3.67919 15.3802 3.80239 15.3802H7.50853C7.71677 15.3802 7.8625 15.1738 7.80016 14.9748C7.59623 14.3236 7.44558 13.641 7.37278 12.9374C7.35648 12.7799 7.22574 12.6576 7.06767 12.6576H3.29686Z" fill="#7B7E86"/>
<path d="M4.78643 16.6898C4.55143 16.6898 4.40839 16.9462 4.5417 17.1401C5.96943 19.2162 8.23864 20.6667 10.856 20.9975C11.1359 21.0328 11.2823 20.6887 11.0864 20.4854C10.2362 19.6032 9.51518 18.5832 8.91694 17.5226C8.79632 17.3087 8.67859 17.0877 8.56525 16.8602C8.51354 16.7564 8.40819 16.6898 8.29236 16.6898H4.78643Z" fill="#7B7E86"/>
<path d="M10.0551 7.12734C10.6106 6.14256 11.2418 5.30821 11.7837 4.69804C11.8993 4.56796 12.1007 4.56796 12.2163 4.69804C12.7582 5.30821 13.3894 6.14256 13.9449 7.12734C13.9949 7.21601 13.9304 7.32485 13.8288 7.32485H10.1712C10.0696 7.32485 10.0051 7.21601 10.0551 7.12734Z" fill="#7B7E86"/>
<path d="M8.98801 11.348C8.81127 11.348 8.67193 11.1964 8.6941 11.0207C8.78961 10.2638 8.9887 9.52596 9.25458 8.82489C9.29837 8.70944 9.40961 8.63444 9.5329 8.63444H14.4671C14.5904 8.63444 14.7016 8.70944 14.7454 8.82489C15.0113 9.52596 15.2104 10.2638 15.3059 11.0207C15.3281 11.1964 15.1887 11.348 15.012 11.348H8.98801Z" fill="#7B7E86"/>
<path d="M9.53633 15.3802C9.41314 15.3802 9.30196 15.3054 9.25811 15.19C8.99046 14.4862 8.79003 13.7451 8.69409 12.9849C8.67193 12.8092 8.81126 12.6576 8.98801 12.6576H15.012C15.1887 12.6576 15.3281 12.8092 15.3059 12.9849C15.21 13.7451 15.0095 14.4862 14.7419 15.19C14.698 15.3054 14.5869 15.3802 14.4637 15.3802H9.53633Z" fill="#7B7E86"/>
<path d="M10.0551 16.8783C10.0074 16.7937 10.0689 16.6898 10.1659 16.6898H13.8341C13.9311 16.6898 13.9926 16.7937 13.9449 16.8783C13.3894 17.8631 12.7582 18.6975 12.2162 19.3076C12.1007 19.4377 11.8993 19.4377 11.7837 19.3076C11.2418 18.6975 10.6106 17.8631 10.0551 16.8783Z" fill="#7B7E86"/>
<path d="M11.1352 3.49608C11.3225 3.29518 11.1761 2.96936 10.9036 3.00232C8.26225 3.32185 5.97129 4.78119 4.53533 6.87489C4.40234 7.06879 4.54542 7.32485 4.78026 7.32485H8.28787C8.40377 7.32485 8.50918 7.25821 8.56086 7.15428C8.67554 6.92364 8.79476 6.69969 8.91694 6.48309C9.53601 5.38554 10.2858 4.40677 11.1352 3.49608Z" fill="#7B7E86"/>
<path d="M3.79902 8.63444C3.6757 8.63444 3.56435 8.70946 3.52112 8.82515C3.26086 9.52175 3.08369 10.259 3.00169 11.0247C2.98302 11.1991 3.12179 11.348 3.29686 11.348H7.06767C7.22574 11.348 7.35648 11.2257 7.37278 11.0682C7.44526 10.3678 7.59488 9.68823 7.79741 9.0397C7.85956 8.84069 7.71384 8.63444 7.5057 8.63444H3.79902Z" fill="#7B7E86"/>
<path d="M3.29686 12.6576C3.12179 12.6576 2.98302 12.8065 3.00169 12.9809C3.08405 13.7501 3.26244 14.4905 3.52461 15.1898C3.56792 15.3054 3.67919 15.3802 3.80239 15.3802H7.50853C7.71677 15.3802 7.8625 15.1738 7.80016 14.9748C7.59623 14.3236 7.44558 13.641 7.37278 12.9374C7.35648 12.7799 7.22574 12.6576 7.06767 12.6576H3.29686Z" fill="#7B7E86"/>
<path d="M4.78643 16.6898C4.55143 16.6898 4.40839 16.9462 4.5417 17.1401C5.96943 19.2162 8.23864 20.6667 10.856 20.9975C11.1359 21.0328 11.2823 20.6887 11.0864 20.4854C10.2362 19.6032 9.51518 18.5832 8.91694 17.5226C8.79632 17.3087 8.67859 17.0877 8.56525 16.8602C8.51354 16.7564 8.40819 16.6898 8.29236 16.6898H4.78643Z" fill="#7B7E86"/>
<path d="M12.8648 3.4961C12.6775 3.29519 12.8239 2.96937 13.0964 3.00233C15.7378 3.32186 18.0287 4.7812 19.4647 6.8749C19.5977 7.0688 19.4546 7.32487 19.2197 7.32487L15.7121 7.32487C15.5962 7.32487 15.4908 7.25822 15.4391 7.15429C15.3245 6.92366 15.2052 6.69971 15.0831 6.4831C14.464 5.38556 13.7142 4.40678 12.8648 3.4961Z" fill="#7B7E86"/>
<path d="M20.201 8.63445C20.3243 8.63445 20.4357 8.70947 20.4789 8.82517C20.7391 9.52176 20.9163 10.259 20.9983 11.0248C21.017 11.1991 20.8782 11.348 20.7031 11.348L16.9323 11.348C16.7743 11.348 16.6435 11.2257 16.6272 11.0682C16.5547 10.3678 16.4051 9.68824 16.2026 9.03971C16.1404 8.84071 16.2862 8.63445 16.4943 8.63445L20.201 8.63445Z" fill="#7B7E86"/>
<path d="M20.7031 12.6576C20.8782 12.6576 21.017 12.8065 20.9983 12.9809C20.916 13.7501 20.7376 14.4905 20.4754 15.1898C20.4321 15.3054 20.3208 15.3803 20.1976 15.3803H16.4915C16.2832 15.3803 16.1375 15.1738 16.1998 14.9748C16.4038 14.3236 16.5544 13.641 16.6272 12.9374C16.6435 12.7799 16.7743 12.6576 16.9323 12.6576L20.7031 12.6576Z" fill="#7B7E86"/>
<path d="M19.2136 16.6898C19.4486 16.6898 19.5916 16.9462 19.4583 17.1401C18.0306 19.2162 15.7614 20.6668 13.144 20.9975C12.8641 21.0328 12.7177 20.6887 12.9136 20.4855C13.7638 19.6033 14.4848 18.5832 15.0831 17.5226C15.2037 17.3088 15.3214 17.0878 15.4347 16.8602C15.4865 16.7564 15.5918 16.6898 15.7076 16.6898H19.2136Z" fill="#7B7E86"/>
</svg>
