<svg width="24" height="24" viewBox="0 0 24 24" fill="none" xmlns="http://www.w3.org/2000/svg">
<path d="M12.4743 0.434164L12.2683 0.846156C12.1578 1.06727 11.8422 1.06727 11.7317 0.846156L11.5257 0.434164C11.4259 0.234694 11.571 0 11.794 0H12.206C12.429 0 12.5741 0.234694 12.4743 0.434164Z" fill="#7B7E86"/>
<path d="M11.0642 1.0331C11.1904 1.01121 11.3143 1.07767 11.3716 1.19226L11.7316 1.91227C11.8422 2.13338 12.1577 2.13338 12.2683 1.91227L12.6287 1.19136C12.686 1.07685 12.8098 1.01038 12.9359 1.0322C13.3614 1.10578 13.7865 1.23542 14 1.44891C14.4722 1.92119 14.0523 3.2857 13.5829 3.85689C13.5324 3.91837 13.4553 3.94891 13.3757 3.94891H10.6242C10.5447 3.94891 10.4675 3.91837 10.417 3.85689C9.9476 3.2857 9.52767 1.92119 9.99995 1.44891C10.2126 1.23628 10.639 1.10684 11.0642 1.0331Z" fill="#7B7E86"/>
<path d="M16.7346 20.5552L12 22.449L7.26539 20.5552C7.11677 20.4957 7.0404 20.3299 7.10026 20.1815C7.66034 18.7927 8.95148 17.0385 10.3337 15.595C10.3806 15.5461 10.4103 15.4828 10.4147 15.4152C10.4973 14.1461 9.76154 13.4631 8.5162 13.6256C8.5162 14.1964 8.20326 15.5197 6.64501 15.5197C5.08675 15.5197 1.22339 13.6256 1.22339 8.44898C1.22339 5.81918 1.94409 4.3185 2.30246 3.73484C2.39835 3.57868 2.60621 3.57051 2.72696 3.70835C3.49513 4.58518 5.99346 7.42962 6.79081 8.2477C6.9039 8.36373 6.92029 8.55172 6.83749 8.691C5.96877 10.1523 7.14086 11.5267 8.38441 11.239C9.58029 10.9622 9.95551 9.57132 9.62496 8.44898C9.3942 7.66547 8.83276 6.96607 8.15227 6.50717C7.82041 6.62019 7.48358 6.75172 7.26053 6.84169C7.17317 6.87693 7.09477 6.78707 7.14723 6.70883C7.24574 6.56195 7.39045 6.36819 7.57155 6.18781C7.09531 5.98183 6.59303 5.89649 6.12353 5.97527C6.06001 5.98593 5.99971 5.93842 6.00044 5.87401C6.00605 5.37408 6.07798 4.84898 6.99996 4.84898C7.17281 4.84898 7.34088 4.85449 7.50433 4.86523C7.52804 4.64606 7.65316 4.44899 7.99996 4.44901L10.2917 4.44899C10.3757 4.44899 10.4182 4.54319 10.3592 4.60299C10.1787 4.78607 9.83454 5.09059 9.38694 5.28001C10.5402 5.74728 11.3695 6.55428 12 7.50001C12.6305 6.55429 13.4597 5.74728 14.613 5.28001C14.5276 5.24388 14.446 5.20356 14.3686 5.16069C14.086 5.00427 13.8592 4.81395 13.7083 4.66949C13.6837 4.64599 13.6612 4.62371 13.6407 4.60299C13.5818 4.54319 13.6243 4.44899 13.7083 4.44899L16 4.44901C16.1902 4.449 16.3137 4.50827 16.3904 4.59796C16.4534 4.67177 16.4849 4.76637 16.4956 4.86523C16.6591 4.85449 16.8272 4.84898 17 4.84898C17.922 4.84898 17.9939 5.37408 17.9995 5.87401C18.0002 5.93842 17.94 5.98593 17.8764 5.97527C17.4069 5.89649 16.9046 5.98183 16.4284 6.18781C16.5877 6.34649 16.7189 6.51552 16.8152 6.65389C16.8284 6.67281 16.8409 6.69116 16.8527 6.70883C16.9052 6.78707 16.8268 6.87693 16.7394 6.84169L16.6864 6.82038C16.4778 6.73687 16.1899 6.62536 15.9009 6.52544L15.8477 6.50717C15.1672 6.96607 14.6058 7.66547 14.375 8.44898C14.0444 9.57132 14.4197 10.9622 15.6156 11.239C16.8591 11.5267 18.0312 10.1523 17.1625 8.691C17.0797 8.55172 17.0961 8.36373 17.2092 8.2477C18.0065 7.42962 20.5048 4.58518 21.273 3.70835C21.3938 3.57051 21.6016 3.57868 21.6975 3.73484C22.0559 4.3185 22.7766 5.81918 22.7766 8.44898C22.7766 13.6256 18.9132 15.5197 17.355 15.5197C15.7967 15.5197 15.4838 14.1964 15.4838 13.6256C14.2384 13.4631 13.5027 14.1461 13.5852 15.4152C13.5896 15.4828 13.6193 15.5461 13.6662 15.595C15.0485 17.0385 16.3396 18.7927 16.8997 20.1815C16.9596 20.3299 16.8832 20.4957 16.7346 20.5552Z" fill="#7B7E86"/>
</svg>
