<svg width="24" height="24" viewBox="0 0 24 24" fill="none" xmlns="http://www.w3.org/2000/svg">
<path fill-rule="evenodd" clip-rule="evenodd" d="M9.51511 13.7093C10.138 13.9408 10.4718 14.538 10.4148 15.4151C10.4104 15.4827 10.3807 15.546 10.3338 15.595C8.95152 17.0384 7.66038 18.7926 7.1003 20.1814C7.04044 20.3299 7.11681 20.4957 7.26542 20.5551L12 22.4489L16.7346 20.5551C16.8832 20.4957 16.9596 20.3299 16.8997 20.1814C16.3396 18.7926 15.0485 17.0384 13.6662 15.595C13.6193 15.546 13.5896 15.4827 13.5852 15.4151C13.5282 14.538 13.862 13.9408 14.4849 13.7093C14.5865 13.6715 14.6958 13.6434 14.8124 13.6255C15.0151 13.5943 15.2396 13.5937 15.4838 13.6255C15.4838 14.3125 15.809 15.051 16.9925 15.387C19.8125 16.1875 22.5 13.4062 22.5 8.94894C22.5 6.95203 22.1745 5.4434 21.8949 4.51592C21.8941 4.51343 21.8934 4.51094 21.8926 4.50845C21.8748 4.4494 21.8571 4.39271 21.8398 4.33843C21.7793 4.14946 21.7223 3.98954 21.673 3.85969C21.5971 3.66029 21.3475 3.62331 21.2069 3.78374C21.1136 3.89018 21.001 4.01855 20.8735 4.16372C20.8394 4.20257 20.8042 4.24262 20.768 4.28378C20.7671 4.28486 20.7661 4.28594 20.7652 4.28702C20.2361 4.88897 19.4978 5.72621 18.8123 6.4936C18.7505 6.56275 18.6892 6.63133 18.6285 6.69912C18.0377 7.35864 17.5058 7.94334 17.2092 8.24765C17.0961 8.36369 17.0797 8.55167 17.1625 8.69096C18.0312 10.1522 16.8591 11.5267 15.6156 11.2389C14.4197 10.9621 14.0444 9.57128 14.375 8.44894C14.8195 6.93982 16.4907 5.74272 17.8764 5.97523C17.9004 5.97925 17.9239 5.97498 17.9438 5.96467C17.9665 5.95292 17.9846 5.93331 17.9935 5.90911C17.9975 5.89822 17.9997 5.88641 17.9995 5.87397C17.998 5.73475 17.9913 5.59358 17.9625 5.46235C17.9228 5.28112 17.8409 5.11883 17.6725 5.00677C17.639 4.98453 17.6022 4.96427 17.5616 4.94624C17.4229 4.88462 17.2403 4.84894 17 4.84894C14.9851 4.84894 13.6198 5.59661 12.6423 6.67206C12.4069 6.93098 12.194 7.2089 12 7.49996C11.806 7.2089 11.5931 6.93098 11.3577 6.67206C10.3802 5.59661 9.0149 4.84894 7 4.84894C6.75966 4.84894 6.57708 4.88462 6.43839 4.94624C6.39779 4.96427 6.36094 4.98453 6.32751 5.00677C6.15905 5.11883 6.07724 5.28113 6.03751 5.46236C6.00874 5.59359 6.00204 5.73475 6.00047 5.87397C6.00034 5.88641 6.00247 5.89822 6.00647 5.90911C6.01536 5.93331 6.03346 5.95293 6.05618 5.96468C6.07612 5.97499 6.09961 5.97925 6.12357 5.97523C7.50928 5.74272 9.18053 6.93982 9.625 8.44894C9.95555 9.57128 9.58032 10.9621 8.38445 11.2389C7.1409 11.5267 5.96881 10.1522 6.83753 8.69096C6.92033 8.55167 6.90394 8.36369 6.79084 8.24765C6.49424 7.94334 5.96227 7.35864 5.37154 6.69912C5.31082 6.63133 5.24949 6.56275 5.18772 6.4936C4.50221 5.72621 3.76387 4.88897 3.23483 4.28702C3.23388 4.28594 3.23293 4.28486 3.23199 4.28378C3.19581 4.24262 3.16062 4.20257 3.1265 4.16372C2.999 4.01855 2.8864 3.89018 2.7931 3.78374C2.65249 3.62331 2.40287 3.66029 2.32704 3.85969C2.27766 3.98954 2.22069 4.14946 2.16024 4.33843C2.14287 4.39272 2.12522 4.4494 2.10737 4.50845C2.10662 4.51094 2.10587 4.51343 2.10512 4.51592C1.82552 5.4434 1.5 6.95203 1.5 8.94894C1.5 13.4062 4.1875 16.1875 7.00754 15.387C8.191 15.051 8.51624 14.3125 8.51624 13.6255C8.76038 13.5937 8.98493 13.5943 9.18757 13.6255C9.30415 13.6434 9.41348 13.6715 9.51511 13.7093ZM2.89698 5.41685C2.69114 6.2692 2.5 7.4612 2.5 8.94894C2.5 10.9882 3.11545 12.5435 3.94366 13.4752C4.75657 14.3898 5.75251 14.7037 6.73446 14.425C7.16006 14.3041 7.3284 14.1431 7.39937 14.0464C7.47336 13.9455 7.51624 13.812 7.51624 13.6255V12.7474L8.38692 12.6339C9.20352 12.5274 10.0345 12.6787 10.6478 13.2544C11.2611 13.83 11.4666 14.6514 11.4127 15.48C11.3918 15.8005 11.2527 16.0812 11.056 16.2866C9.93951 17.4525 8.92626 18.7875 8.33367 19.9054L12 21.3719L15.6663 19.9054C15.0737 18.7875 14.0605 17.4525 12.944 16.2866C12.7473 16.0812 12.6082 15.8005 12.5873 15.48C12.5334 14.6514 12.7389 13.83 13.3522 13.2544C13.9655 12.6787 14.7965 12.5274 15.6131 12.6339L16.4838 12.7474V13.6255C16.4838 13.812 16.5266 13.9455 16.6006 14.0464C16.6716 14.1431 16.8399 14.3041 17.2655 14.425C18.2475 14.7037 19.2434 14.3898 20.0563 13.4752C20.8846 12.5435 21.5 10.9882 21.5 8.94894C21.5 7.4612 21.3089 6.2692 21.103 5.41685C20.1932 6.44946 18.9548 7.84605 18.2392 8.61457C19.0638 10.6337 17.4264 12.6844 15.3901 12.2132C14.411 11.9866 13.7882 11.293 13.4901 10.5215C13.2008 9.77286 13.1947 8.91691 13.4157 8.16642C13.5915 7.56961 13.9049 7.02537 14.2992 6.56266C13.6963 6.94778 13.2252 7.46502 12.8321 8.05466L12 9.30274L11.1679 8.05466C10.7748 7.46502 10.3037 6.94778 9.70085 6.56266C10.0951 7.02537 10.4085 7.56961 10.5843 8.16642C10.8053 8.91691 10.7992 9.77286 10.5099 10.5215C10.2118 11.293 9.58904 11.9866 8.60992 12.2132C6.57357 12.6844 4.93619 10.6337 5.76082 8.61457C5.04524 7.84605 3.80678 6.44946 2.89698 5.41685ZM16.3624 19.6269L16.3632 19.6266L16.6288 20.2907L16.3632 19.6266C16.3629 19.6267 16.3627 19.6268 16.3624 19.6269ZM17.8932 5.87516L17.8764 5.97523L17.8932 5.87516Z" fill="#7B7E86"/>
<path d="M11.0642 1.0331C11.1904 1.01121 11.3143 1.07767 11.3716 1.19226L11.7316 1.91227C11.8422 2.13338 12.1577 2.13338 12.2683 1.91227L12.6287 1.19136C12.686 1.07685 12.8098 1.01038 12.9359 1.0322C13.3614 1.10578 13.7865 1.23542 14 1.44891C14.4722 1.92119 14.0523 3.2857 13.5829 3.85689C13.5324 3.91837 13.4553 3.94891 13.3757 3.94891H10.6242C10.5447 3.94891 10.4675 3.91837 10.417 3.85689C9.9476 3.2857 9.52767 1.92119 9.99995 1.44891C10.2126 1.23628 10.639 1.10684 11.0642 1.0331Z" fill="#7B7E86"/>
<path d="M12.4744 0.434164L12.2684 0.846156C12.1578 1.06727 11.8423 1.06727 11.7317 0.846156L11.5257 0.434164C11.426 0.234694 11.571 0 11.794 0H12.206C12.429 0 12.5741 0.234693 12.4744 0.434164Z" fill="#7B7E86"/>
<path d="M8.09326 5.42584C8.05995 5.42216 8.0289 5.41812 7.99994 5.41378C7.54097 5.34491 7.60937 5.19899 7.60937 5.19899C7.60937 5.19899 7.58856 5.19899 7.56508 5.17823C7.53476 5.15141 7.5 5.08992 7.5 4.94899C7.5 4.82084 7.52874 4.69268 7.60937 4.5982C7.68606 4.50851 7.80979 4.44898 8 4.44899L10.2917 4.44897C10.3757 4.44897 10.4182 4.54318 10.3593 4.60297C10.3388 4.6237 10.3163 4.64598 10.2917 4.66948C10.1408 4.81394 9.91396 5.00426 9.63141 5.16068C9.33873 5.3227 8.98629 5.44835 8.59662 5.44897L8.59375 5.44897L8.57721 5.44895C8.38611 5.44851 8.2323 5.44046 8.10859 5.42748L8.09326 5.42584Z" fill="#7B7E86"/>
<path d="M16.3904 4.59795C16.3137 4.50826 16.1902 4.44898 16 4.44899L13.7082 4.44897C13.6242 4.44897 13.5817 4.54318 13.6407 4.60297C13.6611 4.6237 13.6837 4.64598 13.7082 4.66948C13.8591 4.81394 14.086 5.00426 14.3686 5.16068C14.6612 5.3227 15.0137 5.44835 15.4033 5.44897L15.4062 5.44897L15.4227 5.44895C15.6139 5.44851 15.7677 5.44046 15.8914 5.42748L15.9059 5.42592C15.9392 5.42224 15.9711 5.41812 16 5.41378C16.459 5.34491 16.3906 5.19899 16.3906 5.19899C16.3906 5.19899 16.4114 5.19899 16.4349 5.17823C16.4652 5.15141 16.5 5.08992 16.5 4.94899C16.5 4.82084 16.471 4.69243 16.3904 4.59795Z" fill="#7B7E86"/>
<path d="M8.09911 6.52544C8.18157 6.49693 8.26412 6.46935 8.34493 6.44364C8.43899 6.41372 8.5307 6.38632 8.61719 6.36289C8.80095 6.31311 8.96118 6.28127 9.07036 6.28127C9.40264 6.28127 9.31398 6.01112 9.07036 5.82988C8.94739 5.7384 8.78495 5.66957 8.61724 5.66956C8.54837 5.66955 8.48091 5.67643 8.41501 5.68918C8.17025 5.73654 7.94711 5.86492 7.75404 6.0226C7.51111 6.221 7.31577 6.46579 7.18484 6.6539C7.17167 6.67282 7.15915 6.69117 7.1473 6.70884C7.09483 6.78707 7.17323 6.87693 7.26059 6.8417L7.31363 6.82038C7.52225 6.73687 7.81016 6.62537 8.09911 6.52544Z" fill="#7B7E86"/>
<path d="M15.3828 6.36289C15.4693 6.38632 15.561 6.41372 15.6551 6.44364C15.7359 6.46935 15.8184 6.49693 15.9009 6.52544C16.1898 6.62537 16.4777 6.73687 16.6864 6.82038L16.7394 6.8417C16.8268 6.87693 16.9052 6.78707 16.8527 6.70884C16.8408 6.69117 16.8283 6.67282 16.8152 6.6539C16.6842 6.46579 16.4889 6.221 16.2459 6.0226C16.0529 5.86492 15.8297 5.73654 15.585 5.68918C15.5191 5.67643 15.4516 5.66955 15.3828 5.66956C15.215 5.66957 15.0526 5.7384 14.9296 5.82988C14.686 6.01112 14.5973 6.28127 14.9296 6.28127C15.0388 6.28127 15.199 6.31311 15.3828 6.36289Z" fill="#7B7E86"/>
</svg>
