<svg width="24" height="24" viewBox="0 0 24 24" fill="none" xmlns="http://www.w3.org/2000/svg">
<path d="M5.3 4C4.58203 4 4 4.58203 4 5.3V9.7C4 10.418 4.58203 11 5.3 11H9.7C10.418 11 11 10.418 11 9.7V5.3C11 4.58203 10.418 4 9.7 4H5.3Z" fill="#7B7E86"/>
<path d="M5.3 13C4.58203 13 4 13.582 4 14.3V18.7C4 19.418 4.58203 20 5.3 20H9.7C10.418 20 11 19.418 11 18.7V14.3C11 13.582 10.418 13 9.7 13H5.3Z" fill="#7B7E86"/>
<path d="M13 5.3C13 4.58203 13.582 4 14.3 4H18.7C19.418 4 20 4.58203 20 5.3V9.7C20 10.418 19.418 11 18.7 11H14.3C13.582 11 13 10.418 13 9.7V5.3Z" fill="#7B7E86"/>
<path d="M14.3 13C13.582 13 13 13.582 13 14.3V18.7C13 19.418 13.582 20 14.3 20H18.7C19.418 20 20 19.418 20 18.7V14.3C20 13.582 19.418 13 18.7 13H14.3Z" fill="#7B7E86"/>
</svg>
