<svg width="24" height="24" viewBox="0 0 24 24" fill="none" xmlns="http://www.w3.org/2000/svg">
<path d="M5.3 4C4.58203 4 4 4.58203 4 5.3V6.7C4 7.41797 4.58203 8 5.3 8H18.7C19.418 8 20 7.41797 20 6.7V5.3C20 4.58203 19.418 4 18.7 4H5.3Z" fill="#7B7E86"/>
<path d="M5.3 9.28906C4.58203 9.28906 4 9.87109 4 10.5891L4 18.7C4 19.418 4.58203 20 5.3 20H7.40779C8.12576 20 8.70779 19.418 8.70779 18.7V10.5891C8.70779 9.87109 8.12576 9.28906 7.40779 9.28906H5.3Z" fill="#7B7E86"/>
<path d="M11.3 9.28906C10.582 9.28906 10 9.87109 10 10.5891V18.7C10 19.418 10.582 20 11.3 20H18.7C19.418 20 20 19.418 20 18.7L20 10.5891C20 9.87109 19.418 9.28906 18.7 9.28906H11.3Z" fill="#7B7E86"/>
</svg>
