<svg width="24" height="24" viewBox="0 0 24 24" fill="none" xmlns="http://www.w3.org/2000/svg">
<path d="M12.9193 2.38687L21 10.4676C21.2716 10.7024 21.3014 11.1129 21.0666 11.3844C20.8318 11.656 20.4213 11.6858 20.1498 11.451C19.7745 11.0758 19.0344 10.3362 18.0883 9.39095L18.0872 9.38991C16.4099 7.71396 14.0855 5.39162 12 3.3061L3.85029 11.451C3.57873 11.6858 3.16826 11.656 2.93346 11.3844C2.69867 11.1129 2.72847 10.7024 3.00003 10.4676L11.0808 2.38686C11.5885 1.87918 12.4116 1.87918 12.9193 2.38687Z" fill="#7B7E86"/>
<path fill-rule="evenodd" clip-rule="evenodd" d="M5.5488 13.2528C5.20453 13.7411 5.00234 14.3367 5.00234 14.9796L5.00233 19.7C5.00233 20.418 5.58436 21 6.30234 21H7.76516C8.48313 21 9.06516 20.418 9.06516 19.7L9.06516 18.9929L14.9442 18.9929L14.9442 19.7C14.9442 20.418 15.5263 21 16.2442 21H17.7071C18.425 21 19.0071 20.418 19.0071 19.7L19.0071 14.9796C19.0071 14.3169 18.7922 13.7044 18.4283 13.2079L17.134 10.6414C16.624 9.63011 15.5879 8.99226 14.4553 8.99226H9.54443C8.41184 8.99226 7.37578 9.63011 6.86578 10.6414L5.5488 13.2528ZM15.967 17.6929H17.7071L17.7071 15.8539L16.6043 15.8539C16.2453 15.8539 15.9543 15.5628 15.9543 15.2039C15.9543 14.8449 16.2453 14.5539 16.6043 14.5539H17.6533C17.4749 13.8618 16.8715 13.3404 16.138 13.2845H7.87139C7.13788 13.3404 6.53452 13.8618 6.35607 14.5539H7.36559C7.72458 14.5539 8.01559 14.8449 8.01559 15.2039C8.01559 15.5629 7.72458 15.8539 7.36559 15.8539H6.30234L6.30234 17.6929H8.04981L8.63714 16.366C9.11768 15.2804 10.1932 14.5803 11.3804 14.5803L12.6365 14.5803C13.8237 14.5804 14.8992 15.2805 15.3797 16.3661L15.967 17.6929ZM14.5454 17.6929L14.191 16.8922C13.9187 16.2771 13.3092 15.8804 12.6365 15.8803L11.3804 15.8803C10.7077 15.8803 10.0982 16.2771 9.82589 16.8922L9.47149 17.6929L14.5454 17.6929ZM7.64437 11.9845H7.82822C7.88584 11.9812 7.94389 11.9796 8.00234 11.9796H16.007C16.0655 11.9796 16.1235 11.9812 16.1812 11.9845H16.3554L15.9732 11.2268C15.6842 10.6537 15.0971 10.2923 14.4553 10.2923H9.54443C8.90263 10.2923 8.31553 10.6537 8.02653 11.2268L7.64437 11.9845ZM17.7071 19.7H16.2442V19.0164H17.7071V19.7ZM6.30234 19.7H7.76516V19.0164H6.30234L6.30234 19.7Z" fill="#7B7E86"/>
</svg>
