<svg width="24" height="24" viewBox="0 0 24 24" fill="none" xmlns="http://www.w3.org/2000/svg">
<path d="M12.9193 2.38687L21 10.4676C21.2716 10.7024 21.3014 11.1129 21.0666 11.3844C20.8318 11.656 20.4213 11.6858 20.1498 11.451C19.7745 11.0758 19.0344 10.3362 18.0883 9.39095C16.4108 7.71491 14.086 5.39205 12 3.3061L3.85029 11.451C3.57873 11.6858 3.16826 11.656 2.93346 11.3844C2.69867 11.1129 2.72847 10.7024 3.00003 10.4676L11.0808 2.38686C11.5885 1.87918 12.4116 1.87918 12.9193 2.38687Z" fill="#7B7E86"/>
<path fill-rule="evenodd" clip-rule="evenodd" d="M5.54868 13.253L6.86575 10.6414C7.37575 9.6301 8.41181 8.99225 9.5444 8.99225H14.4553C15.5879 8.99225 16.6239 9.6301 17.1339 10.6414L18.4283 13.208C18.625 13.4763 18.7781 13.7786 18.8773 14.1043C18.9482 14.3371 18.7595 14.5539 18.5162 14.5539H16.985C16.626 14.5539 16.335 14.8449 16.335 15.2039C16.335 15.5629 16.626 15.8539 16.985 15.8539H18.607C18.8279 15.8539 19.007 16.033 19.007 16.2539L19.0071 19.7688C19.0071 20.4488 18.4558 21 17.7759 21C17.0959 21 16.5447 20.4488 16.5447 19.7688V18.9929H16.5425L15.3797 16.366C14.8992 15.2804 13.8236 14.5803 12.6365 14.5803L11.3804 14.5803C10.1932 14.5803 9.11765 15.2804 8.63711 16.366L7.4749 18.9916L7.4749 19.7637C7.4749 20.4465 6.92139 21 6.23861 21C5.55583 21 5.00232 20.4465 5.00232 19.7637V16.2539C5.00232 16.033 5.18141 15.8539 5.40232 15.8539H7.01732C7.3763 15.8539 7.66732 15.5629 7.66732 15.2039C7.66732 14.8449 7.3763 14.5539 7.01732 14.5539L5.49313 14.5539C5.24984 14.5539 5.06113 14.337 5.13202 14.1043C5.22572 13.7967 5.36753 13.51 5.54868 13.253ZM16.1805 11.9845C16.1231 11.9813 16.0653 11.9796 16.007 11.9796H8.00232C7.94409 11.9796 7.88625 11.9813 7.82885 11.9845H7.64434L8.0265 11.2268C8.3155 10.6537 8.9026 10.2922 9.5444 10.2922H14.4553C15.0971 10.2922 15.6842 10.6537 15.9732 11.2268L16.3553 11.9845H16.1805Z" fill="#7B7E86"/>
<path d="M11.3804 15.8803L12.6364 15.8803C13.3092 15.8803 13.9186 16.277 14.1909 16.8922L14.8815 18.4289C15.0005 18.6936 14.8069 18.9929 14.5167 18.9929L9.55105 18.9929C9.26567 18.9929 9.07209 18.7026 9.18178 18.4391L9.82584 16.8922C10.0981 16.277 10.7076 15.8803 11.3804 15.8803Z" fill="#7B7E86"/>
</svg>
