<svg width="24" height="24" viewBox="0 0 24 24" fill="none" xmlns="http://www.w3.org/2000/svg">
<path fill-rule="evenodd" clip-rule="evenodd" d="M16.0142 14.9748V17.9889C16.0142 19.6517 14.6663 20.9996 13.0035 20.9996H10.9964C9.33368 20.9996 7.98575 19.6517 7.98575 17.9889V14.9748C6.37837 13.7589 5.33978 11.8306 5.33978 9.65981C5.33978 5.98148 8.32166 2.9996 12 2.9996C15.6783 2.9996 18.6602 5.98148 18.6602 9.65981C18.6602 11.8306 17.6216 13.7589 16.0142 14.9748ZM9.29038 15.2643H14.7096V17.9889C14.7096 18.9312 13.9458 19.695 13.0035 19.695H10.9964C10.0542 19.695 9.29038 18.9312 9.29038 17.9889V15.2643ZM8.77281 13.9343L8.80627 13.9596H9.98154V10.2453H9.21329C8.85303 10.2453 8.56098 9.95324 8.56098 9.59298C8.56098 9.23272 8.85303 8.94067 9.21329 8.94067H14.8312C15.1915 8.94067 15.4835 9.23272 15.4835 9.59298C15.4835 9.95324 15.1915 10.2453 14.8312 10.2453H14.0629V13.9596H15.1937L15.2272 13.9343C16.5226 12.9544 17.3556 11.4046 17.3556 9.65981C17.3556 6.702 14.9578 4.30423 12 4.30423C9.04218 4.30423 6.64441 6.702 6.64441 9.65981C6.64441 11.4046 7.47737 12.9544 8.77281 13.9343ZM12.7583 13.9596V10.2453H11.2862V13.9596H12.7583Z" fill="#7B7E86"/>
</svg>
