<svg width="24" height="24" viewBox="0 0 24 24" fill="none" xmlns="http://www.w3.org/2000/svg">
<path fill-rule="evenodd" clip-rule="evenodd" d="M16.0142 17.9889V14.9748C17.6216 13.7589 18.6602 11.8306 18.6602 9.65981C18.6602 5.98148 15.6783 2.9996 12 2.9996C8.32166 2.9996 5.33978 5.98148 5.33978 9.65981C5.33978 11.8306 6.37837 13.7589 7.98575 14.9748V17.9889C7.98575 19.6517 9.33368 20.9996 10.9964 20.9996H13.0035C14.6663 20.9996 16.0142 19.6517 16.0142 17.9889ZM8.80627 13.9596L8.77282 13.9343C7.47737 12.9544 6.64441 11.4046 6.64441 9.65981C6.64441 6.702 9.04218 4.30423 12 4.30423C14.9578 4.30423 17.3556 6.702 17.3556 9.65981C17.3556 11.4046 16.5226 12.9544 15.2272 13.9343L15.1937 13.9596H14.0629V10.2453H14.8312C15.1915 10.2453 15.4835 9.95325 15.4835 9.59299C15.4835 9.23273 15.1915 8.94068 14.8312 8.94068H9.21329C8.85303 8.94068 8.56098 9.23273 8.56098 9.59299C8.56098 9.95325 8.85303 10.2453 9.21329 10.2453H9.98154V13.9596H8.80627ZM11.2862 13.9596H12.7583V10.2453H11.2862V13.9596Z" fill="#7B7E86"/>
</svg>
