<svg width="24" height="24" viewBox="0 0 24 24" fill="none" xmlns="http://www.w3.org/2000/svg">
<path d="M11 2C10.1046 2 9.40868 2.84364 9.50978 3.80655L9.59782 4.64508C9.67886 5.41693 10.2823 6 11 6C11.7177 6 12.3211 5.41693 12.4022 4.64508L12.4902 3.80655C12.5913 2.84364 11.8954 2 11 2Z" fill="#7B7E86"/>
<path fill-rule="evenodd" clip-rule="evenodd" d="M14.7527 14.8644C14.4383 13.8535 13.8401 12.9677 13.0513 12.3H15.2589C15.6179 12.3 15.9089 12.009 15.9089 11.65C15.9089 11.291 15.6179 11 15.2589 11H13V9C13 7.89543 12.1046 7 11 7C9.89543 7 9 7.89543 9 9V11H7.658C7.34258 11 7.07269 10.7736 7.01788 10.463L6.58947 8.03477C6.52709 7.68124 6.18994 7.44522 5.83641 7.50759C5.48289 7.56997 5.24686 7.90712 5.30924 8.26064L5.73766 10.6888C5.82571 11.1879 6.09888 11.6146 6.47898 11.9032C4.98564 12.8867 4 14.5782 4 16.5C4 19.5376 6.46243 22 9.5 22C12.5376 22 15 19.5376 15 16.5C15 16.4102 14.9978 16.3209 14.9936 16.2322L16.2168 16.4615C16.4591 16.5069 16.6549 16.6855 16.7223 16.9227L17.6824 20.3004C17.7806 20.6457 18.1401 20.846 18.4854 20.7479C18.8307 20.6497 19.031 20.2902 18.9329 19.9449L17.9727 16.5672C17.7705 15.8558 17.1833 15.32 16.4564 15.1838L14.7527 14.8644ZM11.6981 10.5054V11H10.3V9C10.3 8.6134 10.6134 8.3 11 8.3C11.3866 8.3 11.7 8.6134 11.7 9V10.4559C11.6988 10.4722 11.6981 10.4887 11.6981 10.5054ZM9.50001 12.3C11.8196 12.3 13.7 14.1804 13.7 16.5C13.7 18.8195 11.8196 20.7 9.50001 20.7C7.18042 20.7 5.30001 18.8195 5.30001 16.5C5.30001 14.1804 7.18042 12.3 9.50001 12.3Z" fill="#7B7E86"/>
</svg>
