<svg width="24" height="24" viewBox="0 0 24 24" fill="none" xmlns="http://www.w3.org/2000/svg">
<path d="M3.52704 15.0093L10.3677 18.4296C11.3952 18.9434 12.6047 18.9434 13.6323 18.4296L20.4729 15.0093L21.0459 15.2958C21.5986 15.5722 21.5986 16.361 21.0459 16.6374L13.6323 20.3442C12.6047 20.858 11.3952 20.858 10.3676 20.3442L2.95408 16.6374C2.4013 16.361 2.40129 15.5722 2.95408 15.2958L3.52704 15.0093Z" fill="#7B7E86"/>
<path d="M3.52693 11.0404L10.3677 14.4608C11.3952 14.9746 12.6047 14.9746 13.6323 14.4608L20.473 11.0404L21.1157 11.3617C21.6684 11.6381 21.6684 12.427 21.1157 12.7034L13.6323 16.445C12.6047 16.9588 11.3952 16.9588 10.3677 16.445L2.88432 12.7034C2.33153 12.427 2.33153 11.6381 2.88432 11.3617L3.52693 11.0404Z" fill="#7B7E86"/>
<path d="M13.6323 3.65158C12.6047 3.13779 11.3952 3.13779 10.3677 3.65158L2.88432 7.39325C2.33153 7.66964 2.33153 8.4585 2.88432 8.73489L10.3677 12.4766C11.3952 12.9903 12.6047 12.9903 13.6323 12.4766L21.1157 8.73488C21.6684 8.45849 21.6684 7.66964 21.1157 7.39325L13.6323 3.65158Z" fill="#7B7E86"/>
</svg>
