<svg width="24" height="24" viewBox="0 0 24 24" fill="none" xmlns="http://www.w3.org/2000/svg">
<g clip-path="url(#clip0)">
<path fill-rule="evenodd" clip-rule="evenodd" d="M20.5241 13.9918L15.8192 18.6967C12.8902 21.6256 8.14151 21.6256 5.21258 18.6967C2.28365 15.7678 2.28365 11.019 5.21259 8.0901L9.9175 3.3852C10.4252 2.87752 11.2483 2.87752 11.756 3.3852L13.8327 5.46195C14.3404 5.96964 14.3404 6.79275 13.8327 7.30043L9.32666 11.8065C8.54936 12.5838 8.54935 13.8441 9.32666 14.6214C10.104 15.3987 11.3642 15.3987 12.1415 14.6214L16.6476 10.1153C17.1553 9.60762 17.9784 9.60762 18.4861 10.1153L20.5241 12.1533C21.0318 12.661 21.0318 13.4841 20.5241 13.9918ZM9.28967 5.8515L11.3664 7.92825L12.9135 6.38119L10.8367 4.30444L9.28967 5.8515ZM19.6048 13.0726L18.0578 14.6196L16.0198 12.5816L17.5668 11.0345L19.6048 13.0726Z" fill="#7B7E86"/>
</g>
<defs>
<clipPath id="clip0">
<rect width="24" height="24" fill="white"/>
</clipPath>
</defs>
</svg>
