<svg width="24" height="24" viewBox="0 0 24 24" fill="none" xmlns="http://www.w3.org/2000/svg">
<g clip-path="url(#clip0)">
<path fill-rule="evenodd" clip-rule="evenodd" d="M20.5241 13.9918L15.8192 18.6967C12.8902 21.6256 8.14151 21.6256 5.21258 18.6967C2.28365 15.7678 2.28365 11.019 5.21259 8.0901L9.9175 3.3852C10.4252 2.87752 11.2483 2.87752 11.756 3.3852L13.8327 5.46195C14.3404 5.96964 14.3404 6.79275 13.8327 7.30043L9.32666 11.8065C8.54936 12.5838 8.54935 13.8441 9.32666 14.6214C10.104 15.3987 11.3642 15.3987 12.1415 14.6214L16.6476 10.1153C17.1553 9.60762 17.9784 9.60762 18.4861 10.1153L20.5241 12.1533C21.0318 12.661 21.0318 13.4841 20.5241 13.9918ZM14.8999 17.7775L17.1385 15.5389L15.1005 13.5008L13.0608 15.5406C11.7758 16.8256 9.6924 16.8256 8.40742 15.5406C7.12243 14.2556 7.12244 12.1722 8.40742 10.8872L10.4472 8.84749L8.37043 6.77074L6.13183 9.00934C3.71057 11.4306 3.71057 15.3562 6.13182 17.7775C8.55306 20.1987 12.4787 20.1987 14.8999 17.7775ZM9.28967 5.8515L11.3664 7.92825L12.9135 6.38119L10.8367 4.30444L9.28967 5.8515ZM19.6048 13.0726L18.0578 14.6196L16.0198 12.5816L17.5668 11.0345L19.6048 13.0726Z" fill="#7B7E86"/>
</g>
<defs>
<clipPath id="clip0">
<rect width="24" height="24" fill="white"/>
</clipPath>
</defs>
</svg>
