<svg width="24" height="24" viewBox="0 0 24 24" fill="none" xmlns="http://www.w3.org/2000/svg">
<path d="M18.7409 16.1699L14.5527 20.1026C13.8766 20.7374 13.0177 21.0675 12.1514 21.0905L12.4834 20.3265C13.1205 18.8601 12.7292 17.1497 11.5178 16.1063L9.27824 14.1773C7.7376 12.8504 5.40964 13.0382 4.10164 14.595L3.79239 14.963L2.28677 13.6199C0.782478 12.278 0.650834 9.97074 1.99274 8.46645L5.46473 4.57431C6.80628 3.07041 9.11281 2.93838 10.6172 4.27937L11.0946 4.70487L8.16635 7.25804C6.93924 8.32799 6.88798 10.218 8.05529 11.3529C9.09495 12.3637 10.7363 12.4073 11.8282 11.4532L12.5269 10.8426C12.7839 10.618 13.1709 10.6305 13.4129 10.8712L18.7409 16.1699Z" fill="#7B7E86"/>
<path d="M19.7173 15.3076L14.3296 9.94944C13.6035 9.22732 12.4426 9.18988 11.6714 9.86372L10.9728 10.4742C10.3907 10.9829 9.51572 10.9596 8.9615 10.4208C8.33922 9.81579 8.36654 8.80826 9.0207 8.23789L13.7493 4.11488C15.1956 2.93333 17.3242 3.09496 18.5745 4.49675L22.0456 8.38856C23.2968 9.79142 23.2164 11.9321 21.8635 13.2372L19.7173 15.3076Z" fill="#7B7E86"/>
<path d="M10.8257 20.8795C10.3942 20.7255 9.98552 20.4876 9.62445 20.1655L4.76292 15.8288L5.09697 15.4312C5.9391 14.4289 7.43792 14.308 8.42984 15.1623L10.6694 17.0913C11.4493 17.7631 11.7013 18.8643 11.2911 19.8084L10.8257 20.8795Z" fill="#7B7E86"/>
</svg>
