<svg width="24" height="24" viewBox="0 0 24 24" fill="none" xmlns="http://www.w3.org/2000/svg">
<path fill-rule="evenodd" clip-rule="evenodd" d="M21.734 13.3847C23.2034 12.017 23.2927 9.71951 21.9338 8.24202L18.4716 4.47777C17.1332 3.02257 14.8795 2.89756 13.3884 4.19582L11.9575 5.44166L10.6535 4.27937C9.14913 2.93838 6.84259 3.07041 5.50104 4.5743L2.02906 8.46645C0.68715 9.97074 0.818794 12.278 2.32309 13.6199L9.66077 20.1655C11.0718 21.4243 13.2105 21.3969 14.589 20.1026L21.3173 13.7848L21.3106 13.7788L21.734 13.3847ZM8.78332 8.20521L10.9691 6.30216L9.7885 5.2498C8.81992 4.38642 7.33489 4.47143 6.47115 5.43969L2.99916 9.33183C2.1352 10.3003 2.21995 11.7859 3.18847 12.6498L4.72476 14.0203C6.06925 12.9845 7.99799 13.0002 9.33174 14.149L11.56 16.0682C12.6164 16.9781 13.0462 18.3915 12.7227 19.7054C13.0775 19.6066 13.4137 19.423 13.6991 19.1549L17.8591 15.2488L13.9154 11.3372C13.6789 11.1026 13.3034 11.0848 13.0457 11.2959L12.0692 12.0958C11.068 12.9159 9.61085 12.8546 8.68204 11.9533C7.61223 10.9151 7.65901 9.1841 8.78332 8.20521ZM11.3707 19.6792C11.7259 18.7592 11.4688 17.7054 10.7116 17.0532L8.48335 15.134C7.69032 14.451 6.57059 14.3901 5.72213 14.91L10.5262 19.1954C10.7784 19.4204 11.0667 19.5816 11.3707 19.6792ZM20.9769 9.12206C21.8518 10.0733 21.7944 11.5525 20.8483 12.4331L18.7941 14.3451L14.8308 10.4142C14.1214 9.71055 12.9949 9.65701 12.2219 10.2902L11.2454 11.0901C10.7553 11.4916 10.042 11.4616 9.58739 11.0204C9.06371 10.5122 9.08661 9.66484 9.63696 9.18567L14.242 5.17628C15.2021 4.34041 16.6531 4.4209 17.5148 5.35781L20.9769 9.12206Z" fill="#7B7E86"/>
</svg>
