<svg width="24" height="24" viewBox="0 0 24 24" fill="none" xmlns="http://www.w3.org/2000/svg">
<path fill-rule="evenodd" clip-rule="evenodd" d="M12 16C15.5899 16 18.5 13.0899 18.5 9.5C18.5 5.91015 15.5899 3 12 3C8.41017 3 5.50002 5.91015 5.50002 9.5C5.50002 13.0899 8.41017 16 12 16ZM13.2714 7.69689L12.2588 5.96975C12.1429 5.77206 11.8571 5.77206 11.7412 5.96975L10.7286 7.69689L8.77313 8.1262C8.5493 8.17534 8.46098 8.44714 8.61319 8.61847L9.94289 10.1152L9.7469 12.1077C9.72446 12.3357 9.95568 12.5037 10.1656 12.4119L12 11.6098L13.8344 12.4119C14.0444 12.5037 14.2756 12.3357 14.2532 12.1077L14.0572 10.1152L15.3869 8.61847C15.5391 8.44714 15.4507 8.17534 15.2269 8.1262L13.2714 7.69689Z" fill="#7B7E86"/>
<path d="M6.69892 15.2217C6.30597 14.8575 5.63536 14.957 5.43336 15.4532L4.05634 18.8362C3.96483 19.061 4.00619 19.318 4.1636 19.5028C4.321 19.6875 4.56822 19.7692 4.8047 19.7146L7.96685 18.984L9.66513 21.6889C9.7948 21.8955 10.0292 22.0121 10.2721 21.9909C10.5151 21.9697 10.7257 21.8143 10.8177 21.5884L12.1561 18.3002C12.3475 17.83 11.9768 17.3162 11.4703 17.2822C9.63266 17.159 7.96935 16.3993 6.69892 15.2217Z" fill="#7B7E86"/>
<path d="M12.6976 20.4181L13.174 21.5884C13.2655 21.8131 13.4746 21.9682 13.7162 21.9906C13.9578 22.0129 14.1918 21.8988 14.3229 21.6946L16.0401 19.0216L19.1935 19.716C19.4293 19.768 19.6746 19.6849 19.8302 19.5002C19.9859 19.3156 20.0264 19.0599 19.9353 18.8362L18.5606 15.4588C18.3587 14.9629 17.6888 14.8631 17.2958 15.2267C16.4328 16.0251 15.389 16.6309 14.2328 16.9757C14.0668 17.0252 13.9673 17.2989 13.7757 17.7695C13.5842 18.2401 12.6976 20.4181 12.6976 20.4181Z" fill="#7B7E86"/>
</svg>
