<svg width="24" height="24" viewBox="0 0 24 24" fill="none" xmlns="http://www.w3.org/2000/svg">
<path fill-rule="evenodd" clip-rule="evenodd" d="M12.2588 5.9698C12.1429 5.77211 11.8571 5.77211 11.7412 5.9698L10.7286 7.69694L8.77313 8.12625C8.54929 8.17539 8.46098 8.44719 8.61318 8.61852L9.94288 10.1152L9.74689 12.1077C9.72446 12.3358 9.95567 12.5038 10.1656 12.412L12 11.6098L13.8344 12.412C14.0444 12.5038 14.2756 12.3358 14.2531 12.1077L14.0572 10.1152L15.3869 8.61852C15.5391 8.44719 15.4507 8.17539 15.2269 8.12625L13.2714 7.69694L12.2588 5.9698ZM11.5626 8.84481L12 8.09874L12.4374 8.84481L13.2821 9.03026L12.7077 9.6768L12.7924 10.5375L12 10.191L11.2076 10.5375L11.2923 9.6768L10.7179 9.03026L11.5626 8.84481Z" fill="#7B7E86"/>
<path fill-rule="evenodd" clip-rule="evenodd" d="M18.5 9.5C18.5 10.7554 18.1441 11.9276 17.5277 12.9214L19.9353 18.8361C20.0263 19.0598 19.9859 19.3155 19.8302 19.5002C19.6745 19.6848 19.4293 19.7679 19.1934 19.716L16.04 19.0215L14.3229 21.6946C14.1917 21.8987 13.9578 22.0128 13.7161 21.9905C13.4745 21.9681 13.2654 21.8131 13.174 21.5883L11.9958 18.6939L10.8176 21.5883C10.7257 21.8142 10.515 21.9696 10.2721 21.9908C10.0291 22.012 9.79474 21.8954 9.66507 21.6889L7.96679 18.9839L4.80463 19.7145C4.56816 19.7691 4.32094 19.6875 4.16353 19.5027C4.00613 19.318 3.96477 19.0609 4.05628 18.8361L6.46719 12.9132C5.85392 11.9212 5.49999 10.7519 5.49999 9.5C5.49999 5.91015 8.41013 3 12 3C15.5898 3 18.5 5.91015 18.5 9.5ZM17.2 9.5C17.2 12.3719 14.8719 14.7 12 14.7C9.1281 14.7 6.79999 12.3719 6.79999 9.5C6.79999 6.62812 9.1281 4.3 12 4.3C14.8719 4.3 17.2 6.62812 17.2 9.5ZM13.1323 15.9017C14.4756 15.6657 15.6768 15.0173 16.6005 14.0918L18.2648 18.1803L15.8776 17.6546C15.6119 17.5961 15.3379 17.7092 15.1909 17.9381L13.9059 19.9384L12.6976 16.9698L13.1323 15.9017ZM7.39345 14.0858L5.73269 18.1658L8.12494 17.6131C8.39479 17.5508 8.6745 17.6663 8.82176 17.9008L10.0917 19.9235L11.6917 15.9928C10.0142 15.9145 8.50295 15.2003 7.39345 14.0858Z" fill="#7B7E86"/>
</svg>
