<svg width="24" height="24" viewBox="0 0 24 24" fill="none" xmlns="http://www.w3.org/2000/svg">
<path d="M7.02014 12C7.02014 11.4502 7.46786 11 8.02014 11C8.57243 11 9.02014 11.4502 9.02014 12C9.02014 12.5498 8.57243 13 8.02014 13C7.46786 13 7.02014 12.5498 7.02014 12Z" fill="#7B7E86"/>
<path fill-rule="evenodd" clip-rule="evenodd" d="M11.763 8.00584H12.8806C14.5795 8.00584 16.0246 6.76677 16.2838 5.08772C16.3801 4.46407 16.9168 4.00385 17.5479 4.00385H18.7C19.418 4.00385 20 4.58588 20 5.30385V18.6962C20 19.4141 19.418 19.9962 18.7 19.9962H17.5424C16.9144 19.9962 16.3801 19.5384 16.2838 18.9178C16.0245 17.2471 14.5861 16.0147 12.8953 16.0147H11.7695V18.7074C11.7695 19.9735 10.7431 20.9999 9.47699 20.9999C8.37484 20.9999 7.42867 20.2157 7.22423 19.1326L6.62927 15.9809C5.14734 15.7983 4 14.5349 4 13.0036V11.0036C4 9.34675 5.34315 8.0036 7 8.0036H11.763V8.00584ZM18.7 18.6962H17.5649C17.198 16.4033 15.2196 14.7147 12.8953 14.7147H11.774V9.30584H12.8806C15.2149 9.30584 17.2013 7.60773 17.5658 5.30385H18.7V18.6962ZM10.463 14.7031H6.95925C6.03919 14.6815 5.3 13.9289 5.3 13.0036V11.0036C5.3 10.0647 6.06112 9.3036 7 9.3036H10.463V14.7031ZM7.95651 16.0036L8.50167 18.8915C8.59018 19.3604 8.99982 19.6999 9.47699 19.6999C10.0252 19.6999 10.4695 19.2556 10.4695 18.7074V16.0036H7.95651Z" fill="#7B7E86"/>
</svg>
