<svg width="24" height="24" viewBox="0 0 24 24" fill="none" xmlns="http://www.w3.org/2000/svg">
<path d="M13.712 16.1128C15.031 16.4357 16.0675 17.5243 16.2838 18.9178C16.3801 19.5383 16.9144 19.9961 17.5424 19.9961H18.7C19.418 19.9961 20 19.4141 20 18.6961V5.30378C20 4.58581 19.418 4.00378 18.7 4.00378H17.5479C16.9168 4.00378 16.3801 4.46401 16.2838 5.08766C16.068 6.4853 15.0306 7.57809 13.709 7.90513C13.3466 7.99481 13.0503 8.29498 13.0503 8.66831V15.3487C13.0503 15.7231 13.3483 16.0238 13.712 16.1128Z" fill="#7B7E86"/>
<path fill-rule="evenodd" clip-rule="evenodd" d="M4 13.0035C4 14.5349 5.14732 15.7982 6.62925 15.9809L6.62985 15.984H11.0599C11.4465 15.984 11.7599 15.6706 11.7599 15.284V8.70354C11.7599 8.31694 11.4465 8.00354 11.0599 8.00354H7C5.34315 8.00354 4 9.34669 4 11.0035V13.0035ZM7.47503 12C7.47503 11.4502 7.92275 11 8.47503 11C9.02731 11 9.47503 11.4502 9.47503 12C9.47503 12.5498 9.02731 13 8.47503 13C7.92275 13 7.47503 12.5498 7.47503 12Z" fill="#7B7E86"/>
<path d="M11.7599 18.7074V17.984C11.7599 17.5974 11.4465 17.284 11.0599 17.284H8.66189C8.22324 17.284 7.89267 17.6828 7.97404 18.1139L8.16635 19.1326C8.37079 20.2157 9.08738 20.9999 10.1895 20.9999C11.4557 20.9999 11.7599 19.9735 11.7599 18.7074Z" fill="#7B7E86"/>
</svg>
