<svg width="24" height="24" viewBox="0 0 24 24" fill="none" xmlns="http://www.w3.org/2000/svg">
<path fill-rule="evenodd" clip-rule="evenodd" d="M9 3C7.34315 3 6 4.34315 6 6V18C6 19.6569 7.34315 21 9 21H15C16.6569 21 18 19.6569 18 18V6C18 4.34315 16.6569 3 15 3H9ZM9.29041 4.29999H14.7096V4.94298C14.7096 5.30197 14.4186 5.59298 14.0596 5.59298H9.94041C9.58142 5.59298 9.29041 5.30197 9.29041 4.94298V4.29999ZM12.998 17.4383C12.998 17.9895 12.5512 18.4364 12 18.4364C11.4488 18.4364 11.002 17.9895 11.002 17.4383C11.002 16.8871 11.4488 16.4403 12 16.4403C12.5512 16.4403 12.998 16.8871 12.998 17.4383Z" fill="#7B7E86"/>
</svg>
