<svg width="24" height="24" viewBox="0 0 24 24" fill="none" xmlns="http://www.w3.org/2000/svg">
<path d="M9.95966 10.0404C9.77376 9.85448 9.49418 9.79887 9.25129 9.89948C9.0084 10.0001 8.85004 10.2371 8.85004 10.5V15.5C8.85004 15.859 9.14105 16.15 9.50004 16.15C9.85902 16.15 10.15 15.859 10.15 15.5V12.0692L11.5404 13.4596C11.7943 13.7135 12.2058 13.7135 12.4597 13.4596L13.85 12.0692V15.5C13.85 15.859 14.1411 16.15 14.5 16.15C14.859 16.15 15.15 15.859 15.15 15.5V10.5C15.15 10.2371 14.9917 10.0001 14.7488 9.89948C14.5059 9.79887 14.2263 9.85448 14.0404 10.0404L12 12.0808L9.95966 10.0404Z" fill="#7B7E86"/>
<path fill-rule="evenodd" clip-rule="evenodd" d="M6.63707 4.60063C6.50399 5.22627 6.61503 5.83736 6.89853 6.34541C5.28868 6.39894 4.00006 7.72085 4.00006 9.34372V17C4.00006 18.6569 5.34321 20 7.00006 20H17.0001C18.6569 20 20.0001 18.6569 20.0001 17V9.34372C20.0001 7.72077 18.7113 6.39881 17.1014 6.3454C17.3849 5.83735 17.4959 5.22627 17.3628 4.60063L17.3449 4.51629C17.1683 3.686 16.5602 3.01402 15.7517 2.75552C14.2973 2.29054 12.7931 2.88305 11.9999 4.05241C11.2068 2.88305 9.7026 2.29054 8.2482 2.75552C7.43965 3.01402 6.83163 3.68599 6.65501 4.51629L6.63707 4.60063ZM12.6559 6.33611L12.7502 5.63955C12.9181 4.40015 14.1645 3.61291 15.3558 3.99378C15.7199 4.1102 15.9938 4.41283 16.0733 4.78677L16.0913 4.87111C16.2519 5.62621 15.676 6.33741 14.904 6.33741H12.6561L12.6559 6.33611ZM11.344 6.33612L11.2496 5.63955C11.0817 4.40015 9.83539 3.61291 8.64408 3.99378C8.27994 4.1102 8.00611 4.41283 7.92657 4.78677L7.90862 4.87111C7.74801 5.62621 8.32384 6.33741 9.09583 6.33741H11.3438L11.344 6.33612ZM7.00006 7.64372C6.06118 7.64372 5.30006 8.40484 5.30006 9.34372V17C5.30006 17.9389 6.06118 18.7 7.00006 18.7H17.0001C17.9389 18.7 18.7001 17.9389 18.7001 17V9.34372C18.7001 8.40484 17.9389 7.64372 17.0001 7.64372H7.00006Z" fill="#7B7E86"/>
</svg>
