<svg width="24" height="24" viewBox="0 0 24 24" fill="none" xmlns="http://www.w3.org/2000/svg">
<path fill-rule="evenodd" clip-rule="evenodd" d="M6.89847 6.34544C6.61497 5.83739 6.50393 5.2263 6.63701 4.60066L6.65495 4.51632C6.83157 3.68603 7.43959 3.01405 8.24814 2.75555C9.7025 2.29059 11.2067 2.88305 11.9998 4.05236C12.793 2.88305 14.2971 2.29059 15.7515 2.75555C16.5601 3.01405 17.1681 3.68603 17.3447 4.51632L17.3626 4.60066C17.4957 5.2263 17.3847 5.83738 17.1012 6.34543C18.7112 6.39878 20 7.72076 20 9.34375V11.9827V13.2827V17C20 18.6569 18.6569 20 17 20H7C5.34315 20 4 18.6569 4 17V13.2827V11.9827V9.34375C4 7.72088 5.28862 6.39897 6.89847 6.34544ZM12.7501 5.63958L12.6558 6.33571L12.656 6.33744H14.9039C15.6759 6.33744 16.2517 5.62624 16.0911 4.87114L16.0731 4.7868C15.9936 4.41286 15.7198 4.11023 15.3556 3.99381C14.1643 3.61294 12.918 4.40018 12.7501 5.63958ZM11.2496 5.63958L11.3439 6.33572L11.3437 6.33744H9.09577C8.32378 6.33744 7.74794 5.62624 7.90856 4.87114L7.9265 4.7868C8.00605 4.41286 8.27988 4.11023 8.64402 3.99381C9.83533 3.61294 11.0817 4.40018 11.2496 5.63958ZM9.25123 9.89953C9.49412 9.79893 9.7737 9.85454 9.95959 10.0404L12 12.0808L14.0404 10.0404C14.2263 9.85454 14.5058 9.79893 14.7487 9.89953C14.9916 10.0001 15.15 10.2372 15.15 10.5001V15.5001C15.15 15.859 14.859 16.1501 14.5 16.1501C14.141 16.1501 13.85 15.859 13.85 15.5001V12.0693L12.4596 13.4597C12.2058 13.7135 11.7942 13.7135 11.5404 13.4597L10.15 12.0693V15.5001C10.15 15.859 9.85896 16.1501 9.49998 16.1501C9.14099 16.1501 8.84998 15.859 8.84998 15.5001V10.5001C8.84998 10.2372 9.00834 10.0001 9.25123 9.89953Z" fill="#7E7E7E"/>
</svg>
