<svg width="25" height="24" viewBox="0 0 25 24" fill="none" xmlns="http://www.w3.org/2000/svg">
<path fill-rule="evenodd" clip-rule="evenodd" d="M6.55872 5.13428C6.92646 5.01231 7.31944 5.23399 7.40312 5.61061L9.76261 16.2303C10.2047 18.2203 12.1989 19.4645 14.1917 18.9936L19.8646 17.6533C20.2156 17.5704 20.4326 17.22 20.3493 16.8707C20.2659 16.5215 19.9138 16.3056 19.5628 16.3885L13.8899 17.7288C12.6069 18.0319 11.3229 17.2309 11.0383 15.9497L8.67878 5.32999C8.42775 4.2001 7.24882 3.53507 6.14558 3.90099L4.96302 4.29323C4.62076 4.40675 4.43579 4.77486 4.54987 5.11542C4.66396 5.45598 5.0339 5.64004 5.37616 5.52652L6.55872 5.13428ZM8.07793 20.5C8.90887 20.5 9.58248 19.8297 9.58248 19.0029C9.58248 18.1761 8.90887 17.5058 8.07793 17.5058C7.247 17.5058 6.57339 18.1761 6.57339 19.0029C6.57339 19.8297 7.247 20.5 8.07793 20.5ZM10.3734 6.52761C10.2118 5.79959 10.6738 5.07899 11.4055 4.91811L15.5628 4.00396C16.2944 3.84308 17.0186 4.30284 17.1803 5.03086L19.0976 13.6642C19.2593 14.3922 18.7973 15.1128 18.0656 15.2737L13.9083 16.1879C13.1766 16.3488 12.4525 15.889 12.2908 15.161L10.3734 6.52761ZM11.6874 6.18749C11.6603 6.19345 11.6432 6.22013 11.6491 6.2471L12.4599 9.89794L16.7148 8.95961L15.9046 5.31137C15.8986 5.2844 15.8718 5.26737 15.8447 5.27333L11.6874 6.18749ZM16.9967 10.229L12.7418 11.1673L13.5665 14.8805C13.5725 14.9074 13.5993 14.9245 13.6264 14.9185L17.7837 14.0043C17.8108 13.9984 17.8279 13.9717 17.8219 13.9447L16.9967 10.229Z" fill="#7E7E7E"/>
</svg>
