<svg width="24" height="24" viewBox="0 0 24 24" fill="none" xmlns="http://www.w3.org/2000/svg">
<path d="M6.81699 5.61063C6.73372 5.234 6.34269 5.01232 5.97677 5.1343L4.80006 5.52653C4.4595 5.64005 4.09139 5.456 3.97787 5.11543C3.86435 4.77487 4.0484 4.40676 4.38897 4.29324L5.56567 3.90101C6.66346 3.53508 7.83654 4.20012 8.08634 5.33L10.4341 15.9497C10.7174 17.2309 11.995 18.032 13.2716 17.7288L18.9165 16.3885C19.2657 16.3056 19.6161 16.5215 19.699 16.8708C19.782 17.22 19.5661 17.5704 19.2168 17.6533L13.572 18.9937C11.5891 19.4645 9.60474 18.2203 9.16479 16.2303L6.81699 5.61063Z" fill="#7B7E86"/>
<path d="M9 19C9 19.8284 8.32843 20.5 7.5 20.5C6.67157 20.5 6 19.8284 6 19C6 18.1716 6.67157 17.5 7.5 17.5C8.32843 17.5 9 18.1716 9 19Z" fill="#7B7E86"/>
<path d="M9.7903 6.44259C9.63538 5.74154 10.0781 5.04763 10.7792 4.89271L14.9442 3.97232C15.6452 3.81739 16.3391 4.26012 16.494 4.96118L18.4233 13.6916C18.5782 14.3927 18.1355 15.0866 17.4345 15.2415L13.2695 16.1619C12.5684 16.3168 11.8745 15.8741 11.7196 15.173L10.8952 11.4425L17.5989 9.96114L17.3184 8.69176L10.6147 10.1732L9.7903 6.44259Z" fill="#7B7E86"/>
</svg>
