<svg width="24" height="24" viewBox="0 0 24 24" fill="none" xmlns="http://www.w3.org/2000/svg">
<path fill-rule="evenodd" clip-rule="evenodd" d="M20.312 11.7544L18.202 11.7499L13.377 16.5749L13.3899 18.6765C13.2627 19.7551 11.9475 20.2115 11.1796 19.4436L8.33777 16.6018L3.8349 21.1046C3.58106 21.3585 3.1695 21.3585 2.91566 21.1046C2.66182 20.8508 2.66182 20.4392 2.91566 20.1854L7.41853 15.6825L4.55646 12.8204C3.78852 12.0525 4.24496 10.7373 5.32352 10.6101L7.42507 10.623L12.2501 5.79802L12.2456 3.68802C12.3728 2.60945 13.688 2.15302 14.4559 2.92095L21.0791 9.54406C21.847 10.312 21.3906 11.6272 20.312 11.7544ZM12.0888 18.5144L5.48565 11.9112L7.96025 11.9263L7.9629 11.9237L12.0763 16.0371L12.0737 16.0398L12.0888 18.5144ZM12.6244 7.26217L8.88214 11.0044L12.9956 15.1179L16.7378 11.3756L12.6244 7.26217ZM13.5437 6.34293L13.5512 6.33537L13.546 3.84947L20.1505 10.454L17.6646 10.4488L17.6571 10.4564L13.5437 6.34293Z" fill="#7B7E86"/>
</svg>
