<svg width="24" height="24" viewBox="0 0 24 24" fill="none" xmlns="http://www.w3.org/2000/svg">
<path d="M14.4559 2.92095C13.688 2.15302 12.3728 2.60945 12.2456 3.68802L12.2501 5.79802L7.42507 10.623L5.32352 10.6101C4.24496 10.7373 3.78852 12.0525 4.55646 12.8204L7.41853 15.6825L2.91566 20.1854C2.66182 20.4392 2.66182 20.8508 2.91566 21.1046C3.1695 21.3585 3.58106 21.3585 3.8349 21.1046L8.33777 16.6018L11.1796 19.4436C11.9475 20.2115 13.2627 19.7551 13.3899 18.6765L13.377 16.5749L18.202 11.7499L20.312 11.7544C21.3906 11.6272 21.847 10.312 21.0791 9.54406L14.4559 2.92095Z" fill="#7B7E86"/>
</svg>
