<svg width="24" height="24" viewBox="0 0 24 24" fill="none" xmlns="http://www.w3.org/2000/svg">
<path fill-rule="evenodd" clip-rule="evenodd" d="M17.2813 5.24005C18.4527 4.18314 20.099 4.06865 21.1559 5.24006C22.2129 6.41146 21.7787 8.07899 20.6073 9.13591L11.4357 17.4341C9.2363 19.4186 6.38242 19.7326 4.23544 17.7816C4.21772 17.7669 4.20053 17.7513 4.18397 17.7347L4.17804 17.7287C4.07746 17.6348 3.97955 17.5366 3.88456 17.4341L2.45139 15.9957C2.1727 15.7159 2.17354 15.2632 2.45327 14.9845C2.733 14.7058 3.1857 14.7067 3.4644 14.9864L4.89156 16.4189L8.05627 13.5635L4.75059 9.92802C3.90817 9.00155 3.97826 7.56709 4.90698 6.72716C5.59777 6.10241 6.60079 5.96471 7.43439 6.38018L12.9635 9.13591L17.2813 5.24005ZM14.6649 18.85L13.3572 17.4105L17.403 13.75L18.4588 16.5271C18.7905 17.3974 18.5551 18.3821 17.8656 19.0083C16.9387 19.8502 15.5042 19.7793 14.6649 18.85Z" fill="#7B7E86"/>
</svg>
