<svg width="24" height="24" viewBox="0 0 24 24" fill="none" xmlns="http://www.w3.org/2000/svg">
<path fill-rule="evenodd" clip-rule="evenodd" d="M12.5002 16.4712L11.4358 17.4341C9.23642 19.4186 6.38254 19.7326 4.23556 17.7816C4.21784 17.7669 4.20066 17.7513 4.18409 17.7347L4.17816 17.7287C4.07759 17.6348 3.97968 17.5366 3.88468 17.4341L2.45152 15.9957C2.17282 15.7159 2.17366 15.2632 2.45339 14.9845C2.73313 14.7058 3.18583 14.7067 3.46452 14.9864L4.89169 16.4189L8.0564 13.5635L4.75072 9.92802C3.90829 9.00155 3.97838 7.56709 4.9071 6.72716C5.59789 6.10241 6.60091 5.96471 7.43451 6.38018L12.9636 9.13591L17.2815 5.24005C18.4529 4.18314 20.0991 4.06865 21.1561 5.24006C22.213 6.41146 21.7788 8.07899 20.6074 9.13591L16.9273 12.4656L18.4588 16.5271C18.7905 17.3974 18.5551 18.3821 17.8656 19.0083C16.9386 19.8502 15.5042 19.7793 14.6648 18.85L12.5002 16.4712ZM6.85462 7.54367L13.1766 10.6946L18.1523 6.20525C18.9264 5.50679 19.7289 5.5989 20.1909 6.11092C20.4254 6.37086 20.4972 6.66505 20.4372 7.00477C20.3718 7.37489 20.1398 7.80688 19.7366 8.17071L10.5644 16.4695C9.64292 17.3007 8.64716 17.7262 7.73069 17.7865C7.0848 17.829 6.43388 17.6944 5.81422 17.3374L9.89618 13.6544L5.71254 9.05344C5.35406 8.65919 5.38388 8.04876 5.77909 7.69133C6.07306 7.42547 6.49989 7.36687 6.85462 7.54367ZM13.4642 15.599L15.6295 17.9786C15.9867 18.374 16.5971 18.4042 16.9916 18.046C17.285 17.7795 17.3852 17.3605 17.244 16.9901L17.2423 16.9858L15.8918 13.404L13.4642 15.599Z" fill="#7B7E86"/>
</svg>
