<svg width="24" height="24" viewBox="0 0 24 24" fill="none" xmlns="http://www.w3.org/2000/svg">
<path fill-rule="evenodd" clip-rule="evenodd" d="M2.39807 5.96326C2.39807 5.60434 2.68904 5.31337 3.04797 5.31337L13.6408 5.31335C14.6904 5.31335 15.5414 6.16428 15.5414 7.21395H16.2925C17.5125 7.21395 18.6126 7.9484 19.0804 9.07521L20.2472 11.8861C20.3994 12.2529 20.4778 12.6461 20.4778 13.0433V14.7876C20.4778 15.51 19.8922 16.0956 19.1698 16.0956L4.78853 16.0957C4.07056 16.0957 3.48853 15.5136 3.48853 14.7957V11.2674C3.48853 10.8408 3.83439 10.4949 4.26103 10.4949H5.39677C5.75408 10.4949 6.04373 10.2053 6.04373 9.84798C6.04373 9.49067 5.75408 9.20101 5.39677 9.20101H4.13549C3.77818 9.20101 3.48853 8.91136 3.48853 8.55405C3.48853 8.19674 3.77818 7.90709 4.13549 7.90709H7.33666C7.69396 7.90709 7.98362 7.61743 7.98362 7.26012C7.98362 6.90282 7.69396 6.61316 7.33666 6.61316H3.04797C2.68904 6.61316 2.39807 6.32219 2.39807 5.96326ZM15.4559 9.20388C15.4559 8.8149 15.7713 8.49956 16.1603 8.49956H16.6584C17.1868 8.49956 17.6633 8.81745 17.8662 9.30531L18.6677 11.2327C18.8606 11.6966 18.5198 12.2075 18.0174 12.2075H16.1603C15.7713 12.2075 15.4559 11.8922 15.4559 11.5032V9.20388Z" fill="#7B7E86"/>
<path d="M9.27319 18.2437C9.27319 19.0721 8.60162 19.7437 7.77319 19.7437C6.94477 19.7437 6.27319 19.0721 6.27319 18.2437C6.27319 17.4152 6.94477 16.7437 7.77319 16.7437C8.60162 16.7437 9.27319 17.4152 9.27319 18.2437Z" fill="#7B7E86"/>
<path d="M17.6251 18.2437C17.6251 19.0721 16.9535 19.7437 16.1251 19.7437C15.2967 19.7437 14.6251 19.0721 14.6251 18.2437C14.6251 17.4152 15.2967 16.7437 16.1251 16.7437C16.9535 16.7437 17.6251 17.4152 17.6251 18.2437Z" fill="#7B7E86"/>
</svg>
