<svg width="25" height="24" viewBox="0 0 25 24" fill="none" xmlns="http://www.w3.org/2000/svg">
<path fill-rule="evenodd" clip-rule="evenodd" d="M3.66355 6.61261L14.7687 6.61259C15.1294 6.61259 15.4219 6.9036 15.4219 7.26259V7.94658C15.4219 7.9727 15.4235 7.99862 15.4266 8.02423L15.4266 10.9115C15.4267 11.9884 16.304 12.8614 17.3863 12.8614H19.8076C19.8207 12.9618 19.8273 13.0631 19.8273 13.1647V14.7297C19.8273 14.7573 19.8048 14.7797 19.7771 14.7797H5.40485C5.37709 14.7797 5.3546 14.7573 5.3546 14.7297V11.1695C5.3546 10.8105 5.06213 10.5195 4.70136 10.5195C4.34059 10.5195 4.04813 10.8105 4.04813 11.1695V14.7297C4.04813 15.4753 4.65555 16.0797 5.40485 16.0797H19.7771C20.5264 16.0797 21.1338 15.4753 21.1338 14.7297V13.1647C21.1338 12.7008 21.0449 12.241 20.8718 11.8102L19.8242 9.20179C19.3101 7.92179 18.0525 7.14229 16.7269 7.18493C16.6859 6.14397 15.8249 5.31259 14.7687 5.31259L3.66355 5.31261C3.30278 5.31261 3.01031 5.60363 3.01031 5.96261C3.01031 6.3216 3.30278 6.61261 3.66355 6.61261ZM16.7331 10.9115L16.7331 8.48598C17.5346 8.44529 18.3007 8.9114 18.611 9.68423L19.365 11.5614H17.3863C17.0256 11.5614 16.7331 11.2704 16.7331 10.9115ZM4.7149 7.93759C4.35413 7.93759 4.06166 8.2286 4.06166 8.58759C4.06166 8.94657 4.35413 9.23759 4.7149 9.23759H7.93384C8.29461 9.23759 8.58708 8.94657 8.58708 8.58759C8.58708 8.2286 8.29461 7.93759 7.93384 7.93759H4.7149ZM9.87155 18.2437C9.87155 19.0721 9.19664 19.7437 8.36409 19.7437C7.53154 19.7437 6.85663 19.0721 6.85663 18.2437C6.85663 17.4152 7.53154 16.7437 8.36409 16.7437C9.19664 16.7437 9.87155 17.4152 9.87155 18.2437ZM18.265 18.2437C18.265 19.0721 17.5901 19.7437 16.7576 19.7437C15.925 19.7437 15.2501 19.0721 15.2501 18.2437C15.2501 17.4152 15.925 16.7437 16.7576 16.7437C17.5901 16.7437 18.265 17.4152 18.265 18.2437Z" fill="#7E7E7E"/>
</svg>
