<svg width="24" height="24" viewBox="0 0 24 24" fill="none" xmlns="http://www.w3.org/2000/svg">
<path d="M13.6273 5.52351C12.6565 6.75875 9.74624 6.73118 9.12494 3.97639C10.1145 3.97639 10.5482 3.51378 11.0923 2.93323C11.2471 2.7681 11.4109 2.59343 11.5989 2.41714C11.6189 2.3976 11.6394 2.37863 11.6604 2.36025L11.6799 2.34253C11.9332 2.12817 12.2529 2 12.6028 2C13.4982 2 14.1941 2.84364 14.093 3.80655L14.0049 4.64508C13.9691 4.98593 13.8317 5.29024 13.6273 5.52351Z" fill="#7B7E86"/>
<path fill-rule="evenodd" clip-rule="evenodd" d="M9.56225 10.9772L8.50122 17.6529C8.47227 17.8351 8.61304 18 8.79751 18H10.6786L10.6786 21.3501C10.6786 21.7091 10.9696 22.0001 11.3286 22.0001C11.6876 22.0001 11.9786 21.7091 11.9786 21.3501L11.9786 18H12.3501L12.3501 21.3501C12.3501 21.7091 12.6411 22.0001 13.0001 22.0001C13.3591 22.0001 13.6501 21.7091 13.6501 21.3501V18H15.4145C15.518 18 15.6142 17.9466 15.669 17.8588L16.2344 16.9526C17.5192 14.8934 16.7279 12.1747 14.5388 11.1265C14.3774 11.0492 14.3269 10.8437 14.434 10.7003L14.4726 10.6487C15.1197 9.78315 15.077 8.58387 14.3699 7.76661L14.0955 7.44944C13.8486 7.16402 13.4898 7 13.1124 7H12.087C11.7893 7 11.5018 7.10856 11.2784 7.30533C10.3529 8.12045 9.76227 9.24953 9.62044 10.4746L9.56225 10.9772ZM10.7764 11.6202L9.96899 16.7H14.8597L15.1315 16.2644C16.0059 14.8629 15.4674 13.0124 13.9774 12.299C13.077 11.8679 12.7951 10.7214 13.3929 9.92188L13.4315 9.87024C13.7128 9.49393 13.6942 8.9725 13.3868 8.61717L13.1124 8.3H12.2292C11.5233 9.46404 11.6254 10.954 12.4973 12.0125L13.7803 13.5702C14.0085 13.8472 13.9689 14.2569 13.6918 14.4851C13.4147 14.7134 13.0051 14.6737 12.7769 14.3967L11.4939 12.839C11.1861 12.4654 10.9467 12.0535 10.7764 11.6202Z" fill="#7B7E86"/>
</svg>
