<svg width="24" height="24" viewBox="0 0 24 24" fill="none" xmlns="http://www.w3.org/2000/svg">
<path d="M9.01778 10.4746C9.08952 9.85494 9.27609 9.25983 9.56274 8.7175C9.40089 10.2271 9.90462 11.7808 11.0338 12.9213L12.5381 14.4407C12.7907 14.6958 13.2023 14.6979 13.4574 14.4453C13.7125 14.1927 13.7145 13.7812 13.4619 13.5261L11.9576 12.0067C10.6417 10.6776 10.4594 8.59963 11.5238 7.06171C11.5377 7.04162 11.5503 7.02101 11.5616 7H12.5098C12.8872 7 13.246 7.16402 13.4929 7.44944L13.7673 7.76661C14.4743 8.58387 14.5171 9.78315 13.87 10.6487L13.8314 10.7003C13.7242 10.8437 13.7747 11.0492 13.9362 11.1265C16.1252 12.1747 16.9165 14.8934 15.6318 16.9526L15.0663 17.8588C15.0115 17.9466 14.9153 18 14.8118 18H13.6501V21.3501C13.6501 21.7091 13.3591 22.0001 13.0001 22.0001C12.6411 22.0001 12.3501 21.7091 12.3501 21.3501V18H11.6501L11.6501 21.35C11.6501 21.709 11.3591 22 11.0001 22C10.6411 22 10.3501 21.709 10.3501 21.35L10.3501 18H8.19484C8.01038 18 7.86961 17.8351 7.89856 17.6529L8.95959 10.9772L9.01778 10.4746Z" fill="#7B7E86"/>
<path d="M13.0246 5.52351C12.0538 6.75875 9.14355 6.73118 8.52225 3.97639C9.51182 3.97639 9.94546 3.51378 10.4896 2.93323C10.6444 2.7681 10.8082 2.59343 10.9962 2.41714C11.0162 2.3976 11.0367 2.37863 11.0577 2.36025C11.0641 2.35435 11.0706 2.34844 11.0772 2.34253C11.3305 2.12817 11.6502 2 12.0001 2C12.8955 2 13.5914 2.84364 13.4903 3.80655L13.4022 4.64508C13.3665 4.98593 13.229 5.29024 13.0246 5.52351Z" fill="#7B7E86"/>
</svg>
