<svg width="24" height="24" viewBox="0 0 24 24" fill="none" xmlns="http://www.w3.org/2000/svg">
<path fill-rule="evenodd" clip-rule="evenodd" d="M7.49361 20.7453C6.42787 21.4187 5.03754 20.6536 5.03754 19.3936L5.04646 5.59989C5.04646 4.16462 6.21094 3.0011 7.6474 3.0011H16.4366C17.8731 3.0011 19.0375 4.16462 19.0375 5.59989L19.0286 19.3991C19.0286 20.6529 17.6504 21.4191 16.5842 20.7581L14.5647 19.5061L12.9499 20.6909C12.3861 21.1045 11.6189 21.1045 11.0552 20.6909L9.44698 19.511L7.49361 20.7453ZM8.68001 7.00073C8.32103 7.00073 8.03001 7.29175 8.03001 7.65073C8.03001 8.00972 8.32103 8.30073 8.68001 8.30073H15.38C15.739 8.30073 16.03 8.00972 16.03 7.65073C16.03 7.29175 15.739 7.00073 15.38 7.00073H8.68001ZM8.03001 10.6507C8.03001 10.2917 8.32103 10.0007 8.68001 10.0007H15.38C15.739 10.0007 16.03 10.2917 16.03 10.6507C16.03 11.0097 15.739 11.3007 15.38 11.3007H8.68001C8.32103 11.3007 8.03001 11.0097 8.03001 10.6507ZM8.03001 13.6507C8.03001 13.2917 8.32103 13.0007 8.68001 13.0007H11.88C12.239 13.0007 12.53 13.2917 12.53 13.6507C12.53 14.0097 12.239 14.3007 11.88 14.3007H8.68001C8.32103 14.3007 8.03001 14.0097 8.03001 13.6507Z" fill="#7B7E86"/>
</svg>
