<svg width="24" height="24" viewBox="0 0 24 24" fill="none" xmlns="http://www.w3.org/2000/svg">
<path fill-rule="evenodd" clip-rule="evenodd" d="M18.6185 3.34691L20.6531 5.38145L18.6185 7.41599L16.584 5.38145L18.6185 3.34691ZM17.7794 2.34759C18.2428 1.88414 18.9942 1.88414 19.4577 2.34759L21.6524 4.5423C22.1159 5.00575 22.1159 5.75715 21.6524 6.2206L19.4577 8.41531C18.9942 8.87877 18.2428 8.87877 17.7794 8.41531L15.5847 6.2206C15.1212 5.75715 15.1212 5.00575 15.5847 4.5423L17.7794 2.34759ZM7.10594 3.68144L3.70594 3.68144L3.70595 7.08144H7.10594V3.68144ZM18.6185 16.9266C17.6796 16.9266 16.9185 17.6877 16.9185 18.6266C16.9185 19.5655 17.6796 20.3266 18.6185 20.3266C19.5574 20.3266 20.3185 19.5655 20.3185 18.6266C20.3185 17.6877 19.5574 16.9266 18.6185 16.9266ZM2.40594 3.68144C2.40594 2.96347 2.98797 2.38144 3.70594 2.38144H7.10594C7.82391 2.38144 8.40594 2.96347 8.40594 3.68144V7.08144C8.40594 7.79941 7.82392 8.38144 7.10595 8.38144H3.70595C2.98797 8.38144 2.40594 7.79941 2.40594 7.08144V3.68144ZM18.6185 15.6266C16.9617 15.6266 15.6185 16.9698 15.6185 18.6266C15.6185 20.2835 16.9617 21.6266 18.6185 21.6266C20.2754 21.6266 21.6185 20.2835 21.6185 18.6266C21.6185 16.9698 20.2754 15.6266 18.6185 15.6266Z" fill="#7B7E86"/>
<path d="M18.6185 10.0586C18.9774 10.0586 19.2685 10.3496 19.2685 10.7086V13.6722C19.2685 14.0311 18.9774 14.3222 18.6185 14.3222C18.2595 14.3222 17.9685 14.0311 17.9685 13.6722V10.7086C17.9685 10.3496 18.2595 10.0586 18.6185 10.0586Z" fill="#7B7E86"/>
<path d="M10.357 4.73141C9.99802 4.73141 9.707 5.02243 9.707 5.38141C9.707 5.7404 9.99802 6.03141 10.357 6.03141H13.2875C13.6465 6.03141 13.9375 5.7404 13.9375 5.38141C13.9375 5.02243 13.6465 4.73141 13.2875 4.73141H10.357Z" fill="#7B7E86"/>
<path d="M11.7399 17.9585L10.2269 16.4965C9.97309 16.2426 9.97309 15.8311 10.2269 15.5772C10.4808 15.3234 10.8923 15.3234 11.1462 15.5772L14.1221 18.1489C14.376 18.4027 14.376 18.8142 14.1221 19.0681L11.154 21.6319C10.9001 21.8857 10.4886 21.8857 10.2347 21.6319C9.9809 21.3781 9.9809 20.9665 10.2347 20.7127L11.739 19.2594H8.41156C6.39572 19.2594 4.76156 17.6252 4.76156 15.6094V10.332C4.76156 9.97305 5.05258 9.68203 5.41156 9.68203C5.77055 9.68203 6.06156 9.97305 6.06156 10.332V15.6094C6.06156 16.9072 7.11369 17.9594 8.41156 17.9594L11.7399 17.9585Z" fill="#7B7E86"/>
</svg>
