<svg width="24" height="24" viewBox="0 0 24 24" fill="none" xmlns="http://www.w3.org/2000/svg">
<path d="M2.99998 3.35C2.64099 3.35 2.34998 3.64101 2.34998 4C2.34998 4.35898 2.64099 4.65 2.99998 4.65H3.93842C4.55789 4.65 5.09787 5.0716 5.24812 5.67258L7.49065 14.6427C7.78557 15.8224 8.84553 16.65 10.0615 16.65H16.0296C17.1887 16.65 18.2132 15.8967 18.559 14.7904L20.6204 8.19388C20.6821 7.99651 20.6462 7.78158 20.5237 7.61498C20.4012 7.44838 20.2068 7.35 20 7.35H7.00748L6.5093 5.35728C6.21438 4.17759 5.15442 3.35 3.93842 3.35H2.99998Z" fill="#7B7E86"/>
<path d="M7.34998 19C7.34998 18.0887 8.08871 17.35 8.99998 17.35C9.91125 17.35 10.65 18.0887 10.65 19C10.65 19.9113 9.91125 20.65 8.99998 20.65C8.08871 20.65 7.34998 19.9113 7.34998 19Z" fill="#7B7E86"/>
<path d="M15.35 19C15.35 18.0887 16.0887 17.35 17 17.35C17.9112 17.35 18.65 18.0887 18.65 19C18.65 19.9113 17.9112 20.65 17 20.65C16.0887 20.65 15.35 19.9113 15.35 19Z" fill="#7B7E86"/>
</svg>
