<svg width="24" height="24" viewBox="0 0 24 24" fill="none" xmlns="http://www.w3.org/2000/svg">
<path d="M9.64998 7.65C9.64998 7.29101 9.35896 7 8.99998 7C8.64099 7 8.34998 7.29101 8.34998 7.65V9.6247L8.34998 9.62611L8.34998 9.62781L8.35001 9.63203L8.35015 9.64379C8.3503 9.65307 8.35057 9.66522 8.35107 9.68005C8.35206 9.70969 8.35393 9.75015 8.35749 9.79992C8.36458 9.89923 8.37845 10.0369 8.40569 10.2003C8.45966 10.5241 8.56882 10.9658 8.7936 11.4154C9.01965 11.8675 9.36894 12.3394 9.90505 12.6968C10.4452 13.0569 11.1362 13.2747 12 13.2747C12.8637 13.2747 13.5547 13.0569 14.0949 12.6968C14.631 12.3394 14.9803 11.8675 15.2064 11.4154C15.4311 10.9658 15.5403 10.5241 15.5943 10.2003C15.6215 10.0369 15.6354 9.89923 15.6425 9.79992C15.646 9.75015 15.6479 9.70969 15.6489 9.68005C15.6494 9.66522 15.6497 9.65307 15.6498 9.64379L15.6499 9.63203L15.65 9.62781L15.65 9.62611L15.65 9.6247V7.65C15.65 7.29101 15.359 7 15 7C14.641 7 14.35 7.29101 14.35 7.65L14.35 9.62282L14.3496 9.63674C14.3491 9.65104 14.3481 9.67503 14.3458 9.7073C14.3411 9.77205 14.3316 9.86879 14.3119 9.98659C14.2722 10.2253 14.1938 10.5336 14.0436 10.834C13.8947 11.1319 13.6814 11.41 13.3738 11.6151C13.0702 11.8175 12.6362 11.9747 12 11.9747C11.3637 11.9747 10.9297 11.8175 10.6262 11.6151C10.3185 11.41 10.1053 11.1319 9.95635 10.834C9.80614 10.5336 9.72779 10.2253 9.68801 9.98659C9.66837 9.86879 9.65881 9.77205 9.65418 9.7073C9.65188 9.67503 9.65082 9.65104 9.65035 9.63674L9.64998 9.62237V7.65Z" fill="#7B7E86"/>
<path fill-rule="evenodd" clip-rule="evenodd" d="M16.4747 4H7.52527C6.15474 4 5.01955 5.06387 4.93074 6.43152L4.09957 17.2315C4.00223 18.7306 5.19187 20 6.69411 20H17.3058C18.8081 20 19.9977 18.7306 19.9004 17.2315L19.0692 6.43152C18.9804 5.06387 17.8452 4 16.4747 4ZM16.4747 5.3H7.52527C6.84001 5.3 6.27241 5.83194 6.22801 6.51576L5.39684 17.3157C5.34817 18.0653 5.94299 18.7 6.69411 18.7H17.3058C18.057 18.7 18.6518 18.0653 18.6031 17.3157L17.7719 6.51576C17.7275 5.83194 17.1599 5.3 16.4747 5.3Z" fill="#7B7E86"/>
</svg>
