<svg width="24" height="24" viewBox="0 0 24 24" fill="none" xmlns="http://www.w3.org/2000/svg">
<path fill-rule="evenodd" clip-rule="evenodd" d="M7.52527 4H16.4747C17.8452 4 18.9804 5.06387 19.0692 6.43152L19.9004 17.2315C19.9977 18.7306 18.8081 20 17.3058 20H6.69411C5.19187 20 4.00223 18.7306 4.09957 17.2315L4.93074 6.43152C5.01955 5.06387 6.15474 4 7.52527 4ZM9.6194 7.65C9.6194 7.29101 9.32838 7 8.9694 7C8.61041 7 8.3194 7.29101 8.3194 7.65V9.6247L8.3194 9.62611L8.3194 9.62781L8.31943 9.63203L8.31957 9.64379C8.31972 9.65307 8.32 9.66522 8.32049 9.68005C8.32148 9.70969 8.32335 9.75015 8.32691 9.79992C8.334 9.89923 8.34787 10.0369 8.37512 10.2003C8.42909 10.5241 8.53824 10.9658 8.76302 11.4154C8.98907 11.8675 9.33836 12.3394 9.87447 12.6968C10.4146 13.0569 11.1057 13.2747 11.9694 13.2747C12.8331 13.2747 13.5242 13.0569 14.0643 12.6968C14.6004 12.3394 14.9497 11.8675 15.1758 11.4154C15.4006 10.9658 15.5097 10.5241 15.5637 10.2003C15.5909 10.0369 15.6048 9.89923 15.6119 9.79992C15.6154 9.75015 15.6173 9.70969 15.6183 9.68005C15.6188 9.66522 15.6191 9.65307 15.6192 9.64379L15.6194 9.63203L15.6194 9.62781L15.6194 9.62611L15.6194 9.6247V7.65C15.6194 7.29101 15.3284 7 14.9694 7C14.6104 7 14.3194 7.29101 14.3194 7.65L14.3194 9.62575L14.319 9.63674C14.3185 9.65104 14.3175 9.67503 14.3152 9.7073C14.3106 9.77205 14.301 9.86879 14.2814 9.98659C14.2416 10.2253 14.1632 10.5336 14.013 10.834C13.8641 11.1319 13.6509 11.41 13.3432 11.6151C13.0396 11.8175 12.6057 11.9747 11.9694 11.9747C11.3331 11.9747 10.8992 11.8175 10.5956 11.6151C10.2879 11.41 10.0747 11.1319 9.92577 10.834C9.77556 10.5336 9.69721 10.2253 9.65743 9.98659C9.63779 9.86879 9.62823 9.77205 9.6236 9.7073C9.6213 9.67503 9.62025 9.65104 9.61977 9.63674L9.6194 9.62237V7.65Z" fill="#7B7E86"/>
</svg>
