<svg width="24" height="24" viewBox="0 0 24 24" fill="none" xmlns="http://www.w3.org/2000/svg">
<path fill-rule="evenodd" clip-rule="evenodd" d="M2.34998 4.00001C2.34998 3.64102 2.64099 3.35001 2.99998 3.35001H3.93842C5.15442 3.35001 6.21438 4.17759 6.5093 5.35729L7.00748 7.35001H20C20.2068 7.35001 20.4012 7.44839 20.5237 7.61499C20.6462 7.78159 20.6821 7.99652 20.6204 8.19388L18.559 14.7904C18.2132 15.8967 17.1887 16.65 16.0296 16.65H10.0615C8.84553 16.65 7.78557 15.8224 7.49065 14.6427L5.24812 5.67258C5.09787 5.07161 4.55789 4.65001 3.93842 4.65001H2.99998C2.64099 4.65001 2.34998 4.35899 2.34998 4.00001ZM7.33248 8.65001L8.75184 14.3274C8.90208 14.9284 9.44206 15.35 10.0615 15.35H16.0296C16.6201 15.35 17.142 14.9663 17.3181 14.4027L19.1159 8.65001H7.33248Z" fill="#7B7E86"/>
<path fill-rule="evenodd" clip-rule="evenodd" d="M7.34998 19C7.34998 18.0887 8.08871 17.35 8.99998 17.35C9.91125 17.35 10.65 18.0887 10.65 19C10.65 19.9113 9.91125 20.65 8.99998 20.65C8.08871 20.65 7.34998 19.9113 7.34998 19Z" fill="#7B7E86"/>
<path fill-rule="evenodd" clip-rule="evenodd" d="M17 17.35C16.0887 17.35 15.35 18.0887 15.35 19C15.35 19.9113 16.0887 20.65 17 20.65C17.9112 20.65 18.65 19.9113 18.65 19C18.65 18.0887 17.9112 17.35 17 17.35Z" fill="#7B7E86"/>
</svg>
