<svg width="24" height="24" viewBox="0 0 24 24" fill="none" xmlns="http://www.w3.org/2000/svg">
<path d="M6 4C4.34315 4 3 5.34315 3 7V7.65C3 8.0366 3.3134 8.35 3.7 8.35H20.3C20.6866 8.35 21 8.0366 21 7.65V7C21 5.34315 19.6569 4 18 4H6Z" fill="#7B7E86"/>
<path d="M14.15 10.35C14.15 9.9634 13.8366 9.65 13.45 9.65H10.55C10.1634 9.65 9.85001 9.9634 9.85001 10.35V19.3C9.85001 19.6866 10.1634 20 10.55 20H13.45C13.8366 20 14.15 19.6866 14.15 19.3V10.35Z" fill="#7B7E86"/>
<path d="M16.15 9.65C15.7634 9.65 15.45 9.9634 15.45 10.35V19.3C15.45 19.6866 15.7634 20 16.15 20H18C19.6569 20 21 18.6569 21 17V10.35C21 9.9634 20.6866 9.65 20.3 9.65H16.15Z" fill="#7B7E86"/>
<path d="M3 10.35C3 9.9634 3.3134 9.65 3.7 9.65H7.85001C8.23661 9.65 8.55001 9.9634 8.55001 10.35V19.3C8.55001 19.6866 8.23661 20 7.85001 20H6C4.34315 20 3 18.6569 3 17V10.35Z" fill="#7B7E86"/>
</svg>
