<svg width="24" height="24" viewBox="0 0 24 24" fill="none" xmlns="http://www.w3.org/2000/svg">
<path fill-rule="evenodd" clip-rule="evenodd" d="M3 7C3 5.34315 4.34315 4 6 4H18C19.6569 4 21 5.34315 21 7V17C21 18.6569 19.6569 20 18 20H6C4.34315 20 3 18.6569 3 17V7ZM6 5.3H18C18.9389 5.3 19.7 6.06112 19.7 7V8.34998H4.3V7C4.3 6.06112 5.06112 5.3 6 5.3ZM4.3 9.64998H8.56665L8.56665 18.7H6C5.06112 18.7 4.3 17.9389 4.3 17V9.64998ZM9.86665 18.7L9.86665 9.64998H14.1333L14.1333 18.7H9.86665ZM15.4333 18.7H18C18.9389 18.7 19.7 17.9389 19.7 17V9.64998H15.4333L15.4333 18.7Z" fill="#7B7E86"/>
</svg>
