<svg width="24" height="24" viewBox="0 0 24 24" fill="none" xmlns="http://www.w3.org/2000/svg">
<path d="M4.87796 4.86713C5.06076 4.34625 5.55259 3.99762 6.10462 3.99762H17.8954C18.4474 3.99762 18.9392 4.34624 19.122 4.86711L20.7598 9.53376L20.7615 9.88672C20.5679 11.2541 19.5025 11.9959 18.4526 11.9959C17.4027 11.9959 16.046 11.1855 15.8578 10.4142C15.7284 11.1938 14.9379 12.039 13.9316 12.039C13.0043 12.039 12.1548 11.1048 11.9733 10.4142C11.8383 11.1152 11.2255 12.0354 10.0778 12.0354C8.93037 12.0354 8.25441 11.1125 8.09739 10.4142C7.907 11.1021 6.72911 12.0024 5.70788 12.0024C4.41627 12.0024 3.43237 11.1303 3.23828 9.88565L3.24023 9.53376L4.87796 4.86713Z" fill="#7B7E86"/>
<path d="M5.70789 13.3024C5.33745 13.3024 5 13.5806 5 13.9511V19.7C5 20.418 5.58203 21 6.3 21H8.7C9.41585 20.997 10 20.4158 10 19.7V17.2732C10 16.5552 10.582 15.9732 11.3 15.9732H12.7C13.418 15.9732 14 16.5552 14 17.2732V19.7C14 20.418 14.582 21 15.3 21H17.7C18.418 21 19 20.418 19 19.7V13.8012C19 13.5132 18.7406 13.2959 18.4526 13.2959C17.6921 13.2959 16.9343 13.0732 16.2767 12.6916C16.1196 12.6004 15.9219 12.6136 15.7754 12.7209C15.2928 13.0743 14.669 13.339 13.9316 13.339C13.297 13.339 12.7369 13.1398 12.2782 12.8538C12.1237 12.7575 11.9254 12.7602 11.772 12.8583C11.3187 13.148 10.7571 13.3354 10.0778 13.3354C9.32041 13.3354 8.69686 13.1 8.20343 12.7482C8.05256 12.6406 7.85009 12.6306 7.69184 12.727C7.14362 13.0609 6.46394 13.3024 5.70789 13.3024Z" fill="#7B7E86"/>
</svg>
