<svg width="24" height="24" viewBox="0 0 24 24" fill="none" xmlns="http://www.w3.org/2000/svg">
<path d="M16 3.65C17.2979 3.65 18.35 4.70213 18.35 6L18.35 18C18.35 19.2979 17.2979 20.35 16 20.35L8 20.35C6.70213 20.35 5.65 19.2979 5.65 18L5.65 6C5.65 4.70213 6.70213 3.65 8 3.65L16 3.65Z" stroke="#7B7E86" stroke-width="1.3"/>
<path fill-rule="evenodd" clip-rule="evenodd" d="M19 6C19 4.34315 17.6569 3 16 3H8C6.34315 3 5 4.34315 5 6V18C5 19.6569 6.34315 21 8 21H16C17.6569 21 19 19.6569 19 18L19 6ZM6.32639 18.3H17.6736C17.5319 19.0958 16.8365 19.7 16 19.7H8C7.16348 19.7 6.46808 19.0958 6.32639 18.3ZM17.6736 5.69995H6.3264C6.46811 4.90417 7.1635 4.3 8 4.3L16 4.3C16.8365 4.3 17.5319 4.90417 17.6736 5.69995ZM17.7 6.99995V17H6.3L6.3 6.99995H17.7Z" fill="#7B7E86"/>
</svg>
