<svg width="24" height="24" viewBox="0 0 24 24" fill="none" xmlns="http://www.w3.org/2000/svg">
<path d="M4.30446 19.0801C4.15457 19.5331 4.49188 20 4.96902 20H8.1519C8.46563 20 8.74104 19.7913 8.82584 19.4892L9.46804 17.2018C9.50438 17.0723 9.62241 16.9829 9.75687 16.9829H13.9862C14.1198 16.9829 14.2374 17.0713 14.2744 17.1997L14.9364 19.4941C15.0229 19.7937 15.2972 20 15.609 20H19.0311C19.5083 20 19.8456 19.5331 19.6957 19.0801L14.8648 4.48011C14.77 4.19352 14.5021 4 14.2003 4H9.79991C9.49804 4 9.23017 4.19352 9.13534 4.48011L4.30446 19.0801ZM11.5941 9.82574C11.6773 9.53626 12.0875 9.53626 12.1708 9.82574L13.2312 13.5143C13.2863 13.706 13.1424 13.8971 12.9429 13.8971H10.822C10.6225 13.8971 10.4786 13.706 10.5337 13.5143L11.5941 9.82574Z" fill="#7B7E86"/>
</svg>
