<svg width="24" height="24" viewBox="0 0 24 24" fill="none" xmlns="http://www.w3.org/2000/svg">
<path d="M11.5941 8.46137L10.259 13.1055C10.2039 13.2972 10.3478 13.4883 10.5473 13.4883H13.2176C13.4171 13.4883 13.561 13.2972 13.5059 13.1055L12.1708 8.46138C12.0875 8.1719 11.6774 8.1719 11.5941 8.46137Z" fill="#7B7E86"/>
<path fill-rule="evenodd" clip-rule="evenodd" d="M9.48275 15.9018C9.51909 15.7723 9.63713 15.6829 9.77158 15.6829H13.9641C14.0977 15.6829 14.2153 15.7713 14.2523 15.8997L14.9978 18.4832C15.0348 18.6116 15.1524 18.7 15.286 18.7H17.7854C17.9898 18.7 18.1344 18.4999 18.0702 18.3058L13.8349 5.50576C13.7942 5.38294 13.6794 5.3 13.5501 5.3H10.4501C10.3207 5.3 10.2059 5.38294 10.1653 5.50576L5.92999 18.3058C5.86576 18.4999 6.01032 18.7 6.21481 18.7H8.46977C8.60423 18.7 8.72226 18.6105 8.75861 18.4811L9.48275 15.9018ZM4.30446 19.0801C4.15457 19.5331 4.49188 20 4.96902 20H9.1519C9.46563 20 9.74104 19.7913 9.82584 19.4892L10.468 17.2018C10.5044 17.0723 10.6224 16.9829 10.7569 16.9829H12.9862C13.1198 16.9829 13.2374 17.0713 13.2744 17.1997L13.9364 19.4941C14.0229 19.7937 14.2972 20 14.609 20H19.0311C19.5083 20 19.8456 19.5331 19.6957 19.0801L14.8648 4.48011C14.77 4.19352 14.5021 4 14.2003 4H9.79991C9.49804 4 9.23017 4.19352 9.13534 4.48011L4.30446 19.0801Z" fill="#7B7E86"/>
</svg>
