<svg width="24" height="24" viewBox="0 0 24 24" fill="none" xmlns="http://www.w3.org/2000/svg">
<path fill-rule="evenodd" clip-rule="evenodd" d="M9.00815 2.04681C9.34388 2.17393 9.51299 2.54913 9.38587 2.88486C9.10531 3.62583 8.94502 4.26641 8.8562 4.91459C8.85418 4.92935 8.85219 4.94404 8.85023 4.95866C9.50935 4.51628 10.2128 4.14187 10.9498 3.84182L11.8654 3.46904C12.1979 3.33367 12.5772 3.49347 12.7125 3.82596C12.8479 4.15845 12.6881 4.53771 12.3556 4.67308L11.44 5.04586C10.8057 5.3041 10.1994 5.62433 9.62972 6.00141C10.3593 6.11269 11.0776 6.2932 11.7748 6.54103L12.7063 6.87214C13.0446 6.99237 13.2213 7.36404 13.1011 7.7023C12.9809 8.04055 12.6092 8.21729 12.2709 8.09706L11.3394 7.76594C10.9397 7.62388 10.5322 7.50671 10.1193 7.4149C10.5062 7.91811 10.852 8.45294 11.1527 9.01433L11.5696 9.79252C11.7392 10.109 11.6201 10.5029 11.3036 10.6724C10.9872 10.842 10.5933 10.7229 10.4237 10.4064L10.0068 9.62824C9.66059 8.98198 9.24721 8.37533 8.77419 7.81808C8.77541 7.88249 8.77611 7.94686 8.77611 8.01151C8.86905 10.6582 9.24629 12.4576 9.61171 13.611C9.8221 14.275 10.0289 14.7259 10.176 15.0021C10.2129 15.0714 10.2461 15.1298 10.2747 15.1778C10.8048 15.063 11.3788 15 12 15C14.5139 15 16.2539 16.0318 17.4517 17.3542C19.1408 17.6635 20.341 18.5531 20.8341 19.0749C21.0807 19.3358 21.0691 19.7472 20.8081 19.9938C20.5472 20.2403 20.1358 20.2287 19.8893 19.9678C19.4728 19.5271 18.1307 18.5444 16.2394 18.5444C15.0341 18.5444 13.9421 19.0768 12.6811 19.7035L12.6371 19.7253C11.437 20.3219 10.076 20.9984 8.51372 20.9984C5.93507 20.9984 3.84345 19.7374 3.22787 19.2003C2.95736 18.9643 2.92939 18.5537 3.16539 18.2832C3.40139 18.0127 3.812 17.9847 4.0825 18.2207C4.27298 18.3869 4.73379 18.6971 5.38037 18.9905C6.13529 17.6517 7.28272 16.3144 9.01011 15.5783C8.8273 15.2299 8.59816 14.7161 8.37242 14.0036C7.96403 12.7146 7.56764 10.778 7.47482 7.99592C7.47272 7.93282 7.47058 7.87105 7.46845 7.81039C6.99458 8.31132 6.57119 8.85915 6.20514 9.44611L5.73796 10.1952C5.548 10.4998 5.14707 10.5927 4.84247 10.4028C4.53786 10.2128 4.44493 9.81188 4.6349 9.50728L5.10207 8.75818C5.44281 8.21182 5.82767 7.69558 6.25232 7.21441C5.6614 7.28115 5.07634 7.3988 4.50376 7.56656L3.65654 7.81479C3.31204 7.91572 2.95094 7.71827 2.85 7.37377C2.74906 7.02927 2.94651 6.66817 3.29102 6.56723L4.13824 6.31901C4.97083 6.07507 5.82683 5.92525 6.69024 5.87152C6.18268 5.49729 5.6413 5.16973 5.07263 4.89332L4.18347 4.46114C3.8606 4.30421 3.72609 3.91526 3.88302 3.59239C4.03995 3.26952 4.4289 3.13501 4.75177 3.29194L5.64092 3.72412C6.31358 4.05107 6.95231 4.4416 7.54858 4.88985C7.64383 4.10929 7.82776 3.32867 8.1701 2.42453C8.29722 2.0888 8.67243 1.91969 9.00815 2.04681ZM12 16.3C13.4309 16.3 14.5535 16.6941 15.4408 17.3034C14.2344 17.4793 13.151 18.018 12.1715 18.505L12.1025 18.5393C10.8445 19.1645 9.74052 19.6984 8.51372 19.6984C7.83584 19.6984 7.19631 19.594 6.62319 19.4385C7.61203 17.7799 9.2271 16.3 12 16.3Z" fill="#7B7E86"/>
<path fill-rule="evenodd" clip-rule="evenodd" d="M18 10C19.6569 10 21 8.65685 21 7C21 5.34315 19.6569 4 18 4C16.3431 4 15 5.34315 15 7C15 8.65685 16.3431 10 18 10ZM18 8.7C18.9389 8.7 19.7 7.93888 19.7 7C19.7 6.06112 18.9389 5.3 18 5.3C17.0611 5.3 16.3 6.06112 16.3 7C16.3 7.93888 17.0611 8.7 18 8.7Z" fill="#7B7E86"/>
</svg>
