<svg width="24" height="24" viewBox="0 0 24 24" fill="none" xmlns="http://www.w3.org/2000/svg">
<path d="M9.38587 2.88486C9.51299 2.54913 9.34388 2.17393 9.00815 2.04681C8.67243 1.91969 8.29722 2.0888 8.1701 2.42453C7.82776 3.32867 7.64383 4.10929 7.54858 4.88985C6.95231 4.4416 6.31358 4.05107 5.64092 3.72412L4.75177 3.29194C4.4289 3.13501 4.03995 3.26952 3.88302 3.59239C3.72609 3.91526 3.8606 4.30421 4.18347 4.46114L5.07263 4.89332C5.6413 5.16973 6.18268 5.49729 6.69024 5.87152C5.82683 5.92525 4.97083 6.07507 4.13824 6.31901L3.29102 6.56723C2.94651 6.66817 2.74906 7.02927 2.85 7.37377C2.95094 7.71827 3.31204 7.91572 3.65654 7.81479L4.50376 7.56656C5.07634 7.3988 5.6614 7.28115 6.25232 7.21441C5.82767 7.69558 5.44281 8.21182 5.10207 8.75818L4.6349 9.50728C4.44493 9.81188 4.53786 10.2128 4.84247 10.4028C5.14707 10.5927 5.548 10.4998 5.73796 10.1952L6.20514 9.44611C6.57142 8.85879 6.9951 8.31065 7.46932 7.80947C7.4709 7.87109 7.47273 7.93321 7.47482 7.99592C7.56764 10.778 7.96403 12.7146 8.37242 14.0036C8.59816 14.7161 8.8273 15.2299 9.01011 15.5783C7.90201 16.0505 7.03257 16.7701 6.3523 17.5788C6.22535 17.7297 6.28667 17.9577 6.47261 18.0234C7.08286 18.2392 7.76936 18.3903 8.49199 18.3903C9.46905 18.3903 10.3691 17.9437 11.5335 17.366C11.6212 17.3225 11.7106 17.2782 11.8014 17.2333C12.6787 16.8001 13.6666 16.3391 14.8264 16.1026C15.1134 16.0441 15.1869 15.659 14.9161 15.5474C14.0836 15.2042 13.1184 15 12 15C11.3788 15 10.8049 15.063 10.2747 15.1778C10.2461 15.1298 10.2129 15.0714 10.176 15.0021C10.0289 14.7259 9.8221 14.275 9.61171 13.611C9.24629 12.4576 8.86905 10.6582 8.77611 8.01151C8.77374 7.94381 8.77145 7.87744 8.76927 7.81229C9.24434 8.37113 9.65939 8.97974 10.0068 9.62824L10.4237 10.4064C10.5933 10.7229 10.9872 10.842 11.3036 10.6724C11.6201 10.5029 11.7392 10.109 11.5696 9.79252L11.1527 9.01433C10.852 8.45294 10.5062 7.91811 10.1193 7.4149C10.5322 7.50671 10.9397 7.62388 11.3394 7.76594L12.2709 8.09706C12.6092 8.21729 12.9809 8.04055 13.1011 7.7023C13.2213 7.36404 13.0446 6.99237 12.7063 6.87214L11.7748 6.54103C11.0776 6.2932 10.3593 6.11269 9.62972 6.00141C10.1994 5.62433 10.8057 5.3041 11.44 5.04586L12.3556 4.67308C12.6881 4.53771 12.8479 4.15845 12.7125 3.82596C12.5772 3.49347 12.1979 3.33367 11.8654 3.46904L10.9498 3.84182C10.2128 4.14187 9.50935 4.51627 8.85024 4.95866C8.85219 4.94401 8.85418 4.92932 8.8562 4.91459C8.94502 4.26641 9.10531 3.62583 9.38587 2.88486Z" fill="#7B7E86"/>
<path d="M16.2394 17.2444C14.7068 17.2444 13.3624 17.9129 12.1715 18.505L12.1025 18.5393C10.8445 19.1645 9.74052 19.6984 8.51372 19.6984C6.30982 19.6984 4.51126 18.5948 4.0825 18.2207C3.812 17.9847 3.40139 18.0127 3.16539 18.2832C2.92939 18.5537 2.95736 18.9643 3.22787 19.2003C3.84345 19.7374 5.93507 20.9984 8.51372 20.9984C10.076 20.9984 11.437 20.3219 12.6371 19.7253L12.6811 19.7035C13.9421 19.0768 15.0341 18.5444 16.2394 18.5444C18.1307 18.5444 19.4728 19.5271 19.8893 19.9678C20.1358 20.2287 20.5472 20.2403 20.8081 19.9938C21.0691 19.7472 21.0807 19.3358 20.8341 19.0749C20.23 18.4356 18.5647 17.2444 16.2394 17.2444Z" fill="#7B7E86"/>
<path d="M21 7C21 8.65685 19.6569 10 18 10C16.3432 10 15 8.65685 15 7C15 5.34315 16.3432 4 18 4C19.6569 4 21 5.34315 21 7Z" fill="#7B7E86"/>
</svg>
