<svg width="24" height="24" viewBox="0 0 24 24" fill="none" xmlns="http://www.w3.org/2000/svg">
<path fill-rule="evenodd" clip-rule="evenodd" d="M14 5.99843C14 6.84403 13.4752 7.56706 12.7336 7.85961C12.7444 7.87121 12.7551 7.88313 12.7655 7.89537L14.6512 10.1068C15.0832 10.6135 15.8283 10.7118 16.377 10.3344L18.2826 9.02393C18.1031 8.72407 18 8.37329 18 7.99843C18 6.89386 18.8954 5.99843 20 5.99843C21.1046 5.99843 22 6.89386 22 7.99843C22 9.06301 21.1682 9.93332 20.1191 9.99494L19.1694 16.2074C19.0724 16.8421 18.5265 17.3109 17.8844 17.3109H6.11712C5.47501 17.3109 4.92908 16.8421 4.83205 16.2074L3.88239 9.99503C2.83256 9.93415 2 9.06352 2 7.99843C2 6.89386 2.89543 5.99843 4 5.99843C5.10457 5.99843 6 6.89386 6 7.99843C6 8.36996 5.8987 8.71782 5.7222 9.01591L7.65502 10.3362C8.20565 10.7124 8.95159 10.6109 9.38172 10.1013L11.2404 7.89919C11.2511 7.88654 11.262 7.87423 11.2732 7.86226C10.528 7.57144 10 6.84659 10 5.99843C10 4.89386 10.8954 3.99843 12 3.99843C13.1046 3.99843 14 4.89386 14 5.99843ZM12 6.69843C12.3866 6.69843 12.7 6.38503 12.7 5.99843C12.7 5.61183 12.3866 5.29843 12 5.29843C11.6134 5.29843 11.3 5.61183 11.3 5.99843C11.3 6.38503 11.6134 6.69843 12 6.69843ZM18.7616 10.2722L17.1137 11.4056C16.0163 12.1602 14.5261 11.9637 13.6619 10.9502L12.0058 9.00793L10.3751 10.9398C9.51489 11.959 8.02301 12.162 6.92174 11.4097L5.23792 10.2595L6.11712 16.0109L17.8844 16.0109L18.7616 10.2722ZM4.7 7.99843C4.7 8.38503 4.3866 8.69843 4 8.69843C3.6134 8.69843 3.3 8.38503 3.3 7.99843C3.3 7.61183 3.6134 7.29843 4 7.29843C4.3866 7.29843 4.7 7.61183 4.7 7.99843ZM20 8.69843C20.3866 8.69843 20.7 8.38503 20.7 7.99843C20.7 7.61183 20.3866 7.29843 20 7.29843C19.6134 7.29843 19.3 7.61183 19.3 7.99843C19.3 8.38503 19.6134 8.69843 20 8.69843Z" fill="#7B7E86"/>
<path d="M18.35 20.0015C18.709 20.0015 19 19.7105 19 19.3515C19 18.9926 18.709 18.7015 18.35 18.7015H5.65C5.29101 18.7015 5 18.9926 5 19.3515C5 19.7105 5.29101 20.0015 5.65 20.0015H18.35Z" fill="#7B7E86"/>
</svg>
