<svg width="24" height="24" viewBox="0 0 24 24" fill="none" xmlns="http://www.w3.org/2000/svg">
<path d="M11 3.01562C9.53643 3.01562 8.34999 4.20207 8.34999 5.66563C8.34999 6.02461 8.641 6.31563 8.99999 6.31563C9.35897 6.31563 9.64999 6.02461 9.64999 5.66563C9.64999 4.92004 10.2544 4.31563 11 4.31563H13C13.7456 4.31563 14.35 4.92004 14.35 5.66563C14.35 6.02461 14.641 6.31563 15 6.31563C15.359 6.31563 15.65 6.02461 15.65 5.66563C15.65 4.20207 14.4635 3.01562 13 3.01562H11Z" fill="#7B7E86"/>
<path d="M2.99524 10.4668C2.99524 8.80684 4.33524 7.46684 5.99524 7.46684L17.9992 7.46683C19.6492 7.46683 20.9992 8.80683 20.9992 10.4668L20.999 12.037C20.999 12.5697 20.7822 13.0794 20.3985 13.4489C20.0333 13.8006 19.5459 13.9971 19.0389 13.9971H4.9682C4.45737 13.9971 3.96644 13.799 3.59865 13.4445C3.22338 13.0828 3.00688 12.5877 2.99524 12.0678V10.4668Z" fill="#7B7E86"/>
<path d="M19.6755 15.2911C20.2524 15.2679 20.9992 15.726 20.9992 16.3033V16.9989C20.9992 18.6589 19.6592 19.9989 17.9992 19.9989H5.99524C4.33524 19.9989 2.99524 18.6589 2.99524 16.9989V16.3003C2.99524 15.7224 3.74321 15.2654 4.32061 15.2902C4.49694 15.2978 4.67686 15.2975 4.85866 15.2972L4.9682 15.2971H7.34999V16.9093C7.34999 17.2683 7.64101 17.5593 7.99999 17.5593C8.35898 17.5593 8.64999 17.2683 8.64999 16.9093V15.2971H15.35V16.9077C15.35 17.2667 15.641 17.5577 16 17.5577C16.359 17.5577 16.65 17.2667 16.65 16.9077V15.2971H19.0389L19.1575 15.2972C19.3325 15.2976 19.5057 15.298 19.6755 15.2911Z" fill="#7B7E86"/>
</svg>
