<svg width="24" height="24" viewBox="0 0 24 24" fill="none" xmlns="http://www.w3.org/2000/svg">
<path d="M8.34998 5.66563C8.34998 4.20207 9.53643 3.01562 11 3.01562H13C14.4635 3.01562 15.65 4.20207 15.65 5.66563C15.65 6.02461 15.359 6.31563 15 6.31563C14.641 6.31563 14.35 6.02461 14.35 5.66563C14.35 4.92004 13.7456 4.31563 13 4.31563H11C10.2544 4.31563 9.64998 4.92004 9.64998 5.66563C9.64998 6.02461 9.35897 6.31563 8.99998 6.31563C8.641 6.31563 8.34998 6.02461 8.34998 5.66563Z" fill="#7B7E86"/>
<path fill-rule="evenodd" clip-rule="evenodd" d="M2.99524 10.4668C2.99524 8.80684 4.33524 7.46684 5.99524 7.46684L17.9992 7.46683C19.6492 7.46683 20.9992 8.80683 20.9992 10.4668L20.9992 16.9989C20.9992 18.6589 19.6592 19.9989 17.9992 19.9989H5.99524C4.33524 19.9989 2.99524 18.6589 2.99524 16.9989V10.4668ZM19.6992 10.4668C19.6992 9.52683 18.9392 8.76683 17.9992 8.76683L5.99524 8.76684C5.05524 8.76684 4.29524 9.52684 4.29524 10.4668V11.6387L4.29604 12.2024C4.29604 12.6449 4.45954 13.0719 4.75514 13.4012C5.09554 13.7804 5.5811 13.9971 6.0907 13.9971H17.9156C18.4213 13.9971 18.9032 13.7822 19.2412 13.406C19.5351 13.0789 19.6976 12.6547 19.6976 12.215V11.6471H19.6992V10.4668ZM19.6992 14.7286C19.1825 15.0952 18.5602 15.2971 17.9156 15.2971H16.65V16.7615C16.65 17.1204 16.359 17.4115 16 17.4115C15.641 17.4115 15.35 17.1204 15.35 16.7615V15.2971H8.64998V16.7631C8.64998 17.1221 8.35897 17.4131 7.99998 17.4131C7.641 17.4131 7.34998 17.1221 7.34998 16.7631V15.2971H6.0907C5.44152 15.2971 4.81496 15.0932 4.29524 14.723V16.9989C4.29524 17.9389 5.05524 18.6989 5.99524 18.6989H17.9992C18.9392 18.6989 19.6992 17.9389 19.6992 16.9989V14.7286Z" fill="#7B7E86"/>
</svg>
