<svg width="24" height="24" viewBox="0 0 24 24" fill="none" xmlns="http://www.w3.org/2000/svg">
<path d="M17.9972 16.8304C17.7717 17.1109 17.7799 17.5222 18.0415 17.7695C18.3015 18.0154 18.7136 18.0061 18.9412 17.7299C20.2198 16.179 20.9877 14.1914 20.9877 12.0245C20.9877 7.06743 16.9692 3.04895 12.0121 3.04895C7.0551 3.04895 3.03662 7.06743 3.03662 12.0245C3.03662 14.1817 3.79764 16.1611 5.06585 17.709C5.29344 17.9868 5.70703 17.9964 5.96761 17.7493C6.22803 17.5024 6.23663 17.0927 6.0126 16.8123C4.96372 15.4997 4.33662 13.8353 4.33662 12.0245C4.33662 7.7854 7.77307 4.34895 12.0121 4.34895C16.2512 4.34895 19.6877 7.7854 19.6877 12.0245C19.6877 13.8436 19.0548 15.515 17.9972 16.8304Z" fill="#7B7E86"/>
<path d="M16.6865 15.6006C16.4691 15.8843 16.0567 15.8926 15.7971 15.6471C15.5351 15.3994 15.5294 14.988 15.7396 14.6951C16.2794 13.9431 16.5972 13.0209 16.5972 12.0245C16.5972 9.49222 14.5444 7.4394 12.0121 7.4394C9.47986 7.4394 7.42704 9.49222 7.42704 12.0245C7.42704 13.0117 7.73903 13.926 8.26979 14.6743C8.47738 14.9669 8.47068 15.3758 8.21032 15.6227C7.94967 15.8699 7.53469 15.8607 7.31782 15.5744C6.57044 14.5876 6.12704 13.3578 6.12704 12.0245C6.12704 8.77425 8.76189 6.1394 12.0121 6.1394C15.2624 6.1394 17.8972 8.77425 17.8972 12.0245C17.8972 13.3697 17.4459 14.6094 16.6865 15.6006Z" fill="#7B7E86"/>
<path fill-rule="evenodd" clip-rule="evenodd" d="M14.5 11.9569C14.5 13.1084 13.7215 14.078 12.6622 14.3683V20.3391C12.6622 20.698 12.3712 20.9891 12.0122 20.9891C11.6532 20.9891 11.3622 20.698 11.3622 20.3391V14.3748C10.2904 14.0929 9.5 13.1172 9.5 11.9569C9.5 10.5762 10.6193 9.45691 12 9.45691C13.3807 9.45691 14.5 10.5762 14.5 11.9569ZM12 13.1569C12.6627 13.1569 13.2 12.6197 13.2 11.9569C13.2 11.2942 12.6627 10.7569 12 10.7569C11.3373 10.7569 10.8 11.2942 10.8 11.9569C10.8 12.6197 11.3373 13.1569 12 13.1569Z" fill="#7B7E86"/>
</svg>
