<svg width="24" height="24" viewBox="0 0 24 24" fill="none" xmlns="http://www.w3.org/2000/svg">
<path fill-rule="evenodd" clip-rule="evenodd" d="M7.60446 10.3C7.60446 9.58203 8.18649 9 8.90446 9H15.0907C15.8087 9 16.3907 9.58203 16.3907 10.3V17.0879C16.3907 17.8058 15.8087 18.3879 15.0907 18.3879H8.90446C8.18649 18.3879 7.60446 17.8058 7.60446 17.0879V10.3ZM8.90446 10.3H15.0907V11.5439H13.9545C13.5955 11.5439 13.3045 11.835 13.3045 12.1939C13.3045 12.5529 13.5955 12.8439 13.9545 12.8439H15.0907V14.5439H13.9545C13.5955 14.5439 13.3045 14.835 13.3045 15.1939C13.3045 15.5529 13.5955 15.8439 13.9545 15.8439H15.0907V17.0879H8.90446L8.90446 15.8439H9.98603C10.345 15.8439 10.636 15.5529 10.636 15.1939C10.636 14.835 10.345 14.5439 9.98603 14.5439H8.90446V12.8439H9.98603C10.345 12.8439 10.636 12.5529 10.636 12.1939C10.636 11.835 10.345 11.5439 9.98603 11.5439H8.90446L8.90446 10.3Z" fill="#7B7E86"/>
<path fill-rule="evenodd" clip-rule="evenodd" d="M5 9.7656C5 9.03086 5.26964 8.32166 5.75777 7.77251L9.10497 4.00691C9.67427 3.36644 10.4903 3 11.3472 3H16C17.6569 3 19 4.34315 19 6V18C19 19.6569 17.6569 21 16 21H8C6.34315 21 5 19.6569 5 18V9.7656ZM17.7 6V18C17.7 18.9389 16.9389 19.7 16 19.7H8C7.06112 19.7 6.3 18.9389 6.3 18V9.7656C6.3 9.34924 6.45279 8.94737 6.7294 8.63618L10.0766 4.87058C10.3992 4.50765 10.8616 4.3 11.3472 4.3H16C16.9389 4.3 17.7 5.06112 17.7 6Z" fill="#7B7E86"/>
</svg>
