<svg width="48" height="48" viewBox="0 0 48 48" fill="none" xmlns="http://www.w3.org/2000/svg">
<path fill-rule="evenodd" clip-rule="evenodd" d="M43.9553 37.3337C46.0346 34.2217 47.3495 30.6787 47.8128 26.9923C48.0193 25.3483 46.6569 24 45 24C43.3431 24 42.0262 25.3532 41.7532 26.9874C40.3302 35.5068 32.9234 42 24 42C14.0589 42 6 33.9411 6 24C6 15.0766 12.4932 7.66983 21.0126 6.24677C22.6468 5.9738 24 4.65685 24 3C24 1.34315 22.6517 -0.0193258 21.0077 0.187247C17.3213 0.65048 13.7783 1.96539 10.6663 4.04473C6.71953 6.68188 3.64339 10.4302 1.82689 14.8156C0.0103881 19.201 -0.464892 24.0266 0.461153 28.6822C1.3872 33.3377 3.67298 37.6141 7.02944 40.9706C10.3859 44.327 14.6623 46.6128 19.3178 47.5388C23.9734 48.4649 28.799 47.9896 33.1844 46.1731C37.5698 44.3566 41.3181 41.2805 43.9553 37.3337Z" fill="white"/>
</svg>
