<svg width="24" height="24" viewBox="0 0 24 24" fill="none" xmlns="http://www.w3.org/2000/svg">
<path fill-rule="evenodd" clip-rule="evenodd" d="M21.9776 18.6669C23.0173 17.1109 23.6748 15.3394 23.9064 13.4962C24.0097 12.6742 23.3284 12 22.5 12C21.6716 12 21.0131 12.6766 20.8766 13.4937C20.1651 17.7534 16.4617 21 12 21C7.02944 21 3.00001 16.9706 3.00001 12C3.00001 7.53833 6.24663 3.83493 10.5063 3.1234C11.3234 2.98691 12 2.32844 12 1.50002C12 0.671589 11.3258 -0.00964632 10.5039 0.0936401C8.66065 0.325257 6.88914 0.982712 5.33316 2.02238C3.35977 3.34096 1.8217 5.2151 0.913451 7.40782C0.00519943 9.60053 -0.232441 12.0133 0.230582 14.3411C0.693605 16.6689 1.83649 18.8071 3.51472 20.4853C5.19295 22.1635 7.33115 23.3064 9.65892 23.7694C11.9867 24.2325 14.3995 23.9948 16.5922 23.0866C18.7849 22.1783 20.6591 20.6402 21.9776 18.6669Z" fill="#0062FF"/>
</svg>
