<svg width="48" height="48" viewBox="0 0 48 48" fill="none" xmlns="http://www.w3.org/2000/svg">
<path fill-rule="evenodd" clip-rule="evenodd" d="M43.9553 37.3337C46.0346 34.2217 47.3495 30.6787 47.8128 26.9922C48.0193 25.3483 46.6569 24 45 24C43.3432 24 42.0262 25.3532 41.7532 26.9874C40.3302 35.5067 32.9234 42 24 42C14.0589 42 6.00001 33.9411 6.00001 24C6.00001 15.0766 12.4933 7.6698 21.0126 6.24674C22.6468 5.97377 24 4.65683 24 2.99997C24 1.34312 22.6517 -0.0193537 21.0077 0.187219C17.3213 0.650452 13.7783 1.96536 10.6663 4.0447C6.71955 6.68186 3.64341 10.4301 1.8269 14.8156C0.0103989 19.201 -0.464881 24.0266 0.461164 28.6821C1.38721 33.3377 3.67299 37.6141 7.02945 40.9705C10.3859 44.327 14.6623 46.6128 19.3178 47.5388C23.9734 48.4649 28.799 47.9896 33.1844 46.1731C37.5698 44.3566 41.3181 41.2804 43.9553 37.3337Z" fill="#0062FF"/>
</svg>
