<svg width="16" height="16" viewBox="0 0 16 16" fill="none" xmlns="http://www.w3.org/2000/svg">
<path fill-rule="evenodd" clip-rule="evenodd" d="M14.6518 12.4446C15.3449 11.4072 15.7832 10.2262 15.9376 8.99742C16.0064 8.44945 15.5523 8 15 8C14.4477 8 14.0087 8.45108 13.9177 8.99581C13.4434 11.8356 10.9745 14 8 14C4.68629 14 2 11.3137 2 8C2 5.02554 4.16441 2.55661 7.00419 2.08226C7.54893 1.99127 8 1.55228 8 1C8 0.447715 7.55055 -0.00644196 7.00258 0.0624156C5.77376 0.216827 4.59275 0.65513 3.55544 1.34824C2.23985 2.22729 1.21446 3.47672 0.608964 4.93853C0.00346269 6.40034 -0.154964 8.00887 0.153718 9.56072C0.4624 11.1126 1.22433 12.538 2.34315 13.6569C3.46197 14.7757 4.88743 15.5376 6.43928 15.8463C7.99113 16.155 9.59966 15.9965 11.0615 15.391C12.5233 14.7855 13.7727 13.7602 14.6518 12.4446Z" fill="white"/>
</svg>
