<svg width="24" height="24" viewBox="0 0 24 24" fill="none" xmlns="http://www.w3.org/2000/svg">
<path fill-rule="evenodd" clip-rule="evenodd" d="M4 6.99813C4 5.33916 5.34843 4 7.01886 4H16.9811C18.6415 4 20 5.33916 20 6.99813V17.0019C20 18.6608 18.6516 20 16.9811 20H7.01886C5.34843 20 4 18.6608 4 17.0019V6.99813ZM18.6918 6.99813V7.52684C18.2048 7.19326 17.6149 6.99813 16.9811 6.99813H7.01886C6.38313 6.99813 5.79405 7.19209 5.30817 7.52382V6.99813C5.30817 6.05871 6.07295 5.29919 7.01886 5.29919H16.9811C17.927 5.29919 18.6918 6.05871 18.6918 6.99813ZM5.30817 10.7058V9.99625C5.30817 9.05684 6.07295 8.29731 7.01886 8.29731H16.9811C17.927 8.29731 18.6918 9.05684 18.6918 9.99625V10.7058H15.1006C14.7394 10.7058 14.4465 10.9966 14.4465 11.3554V11.8395C14.4465 12.8692 13.606 13.7039 12.5692 13.7039H11.5314C10.4946 13.7039 9.65408 12.8692 9.65408 11.8395V11.3554C9.65408 10.9966 9.36123 10.7058 8.99999 10.7058H5.30817Z" fill="#7B7E86"/>
</svg>
