<svg width="24" height="24" viewBox="0 0 24 24" fill="none" xmlns="http://www.w3.org/2000/svg">
<path d="M18 5C18 6.10457 17.1046 7 16 7C14.8954 7 14 6.10457 14 5C14 3.89543 14.8954 3 16 3C17.1046 3 18 3.89543 18 5Z" fill="#7B7E86"/>
<path d="M18 19C18 20.1046 17.1046 21 16 21C14.8954 21 14 20.1046 14 19C14 17.8954 14.8954 17 16 17C17.1046 17 18 17.8954 18 19Z" fill="#7B7E86"/>
<path d="M16 14C17.1046 14 18 13.1046 18 12C18 10.8954 17.1046 10 16 10C14.8954 10 14 10.8954 14 12C14 13.1046 14.8954 14 16 14Z" fill="#7B7E86"/>
<path d="M9.99304 5C9.99304 6.10457 9.09761 7 7.99304 7C6.88847 7 5.99304 6.10457 5.99304 5C5.99304 3.89543 6.88847 3 7.99304 3C9.09761 3 9.99304 3.89543 9.99304 5Z" fill="#7B7E86"/>
<path d="M9.99304 19C9.99304 20.1046 9.09761 21 7.99304 21C6.88847 21 5.99304 20.1046 5.99304 19C5.99304 17.8954 6.88847 17 7.99304 17C9.09761 17 9.99304 17.8954 9.99304 19Z" fill="#7B7E86"/>
<path d="M7.99304 14C9.09761 14 9.99304 13.1046 9.99304 12C9.99304 10.8954 9.09761 10 7.99304 10C6.88847 10 5.99304 10.8954 5.99304 12C5.99304 13.1046 6.88847 14 7.99304 14Z" fill="#7B7E86"/>
</svg>
