<svg width="24" height="24" viewBox="0 0 24 24" fill="none" xmlns="http://www.w3.org/2000/svg">
<path fill-rule="evenodd" clip-rule="evenodd" d="M5.16195 21H18.838C21.1398 21 22.5841 18.5148 21.4447 16.5149L14.6066 4.51281C13.4558 2.49293 10.5442 2.49293 9.39337 4.5128L2.55533 16.5149C1.41588 18.5148 2.86018 21 5.16195 21ZM12.6498 14.1275C12.6498 14.4865 12.3588 14.7775 11.9998 14.7775C11.6408 14.7775 11.3498 14.4865 11.3498 14.1275V8.98129C11.3498 8.62231 11.6408 8.33129 11.9998 8.33129C12.3588 8.33129 12.6498 8.62231 12.6498 8.98129V14.1275ZM12.7498 16.8813C12.7498 17.2955 12.414 17.6313 11.9998 17.6313C11.5856 17.6313 11.2498 17.2955 11.2498 16.8813C11.2498 16.4671 11.5856 16.1313 11.9998 16.1313C12.414 16.1313 12.7498 16.4671 12.7498 16.8813Z" fill="#7B7E86"/>
</svg>
