<svg width="24" height="24" viewBox="0 0 24 24" fill="none" xmlns="http://www.w3.org/2000/svg">
<path d="M12.6498 14.1215C12.6498 14.4805 12.3588 14.7715 11.9998 14.7715C11.6408 14.7715 11.3498 14.4805 11.3498 14.1215V8.97533C11.3498 8.61634 11.6408 8.32533 11.9998 8.32533C12.3588 8.32533 12.6498 8.61634 12.6498 8.97533V14.1215Z" fill="#7B7E86"/>
<path d="M12.7498 16.8753C12.7498 17.2895 12.414 17.6253 11.9998 17.6253C11.5856 17.6253 11.2498 17.2895 11.2498 16.8753C11.2498 16.4611 11.5856 16.1253 11.9998 16.1253C12.414 16.1253 12.7498 16.4611 12.7498 16.8753Z" fill="#7B7E86"/>
<path fill-rule="evenodd" clip-rule="evenodd" d="M18.838 21H5.1619C2.86013 21 1.41583 18.5148 2.55528 16.5149L9.39332 4.5128C10.5441 2.49293 13.4558 2.49293 14.6066 4.5128L21.4446 16.5149C22.5841 18.5148 21.1398 21 18.838 21ZM18.838 19.7H5.1619C3.85757 19.7 3.03913 18.2917 3.68482 17.1584L10.5229 5.15634C11.175 4.01175 12.8249 4.01174 13.477 5.15634L20.3151 17.1584C20.9608 18.2917 20.1423 19.7 18.838 19.7Z" fill="#7B7E86"/>
</svg>
