<svg width="24" height="24" viewBox="0 0 24 24" fill="none" xmlns="http://www.w3.org/2000/svg">
<path d="M12 16.65C12.4142 16.65 12.75 16.3142 12.75 15.9C12.75 15.4858 12.4142 15.15 12 15.15C11.5858 15.15 11.25 15.4858 11.25 15.9C11.25 16.3142 11.5858 16.65 12 16.65Z" fill="#7B7E86"/>
<path d="M12 13.7962C12.359 13.7962 12.65 13.5052 12.65 13.1462V7.99997C12.65 7.64099 12.359 7.34997 12 7.34997C11.641 7.34997 11.35 7.64099 11.35 7.99997V13.1462C11.35 13.5052 11.641 13.7962 12 13.7962Z" fill="#7B7E86"/>
<path fill-rule="evenodd" clip-rule="evenodd" d="M12 3C7.02944 3 3 7.02944 3 12C3 16.9706 7.02944 21 12 21C16.9706 21 21 16.9706 21 12C21 7.02944 16.9706 3 12 3ZM4.3 12C4.3 7.74741 7.74741 4.3 12 4.3C16.2526 4.3 19.7 7.74741 19.7 12C19.7 16.2526 16.2526 19.7 12 19.7C7.74741 19.7 4.3 16.2526 4.3 12Z" fill="#7B7E86"/>
</svg>
