<svg width="24" height="24" viewBox="0 0 24 24" fill="none" xmlns="http://www.w3.org/2000/svg">
<path d="M12 9.7C12 9.3134 11.6822 8.99158 11.306 9.08066C9.98378 9.39379 8.99999 10.582 8.99999 12C8.99999 13.6569 10.3431 15 12 15C13.418 15 14.6062 14.0162 14.9193 12.6939C15.0084 12.3178 14.6866 12 14.3 12H13.3C12.582 12 12 11.418 12 10.7V9.7Z" fill="#7B7E86"/>
<path fill-rule="evenodd" clip-rule="evenodd" d="M2.77319 10.7185C4.13583 8.69823 7.27543 5 12 5C16.7246 5 19.8642 8.69823 21.2268 10.7185C21.7548 11.5014 21.7548 12.4986 21.2268 13.2815C19.8642 15.3018 16.7246 19 12 19C7.27544 19 4.13583 15.3018 2.77319 13.2815C2.24518 12.4986 2.24518 11.5014 2.77319 10.7185ZM7.35 12C7.35 9.43185 9.43188 7.34998 12 7.34998C14.5681 7.34998 16.65 9.43185 16.65 12C16.65 14.5681 14.5681 16.65 12 16.65C9.43188 16.65 7.35 14.5681 7.35 12Z" fill="#7B7E86"/>
</svg>
