<svg width="24" height="24" viewBox="0 0 24 24" fill="none" xmlns="http://www.w3.org/2000/svg">
<path d="M21.7003 10.0455C21.9994 10.244 22.0808 10.6474 21.8823 10.9465C21.3823 11.6996 20.7406 12.5191 19.9688 13.3045L21.8044 15.1401C22.0582 15.394 22.0582 15.8055 21.8044 16.0594C21.5506 16.3132 21.139 16.3132 20.8852 16.0594L19.0182 14.1924C18.0829 14.992 17.0027 15.7078 15.7917 16.2154L16.8261 18.7041C16.9638 19.0356 16.8068 19.4161 16.4753 19.5538C16.1438 19.6916 15.7634 19.5346 15.6256 19.2031L14.5614 16.6424C13.7553 16.8653 12.9003 16.9918 12 16.9918C11.0837 16.9918 10.2287 16.8687 9.43366 16.6544L8.3744 19.2031C8.23663 19.5346 7.85622 19.6916 7.52472 19.5538C7.19323 19.4161 7.03618 19.0356 7.17395 18.7041L8.20082 16.2334C6.95677 15.7166 5.88497 14.9848 4.97956 14.1946L3.11485 16.0594C2.86101 16.3132 2.44946 16.3132 2.19561 16.0594C1.94177 15.8055 1.94177 15.394 2.19561 15.1401L4.03844 13.2973C3.23194 12.4606 2.59989 11.6239 2.13589 10.959C1.93046 10.6646 2.00259 10.2594 2.29699 10.0539C2.59139 9.84852 2.99658 9.92065 3.202 10.2151C4.66517 12.3119 7.54139 15.6918 12 15.6918C16.0335 15.6918 19.1491 12.7132 20.7992 10.2275C20.9978 9.92842 21.4012 9.84692 21.7003 10.0455Z" fill="#7B7E86"/>
</svg>
