<svg width="24" height="24" viewBox="0 0 24 24" fill="none" xmlns="http://www.w3.org/2000/svg">
<path d="M11.3061 9.08066C11.6823 8.99158 12 9.3134 12 9.7V10.7C12 11.418 12.582 12 13.3 12H14.3C14.6866 12 15.0084 12.3178 14.9193 12.6939C14.6062 14.0162 13.418 15 12 15C10.3431 15 9 13.6569 9 12C9 10.582 9.98379 9.39379 11.3061 9.08066Z" fill="#7B7E86"/>
<path fill-rule="evenodd" clip-rule="evenodd" d="M12 5C7.11928 5 3.86622 8.65464 2.43685 10.6825C1.87387 11.4812 1.87387 12.5188 2.43685 13.3175C3.86622 15.3454 7.11928 19 12 19C16.8807 19 20.1338 15.3454 21.5632 13.3175C22.1262 12.5188 22.1262 11.4812 21.5632 10.6825C20.1338 8.65464 16.8807 5 12 5ZM5.70871 8.92728C4.76182 9.77768 4.02106 10.6914 3.49942 11.4315C3.25302 11.7811 3.25302 12.2189 3.49942 12.5685C4.02106 13.3086 4.76182 14.2223 5.7087 15.0727C5.2548 14.1451 5.00001 13.1023 5.00001 12C5.00001 10.8977 5.2548 9.85489 5.70871 8.92728ZM12 17.7C8.85199 17.7 6.30001 15.148 6.30001 12C6.30001 8.85198 8.85199 6.3 12 6.3C15.148 6.3 17.7 8.85198 17.7 12C17.7 15.148 15.148 17.7 12 17.7ZM18.2913 8.92728C19.2382 9.77768 19.979 10.6914 20.5006 11.4315C20.747 11.7811 20.747 12.2189 20.5006 12.5685C19.979 13.3086 19.2382 14.2223 18.2913 15.0727C18.7452 14.1451 19 13.1023 19 12C19 10.8977 18.7452 9.85489 18.2913 8.92728Z" fill="#7B7E86"/>
</svg>
