<svg width="24" height="24" viewBox="0 0 24 24" fill="none" xmlns="http://www.w3.org/2000/svg">
<path d="M12 7.34998C12.4142 7.34998 12.75 7.68576 12.75 8.09998C12.75 8.51419 12.4142 8.84998 12 8.84998C11.5858 8.84998 11.25 8.51419 11.25 8.09998C11.25 7.68576 11.5858 7.34998 12 7.34998Z" fill="#7B7E86"/>
<path d="M12 10.2038C12.359 10.2038 12.65 10.4948 12.65 10.8538V14.7C12.65 15.059 12.941 15.35 13.3 15.35L13.35 15.35C13.709 15.35 14 15.641 14 16C14 16.359 13.709 16.65 13.35 16.65L13.2999 16.65C12.223 16.65 11.35 15.7769 11.35 14.7V10.8538C11.35 10.4948 11.641 10.2038 12 10.2038Z" fill="#7B7E86"/>
<path fill-rule="evenodd" clip-rule="evenodd" d="M12 3C7.02944 3 3 7.02944 3 12C3 16.9706 7.02944 21 12 21C16.9706 21 21 16.9706 21 12C21 7.02944 16.9706 3 12 3ZM4.3 12C4.3 7.74741 7.74741 4.3 12 4.3C16.2526 4.3 19.7 7.74741 19.7 12C19.7 16.2526 16.2526 19.7 12 19.7C7.74741 19.7 4.3 16.2526 4.3 12Z" fill="#7B7E86"/>
</svg>
