<svg width="24" height="24" viewBox="0 0 24 24" fill="none" xmlns="http://www.w3.org/2000/svg">
<path fill-rule="evenodd" clip-rule="evenodd" d="M3.99368 5.74866C3.99368 5.38968 4.2847 5.09866 4.64368 5.09866L19.3562 5.09866C19.7152 5.09866 20.0062 5.38968 20.0062 5.74866C20.0062 6.10765 19.7152 6.39866 19.3562 6.39866L4.64368 6.39866C4.2847 6.39866 3.99368 6.10765 3.99368 5.74866Z" fill="#7B7E86"/>
<path fill-rule="evenodd" clip-rule="evenodd" d="M3.99368 18.3649C3.99368 18.0059 4.2847 17.7149 4.64368 17.7149L19.3562 17.7149C19.7152 17.7149 20.0062 18.0059 20.0062 18.3649C20.0062 18.7239 19.7152 19.0149 19.3562 19.0149L4.64368 19.0149C4.2847 19.0149 3.99368 18.7239 3.99368 18.3649Z" fill="#7B7E86"/>
<path fill-rule="evenodd" clip-rule="evenodd" d="M3.99372 12C3.99372 11.641 4.28474 11.35 4.64372 11.35L19.3562 11.35C19.7152 11.35 20.0062 11.641 20.0062 12C20.0062 12.359 19.7152 12.65 19.3562 12.65L4.64372 12.65C4.28474 12.65 3.99372 12.359 3.99372 12Z" fill="#7B7E86"/>
</svg>
