<svg width="24" height="24" viewBox="0 0 24 24" fill="none" xmlns="http://www.w3.org/2000/svg">
<path d="M7.65 11.35C7.29101 11.35 7 11.641 7 12C7 12.359 7.29101 12.65 7.65 12.65C12.8278 12.65 10.768 12.65 16.35 12.65C16.709 12.65 17 12.359 17 12C17 11.641 16.709 11.35 16.35 11.35C11.1722 11.35 13.232 11.35 7.65 11.35Z" fill="#7B7E86"/>
<path fill-rule="evenodd" clip-rule="evenodd" d="M12 3C7.02944 3 3 7.02944 3 12C3 16.9706 7.02944 21 12 21C16.9706 21 21 16.9706 21 12C21 7.02944 16.9706 3 12 3ZM4.3 12C4.3 7.74741 7.74741 4.3 12 4.3C16.2526 4.3 19.7 7.74741 19.7 12C19.7 16.2526 16.2526 19.7 12 19.7C7.74741 19.7 4.3 16.2526 4.3 12Z" fill="#7B7E86"/>
</svg>
