<svg width="24" height="24" viewBox="0 0 24 24" fill="none" xmlns="http://www.w3.org/2000/svg">
<path fill-rule="evenodd" clip-rule="evenodd" d="M11.5846 8.50771C10.7253 7.88279 9.51996 8.49659 9.51996 9.55907V14.441C9.51996 15.5034 10.7253 16.1172 11.5846 15.4923L14.9409 13.0514C15.6547 12.5322 15.6547 11.4678 14.9409 10.9487L11.5846 8.50771ZM14.1763 12L10.82 14.441V9.55907L14.1763 12Z" fill="#7B7E86"/>
<path fill-rule="evenodd" clip-rule="evenodd" d="M21 12C21 16.9706 16.9706 21 12 21C7.02944 21 3 16.9706 3 12C3 7.02944 7.02944 3 12 3C16.9706 3 21 7.02944 21 12ZM19.7 12C19.7 16.2526 16.2526 19.7 12 19.7C7.74741 19.7 4.3 16.2526 4.3 12C4.3 7.74741 7.74741 4.3 12 4.3C16.2526 4.3 19.7 7.74741 19.7 12Z" fill="#7B7E86"/>
</svg>
