<svg width="24" height="24" viewBox="0 0 24 24" fill="none" xmlns="http://www.w3.org/2000/svg">
<path fill-rule="evenodd" clip-rule="evenodd" d="M3 12C3 7.02944 7.02944 3 12 3C16.9706 3 21 7.02944 21 12C21 16.9706 16.9706 21 12 21C7.02944 21 3 16.9706 3 12ZM12 7C12.359 7 12.65 7.29102 12.65 7.65L12.65 11.35H16.35C16.709 11.35 17 11.641 17 12C17 12.359 16.709 12.65 16.35 12.65H12.65L12.65 16.35C12.65 16.709 12.359 17 12 17C11.641 17 11.35 16.709 11.35 16.35L11.35 12.65H7.65C7.29101 12.65 7 12.359 7 12C7 11.641 7.29101 11.35 7.65 11.35H11.35L11.35 7.65C11.35 7.29102 11.641 7 12 7Z" fill="#7B7E86"/>
</svg>
