<svg width="24" height="24" viewBox="0 0 24 24" fill="none" xmlns="http://www.w3.org/2000/svg">
<path d="M3.71276 11.85C3.32169 11.85 3.0037 11.5284 3.04065 11.1391C3.47401 6.57239 7.31982 3 12 3C16.6802 3 20.526 6.57239 20.9594 11.1391C20.9963 11.5284 20.6783 11.85 20.2872 11.85H16.5C16.2431 11.85 16.0104 12.0013 15.906 12.236L14.6576 15.0449L12.5 6.5C12.428 6.22626 12.1871 6.03061 11.9044 6.01626C11.6217 6.0019 11.3622 6.17215 11.2628 6.43719L8.83695 14.0836L7.54084 12.1394C7.42028 11.9586 7.21733 11.85 7.00001 11.85H3.71276Z" fill="#7B7E86"/>
<path d="M3.86773 13.15C3.44598 13.15 3.11796 13.5212 3.20814 13.9332C4.09276 17.9747 7.69308 21 12 21C16.3069 21 19.9073 17.9747 20.7919 13.9332C20.882 13.5212 20.554 13.15 20.1323 13.15H16.9224L15.094 17.264C14.9819 17.5161 14.7228 17.6701 14.4478 17.6479C14.1727 17.6257 13.9416 17.4323 13.8714 17.1654L11.7627 8.80647L9.60862 15.7282C9.52297 15.9566 9.31666 16.1178 9.07434 16.1457C8.83202 16.1736 8.59448 16.0635 8.45917 15.8605L6.65214 13.15H3.86773Z" fill="#7B7E86"/>
</svg>
