<svg width="24" height="24" viewBox="0 0 24 24" fill="none" xmlns="http://www.w3.org/2000/svg">
<path d="M12.125 8.46613C12.125 8.05191 11.7892 7.71613 11.375 7.71613C10.9608 7.71613 10.625 8.05191 10.625 8.46613C10.625 8.88034 10.9608 9.21613 11.375 9.21613C11.7892 9.21613 12.125 8.88034 12.125 8.46613Z" fill="#7B7E86"/>
<path d="M12.025 11.2199C12.025 10.8609 11.734 10.5699 11.375 10.5699C11.016 10.5699 10.725 10.8609 10.725 11.2199V15.0661C10.725 16.1431 11.598 17.0161 12.6749 17.0161L12.725 17.0161C13.084 17.0162 13.375 16.7252 13.375 16.3662C13.375 16.0072 13.084 15.7162 12.725 15.7162L12.675 15.7161C12.316 15.7161 12.025 15.4251 12.025 15.0661V11.2199Z" fill="#7B7E86"/>
<path fill-rule="evenodd" clip-rule="evenodd" d="M4 6C4 4.34315 5.34315 3 7 3H13.4803C14.2425 3 14.9761 3.2901 15.5321 3.81139L19.0518 7.11108C19.6568 7.67823 20 8.47047 20 9.2997V18C20 19.6569 18.6569 21 17 21H7C5.34315 21 4 19.6569 4 18V6ZM7 4.3L13.4803 4.3C13.676 4.3 13.8684 4.33375 14.0496 4.39813V7.05252C14.0496 8.12948 14.9226 9.00253 15.9996 9.00252L18.6738 9.00251C18.6911 9.09993 18.7 9.19933 18.7 9.2997L18.7 18C18.7 18.9389 17.9389 19.7 17 19.7H7C6.06112 19.7 5.3 18.9389 5.3 18L5.3 6C5.3 5.06112 6.06112 4.3 7 4.3ZM17.7819 7.70252L15.3496 5.42216V7.05252C15.3496 7.41151 15.6406 7.70252 15.9996 7.70252L17.7819 7.70252Z" fill="#7B7E86"/>
</svg>
