<svg width="24" height="24" viewBox="0 0 24 24" fill="none" xmlns="http://www.w3.org/2000/svg">
<path d="M12.06 9.97605C12.4111 9.9894 12.6886 10.2782 12.688 10.6295L12.6819 14.2215L14.0719 12.7136C14.3214 12.4523 14.7315 12.4569 14.9928 12.7064C15.2441 12.9555 15.2495 13.3659 15 13.6272L12.4476 16.255C12.1567 16.5548 11.677 16.5377 11.4083 16.2179L8.93085 13.418C8.81555 13.2838 8.77092 13.1321 8.77662 12.9722C8.78303 12.7923 8.85903 12.6249 9.00357 12.5C9.28194 12.2698 9.69097 12.3043 9.92156 12.5727L11.3823 14.1822C11.3823 14.1822 11.3727 12.3271 11.3839 10.6214C11.3863 10.2538 11.6928 9.96208 12.06 9.97605Z" fill="#7B7E86"/>
<path fill-rule="evenodd" clip-rule="evenodd" d="M4 6C4 4.34315 5.34315 3 7 3H13.4803C14.2425 3 14.9761 3.2901 15.5321 3.81139L19.0518 7.11108C19.6568 7.67823 20 8.47047 20 9.2997V18C20 19.6569 18.6569 21 17 21H7C5.34315 21 4 19.6569 4 18V6ZM7 4.3L13.4803 4.3C13.676 4.3 13.8684 4.33375 14.0496 4.39813V7.05252C14.0496 8.12948 14.9226 9.00253 15.9996 9.00252L18.6738 9.00251C18.6911 9.09993 18.7 9.19933 18.7 9.2997L18.7 18C18.7 18.9389 17.9389 19.7 17 19.7H7C6.06112 19.7 5.3 18.9389 5.3 18L5.3 6C5.3 5.06112 6.06112 4.3 7 4.3ZM17.7819 7.70252L15.3496 5.42216V7.05252C15.3496 7.41151 15.6406 7.70252 15.9996 7.70252L17.7819 7.70252Z" fill="#7B7E86"/>
</svg>
