<svg width="24" height="24" viewBox="0 0 24 24" fill="none" xmlns="http://www.w3.org/2000/svg">
<path fill-rule="evenodd" clip-rule="evenodd" d="M20.39 7.52495C21.2283 7.52495 21.2283 8.82495 20.39 8.82495H19V15.2H20.39C20.749 15.2 21.04 15.491 21.04 15.85C21.04 16.209 20.749 16.5 20.39 16.5H19V18C19 19.65 17.66 21 16 21H7C5.34 21 4 19.66 4 18V6.03497C4 4.37497 5.34 3.03497 7 3.03497H16C17.66 3.03497 19 4.37497 19 6.03497V7.52495H20.39ZM8.5 9.22681C9.05228 9.22681 9.5 8.77909 9.5 8.22681C9.5 7.67452 9.05228 7.22681 8.5 7.22681C7.94772 7.22681 7.5 7.67452 7.5 8.22681C7.5 8.77909 7.94772 9.22681 8.5 9.22681ZM14.72 8.87689C15.079 8.87689 15.37 8.58587 15.37 8.22689C15.37 7.8679 15.079 7.57689 14.72 7.57689H11.5C11.141 7.57689 10.85 7.8679 10.85 8.22689C10.85 8.58587 11.141 8.87689 11.5 8.87689H14.72ZM15.3809 12C15.3809 12.359 15.0898 12.65 14.7309 12.65H11.5109C11.1519 12.65 10.8609 12.359 10.8609 12C10.8609 11.641 11.1519 11.35 11.5109 11.35H14.7309C15.0898 11.35 15.3809 11.641 15.3809 12ZM14.72 16.4794C15.079 16.4794 15.37 16.1884 15.37 15.8294C15.37 15.4704 15.079 15.1794 14.72 15.1794L11.5 15.1794C11.141 15.1794 10.85 15.4704 10.85 15.8294C10.85 16.1884 11.141 16.4794 11.5 16.4794H14.72ZM9.52585 12C9.52585 12.5523 9.07814 13 8.52585 13C7.97357 13 7.52585 12.5523 7.52585 12C7.52585 11.4477 7.97357 11 8.52585 11C9.07814 11 9.52585 11.4477 9.52585 12ZM9.52585 15.8025C9.52585 16.3548 9.07814 16.8025 8.52585 16.8025C7.97357 16.8025 7.52585 16.3548 7.52585 15.8025C7.52585 15.2502 7.97357 14.8025 8.52585 14.8025C9.07814 14.8025 9.52585 15.2502 9.52585 15.8025Z" fill="#7B7E86"/>
</svg>
