<svg width="24" height="24" viewBox="0 0 24 24" fill="none" xmlns="http://www.w3.org/2000/svg">
<path d="M9.5 8.22681C9.5 8.77909 9.05228 9.22681 8.5 9.22681C7.94772 9.22681 7.5 8.77909 7.5 8.22681C7.5 7.67452 7.94772 7.22681 8.5 7.22681C9.05228 7.22681 9.5 7.67452 9.5 8.22681Z" fill="#7B7E86"/>
<path d="M15.37 8.22689C15.37 8.58587 15.079 8.87689 14.72 8.87689H11.5C11.141 8.87689 10.85 8.58587 10.85 8.22689C10.85 7.8679 11.141 7.57689 11.5 7.57689H14.72C15.079 7.57689 15.37 7.8679 15.37 8.22689Z" fill="#7B7E86"/>
<path d="M15.3809 12C15.3809 12.359 15.0898 12.65 14.7309 12.65H11.5109C11.1519 12.65 10.8609 12.359 10.8609 12C10.8609 11.641 11.1519 11.35 11.5109 11.35H14.7309C15.0898 11.35 15.3809 11.641 15.3809 12Z" fill="#7B7E86"/>
<path d="M15.37 15.8294C15.37 16.1884 15.079 16.4794 14.72 16.4794H11.5C11.141 16.4794 10.85 16.1884 10.85 15.8294C10.85 15.4704 11.141 15.1794 11.5 15.1794L14.72 15.1794C15.079 15.1794 15.37 15.4704 15.37 15.8294Z" fill="#7B7E86"/>
<path d="M9.52585 12C9.52585 12.5523 9.07814 13 8.52585 13C7.97357 13 7.52585 12.5523 7.52585 12C7.52585 11.4477 7.97357 11 8.52585 11C9.07814 11 9.52585 11.4477 9.52585 12Z" fill="#7B7E86"/>
<path d="M8.52585 16.8025C9.07814 16.8025 9.52585 16.3548 9.52585 15.8025C9.52585 15.2502 9.07814 14.8025 8.52585 14.8025C7.97357 14.8025 7.52585 15.2502 7.52585 15.8025C7.52585 16.3548 7.97357 16.8025 8.52585 16.8025Z" fill="#7B7E86"/>
<path fill-rule="evenodd" clip-rule="evenodd" d="M20.39 8.82495C21.2283 8.82495 21.2283 7.52495 20.39 7.52495H19V6.03497C19 4.37497 17.66 3.03497 16 3.03497H7C5.34 3.03497 4 4.37497 4 6.03497V18C4 19.66 5.34 21 7 21H16C17.66 21 19 19.65 19 18V16.5H20.39C20.749 16.5 21.04 16.209 21.04 15.85C21.04 15.491 20.749 15.2 20.39 15.2H19V8.82495H20.39ZM16 4.33497C16.94 4.33497 17.7 5.09497 17.7 6.03497L17.7 18C17.7 18.94 16.94 19.7 16 19.7H7C6.06 19.7 5.3 18.94 5.3 18L5.3 6.03497C5.3 5.09497 6.06 4.33497 7 4.33497L16 4.33497Z" fill="#7B7E86"/>
</svg>
