<svg width="24" height="24" viewBox="0 0 24 24" fill="none" xmlns="http://www.w3.org/2000/svg">
<path fill-rule="evenodd" clip-rule="evenodd" d="M17.65 21.0032C19.3069 21.0032 20.65 19.6601 20.65 18.0032V8.00323C20.65 6.51116 19.5608 5.2735 18.1341 5.04208C18.114 4.84769 18.0753 4.65838 18.0197 4.47614C17.915 4.13277 17.5518 3.93932 17.2084 4.04404C16.865 4.14877 16.6716 4.51203 16.7763 4.8554C16.791 4.90373 16.8037 4.95304 16.8142 5.00323H9.65003C7.99318 5.00323 6.65003 6.34638 6.65003 8.00323V17.6673C6.60019 17.6569 6.55123 17.6443 6.50324 17.6297C6.15987 17.525 5.79662 17.7184 5.69189 18.0618C5.58716 18.4052 5.78061 18.7684 6.12398 18.8731C6.34628 18.9409 6.5791 18.9835 6.81885 18.9979C7.22916 20.1659 8.34181 21.0032 9.65003 21.0032H17.65ZM9.65003 19.7032H17.65C18.5889 19.7032 19.35 18.9421 19.35 18.0032V8.00323C19.35 7.06435 18.5889 6.30324 17.65 6.30324H9.65003C8.71115 6.30324 7.95003 7.06435 7.95003 8.00323V18.0032C7.95003 18.9421 8.71115 19.7032 9.65003 19.7032Z" fill="#7B7E86"/>
<path d="M5.37407 16.5005C5.4788 16.8439 5.28534 17.2071 4.94197 17.3119C4.5986 17.4166 4.23535 17.2231 4.13062 16.8798C4.04585 16.6019 4.00049 16.3075 4.00049 16.0037V15.06C4.00049 14.701 4.2915 14.41 4.65049 14.41C5.00947 14.41 5.30049 14.701 5.30049 15.06V16.0037C5.30049 16.1776 5.32638 16.3442 5.37407 16.5005Z" fill="#7B7E86"/>
<path d="M5.30049 11.9456C5.30049 12.3046 5.00947 12.5956 4.65049 12.5956C4.2915 12.5956 4.00049 12.3046 4.00049 11.9456V10.0581C4.00049 9.69915 4.2915 9.40813 4.65049 9.40813C5.00947 9.40813 5.30049 9.69915 5.30049 10.0581V11.9456Z" fill="#7B7E86"/>
<path d="M5.30049 6.94378C5.30049 7.30276 5.00947 7.59378 4.65049 7.59378C4.2915 7.59378 4.00049 7.30276 4.00049 6.94378V6.00003C4.00049 5.63015 4.05571 5.27198 4.15882 4.93395C4.26355 4.59058 4.6268 4.39712 4.97017 4.50185C5.31354 4.60658 5.50699 4.96984 5.40226 5.31321C5.33624 5.52967 5.30049 5.76008 5.30049 6.00003V6.94378Z" fill="#7B7E86"/>
<path d="M6.96366 3.75181C6.6203 3.85654 6.25704 3.66308 6.15231 3.31971C6.04758 2.97635 6.24103 2.61309 6.5844 2.50836C6.92244 2.40526 7.28061 2.35003 7.65049 2.35003H8.29667C8.65566 2.35003 8.94667 2.64105 8.94667 3.00003C8.94667 3.35902 8.65566 3.65003 8.29667 3.65003H7.65049C7.41054 3.65003 7.18013 3.68578 6.96366 3.75181Z" fill="#7B7E86"/>
<path d="M16.0239 2.48032C16.3673 2.58505 16.5608 2.94831 16.456 3.29168C16.3513 3.63504 15.988 3.8285 15.6447 3.72377C15.488 3.67598 15.321 3.65003 15.1468 3.65003H14.3786C14.0196 3.65003 13.7286 3.35902 13.7286 3.00003C13.7286 2.64105 14.0196 2.35003 14.3786 2.35003H15.1468C15.4509 2.35003 15.7457 2.39545 16.0239 2.48032Z" fill="#7B7E86"/>
<path d="M10.4291 3.65003C10.0701 3.65003 9.77908 3.35902 9.77908 3.00003C9.77908 2.64105 10.0701 2.35003 10.4291 2.35003H11.8435C12.2025 2.35003 12.4935 2.64105 12.4935 3.00003C12.4935 3.35902 12.2025 3.65003 11.8435 3.65003H10.4291Z" fill="#7B7E86"/>
</svg>
