<svg width="24" height="24" viewBox="0 0 24 24" fill="none" xmlns="http://www.w3.org/2000/svg">
<path d="M15.35 12.5035C15.709 12.5035 16 12.2124 16 11.8535C16 11.4945 15.709 11.2035 15.35 11.2035L8.64583 11.2035C8.28685 11.2035 7.99583 11.4945 7.99583 11.8535C7.99583 12.2124 8.28685 12.5035 8.64583 12.5035L15.35 12.5035Z" fill="#7B7E86"/>
<path d="M16 15.3634C16 15.7224 15.709 16.0134 15.35 16.0134L8.64583 16.0134C8.28685 16.0134 7.99583 15.7224 7.99583 15.3634C7.99583 15.0044 8.28685 14.7134 8.64583 14.7134L15.35 14.7134C15.709 14.7134 16 15.0044 16 15.3634Z" fill="#7B7E86"/>
<path d="M11.35 8.99358C11.709 8.99358 12 8.70256 12 8.34358C12 7.98459 11.709 7.69358 11.35 7.69358L8.64583 7.69357C8.28685 7.69357 7.99583 7.98459 7.99583 8.34357C7.99583 8.70256 8.28685 8.99357 8.64583 8.99357L11.35 8.99358Z" fill="#7B7E86"/>
<path fill-rule="evenodd" clip-rule="evenodd" d="M7 3C5.34315 3 4 4.34315 4 6V18C4 19.6569 5.34315 21 7 21H17C18.6569 21 20 19.6569 20 18V9.2997C20 8.47047 19.6568 7.67823 19.0518 7.11108L15.5321 3.81139C14.9761 3.2901 14.2425 3 13.4803 3H7ZM13.4803 4.3L7 4.3C6.06112 4.3 5.3 5.06112 5.3 6L5.3 18C5.3 18.9389 6.06112 19.7 7 19.7H17C17.9389 19.7 18.7 18.9389 18.7 18L18.7 9.2997C18.7 9.19933 18.6911 9.09993 18.6738 9.00251L15.9996 9.00252C14.9226 9.00253 14.0496 8.12948 14.0496 7.05252V4.39813C13.8684 4.33375 13.676 4.3 13.4803 4.3ZM15.3496 5.42216L17.7819 7.70252L15.9996 7.70252C15.6406 7.70252 15.3496 7.41151 15.3496 7.05252V5.42216Z" fill="#7B7E86"/>
</svg>
