<svg width="24" height="24" viewBox="0 0 24 24" fill="none" xmlns="http://www.w3.org/2000/svg">
<path fill-rule="evenodd" clip-rule="evenodd" d="M19.9967 6C19.9967 4.34315 18.6535 3 16.9967 3L7.00342 3C5.34656 3 4.00342 4.34315 4.00342 6V18C4.00342 19.6569 5.34656 21 7.00342 21H16.9967C18.6535 21 19.9967 19.6569 19.9967 18V6ZM16.9967 4.3H7.00342C6.06453 4.3 5.30342 5.06112 5.30342 6V18C5.30342 18.9389 6.06453 19.7 7.00342 19.7H16.9967C17.9355 19.7 18.6967 18.9389 18.6967 18V6C18.6967 5.06112 17.9355 4.3 16.9967 4.3Z" fill="#7B7E86"/>
<path fill-rule="evenodd" clip-rule="evenodd" d="M13.8767 14.5836C13.3137 14.9523 12.6406 15.1667 11.9175 15.1667C9.94004 15.1667 8.33702 13.5637 8.33702 11.5862C8.33702 9.60882 9.94004 8.00579 11.9175 8.00579C13.8949 8.00579 15.4979 9.60882 15.4979 11.5862C15.4979 12.3708 15.2456 13.0963 14.8177 13.6863L16.1166 14.9889C16.3701 15.2431 16.3695 15.6547 16.1153 15.9082C15.8611 16.1616 15.4495 16.161 15.1961 15.9068L13.8767 14.5836ZM14.1979 11.5862C14.1979 12.8457 13.1769 13.8667 11.9175 13.8667C10.658 13.8667 9.63702 12.8457 9.63702 11.5862C9.63702 10.3268 10.658 9.30579 11.9175 9.30579C13.1769 9.30579 14.1979 10.3268 14.1979 11.5862Z" fill="#7B7E86"/>
</svg>
