<svg width="24" height="24" viewBox="0 0 24 24" fill="none" xmlns="http://www.w3.org/2000/svg">
<path fill-rule="evenodd" clip-rule="evenodd" d="M20 6C20 4.34315 18.6568 3 17 3L7.00671 3C5.34986 3 4.00671 4.34315 4.00671 6V18C4.00671 19.6569 5.34986 21 7.00671 21H17C18.6568 21 20 19.6569 20 18V6ZM17 4.3H7.00671C6.06783 4.3 5.30671 5.06112 5.30671 6V18C5.30671 18.9389 6.06783 19.7 7.00671 19.7H17C17.9388 19.7 18.7 18.9389 18.7 18V6C18.7 5.06112 17.9388 4.3 17 4.3Z" fill="#7B7E86"/>
<path d="M12.4642 13.847C12.5942 13.987 12.7642 14.057 12.9442 14.057C13.1042 14.057 13.2542 14.007 13.3842 13.887L15.4237 11.8582C15.7337 11.5782 15.7337 11.0982 15.4237 10.8182L13.3842 8.82715C13.1142 8.58715 12.7042 8.60715 12.4642 8.86715C12.2242 9.13715 12.2342 9.54715 12.5042 9.78715L13.3842 10.6882C12.9472 10.6882 13.0643 10.6812 12.6274 10.6913C10.6115 10.6913 8.97738 12.3254 8.97738 14.3413V14.6911C8.97738 15.0501 9.26839 15.3411 9.62738 15.3411C9.98636 15.3411 10.2774 15.0501 10.2774 14.6911V14.3413C10.2774 13.0434 11.3295 11.9913 12.6274 11.9913H13.3881L12.5042 12.927C12.2442 13.167 12.2242 13.577 12.4642 13.847Z" fill="#7B7E86"/>
</svg>
