<svg width="24" height="24" viewBox="0 0 24 24" fill="none" xmlns="http://www.w3.org/2000/svg">
<path fill-rule="evenodd" clip-rule="evenodd" d="M20 6C20 4.34315 18.6568 3 17 3L7.00671 3C5.34986 3 4.00671 4.34315 4.00671 6V18C4.00671 19.6569 5.34986 21 7.00671 21H17C18.6568 21 20 19.6569 20 18V6ZM17 4.3H7.00671C6.06783 4.3 5.30671 5.06112 5.30671 6V18C5.30671 18.9389 6.06783 19.7 7.00671 19.7H17C17.9388 19.7 18.7 18.9389 18.7 18V6C18.7 5.06112 17.9388 4.3 17 4.3Z" fill="#7B7E86"/>
<path d="M11.2808 14.4152C11.5608 14.6952 12.0208 14.6852 12.2908 14.3952L15.8116 10.8085C16.0516 10.5385 16.0316 10.1285 15.7716 9.88847C15.5116 9.64847 15.0916 9.65847 14.8516 9.92847L11.7608 13.0552L10.1564 11.5567C9.9064 11.3067 9.4864 11.3067 9.2364 11.5567C8.9864 11.8067 8.9864 12.2267 9.2364 12.4767L11.2808 14.4152Z" fill="#7B7E86"/>
</svg>
