<svg width="24" height="24" viewBox="0 0 24 24" fill="none" xmlns="http://www.w3.org/2000/svg">
<path d="M13.6 7.34999C13.2411 7.34999 12.95 7.64101 12.95 7.99999L12.95 12C12.95 12.359 13.2411 12.65 13.6 12.65C13.959 12.65 14.25 12.359 14.25 12V7.99999C14.25 7.64101 13.959 7.34999 13.6 7.34999Z" fill="#7B7E86"/>
<path d="M12.85 14.697C12.85 15.1112 13.1858 15.447 13.6 15.447C14.0143 15.447 14.35 15.1112 14.35 14.697C14.35 14.2828 14.0143 13.947 13.6 13.947C13.1858 13.947 12.85 14.2828 12.85 14.697Z" fill="#7B7E86"/>
<path fill-rule="evenodd" clip-rule="evenodd" d="M20.65 6.35004C20.65 4.69318 19.3069 3.35004 17.65 3.35004H9.65002C7.99317 3.35004 6.65002 4.69318 6.65002 6.35004V16.35C6.65002 18.0069 7.99317 19.35 9.65002 19.35H17.65C19.3069 19.35 20.65 18.0069 20.65 16.35V6.35004ZM17.65 4.65004H9.65002C8.71114 4.65004 7.95002 5.41115 7.95002 6.35004V16.35C7.95002 17.2889 8.71114 18.05 9.65002 18.05H17.65C18.5889 18.05 19.35 17.2889 19.35 16.35V6.35004C19.35 5.41115 18.5889 4.65004 17.65 4.65004Z" fill="#7B7E86"/>
<path d="M4.65002 8.70004C4.29104 8.70004 4.00002 8.99105 4.00002 9.35004V18.75C4.00002 20.545 5.4551 22 7.25002 22H15.65C16.009 22 16.3 21.709 16.3 21.35C16.3 20.9911 16.009 20.7 15.65 20.7H7.25002C6.17307 20.7 5.30002 19.827 5.30002 18.75V9.35004C5.30002 8.99105 5.00901 8.70004 4.65002 8.70004Z" fill="#7B7E86"/>
</svg>
