<svg width="24" height="24" viewBox="0 0 24 24" fill="none" xmlns="http://www.w3.org/2000/svg">
<path fill-rule="evenodd" clip-rule="evenodd" d="M20 6C20 4.34315 18.6568 3 17 3L7.00671 3C5.34986 3 4.00671 4.34315 4.00671 6V18C4.00671 19.6569 5.34986 21 7.00671 21H17C18.6568 21 20 19.6569 20 18V6ZM17 4.3H7.00671C6.06783 4.3 5.30671 5.06112 5.30671 6V18C5.30671 18.9389 6.06783 19.7 7.00671 19.7H17C17.9388 19.7 18.7 18.9389 18.7 18V6C18.7 5.06112 17.9388 4.3 17 4.3Z" fill="#7B7E86"/>
<path d="M13.0169 12.1067C13.0169 12.659 12.5692 13.1067 12.0169 13.1067C11.4646 13.1067 11.0169 12.659 11.0169 12.1067C11.0169 11.5544 11.4646 11.1067 12.0169 11.1067C12.5692 11.1067 13.0169 11.5544 13.0169 12.1067Z" fill="#7B7E86"/>
<path fill-rule="evenodd" clip-rule="evenodd" d="M12.6534 7.21396C12.6534 6.85497 12.3624 6.56396 12.0034 6.56396C11.6444 6.56396 11.3534 6.85497 11.3534 7.21396V8.11123C10.7342 8.20837 10.1621 8.44734 9.6713 8.79383L9.04689 8.16942C8.79305 7.91558 8.38149 7.91558 8.12765 8.16942C7.87381 8.42326 7.87381 8.83482 8.12765 9.08866L8.74421 9.70522C8.38518 10.1957 8.13501 10.7709 8.02926 11.3953H7.1722C6.81321 11.3953 6.5222 11.6863 6.5222 12.0453C6.5222 12.4042 6.81321 12.6953 7.1722 12.6953H8.02145C8.12047 13.3263 8.36677 13.9084 8.72408 14.4054L8.12765 15.0018C7.87381 15.2557 7.87381 15.6672 8.12765 15.9211C8.38149 16.1749 8.79305 16.1749 9.04689 15.9211L9.64334 15.3246C10.1403 15.6819 10.7224 15.9282 11.3534 16.0272V16.8764C11.3534 17.2353 11.6444 17.5264 12.0034 17.5264C12.3624 17.5264 12.6534 17.2353 12.6534 16.8764V16.0193C13.2777 15.9136 13.8529 15.6634 14.3434 15.3044L14.96 15.921C15.2138 16.1749 15.6254 16.1749 15.8792 15.921C16.1331 15.6672 16.1331 15.2556 15.8792 15.0018L15.2548 14.3773C15.6012 13.8865 15.8402 13.3144 15.9374 12.6953H16.8346C17.1936 12.6953 17.4846 12.4042 17.4846 12.0453C17.4846 11.6863 17.1936 11.3953 16.8346 11.3953H15.9295C15.8258 10.7827 15.583 10.2175 15.2348 9.73313L15.8792 9.08874C16.1331 8.8349 16.1331 8.42334 15.8792 8.1695C15.6254 7.91566 15.2138 7.91566 14.96 8.1695L14.3156 8.81387C13.8313 8.46563 13.266 8.22284 12.6534 8.11907V7.21396ZM11.9794 14.7758C13.4742 14.7758 14.686 13.564 14.686 12.0692C14.686 10.5744 13.4742 9.36261 11.9794 9.36261C10.4846 9.36261 9.27282 10.5744 9.27282 12.0692C9.27282 13.564 10.4846 14.7758 11.9794 14.7758Z" fill="#7B7E86"/>
</svg>
