<svg width="24" height="24" viewBox="0 0 24 24" fill="none" xmlns="http://www.w3.org/2000/svg">
<path fill-rule="evenodd" clip-rule="evenodd" d="M14.686 12.0692C14.686 13.564 13.4742 14.7758 11.9794 14.7758C10.4846 14.7758 9.27281 13.564 9.27281 12.0692C9.27281 10.5744 10.4846 9.36262 11.9794 9.36262C13.4742 9.36262 14.686 10.5744 14.686 12.0692ZM12.0169 13.1067C12.5692 13.1067 13.0169 12.659 13.0169 12.1067C13.0169 11.5544 12.5692 11.1067 12.0169 11.1067C11.4646 11.1067 11.0169 11.5544 11.0169 12.1067C11.0169 12.659 11.4646 13.1067 12.0169 13.1067Z" fill="#7B7E86"/>
<path fill-rule="evenodd" clip-rule="evenodd" d="M17 3C18.6568 3 20 4.34315 20 6V18C20 19.6569 18.6568 21 17 21H7.00671C5.34986 21 4.00671 19.6569 4.00671 18V6C4.00671 4.34315 5.34986 3 7.00671 3H17ZM12.0034 6.56396C12.3624 6.56396 12.6534 6.85498 12.6534 7.21397V8.11907C13.266 8.22284 13.8312 8.46564 14.3156 8.81388L14.96 8.16951C15.2138 7.91567 15.6254 7.91567 15.8792 8.16951C16.1331 8.42335 16.1331 8.8349 15.8792 9.08875L15.2348 9.73314C15.583 10.2175 15.8258 10.7827 15.9295 11.3953H16.8346C17.1936 11.3953 17.4846 11.6863 17.4846 12.0453C17.4846 12.4042 17.1936 12.6953 16.8346 12.6953H15.9373C15.8402 13.3144 15.6012 13.8865 15.2548 14.3773L15.8792 15.0018C16.1331 15.2556 16.1331 15.6672 15.8792 15.921C15.6254 16.1749 15.2138 16.1749 14.96 15.921L14.3434 15.3044C13.8529 15.6634 13.2777 15.9136 12.6534 16.0193V16.8764C12.6534 17.2354 12.3624 17.5264 12.0034 17.5264C11.6444 17.5264 11.3534 17.2354 11.3534 16.8764V16.0272C10.7224 15.9282 10.1403 15.6819 9.64333 15.3246L9.04688 15.9211C8.79304 16.1749 8.38148 16.1749 8.12764 15.9211C7.8738 15.6673 7.8738 15.2557 8.12764 15.0019L8.72406 14.4054C8.36676 13.9084 8.12045 13.3263 8.02144 12.6953H7.17219C6.8132 12.6953 6.52219 12.4042 6.52219 12.0453C6.52219 11.6863 6.8132 11.3953 7.17219 11.3953H8.02925C8.135 10.7709 8.38517 10.1957 8.74419 9.70522L8.12764 9.08867C7.8738 8.83483 7.8738 8.42327 8.12764 8.16943C8.38148 7.91559 8.79304 7.91559 9.04688 8.16943L9.67129 8.79384C10.1621 8.44735 10.7342 8.20838 11.3534 8.11124V7.21397C11.3534 6.85498 11.6444 6.56396 12.0034 6.56396Z" fill="#7B7E86"/>
</svg>
