<svg width="24" height="24" viewBox="0 0 24 24" fill="none" xmlns="http://www.w3.org/2000/svg">
<path fill-rule="evenodd" clip-rule="evenodd" d="M17 3.00012C18.6568 3.00012 20 4.34327 20 6.00012V18.0001C20 19.657 18.6568 21.0001 17 21.0001H7.00671C5.34986 21.0001 4.00671 19.657 4.00671 18.0001V6.00012C4.00671 4.34327 5.34986 3.00012 7.00671 3.00012H17ZM10.4745 10.506C10.6045 10.646 10.7745 10.716 10.9545 10.716C11.1145 10.716 11.2645 10.666 11.3945 10.546L13.4339 8.51726C13.7439 8.23726 13.7439 7.75726 13.4339 7.47726L11.3945 5.48617C11.1245 5.24617 10.7145 5.26617 10.4745 5.52617C10.2345 5.79617 10.2445 6.20617 10.5145 6.44617L11.3945 7.34726C11.2372 7.34726 11.1517 7.34635 11.0863 7.34566C10.97 7.34442 10.9173 7.34386 10.6377 7.35029C8.62182 7.35029 6.98766 8.98445 6.98766 11.0003V11.3501C6.98766 11.7091 7.27867 12.0001 7.63766 12.0001C7.99664 12.0001 8.28766 11.7091 8.28766 11.3501V11.0003C8.28766 9.70242 9.33979 8.65029 10.6377 8.65029H11.3984L10.5145 9.58597C10.2545 9.82597 10.2345 10.236 10.4745 10.506ZM13.519 13.4924C13.389 13.3524 13.219 13.2824 13.039 13.2824C12.879 13.2824 12.729 13.3324 12.599 13.4524L10.5596 15.4811C10.2495 15.7611 10.2495 16.2411 10.5596 16.5211L12.599 18.5122C12.869 18.7522 13.279 18.7322 13.519 18.4722C13.759 18.2022 13.749 17.7922 13.479 17.5522L12.599 16.6511C12.7563 16.6511 12.8418 16.652 12.9072 16.6527C13.0235 16.6539 13.0762 16.6545 13.3558 16.6481C15.3717 16.6481 17.0058 15.0139 17.0058 12.9981V12.6482C17.0058 12.2893 16.7148 11.9982 16.3558 11.9982C15.9969 11.9982 15.7058 12.2893 15.7058 12.6482V12.9981C15.7058 14.2959 14.6537 15.3481 13.3558 15.3481H12.5951L13.479 14.4124C13.739 14.1724 13.759 13.7624 13.519 13.4924Z" fill="#7B7E86"/>
</svg>
