<svg width="24" height="24" viewBox="0 0 24 24" fill="none" xmlns="http://www.w3.org/2000/svg">
<path fill-rule="evenodd" clip-rule="evenodd" d="M9.15822 8.02432C8.98583 8.02432 8.8205 8.0928 8.6986 8.2147C8.5767 8.3366 8.50822 8.50193 8.50822 8.67432V15.4075C8.50822 15.7665 8.79924 16.0575 9.15822 16.0575C9.51721 16.0575 9.80822 15.7665 9.80822 15.4075V14.0023H14.8957C15.1345 14.0023 15.354 13.8715 15.4675 13.6615C15.5811 13.4515 15.5703 13.1961 15.4396 12.9964L14.1398 11.0103L15.4391 9.03102C15.5702 8.83132 15.5812 8.5758 15.4677 8.36558C15.3543 8.15535 15.1346 8.02432 14.8957 8.02432H9.15822ZM13.6935 12.7023H9.80822V9.32432H13.6915L12.8193 10.653C12.6773 10.8693 12.6771 11.1492 12.8188 11.3656L13.6935 12.7023Z" fill="#7B7E86"/>
<path fill-rule="evenodd" clip-rule="evenodd" d="M17.0001 3C18.6569 3 20.0001 4.34315 20.0001 6V18C20.0001 19.6569 18.6569 21 17.0001 21H7.00684C5.34998 21 4.00684 19.6569 4.00684 18V6C4.00684 4.34315 5.34998 3 7.00684 3H17.0001ZM7.00684 4.3H17.0001C17.939 4.3 18.7001 5.06112 18.7001 6V18C18.7001 18.9389 17.939 19.7 17.0001 19.7H7.00684C6.06795 19.7 5.30684 18.9389 5.30684 18V6C5.30684 5.06112 6.06795 4.3 7.00684 4.3Z" fill="#7B7E86"/>
</svg>
