<svg width="24" height="24" viewBox="0 0 24 24" fill="none" xmlns="http://www.w3.org/2000/svg">
<path d="M9.92037 11.5685C9.80385 12.0582 9.57118 12.6059 9.29937 13.1622L10.5611 12.245C11.0174 11.9133 11.6605 12.05 11.9425 12.5386L12.4155 13.3583L13.0283 12.4783C14.0782 10.9706 16.236 10.779 17.5351 12.0781L17.5722 12.1152C17.826 12.369 17.826 12.7806 17.5722 13.0344C17.3184 13.2883 16.9068 13.2883 16.653 13.0344L16.6159 12.9973C15.8892 12.2707 14.6823 12.3779 14.0951 13.2212L13.1674 14.5534C12.7696 15.1247 11.9128 15.0883 11.5649 14.4854L11.0109 13.5252L7.8018 15.8579C7.55764 16.0354 7.22343 16.0215 6.99492 15.8242C6.76641 15.627 6.70374 15.2984 6.84361 15.031C7.02245 14.6889 7.19724 14.3653 7.36678 14.0515C7.57664 13.6629 7.77853 13.2892 7.97006 12.9139C8.31033 12.2471 8.5544 11.6932 8.65569 11.2675C8.70577 11.0571 8.71031 10.9194 8.69819 10.8374C8.68872 10.7734 8.67293 10.7603 8.66735 10.7557L8.66653 10.755C8.61881 10.7135 8.35712 10.5791 7.50994 10.698C7.15444 10.7479 6.8258 10.5002 6.77592 10.1446C6.72603 9.78915 6.97378 9.46052 7.32929 9.41063C8.21109 9.28689 9.00446 9.3265 9.51912 9.77361C10.091 10.2704 10.0537 11.0081 9.92037 11.5685Z" fill="#7B7E86"/>
<path fill-rule="evenodd" clip-rule="evenodd" d="M4 6C4 4.34315 5.34315 3 7 3H17C18.6569 3 20 4.34315 20 6V18C20 19.6569 18.6569 21 17 21H7C5.34315 21 4 19.6569 4 18V6ZM7 4.3H17C17.9389 4.3 18.7 5.06112 18.7 6V18C18.7 18.9389 17.9389 19.7 17 19.7H7C6.06112 19.7 5.3 18.9389 5.3 18V6C5.3 5.06112 6.06112 4.3 7 4.3Z" fill="#7B7E86"/>
</svg>
