<svg width="24" height="24" viewBox="0 0 24 24" fill="none" xmlns="http://www.w3.org/2000/svg">
<path fill-rule="evenodd" clip-rule="evenodd" d="M20.65 6.35004C20.65 4.69318 19.3069 3.35004 17.65 3.35004H9.65002C7.99317 3.35004 6.65002 4.69318 6.65002 6.35004V16.35C6.65002 18.0069 7.99317 19.35 9.65002 19.35H17.65C19.3069 19.35 20.65 18.0069 20.65 16.35V6.35004ZM13.65 7.25C13.2358 7.25 12.9 7.58579 12.9 8V12C12.9 12.4142 13.2358 12.75 13.65 12.75C14.0642 12.75 14.4 12.4142 14.4 12V8C14.4 7.58579 14.0642 7.25 13.65 7.25ZM13.65 15.7C13.1806 15.7 12.8 15.3194 12.8 14.85C12.8 14.3806 13.1806 14 13.65 14C14.1195 14 14.5 14.3806 14.5 14.85C14.5 15.3194 14.1195 15.7 13.65 15.7Z" fill="#7B7E86"/>
<path d="M4.65002 8.70004C4.29104 8.70004 4.00002 8.99105 4.00002 9.35004V18.75C4.00002 20.545 5.4551 22 7.25002 22H15.65C16.009 22 16.3 21.709 16.3 21.35C16.3 20.9911 16.009 20.7 15.65 20.7H7.25002C6.17307 20.7 5.30002 19.827 5.30002 18.75V9.35004C5.30002 8.99105 5.00901 8.70004 4.65002 8.70004Z" fill="#7B7E86"/>
</svg>
