<svg width="24" height="24" viewBox="0 0 24 24" fill="none" xmlns="http://www.w3.org/2000/svg">
<path d="M10.5461 12.8775L9.81622 12.2975C9.96172 13.6514 11.1081 14.7057 12.5006 14.7057C13.9918 14.7057 15.2006 13.4969 15.2006 12.0057C15.2006 10.8576 14.4841 9.8769 13.4738 9.48639C13.3671 9.44516 13.2572 9.4105 13.1445 9.38293C12.7958 9.29762 12.5006 9.00664 12.5006 8.64766C12.5006 8.28867 12.7935 8.00014 13.1479 8.05778C13.375 8.09474 13.5958 8.15083 13.8084 8.22435C15.3753 8.76616 16.5006 10.2545 16.5006 12.0057C16.5006 14.2148 14.7098 16.0057 12.5006 16.0057C10.4704 16.0057 8.7934 14.4931 8.53513 12.5334L7.99347 13.3723C7.79403 13.6728 7.39423 13.7659 7.09369 13.5664C6.79315 13.367 6.70011 12.9672 6.89955 12.6666L8.34963 10.487C8.57143 10.1417 9.03385 10.0576 9.35317 10.3045L11.3019 11.8355C11.5944 12.0465 11.648 12.4535 11.437 12.746C11.352 12.8936 11.2134 12.9696 11.056 12.9982C10.8887 13.0287 10.6991 12.992 10.5461 12.8775Z" fill="#7B7E86"/>
<path fill-rule="evenodd" clip-rule="evenodd" d="M17.0001 3C18.6569 3 20.0001 4.34315 20.0001 6V18C20.0001 19.6569 18.6569 21 17.0001 21H7.00684C5.34998 21 4.00684 19.6569 4.00684 18V6C4.00684 4.34315 5.34998 3 7.00684 3H17.0001ZM7.00684 4.3H17.0001C17.939 4.3 18.7001 5.06112 18.7001 6V18C18.7001 18.9389 17.939 19.7 17.0001 19.7H7.00684C6.06795 19.7 5.30684 18.9389 5.30684 18V6C5.30684 5.06112 6.06795 4.3 7.00684 4.3Z" fill="#7B7E86"/>
</svg>
