<svg width="24" height="24" viewBox="0 0 24 24" fill="none" xmlns="http://www.w3.org/2000/svg">
<path fill-rule="evenodd" clip-rule="evenodd" d="M17 3C18.6568 3 20 4.34315 20 6V18C20 19.6569 18.6568 21 17 21H7.00671C5.34986 21 4.00671 19.6569 4.00671 18V6C4.00671 4.34315 5.34986 3 7.00671 3H17ZM12.9442 14.0569C12.7642 14.0569 12.5942 13.9869 12.4642 13.8469C12.2242 13.5769 12.2442 13.1669 12.5042 12.9269L13.3881 11.9912H12.6274C11.3295 11.9912 10.2774 13.0434 10.2774 14.3412V14.691C10.2774 15.05 9.98637 15.341 9.62739 15.341C9.2684 15.341 8.97739 15.05 8.97739 14.691V14.3412C8.97739 12.3254 10.6115 10.6912 12.6274 10.6912C12.907 10.6848 12.9597 10.6854 13.076 10.6866C13.1414 10.6873 13.227 10.6882 13.3842 10.6882L12.5042 9.78711C12.2342 9.54711 12.2242 9.13711 12.4642 8.86711C12.7042 8.60711 13.1142 8.58711 13.3842 8.82711L15.4237 10.8182C15.7337 11.0982 15.7337 11.5782 15.4237 11.8582L13.3842 13.8869C13.2542 14.0069 13.1042 14.0569 12.9442 14.0569Z" fill="#7B7E86"/>
</svg>
