<svg width="24" height="24" viewBox="0 0 24 24" fill="none" xmlns="http://www.w3.org/2000/svg">
<path d="M9.80821 12.7023H13.6935L12.8188 11.3656C12.6771 11.1491 12.6773 10.8693 12.8193 10.653L13.6915 9.32429H9.80821V12.7023Z" fill="#7B7E86"/>
<path fill-rule="evenodd" clip-rule="evenodd" d="M20.0001 6C20.0001 4.34315 18.6569 3 17.0001 3H7.00684C5.34998 3 4.00684 4.34315 4.00684 6V18C4.00684 19.6569 5.34998 21 7.00684 21H17.0001C18.6569 21 20.0001 19.6569 20.0001 18V6ZM8.69859 8.21467C8.82049 8.09277 8.98582 8.02429 9.15821 8.02429H14.8957C15.1346 8.02429 15.3543 8.15533 15.4677 8.36555C15.5812 8.57577 15.5702 8.83129 15.4391 9.031L14.1398 11.0102L15.4396 12.9964C15.5703 13.1961 15.581 13.4515 15.4675 13.6615C15.354 13.8714 15.1345 14.0023 14.8957 14.0023H9.80821V15.4075C9.80821 15.7665 9.51719 16.0575 9.15821 16.0575C8.79922 16.0575 8.50821 15.7665 8.50821 15.4075V8.67429C8.50821 8.5019 8.57669 8.33657 8.69859 8.21467Z" fill="#7B7E86"/>
</svg>
