<svg width="24" height="24" viewBox="0 0 24 24" fill="none" xmlns="http://www.w3.org/2000/svg">
<path fill-rule="evenodd" clip-rule="evenodd" d="M20 6C20 4.34315 18.6568 3 17 3L7.00671 3C5.34986 3 4.00671 4.34315 4.00671 6V18C4.00671 19.6569 5.34986 21 7.00671 21H17C18.6568 21 20 19.6569 20 18V6ZM17 4.3H7.00671C6.06783 4.3 5.30671 5.06112 5.30671 6V18C5.30671 18.9389 6.06783 19.7 7.00671 19.7H17C17.9388 19.7 18.7 18.9389 18.7 18V6C18.7 5.06112 17.9388 4.3 17 4.3Z" fill="#7B7E86"/>
<path d="M12 13.7338C12.9575 13.7338 13.7338 12.9576 13.7338 12C13.7338 11.0425 12.9575 10.2662 12 10.2662C11.0424 10.2662 10.2662 11.0425 10.2662 12C10.2662 12.9576 11.0424 13.7338 12 13.7338Z" fill="#7B7E86"/>
<path fill-rule="evenodd" clip-rule="evenodd" d="M12.0033 8.01806C9.5594 8.01806 7.9305 10.0909 7.21476 11.241C6.93286 11.694 6.93286 12.2825 7.21476 12.7355C7.9305 13.8856 9.5594 15.9584 12.0033 15.9584C14.4473 15.9584 16.0762 13.8856 16.7919 12.7355C17.0738 12.2825 17.0738 11.694 16.7919 11.241C16.0762 10.0909 14.4473 8.01806 12.0033 8.01806ZM8.3185 11.9279C8.63531 11.4188 9.13463 10.7404 9.7884 10.2009C10.4355 9.66689 11.1709 9.31806 12.0033 9.31806C12.8358 9.31806 13.5711 9.66689 14.2183 10.2009C14.872 10.7404 15.3714 11.4188 15.6882 11.9279C15.6956 11.9399 15.7033 11.9606 15.7033 11.9882C15.7033 12.0159 15.6956 12.0366 15.6882 12.0486C15.3714 12.5577 14.872 13.2361 14.2183 13.7756C13.5711 14.3096 12.8358 14.6584 12.0033 14.6584C11.1709 14.6584 10.4355 14.3096 9.7884 13.7756C9.13463 13.2361 8.63531 12.5577 8.3185 12.0486C8.31104 12.0366 8.30334 12.0159 8.30334 11.9882C8.30334 11.9606 8.31104 11.9399 8.3185 11.9279Z" fill="#7B7E86"/>
</svg>
