<svg width="24" height="24" viewBox="0 0 24 24" fill="none" xmlns="http://www.w3.org/2000/svg">
<path fill-rule="evenodd" clip-rule="evenodd" d="M17 3C18.6568 3 20 4.34315 20 6V18C20 19.6569 18.6568 21 17 21H7.00671C5.34986 21 4.00671 19.6569 4.00671 18V6C4.00671 4.34315 5.34986 3 7.00671 3H17ZM12.2908 14.3952C12.0208 14.6852 11.5608 14.6952 11.2808 14.4152L9.23639 12.4766C8.98639 12.2266 8.98639 11.8066 9.23639 11.5566C9.48639 11.3066 9.90639 11.3066 10.1564 11.5566L11.7608 13.0552L14.8516 9.92845C15.0916 9.65845 15.5116 9.64845 15.7716 9.88845C16.0316 10.1284 16.0516 10.5384 15.8116 10.8084L12.2908 14.3952Z" fill="#7B7E86"/>
</svg>
