<svg width="24" height="24" viewBox="0 0 24 24" fill="none" xmlns="http://www.w3.org/2000/svg">
<path d="M11.9175 13.8667C13.1769 13.8667 14.1979 12.8457 14.1979 11.5863C14.1979 10.3268 13.1769 9.3058 11.9175 9.3058C10.658 9.3058 9.63701 10.3268 9.63701 11.5863C9.63701 12.8457 10.658 13.8667 11.9175 13.8667Z" fill="#7B7E86"/>
<path fill-rule="evenodd" clip-rule="evenodd" d="M16.9967 3C18.6535 3 19.9967 4.34315 19.9967 6V18C19.9967 19.6569 18.6535 21 16.9967 21H7.00342C5.34656 21 4.00342 19.6569 4.00342 18V6C4.00342 4.34315 5.34656 3 7.00342 3H16.9967ZM11.9175 15.1667C12.6406 15.1667 13.3137 14.9523 13.8767 14.5836L15.1961 15.9068C15.4495 16.161 15.8611 16.1616 16.1153 15.9082C16.3695 15.6547 16.3701 15.2431 16.1166 14.9889L14.8177 13.6863C15.2456 13.0963 15.4979 12.3708 15.4979 11.5863C15.4979 9.60882 13.8949 8.0058 11.9175 8.0058C9.94003 8.0058 8.33701 9.60882 8.33701 11.5863C8.33701 13.5637 9.94003 15.1667 11.9175 15.1667Z" fill="#7B7E86"/>
</svg>
