<svg width="24" height="24" viewBox="0 0 24 24" fill="none" xmlns="http://www.w3.org/2000/svg">
<path fill-rule="evenodd" clip-rule="evenodd" d="M9.78839 10.2009C9.13462 10.7404 8.63529 11.4188 8.31849 11.9279C8.31102 11.9399 8.30333 11.9606 8.30333 11.9883C8.30333 12.0159 8.31102 12.0366 8.31849 12.0486C8.63529 12.5577 9.13462 13.2361 9.78839 13.7756C10.4355 14.3096 11.1708 14.6584 12.0033 14.6584C12.8358 14.6584 13.5711 14.3096 14.2183 13.7756C14.872 13.2361 15.3714 12.5577 15.6882 12.0486C15.6956 12.0366 15.7033 12.0159 15.7033 11.9883C15.7033 11.9606 15.6956 11.9399 15.6882 11.9279C15.3714 11.4188 14.872 10.7404 14.2183 10.2009C13.5711 9.66689 12.8358 9.31807 12.0033 9.31807C11.1708 9.31807 10.4355 9.66689 9.78839 10.2009ZM13.7337 12C13.7337 12.9576 12.9575 13.7338 11.9999 13.7338C11.0424 13.7338 10.2661 12.9576 10.2661 12C10.2661 11.0425 11.0424 10.2662 11.9999 10.2662C12.9575 10.2662 13.7337 11.0425 13.7337 12Z" fill="#7B7E86"/>
<path fill-rule="evenodd" clip-rule="evenodd" d="M17 3C18.6568 3 20 4.34315 20 6V18C20 19.6569 18.6568 21 17 21H7.00671C5.34986 21 4.00671 19.6569 4.00671 18V6C4.00671 4.34315 5.34986 3 7.00671 3H17ZM7.21475 11.241C7.93048 10.0909 9.55939 8.01807 12.0033 8.01807C14.4473 8.01807 16.0762 10.0909 16.7919 11.241C17.0738 11.694 17.0738 12.2825 16.7919 12.7355C16.0762 13.8856 14.4473 15.9584 12.0033 15.9584C9.55939 15.9584 7.93048 13.8856 7.21475 12.7355C6.93285 12.2825 6.93285 11.694 7.21475 11.241Z" fill="#7B7E86"/>
</svg>
