<svg width="24" height="24" viewBox="0 0 24 24" fill="none" xmlns="http://www.w3.org/2000/svg">
<path fill-rule="evenodd" clip-rule="evenodd" d="M17.65 3.35004C19.3069 3.35004 20.65 4.69318 20.65 6.35004V16.35C20.65 18.0069 19.3069 19.35 17.65 19.35H9.65C7.99314 19.35 6.65 18.0069 6.65 16.35V6.35004C6.65 4.69318 7.99314 3.35004 9.65 3.35004H17.65ZM9.65 4.65004H17.65C18.5889 4.65004 19.35 5.41115 19.35 6.35004V16.35C19.35 17.2889 18.5889 18.05 17.65 18.05H9.65C8.71112 18.05 7.95 17.2889 7.95 16.35V6.35004C7.95 5.41115 8.71112 4.65004 9.65 4.65004ZM4 9.35004C4 8.99105 4.29101 8.70004 4.65 8.70004C5.00898 8.70004 5.3 8.99105 5.3 9.35004V18.75C5.3 19.827 6.17304 20.7 7.25 20.7H15.65C16.009 20.7 16.3 20.9911 16.3 21.35C16.3 21.709 16.009 22 15.65 22H7.25C5.45507 22 4 20.545 4 18.75V9.35004ZM14.0245 7.89752C14.0245 8.2565 13.7335 8.54752 13.3745 8.54752L10.6704 8.54751C10.3114 8.54751 10.0204 8.2565 10.0204 7.89751C10.0204 7.53853 10.3114 7.24751 10.6704 7.24751L13.3745 7.24752C13.7335 7.24752 14.0245 7.53853 14.0245 7.89752ZM16.6282 12.0574C16.9872 12.0574 17.2782 11.7664 17.2782 11.4074C17.2782 11.0484 16.9872 10.7574 16.6282 10.7574L10.6704 10.7574C10.3114 10.7574 10.0204 11.0484 10.0204 11.4074C10.0204 11.7664 10.3114 12.0574 10.6704 12.0574L16.6282 12.0574ZM17.2782 14.9173C17.2782 15.2763 16.9872 15.5673 16.6282 15.5673L10.6704 15.5673C10.3114 15.5673 10.0204 15.2763 10.0204 14.9173C10.0204 14.5583 10.3114 14.2673 10.6704 14.2673L16.6282 14.2673C16.9872 14.2673 17.2782 14.5583 17.2782 14.9173Z" fill="#7B7E86"/>
</svg>
