<svg width="24" height="24" viewBox="0 0 24 24" fill="none" xmlns="http://www.w3.org/2000/svg">
<path d="M12.0001 9C12.3591 9 12.6501 9.29102 12.6501 9.65V12H15.0001C15.3591 12 15.6501 12.291 15.6501 12.65C15.6501 13.009 15.3591 13.3 15.0001 13.3H12.6501V15.65C12.6501 16.009 12.3591 16.3 12.0001 16.3C11.6411 16.3 11.3501 16.009 11.3501 15.65V13.3L9.0001 13.3C8.64111 13.3 8.3501 13.009 8.3501 12.65C8.3501 12.291 8.64111 12 9.0001 12H11.3501V9.65C11.3501 9.29102 11.6411 9 12.0001 9Z" fill="#7B7E86"/>
<path fill-rule="evenodd" clip-rule="evenodd" d="M7 3C5.34315 3 4 4.34315 4 6L4 18C4 19.6569 5.34315 21 7 21H17C18.6569 21 20 19.6569 20 18V9.2997C20 8.47047 19.6568 7.67823 19.0518 7.11108L15.5321 3.81139C14.9761 3.2901 14.2425 3 13.4803 3H7ZM13.4803 4.3H7C6.06112 4.3 5.3 5.06112 5.3 6L5.3 18C5.3 18.9389 6.06112 19.7 7 19.7L17 19.7C17.9389 19.7 18.7 18.9389 18.7 18V9.2997C18.7 9.19933 18.6911 9.09993 18.6738 9.00251L15.9996 9.00252C14.9226 9.00252 14.0496 8.12948 14.0496 7.05252V4.39813C13.8684 4.33375 13.676 4.3 13.4803 4.3ZM15.3496 5.42216L17.7819 7.70252L15.9996 7.70252C15.6406 7.70252 15.3496 7.41151 15.3496 7.05252V5.42216Z" fill="#7B7E86"/>
</svg>
