<svg width="24" height="24" viewBox="0 0 24 24" fill="none" xmlns="http://www.w3.org/2000/svg">
<path fill-rule="evenodd" clip-rule="evenodd" d="M4 6C4 4.34315 5.34315 3 7 3H13.4803C14.2425 3 14.9761 3.2901 15.5321 3.81139L19.0518 7.11108C19.6568 7.67823 20 8.47047 20 9.2997V18C20 19.6569 18.6569 21 17 21H7C5.34315 21 4 19.6569 4 18L4 6ZM18.155 8.99999C18.4668 8.99999 18.623 8.62299 18.4025 8.4025L14.5975 4.59748C14.377 4.377 14 4.53316 14 4.84497V7.57479C14 8.36191 14.5982 9 15.3361 9L18.155 8.99999ZM12.0001 9C12.3591 9 12.6501 9.29102 12.6501 9.65V12H15.0001C15.3591 12 15.6501 12.291 15.6501 12.65C15.6501 13.009 15.3591 13.3 15.0001 13.3H12.6501V15.65C12.6501 16.009 12.3591 16.3 12.0001 16.3C11.6411 16.3 11.3501 16.009 11.3501 15.65V13.3L9.0001 13.3C8.64111 13.3 8.3501 13.009 8.3501 12.65C8.3501 12.291 8.64111 12 9.0001 12H11.3501V9.65C11.3501 9.29102 11.6411 9 12.0001 9Z" fill="#7B7E86"/>
</svg>
