<svg width="24" height="24" viewBox="0 0 24 24" fill="none" xmlns="http://www.w3.org/2000/svg">
<path d="M13.892 11.4962H12.9778V9.76558H13.892C14.3699 9.76558 14.7573 10.153 14.7573 10.6309C14.7573 11.1088 14.3699 11.4962 13.892 11.4962Z" fill="#7B7E86"/>
<path fill-rule="evenodd" clip-rule="evenodd" d="M17.65 3.3501C19.3069 3.3501 20.65 4.69324 20.65 6.3501V16.3501C20.65 18.007 19.3069 19.3501 17.65 19.3501H9.65C7.99314 19.3501 6.65 18.007 6.65 16.3501V6.3501C6.65 4.69324 7.99314 3.3501 9.65 3.3501H17.65ZM12.3278 8.46558C12.1554 8.46558 11.9901 8.53406 11.8682 8.65596C11.7463 8.77786 11.6778 8.94319 11.6778 9.11558V13.5812C11.6778 13.9402 11.9688 14.2312 12.3278 14.2312C12.6868 14.2312 12.9778 13.9402 12.9778 13.5812V12.7962H13.892C15.0878 12.7962 16.0573 11.8268 16.0573 10.6309C16.0573 9.43502 15.0878 8.46558 13.892 8.46558H12.3278Z" fill="#7B7E86"/>
<path d="M4 9.3501C4 8.99111 4.29101 8.7001 4.65 8.7001C5.00898 8.7001 5.3 8.99111 5.3 9.3501V18.7501C5.3 19.8271 6.17304 20.7001 7.25 20.7001H15.65C16.009 20.7001 16.3 20.9911 16.3 21.3501C16.3 21.7091 16.009 22.0001 15.65 22.0001H7.25C5.45507 22.0001 4 20.545 4 18.7501V9.3501Z" fill="#7B7E86"/>
</svg>
