<svg width="24" height="24" viewBox="0 0 24 24" fill="none" xmlns="http://www.w3.org/2000/svg">
<path d="M17.1414 9.31626C17.2466 8.97302 17.0535 8.60953 16.7103 8.5044C16.3671 8.39926 16.0036 8.59228 15.8984 8.93553L15.1271 11.4539L14.2746 8.91872C14.1863 8.65621 13.9414 8.47846 13.6644 8.47592C13.3875 8.47338 13.1394 8.6466 13.0463 8.90745L12.1371 11.4555L11.4181 8.94682C11.3192 8.60173 10.9593 8.40215 10.6142 8.50105C10.2691 8.59995 10.0695 8.95987 10.1684 9.30497L11.4446 13.7581C11.5224 14.0296 11.7666 14.2197 12.0488 14.2287C12.331 14.2377 12.5868 14.0634 12.6817 13.7975L13.6403 11.1111L14.5398 13.7862C14.6298 14.0539 14.8824 14.2328 15.1648 14.229C15.4471 14.2252 15.6947 14.0394 15.7774 13.7694L17.1414 9.31626Z" fill="#7B7E86"/>
<path fill-rule="evenodd" clip-rule="evenodd" d="M20.65 6.3501C20.65 4.69324 19.3069 3.3501 17.65 3.3501H9.65C7.99314 3.3501 6.65 4.69324 6.65 6.3501V16.3501C6.65 18.007 7.99314 19.3501 9.65 19.3501H17.65C19.3069 19.3501 20.65 18.007 20.65 16.3501V6.3501ZM17.65 4.6501H9.65C8.71112 4.6501 7.95 5.41121 7.95 6.3501V16.3501C7.95 17.289 8.71112 18.0501 9.65 18.0501H17.65C18.5889 18.0501 19.35 17.289 19.35 16.3501V6.3501C19.35 5.41121 18.5889 4.6501 17.65 4.6501Z" fill="#7B7E86"/>
<path d="M4.65 8.7001C4.29101 8.7001 4 8.99111 4 9.3501V18.7501C4 20.545 5.45507 22.0001 7.25 22.0001H15.65C16.009 22.0001 16.3 21.7091 16.3 21.3501C16.3 20.9911 16.009 20.7001 15.65 20.7001H7.25C6.17304 20.7001 5.3 19.8271 5.3 18.7501V9.3501C5.3 8.99111 5.00898 8.7001 4.65 8.7001Z" fill="#7B7E86"/>
</svg>
