<svg width="24" height="24" viewBox="0 0 24 24" fill="none" xmlns="http://www.w3.org/2000/svg">
<path fill-rule="evenodd" clip-rule="evenodd" d="M20.65 6.35004C20.65 4.69318 19.3069 3.35004 17.65 3.35004H9.65C7.99314 3.35004 6.65 4.69318 6.65 6.35004V16.35C6.65 18.0069 7.99314 19.35 9.65 19.35H17.65C19.3069 19.35 20.65 18.0069 20.65 16.35V6.35004ZM17.65 4.65004H9.65C8.71112 4.65004 7.95 5.41115 7.95 6.35004V16.35C7.95 17.2889 8.71112 18.05 9.65 18.05H17.65C18.5889 18.05 19.35 17.2889 19.35 16.35V6.35004C19.35 5.41115 18.5889 4.65004 17.65 4.65004Z" fill="#7B7E86"/>
<path d="M4.65 8.70004C4.29101 8.70004 4 8.99105 4 9.35004V18.75C4 20.545 5.45507 22 7.25 22H15.65C16.009 22 16.3 21.709 16.3 21.35C16.3 20.9911 16.009 20.7 15.65 20.7H7.25C6.17304 20.7 5.3 19.827 5.3 18.75V9.35004C5.3 8.99105 5.00898 8.70004 4.65 8.70004Z" fill="#7B7E86"/>
<path fill-rule="evenodd" clip-rule="evenodd" d="M13.4676 11.6433C13.426 11.8313 13.39 11.9868 13.3509 12.1506L13.3559 12.1489C13.4778 12.1087 13.6033 12.0673 13.7324 12.0246C13.6389 11.8896 13.5502 11.7612 13.4676 11.6433ZM12.393 10.3926C12.3094 10.8602 12.2147 11.2971 12.1364 11.6361C12.0604 11.9651 11.9764 12.3048 11.8856 12.6403C11.4239 12.7995 11.0414 12.94 10.7266 13.0738C10.0291 13.3703 9.52847 13.6867 9.21804 14.228C8.9995 14.609 8.96399 15.0171 9.07548 15.3871C9.18227 15.7415 9.41173 16.0253 9.67005 16.2226C10.1421 16.5831 10.9892 16.8225 11.6343 16.2715C11.8849 16.0575 12.0849 15.7544 12.2466 15.4506C12.4137 15.1366 12.5664 14.7706 12.7046 14.3867C12.7893 14.1518 12.8702 13.9055 12.947 13.6538C13.4728 13.4785 13.997 13.2923 14.5284 13.1344C14.656 13.3014 14.7856 13.4635 14.9151 13.6147C15.2265 13.9783 15.5798 14.3322 15.9613 14.5719C16.3428 14.8116 16.841 14.9896 17.3767 14.824C17.9191 14.6563 18.3395 14.2731 18.4672 13.741C18.5933 13.2151 18.3973 12.6907 18.016 12.3121C17.4234 11.7238 16.4068 11.4597 15.0741 11.6764C14.6155 11.0987 14.2162 10.5557 13.7788 9.96553C13.8474 9.48738 13.8966 8.99747 13.9031 8.55031C13.9109 8.00481 13.8613 7.36792 13.5765 6.91581C13.4155 6.66018 13.1626 6.43867 12.8056 6.36437C12.4698 6.29449 12.1376 6.37539 11.8409 6.51201C11.5505 6.64578 11.2941 6.82526 11.1113 7.07074C10.9209 7.32643 10.8391 7.61545 10.845 7.90631C10.8557 8.4366 11.1566 8.92895 11.4374 9.30424C11.7174 9.67848 12.0723 10.0559 12.393 10.3926ZM12.5993 8.68066C12.6012 8.63029 12.6025 8.58057 12.6032 8.53161C12.61 8.05896 12.5552 7.77745 12.4979 7.64945C12.4712 7.65705 12.4339 7.67016 12.3847 7.69279C12.2249 7.76642 12.1691 7.82688 12.1539 7.84722C12.1465 7.85725 12.1443 7.86011 12.1447 7.88011C12.1466 7.9717 12.2185 8.17817 12.4783 8.52546C12.5167 8.57669 12.5571 8.62843 12.5993 8.68066ZM16.018 12.9006C16.252 13.1602 16.4655 13.3534 16.6529 13.4712C16.8708 13.608 16.965 13.5906 16.9927 13.582C17.1839 13.5229 17.2022 13.4412 17.203 13.4379C17.2048 13.4301 17.2197 13.3534 17.1001 13.2347C16.958 13.0937 16.6176 12.9139 16.018 12.9006ZM11.3829 14.209C11.3318 14.2297 11.2826 14.25 11.2352 14.2702C10.6178 14.5327 10.4416 14.7076 10.3457 14.8748C10.3058 14.9443 10.3114 14.9827 10.3202 15.012C10.3337 15.0569 10.3748 15.1251 10.4592 15.1895C10.5435 15.2539 10.637 15.2879 10.7079 15.2945C10.7719 15.3005 10.79 15.283 10.79 15.283C10.8575 15.2254 10.9658 15.09 11.099 14.8398C11.1936 14.6621 11.2887 14.4495 11.3829 14.209Z" fill="#7B7E86"/>
</svg>
