<svg width="24" height="24" viewBox="0 0 24 24" fill="none" xmlns="http://www.w3.org/2000/svg">
<path fill-rule="evenodd" clip-rule="evenodd" d="M12.3277 8.46556C12.1553 8.46556 11.99 8.53404 11.8681 8.65594C11.7462 8.77784 11.6777 8.94317 11.6777 9.11556V13.5812C11.6777 13.9402 11.9687 14.2312 12.3277 14.2312C12.6867 14.2312 12.9777 13.9402 12.9777 13.5812V12.7962H13.8919C15.0878 12.7962 16.0572 11.8267 16.0572 10.6309C16.0572 9.43501 15.0878 8.46556 13.8919 8.46556H12.3277ZM13.8919 11.4962H12.9777V9.76556H13.8919C14.3698 9.76556 14.7572 10.153 14.7572 10.6309C14.7572 11.1088 14.3698 11.4962 13.8919 11.4962Z" fill="#7B7E86"/>
<path fill-rule="evenodd" clip-rule="evenodd" d="M17.65 3.35004C19.3069 3.35004 20.65 4.69318 20.65 6.35004V16.35C20.65 18.0069 19.3069 19.35 17.65 19.35H9.65C7.99314 19.35 6.65 18.0069 6.65 16.35V6.35004C6.65 4.69318 7.99314 3.35004 9.65 3.35004H17.65ZM9.65 4.65004H17.65C18.5889 4.65004 19.35 5.41115 19.35 6.35004V16.35C19.35 17.2889 18.5889 18.05 17.65 18.05H9.65C8.71112 18.05 7.95 17.2889 7.95 16.35V6.35004C7.95 5.41115 8.71112 4.65004 9.65 4.65004Z" fill="#7B7E86"/>
<path d="M4 9.35004C4 8.99105 4.29101 8.70004 4.65 8.70004C5.00898 8.70004 5.3 8.99105 5.3 9.35004V18.75C5.3 19.827 6.17304 20.7 7.25 20.7H15.65C16.009 20.7 16.3 20.9911 16.3 21.35C16.3 21.709 16.009 22 15.65 22H7.25C5.45507 22 4 20.545 4 18.75V9.35004Z" fill="#7B7E86"/>
</svg>
