<svg width="24" height="24" viewBox="0 0 24 24" fill="none" xmlns="http://www.w3.org/2000/svg">
<path d="M11.7355 8.57036C11.4335 8.76443 11.346 9.16658 11.5401 9.46858L12.756 11.3607L11.5423 13.2236C11.3463 13.5244 11.4313 13.9271 11.7321 14.123C12.0329 14.319 12.4356 14.234 12.6315 13.9333L13.652 12.3669L14.6724 13.9333C14.8684 14.234 15.2711 14.319 15.5719 14.123C15.8727 13.9271 15.9576 13.5244 15.7617 13.2236L14.548 11.3607L15.7639 9.46858C15.958 9.16658 15.8705 8.76443 15.5685 8.57036C15.2665 8.37628 14.8643 8.46378 14.6702 8.76578L13.652 10.3503L12.6337 8.76578C12.4397 8.46378 12.0375 8.37628 11.7355 8.57036Z" fill="#7B7E86"/>
<path fill-rule="evenodd" clip-rule="evenodd" d="M20.65 6.3501C20.65 4.69324 19.3069 3.3501 17.65 3.3501H9.65C7.99314 3.3501 6.65 4.69324 6.65 6.3501V16.3501C6.65 18.007 7.99314 19.3501 9.65 19.3501H17.65C19.3069 19.3501 20.65 18.007 20.65 16.3501V6.3501ZM17.65 4.6501H9.65C8.71112 4.6501 7.95 5.41121 7.95 6.3501V16.3501C7.95 17.289 8.71112 18.0501 9.65 18.0501H17.65C18.5889 18.0501 19.35 17.289 19.35 16.3501V6.3501C19.35 5.41121 18.5889 4.6501 17.65 4.6501Z" fill="#7B7E86"/>
<path d="M4.65 8.7001C4.29101 8.7001 4 8.99111 4 9.3501V18.7501C4 20.545 5.45507 22.0001 7.25 22.0001H15.65C16.009 22.0001 16.3 21.7091 16.3 21.3501C16.3 20.9911 16.009 20.7001 15.65 20.7001H7.25C6.17304 20.7001 5.3 19.8271 5.3 18.7501V9.3501C5.3 8.99111 5.00898 8.7001 4.65 8.7001Z" fill="#7B7E86"/>
</svg>
