<svg width="24" height="24" viewBox="0 0 24 24" fill="none" xmlns="http://www.w3.org/2000/svg">
<path fill-rule="evenodd" clip-rule="evenodd" d="M20.65 6.3501C20.65 4.69324 19.3069 3.3501 17.65 3.3501H9.65C7.99314 3.3501 6.65 4.69324 6.65 6.3501V16.3501C6.65 18.007 7.99314 19.3501 9.65 19.3501H17.65C19.3069 19.3501 20.65 18.007 20.65 16.3501V6.3501ZM11.7554 8.57036C11.4534 8.76443 11.3659 9.16658 11.56 9.46858L12.7759 11.3607L11.5622 13.2236C11.3662 13.5244 11.4512 13.9271 11.752 14.123C12.0528 14.319 12.4555 14.234 12.6514 13.9333L13.6719 12.3669L14.6923 13.9333C14.8883 14.234 15.291 14.319 15.5918 14.123C15.8926 13.9271 15.9775 13.5244 15.7816 13.2236L14.5679 11.3607L15.7838 9.46858C15.9779 9.16658 15.8904 8.76443 15.5884 8.57036C15.2864 8.37628 14.8842 8.46378 14.6901 8.76578L13.6719 10.3503L12.6536 8.76578C12.4596 8.46378 12.0574 8.37628 11.7554 8.57036Z" fill="#7B7E86"/>
<path d="M4.65 8.7001C4.29101 8.7001 4 8.99111 4 9.3501V18.7501C4 20.545 5.45507 22.0001 7.25 22.0001H15.65C16.009 22.0001 16.3 21.7091 16.3 21.3501C16.3 20.9911 16.009 20.7001 15.65 20.7001H7.25C6.17304 20.7001 5.3 19.8271 5.3 18.7501V9.3501C5.3 8.99111 5.00898 8.7001 4.65 8.7001Z" fill="#7B7E86"/>
</svg>
