<svg width="24" height="24" viewBox="0 0 24 24" fill="none" xmlns="http://www.w3.org/2000/svg">
<path fill-rule="evenodd" clip-rule="evenodd" d="M18.7 11.4909C19.418 11.4909 20 12.0729 20 12.7909V7.98506C20 7.26709 19.418 6.68506 18.7 6.68506H14.7525C14.0215 6.68506 13.3157 6.41819 12.7676 5.93457L11.441 4.76408C10.8929 4.28046 10.1871 4.01359 9.45618 4.01359L5.30001 4.01357C4.58203 4.01356 4 4.59559 4 5.31356V10.1194C4 9.40145 4.58203 8.81942 5.3 8.81942V5.31356L9.45617 5.31359C9.87038 5.31359 10.2703 5.46482 10.5809 5.73887L11.9075 6.90936C12.6931 7.60254 13.7047 7.98506 14.7525 7.98506H18.7V11.4909Z" fill="#7A7E88"/>
<path d="M4.65 10.1194C4.65 9.76043 4.94102 9.46942 5.3 9.46942L8.83804 9.46944C9.41062 9.46944 9.9635 9.67849 10.3928 10.0573L11.7194 11.2278C12.3862 11.8162 13.245 12.1409 14.1343 12.1409H18.7C19.059 12.1409 19.35 12.4319 19.35 12.7909V18.6037C19.35 18.9627 19.059 19.2537 18.7 19.2537H5.3C4.94101 19.2537 4.65 18.9627 4.65 18.6037V10.1194Z" stroke="#7B7E86" stroke-width="1.3"/>
</svg>
