<svg width="24" height="24" viewBox="0 0 24 24" fill="none" xmlns="http://www.w3.org/2000/svg">
<path fill-rule="evenodd" clip-rule="evenodd" d="M18.7 13.7979V7.98506H14.7525C13.7047 7.98506 12.6931 7.60254 11.9075 6.90936L10.5809 5.73887C10.2703 5.46482 9.87038 5.31359 9.45617 5.31359L5.3 5.31356V13.7979H18.7ZM5.30001 4.01357C4.58203 4.01356 4 4.59559 4 5.31356V13.7979C4 14.5158 4.58203 15.0979 5.3 15.0979H18.7C19.418 15.0979 20 14.5158 20 13.7979V7.98506C20 7.26709 19.418 6.68506 18.7 6.68506H14.7525C14.0215 6.68506 13.3157 6.41819 12.7676 5.93457L11.441 4.76408C10.8929 4.28046 10.1871 4.01359 9.45618 4.01359L5.30001 4.01357Z" fill="#7A7E88"/>
<path d="M4 10.1194C4 9.40144 4.58203 8.81941 5.30001 8.81942L8.83805 8.81944C9.569 8.81944 10.2748 9.08631 10.8229 9.56993L12.1494 10.7404C12.6975 11.224 13.4034 11.4909 14.1343 11.4909H18.7C19.418 11.4909 20 12.0729 20 12.7909V18.6037C20 19.3217 19.418 19.9037 18.7 19.9037H5.3C4.58203 19.9037 4 19.3217 4 18.6037L4 10.1194Z" fill="#7A7E88"/>
</svg>
