<svg width="24" height="24" viewBox="0 0 24 24" fill="none" xmlns="http://www.w3.org/2000/svg">
<path fill-rule="evenodd" clip-rule="evenodd" d="M20.65 6.3501C20.65 4.69324 19.3069 3.3501 17.65 3.3501H9.65C7.99314 3.3501 6.65 4.69324 6.65 6.3501V16.3501C6.65 18.007 7.99314 19.3501 9.65 19.3501H17.65C19.3069 19.3501 20.65 18.007 20.65 16.3501V6.3501ZM4.65 8.7001C4.29101 8.7001 4 8.99111 4 9.3501V18.7501C4 20.545 5.45507 22.0001 7.25 22.0001H15.65C16.009 22.0001 16.3 21.7091 16.3 21.3501C16.3 20.9911 16.009 20.7001 15.65 20.7001H7.25C6.17304 20.7001 5.3 19.8271 5.3 18.7501V9.3501C5.3 8.99111 5.00898 8.7001 4.65 8.7001ZM9.30002 8C9.30002 9.10457 10.1955 10 11.3 10C12.4046 10 13.3 9.10457 13.3 8C13.3 6.89543 12.4046 6 11.3 6C10.1955 6 9.30002 6.89543 9.30002 8ZM19.3573 16.352V14.3786L17.4292 11.5898C16.73 10.5784 15.2215 10.6209 14.5803 11.6701L10.6802 18.052H17.6573C18.5962 18.052 19.3573 17.2909 19.3573 16.352Z" fill="#7B7E86"/>
</svg>
