<svg width="24" height="24" viewBox="0 0 24 24" fill="none" xmlns="http://www.w3.org/2000/svg">
<path d="M16.5699 8.41835C16.3313 8.65774 15.9461 8.6654 15.6982 8.43567C15.4388 8.19534 15.4288 7.78843 15.6772 7.53678C16.8299 6.36882 18.0984 5.11352 18.0984 5.11352L16.0099 5.21469C15.6704 5.2404 15.3687 4.98569 15.3359 4.63972C15.3226 4.45641 15.3848 4.29084 15.5028 4.16412C15.6077 4.05148 15.7412 3.97865 15.9109 3.9658L19.5007 3.74639C19.9011 3.71171 20.239 4.02639 20.2329 4.4282L20.1816 7.9519C20.1736 8.29933 19.8907 8.57486 19.5503 8.57337C19.2029 8.56533 18.9208 8.2895 18.9289 7.94207L19.009 5.97082L16.5699 8.41835Z" fill="#7B7E86"/>
<path d="M9.09456 18.8349C8.54197 19.3011 7.82122 19.9092 6.64024 19.9092C4.56871 19.9092 3.60182 18.5611 3.2204 18.0293C3.18673 17.9823 3.15762 17.9417 3.13272 17.909C2.91537 17.6233 2.97078 17.2155 3.25648 16.9981C3.54219 16.7808 3.95 16.8362 4.16735 17.1219C4.20076 17.1658 4.2358 17.2137 4.27298 17.2646C4.65269 17.7839 5.25612 18.6092 6.64024 18.6092C7.32318 18.6092 7.72059 18.2929 8.2889 17.8138L8.31758 17.7896C8.8719 17.322 9.59469 16.7123 10.7816 16.7123C12.7617 16.7123 13.831 18.1105 14.243 18.6493C14.3009 18.725 14.3458 18.7837 14.3784 18.8192C14.6214 19.0835 14.6042 19.4947 14.34 19.7377C14.0757 19.9807 13.6645 19.9634 13.4215 19.6992C13.3346 19.6046 13.2452 19.4936 13.1493 19.3744C12.6801 18.7912 12.0535 18.0123 10.7816 18.0123C10.0938 18.0123 9.69383 18.3297 9.12679 18.8077L9.09456 18.8349Z" fill="#7B7E86"/>
<path d="M7.40555 4.98084C7.91335 4.47305 8.73666 4.47305 9.24446 4.98085L10.3775 6.11391C10.6483 6.38471 10.6512 6.82285 10.3841 7.09723L8.36502 9.17075C8.09277 9.45035 7.64447 9.45333 7.36853 9.17738L6.24864 8.0575C5.74084 7.5497 5.74084 6.7264 6.24864 6.2186L7.40555 4.98084Z" fill="#7B7E86"/>
<path d="M9.27801 11.0869C9.00721 10.8161 9.0043 10.3779 9.27147 10.1036L11.2905 8.03003C11.5628 7.75044 12.0111 7.74745 12.287 8.0234L19.7192 15.4556C20.1169 15.8533 20.3948 16.3547 20.5212 16.9027L20.9208 18.6342C21.1369 19.5705 20.8383 19.95 19.902 19.7339L18.1705 19.3343C17.6225 19.2079 17.1211 18.9299 16.7234 18.5323L9.27801 11.0869Z" fill="#7B7E86"/>
</svg>
