<svg width="24" height="24" viewBox="0 0 24 24" fill="none" xmlns="http://www.w3.org/2000/svg">
<path fill-rule="evenodd" clip-rule="evenodd" d="M7.44172 4.56863C7.94941 4.06095 8.77252 4.06095 9.2802 4.56863L19.7526 15.041C20.1501 15.4386 20.428 15.9399 20.5544 16.4877L20.9539 18.2188C21.1699 19.1549 20.331 19.9939 19.3949 19.7779L17.6638 19.3784C17.1159 19.252 16.6146 18.9741 16.217 18.5765L5.74467 8.10416C5.23699 7.59648 5.23699 6.77336 5.74467 6.26568L7.44172 4.56863ZM6.66391 7.18492L8.36096 5.48787L9.9821 7.109L8.28504 8.80606L6.66391 7.18492ZM18.8333 15.9602L10.9013 8.02824L9.20428 9.7253L17.1363 17.6573C17.3616 17.8826 17.6456 18.04 17.9561 18.1117L19.6872 18.5112L19.2877 16.7801C19.2161 16.4696 19.0586 16.1855 18.8333 15.9602Z" fill="#7B7E86"/>
<path d="M6.65281 20.0062C7.8338 20.0062 8.55454 19.3982 9.10713 18.932L9.13936 18.9048C9.7064 18.4268 10.1064 18.1093 10.7941 18.1093C12.066 18.1093 12.6926 18.8881 13.1618 19.4713C13.2577 19.5906 13.3471 19.7017 13.4341 19.7962C13.6771 20.0605 14.0883 20.0777 14.3525 19.8347C14.6168 19.5917 14.634 19.1805 14.391 18.9163C14.3584 18.8808 14.3134 18.822 14.2555 18.7463C13.8435 18.2076 12.7742 16.8093 10.7941 16.8093C9.60727 16.8093 8.88447 17.419 8.33016 17.8866L8.30147 17.9108C7.73317 18.3899 7.33575 18.7062 6.65281 18.7062C5.2687 18.7062 4.66527 17.881 4.28555 17.3616C4.24837 17.3108 4.21334 17.2629 4.17992 17.2189C3.96257 16.9332 3.55476 16.8778 3.26906 17.0952C2.98335 17.3125 2.92794 17.7203 3.14529 18.0061C3.1702 18.0388 3.1993 18.0794 3.23298 18.1263C3.61439 18.6581 4.58128 20.0062 6.65281 20.0062Z" fill="#7B7E86"/>
</svg>
