<svg width="24" height="24" viewBox="0 0 24 24" fill="none" xmlns="http://www.w3.org/2000/svg">
<path d="M9.23541 4.78441C8.72761 4.27662 7.90431 4.27661 7.39651 4.78441L6.2396 6.02217C5.7318 6.52997 5.7318 7.35327 6.2396 7.86107L7.35948 8.98095C7.63543 9.2569 8.08373 9.25391 8.35598 8.97432L10.375 6.90079C10.6422 6.62642 10.6393 6.18828 10.3685 5.91748L9.23541 4.78441Z" fill="#7B7E86"/>
<path d="M9.26242 9.90713C8.99525 10.1815 8.99817 10.6196 9.26897 10.8904L16.7144 18.3358C17.112 18.7335 17.6134 19.0114 18.1614 19.1379L19.8929 19.5375C20.8292 19.7535 21.1279 19.3741 20.9118 18.4378L20.5122 16.7063C20.3857 16.1583 20.1078 15.6569 19.7102 15.2592L12.278 7.82697C12.002 7.55102 11.5537 7.55401 11.2815 7.8336L9.26242 9.90713Z" fill="#7B7E86"/>
<path d="M6.64024 19.9893C7.82122 19.9893 8.54197 19.3812 9.09456 18.915L9.12679 18.8878C9.69383 18.4098 10.0938 18.0924 10.7816 18.0924C12.0535 18.0924 12.68 18.8712 13.1492 19.4543C13.2452 19.5736 13.3346 19.6847 13.4215 19.7793C13.6645 20.0435 14.0757 20.0607 14.34 19.8177C14.6042 19.5747 14.6214 19.1635 14.3784 18.8993C14.3458 18.8638 14.3009 18.8051 14.243 18.7294C13.831 18.1906 12.7617 16.7924 10.7816 16.7924C9.59469 16.7924 8.8719 17.4021 8.31758 17.8697L8.2889 17.8938C7.72059 18.3729 7.32318 18.6893 6.64024 18.6893C5.25612 18.6893 4.65269 17.864 4.27298 17.3447C4.2358 17.2938 4.20076 17.2459 4.16735 17.202C3.95 16.9163 3.54219 16.8609 3.25648 17.0782C2.97078 17.2956 2.91537 17.7034 3.13272 17.9891C3.15762 18.0218 3.18673 18.0624 3.2204 18.1094C3.60182 18.6412 4.56871 19.9893 6.64024 19.9893Z" fill="#7B7E86"/>
</svg>
