<svg width="24" height="24" viewBox="0 0 24 24" fill="none" xmlns="http://www.w3.org/2000/svg">
<path d="M9.69741 14.3741H8.29741V15.7741H9.69741V14.3741Z" fill="#7B7E86"/>
<path fill-rule="evenodd" clip-rule="evenodd" d="M20.39 7.52504C21.2283 7.52504 21.2283 8.82504 20.39 8.82504H19V15.2001H20.39C20.749 15.2001 21.04 15.4911 21.04 15.8501C21.04 16.2091 20.749 16.5001 20.39 16.5001H19V18.0001C19 19.6501 17.66 21.0001 16 21.0001H7C5.34 21.0001 4 19.6601 4 18.0001V6.03506C4 4.37506 5.34 3.03506 7 3.03506H16C17.66 3.03506 19 4.37507 19 6.03507V7.52504H20.39ZM10.8667 8.46691C11.101 8.19495 11.0705 7.78453 10.7985 7.5502C10.5266 7.31588 10.1161 7.34639 9.88181 7.61834L8.7487 8.93344L8.06298 8.29675C7.79991 8.05249 7.38863 8.06775 7.14437 8.33082C6.90011 8.59389 6.91536 9.00517 7.17843 9.24943L8.35852 10.3451C8.48792 10.4653 8.66063 10.5276 8.83693 10.5178C9.01324 10.508 9.17796 10.4268 9.29322 10.2931L10.8667 8.46691ZM12.4186 8.9557C12.4186 9.31468 12.7096 9.6057 13.0686 9.6057L15.35 9.60569C15.709 9.60569 16 9.31467 16 8.95569C16 8.5967 15.709 8.30569 15.35 8.30569L13.0686 8.3057C12.7096 8.3057 12.4186 8.59671 12.4186 8.9557ZM12.4186 15.0741C12.4186 15.4331 12.7096 15.7241 13.0686 15.7241L15.35 15.7241C15.709 15.7241 16 15.4331 16 15.0741C16 14.7151 15.709 14.4241 15.35 14.4241L13.0686 14.4241C12.7096 14.4241 12.4186 14.7151 12.4186 15.0741ZM8.29741 13.0741C7.57944 13.0741 6.99741 13.6561 6.99741 14.3741V15.7741C6.99741 16.492 7.57944 17.0741 8.29741 17.0741H9.69741C10.4154 17.0741 10.9974 16.492 10.9974 15.7741V14.3741C10.9974 13.6561 10.4154 13.0741 9.69741 13.0741H8.29741Z" fill="#7B7E86"/>
</svg>
