<svg width="24" height="24" viewBox="0 0 24 24" fill="none" xmlns="http://www.w3.org/2000/svg">
<path d="M10.7985 7.5502C11.0705 7.78453 11.101 8.19495 10.8667 8.46691L9.29324 10.2931C9.17798 10.4268 9.01326 10.508 8.83695 10.5178C8.66065 10.5276 8.48794 10.4653 8.35854 10.3451L7.17846 9.24943C6.91538 9.00517 6.90013 8.59389 7.14439 8.33082C7.38865 8.06775 7.79993 8.0525 8.063 8.29676L8.74872 8.93344L9.88183 7.61835C10.1162 7.34639 10.5266 7.31588 10.7985 7.5502Z" fill="#7B7E86"/>
<path d="M12.4101 8.9557C12.4101 9.31468 12.7011 9.6057 13.0601 9.6057L15.35 9.60569C15.709 9.60569 16 9.31467 16 8.95569C16 8.5967 15.709 8.30569 15.35 8.30569L13.0601 8.3057C12.7011 8.3057 12.4101 8.59671 12.4101 8.9557Z" fill="#7B7E86"/>
<path d="M13.0601 15.7241C12.7011 15.7241 12.4101 15.4331 12.4101 15.0741C12.4101 14.7151 12.7011 14.4241 13.0601 14.4241L15.35 14.4241C15.709 14.4241 16 14.7151 16 15.0741C16 15.4331 15.709 15.7241 15.35 15.7241L13.0601 15.7241Z" fill="#7B7E86"/>
<path fill-rule="evenodd" clip-rule="evenodd" d="M6.99744 14.3741C6.99744 13.6561 7.57947 13.0741 8.29744 13.0741H9.69744C10.4154 13.0741 10.9974 13.6561 10.9974 14.3741V15.7741C10.9974 16.492 10.4154 17.0741 9.69744 17.0741H8.29744C7.57947 17.0741 6.99744 16.492 6.99744 15.7741V14.3741ZM8.29744 14.3741H9.69744V15.7741H8.29744V14.3741Z" fill="#7B7E86"/>
<path fill-rule="evenodd" clip-rule="evenodd" d="M20.39 8.82504C21.2283 8.82504 21.2283 7.52504 20.39 7.52504H19V6.03507C19 4.37507 17.66 3.03506 16 3.03506H7C5.34 3.03506 4 4.37506 4 6.03506V18.0001C4 19.6601 5.34 21.0001 7 21.0001H16C17.66 21.0001 19 19.6501 19 18.0001V16.5001H20.39C20.749 16.5001 21.04 16.2091 21.04 15.8501C21.04 15.4911 20.749 15.2001 20.39 15.2001H19V8.82504H20.39ZM16 4.33507C16.94 4.33507 17.7 5.09506 17.7 6.03506L17.7 18.0001C17.7 18.9401 16.94 19.7001 16 19.7001H7C6.06 19.7001 5.3 18.9401 5.3 18.0001L5.3 6.03506C5.3 5.09506 6.06 4.33506 7 4.33506L16 4.33507Z" fill="#7B7E86"/>
</svg>
