<svg width="24" height="24" viewBox="0 0 24 24" fill="none" xmlns="http://www.w3.org/2000/svg">
<path d="M20.8197 3.25752C21.0665 3.51603 21.0589 3.92752 20.8028 4.1766L18.9281 5.99999L20.8029 7.8234C21.059 8.07248 21.0665 8.48397 20.8198 8.74248C20.573 9.00098 20.1653 9.00862 19.9092 8.75954L18 6.90263L16.0908 8.75954C15.8347 9.00862 15.427 9.00098 15.1802 8.74248C14.9335 8.48397 14.941 8.07248 15.1971 7.8234L17.0719 5.99999L15.1972 4.1766C14.9411 3.92752 14.9335 3.51603 15.1803 3.25752C15.427 2.99901 15.8347 2.99137 16.0908 3.24046L18 5.09735L19.9092 3.24046C20.1653 2.99137 20.573 2.99901 20.8197 3.25752Z" fill="#7B7E86"/>
<path d="M9.10676 18.8349C8.55417 19.3011 7.83343 19.9092 6.65244 19.9092C4.58092 19.9092 3.61403 18.5611 3.23261 18.0293C3.19894 17.9823 3.16983 17.9417 3.14493 17.909C2.92757 17.6233 2.98298 17.2155 3.26869 16.9981C3.5544 16.7808 3.96221 16.8362 4.17956 17.1219C4.21297 17.1658 4.24801 17.2137 4.28518 17.2646C4.6649 17.7839 5.26833 18.6092 6.65245 18.6092C7.33539 18.6092 7.7328 18.2928 8.30111 17.8138L8.32979 17.7896C8.88411 17.322 9.6069 16.7123 10.7938 16.7123C12.7739 16.7123 13.8432 18.1105 14.2552 18.6493C14.3131 18.725 14.358 18.7837 14.3906 18.8192C14.6336 19.0835 14.6164 19.4946 14.3522 19.7376C14.0879 19.9806 13.6767 19.9634 13.4337 19.6992C13.3468 19.6046 13.2574 19.4936 13.1615 19.3743C12.6923 18.7911 12.0657 18.0123 10.7938 18.0123C10.106 18.0123 9.70604 18.3297 9.139 18.8077L9.10676 18.8349Z" fill="#7B7E86"/>
<path d="M7.40556 4.98082C7.91336 4.47303 8.73666 4.47303 9.24446 4.98083L10.3775 6.11389C10.6483 6.38469 10.6512 6.82283 10.3841 7.09721L8.36502 9.17073C8.09278 9.45033 7.64447 9.45331 7.36853 9.17736L6.24865 8.05748C5.74085 7.54968 5.74085 6.72638 6.24865 6.21858L7.40556 4.98082Z" fill="#7B7E86"/>
<path d="M9.27802 11.0869C9.00722 10.8161 9.0043 10.3779 9.27147 10.1035L11.2905 8.03001C11.5628 7.75042 12.0111 7.74743 12.287 8.02338L19.7192 15.4556C20.1169 15.8533 20.3948 16.3547 20.5213 16.9027L20.9208 18.6342C21.1369 19.5705 20.8383 19.9499 19.902 19.7339L18.1705 19.3343C17.6225 19.2078 17.1211 18.9299 16.7234 18.5323L9.27802 11.0869Z" fill="#7B7E86"/>
</svg>
