<svg width="24" height="24" viewBox="0 0 24 24" fill="none" xmlns="http://www.w3.org/2000/svg">
<path fill-rule="evenodd" clip-rule="evenodd" d="M17.5805 9.16092C18.3036 9.16092 18.9767 8.94652 19.5397 8.57782L20.8591 9.90103C21.1125 10.1552 21.5241 10.1558 21.7783 9.90236C22.0325 9.64889 22.0331 9.23733 21.7796 8.98312L20.4807 7.68046C20.9086 7.09054 21.1609 6.36496 21.1609 5.58046C21.1609 3.60303 19.5579 2 17.5805 2C15.603 2 14 3.60303 14 5.58046C14 7.55789 15.603 9.16092 17.5805 9.16092ZM17.5805 7.86092C18.8399 7.86092 19.8609 6.83992 19.8609 5.58046C19.8609 4.321 18.8399 3.3 17.5805 3.3C16.321 3.3 15.3 4.321 15.3 5.58046C15.3 6.83992 16.321 7.86092 17.5805 7.86092Z" fill="#7B7E86"/>
<path fill-rule="evenodd" clip-rule="evenodd" d="M9.27984 4.47157C8.77215 3.96389 7.94904 3.96389 7.44136 4.47157L5.7443 6.16863C5.23662 6.67631 5.23662 7.49942 5.7443 8.0071L16.2167 18.4795C16.6142 18.877 17.1155 19.1549 17.6634 19.2813L19.3945 19.6808C20.3306 19.8968 21.1695 19.0579 20.9535 18.1218L20.554 16.3907C20.4276 15.8428 20.1498 15.3415 19.7522 14.9439L9.27984 4.47157ZM8.3606 5.39081L6.66354 7.08786L8.28467 8.709L9.98173 7.01194L8.3606 5.39081ZM10.901 7.93118L18.8329 15.8632C19.0582 16.0885 19.2157 16.3725 19.2873 16.683L19.6868 18.4141L17.9557 18.0146C17.6453 17.943 17.3612 17.7855 17.1359 17.5602L9.20391 9.62824L10.901 7.93118Z" fill="#7B7E86"/>
<path d="M9.10676 18.8349C8.55417 19.3011 7.83343 19.9092 6.65244 19.9092C4.58092 19.9092 3.61403 18.5611 3.23261 18.0293C3.19894 17.9823 3.16983 17.9417 3.14493 17.909C2.92757 17.6233 2.98298 17.2155 3.26869 16.9981C3.5544 16.7808 3.96221 16.8362 4.17956 17.1219C4.21297 17.1658 4.24801 17.2137 4.28518 17.2646C4.6649 17.7839 5.26833 18.6092 6.65245 18.6092C7.33539 18.6092 7.7328 18.2928 8.30111 17.8138L8.32979 17.7896C8.88411 17.322 9.6069 16.7123 10.7938 16.7123C12.7739 16.7123 13.8432 18.1105 14.2552 18.6493C14.3131 18.725 14.358 18.7837 14.3906 18.8192C14.6336 19.0835 14.6164 19.4946 14.3522 19.7376C14.0879 19.9806 13.6767 19.9634 13.4337 19.6992C13.3468 19.6047 13.2575 19.4936 13.1616 19.3744C12.6924 18.7912 12.0657 18.0123 10.7938 18.0123C10.106 18.0123 9.70604 18.3297 9.139 18.8077L9.10676 18.8349Z" fill="#7B7E86"/>
</svg>
