<svg width="24" height="24" viewBox="0 0 24 24" fill="none" xmlns="http://www.w3.org/2000/svg">
<path d="M8.61604 18.8349C8.06345 19.3011 7.34271 19.9092 6.16172 19.9092C4.09019 19.9092 3.1233 18.5611 2.74189 18.0293C2.70822 17.9823 2.67911 17.9417 2.6542 17.909C2.43685 17.6233 2.49226 17.2155 2.77797 16.9981C3.06367 16.7808 3.47148 16.8362 3.68884 17.1219C3.72225 17.1658 3.75728 17.2137 3.79446 17.2646C4.17418 17.7839 4.77761 18.6092 6.16173 18.6092C6.84467 18.6092 7.24208 18.2928 7.81038 17.8138L7.83907 17.7896C8.39338 17.322 9.11618 16.7123 10.3031 16.7123C12.2831 16.7123 13.3525 18.1105 13.7645 18.6493C13.8224 18.725 13.8673 18.7837 13.8999 18.8192C14.1429 19.0835 14.1257 19.4946 13.8614 19.7376C13.5972 19.9806 13.186 19.9634 12.943 19.6992C12.8561 19.6046 12.7667 19.4936 12.6708 19.3743C12.2016 18.7911 11.5749 18.0123 10.3031 18.0123C9.61532 18.0123 9.21532 18.3297 8.64828 18.8077L8.61604 18.8349Z" fill="#7B7E86"/>
<path d="M6.91484 4.98082C7.42264 4.47303 8.24594 4.47303 8.75374 4.98083L9.8868 6.11389C10.1576 6.38469 10.1605 6.82283 9.89334 7.09721L7.8743 9.17073C7.60206 9.45033 7.15375 9.45331 6.87781 9.17736L5.75792 8.05748C5.25013 7.54968 5.25013 6.72638 5.75792 6.21858L6.91484 4.98082Z" fill="#7B7E86"/>
<path d="M8.78729 11.0869C8.5165 10.8161 8.51358 10.3779 8.78075 10.1035L10.7998 8.03001C11.072 7.75042 11.5203 7.74743 11.7963 8.02338L19.2285 15.4556C19.6262 15.8533 19.9041 16.3547 20.0305 16.9027L20.4301 18.6342C20.6462 19.5705 20.3476 19.9499 19.4113 19.7339L17.6798 19.3343C17.1318 19.2078 16.6303 18.9299 16.2327 18.5323L8.78729 11.0869Z" fill="#7B7E86"/>
<path fill-rule="evenodd" clip-rule="evenodd" d="M17.0897 9.16092C17.8129 9.16092 18.486 8.94652 19.0489 8.57782L20.3683 9.90103C20.6218 10.1552 21.0334 10.1558 21.2876 9.90236C21.5418 9.64889 21.5424 9.23733 21.2889 8.98312L19.99 7.68046C20.4179 7.09054 20.6702 6.36496 20.6702 5.58046C20.6702 3.60303 19.0672 2 17.0897 2C15.1123 2 13.5093 3.60303 13.5093 5.58046C13.5093 7.55789 15.1123 9.16092 17.0897 9.16092ZM17.0897 7.86092C18.3492 7.86092 19.3702 6.83992 19.3702 5.58046C19.3702 4.321 18.3492 3.3 17.0897 3.3C15.8303 3.3 14.8093 4.321 14.8093 5.58046C14.8093 6.83992 15.8303 7.86092 17.0897 7.86092Z" fill="#7B7E86"/>
</svg>
