<svg width="24" height="24" viewBox="0 0 24 24" fill="none" xmlns="http://www.w3.org/2000/svg">
<path d="M16.9953 11.775C16.7993 12.7885 16.1539 13.6417 15.2747 14.1189C15.5167 13.4632 15.6809 12.6583 15.7354 11.775H16.9953Z" fill="#7B7E86"/>
<path d="M10.3107 11.775C10.5066 12.7885 11.1521 13.6417 12.0313 14.119C11.7893 13.4633 11.6251 12.6583 11.5706 11.775H10.3107Z" fill="#7B7E86"/>
<path d="M13.3533 13.921C13.1192 13.3973 12.9355 12.6528 12.8734 11.775H14.4326C14.3705 12.6528 14.1868 13.3973 13.9527 13.921C13.8432 14.1661 13.737 14.3307 13.653 14.4334C13.569 14.3307 13.4628 14.1661 13.3533 13.921Z" fill="#7B7E86"/>
<path d="M13.3533 8.32903C13.1192 8.85279 12.9355 9.59727 12.8734 10.475H14.4326C14.3705 9.59727 14.1868 8.85279 13.9527 8.32903C13.8432 8.08399 13.737 7.91935 13.653 7.81669C13.569 7.91935 13.4628 8.08399 13.3533 8.32903Z" fill="#7B7E86"/>
<path d="M16.9952 10.475H15.7354C15.6809 9.59174 15.5167 8.7868 15.2747 8.13112C16.1539 8.60836 16.7993 9.46156 16.9952 10.475Z" fill="#7B7E86"/>
<path d="M11.5706 10.475C11.6251 9.59173 11.7893 8.78679 12.0313 8.13111C11.1521 8.60834 10.5067 9.46155 10.3107 10.475H11.5706Z" fill="#7B7E86"/>
<path fill-rule="evenodd" clip-rule="evenodd" d="M17.65 3.3501C19.3069 3.3501 20.65 4.69324 20.65 6.3501V16.3501C20.65 18.007 19.3069 19.3501 17.65 19.3501H9.65C7.99314 19.3501 6.65 18.007 6.65 16.3501V6.3501C6.65 4.69324 7.99314 3.3501 9.65 3.3501H17.65ZM18.3572 11.125C18.3572 8.52694 16.2511 6.42078 13.653 6.42078C11.0549 6.42078 8.94873 8.52694 8.94873 11.125C8.94873 13.7231 11.0549 15.8293 13.653 15.8293C16.2511 15.8293 18.3572 13.7231 18.3572 11.125Z" fill="#7B7E86"/>
<path d="M4 9.3501C4 8.99111 4.29101 8.7001 4.65 8.7001C5.00898 8.7001 5.3 8.99111 5.3 9.3501V18.7501C5.3 19.8271 6.17304 20.7001 7.25 20.7001H15.65C16.009 20.7001 16.3 20.9911 16.3 21.3501C16.3 21.7091 16.009 22.0001 15.65 22.0001H7.25C5.45507 22.0001 4 20.545 4 18.7501V9.3501Z" fill="#7B7E86"/>
</svg>
