<svg width="24" height="24" viewBox="0 0 24 24" fill="none" xmlns="http://www.w3.org/2000/svg">
<path fill-rule="evenodd" clip-rule="evenodd" d="M6 19C4.34314 19 3 17.6569 3 16V8C3 6.34315 4.34315 5 6 5H18C18.1036 5 18.2059 5.00525 18.3067 5.01549C19.8195 5.16912 21 6.4467 21 8V16C21 17.6569 19.6569 19 18 19H6ZM6.01859 8.89563C6.01859 8.46996 6.37006 8.12488 6.80362 8.12488H8.73583C9.16939 8.12488 9.52086 8.46996 9.52086 8.89563V10.8564C9.52086 11.2821 9.16939 11.6272 8.73583 11.6272H6.80362C6.37006 11.6272 6.01859 11.2821 6.01859 10.8564V8.89563ZM6.66859 14.8308C6.3096 14.8308 6.01859 15.1218 6.01859 15.4808C6.01859 15.8398 6.3096 16.1308 6.66859 16.1308H8.3615C8.72048 16.1308 9.0115 15.8398 9.0115 15.4808C9.0115 15.1218 8.72048 14.8308 8.3615 14.8308L6.66859 14.8308ZM15.0148 15.4808C15.0148 15.1218 15.3058 14.8308 15.6648 14.8308H17.3577C17.7167 14.8308 18.0077 15.1218 18.0077 15.4808C18.0077 15.8398 17.7167 16.1308 17.3577 16.1308H15.6648C15.3058 16.1308 15.0148 15.8398 15.0148 15.4808ZM11.1536 14.8308C10.7946 14.8308 10.5036 15.1218 10.5036 15.4808C10.5036 15.8398 10.7946 16.1308 11.1536 16.1308H12.8465C13.2055 16.1308 13.4965 15.8398 13.4965 15.4808C13.4965 15.1218 13.2055 14.8308 12.8465 14.8308H11.1536Z" fill="#7B7E86"/>
</svg>
