<svg width="24" height="24" viewBox="0 0 24 24" fill="none" xmlns="http://www.w3.org/2000/svg">
<path d="M6.01859 15.448C6.01859 15.089 6.3096 14.798 6.66859 14.798H8.3615C8.72048 14.798 9.0115 15.089 9.0115 15.448C9.0115 15.807 8.72048 16.098 8.3615 16.098H6.66859C6.3096 16.098 6.01859 15.807 6.01859 15.448Z" fill="#7B7E86"/>
<path d="M15.0148 15.448C15.0148 15.089 15.3058 14.798 15.6648 14.798H17.3577C17.7167 14.798 18.0077 15.089 18.0077 15.448C18.0077 15.807 17.7167 16.098 17.3577 16.098H15.6648C15.3058 16.098 15.0148 15.807 15.0148 15.448Z" fill="#7B7E86"/>
<path d="M11.1536 14.798C10.7946 14.798 10.5036 15.089 10.5036 15.448C10.5036 15.807 10.7946 16.098 11.1536 16.098H12.8465C13.2055 16.098 13.4965 15.807 13.4965 15.448C13.4965 15.089 13.2055 14.798 12.8465 14.798H11.1536Z" fill="#7B7E86"/>
<path fill-rule="evenodd" clip-rule="evenodd" d="M6.96859 8.12488C6.44391 8.12488 6.01859 8.55021 6.01859 9.07488V11.4917C6.01859 12.0163 6.44392 12.4417 6.96859 12.4417H9.30683C9.8315 12.4417 10.2568 12.0163 10.2568 11.4917V9.07488C10.2568 8.55021 9.8315 8.12488 9.30683 8.12488H6.96859ZM7.31859 11.1417V9.42488H8.95683V11.1417H7.31859Z" fill="#7B7E86"/>
<path fill-rule="evenodd" clip-rule="evenodd" d="M6 19C4.34314 19 3 17.6569 3 16V8C3 6.34315 4.34315 5 6 5H18C18.1036 5 18.2059 5.00525 18.3067 5.01549C19.8195 5.16912 21 6.4467 21 8V16C21 17.6569 19.6569 19 18 19H6ZM19.7 8C19.7 7.06112 18.9389 6.3 18 6.3L6 6.3C5.06112 6.3 4.3 7.06112 4.3 8L4.3 16C4.3 16.9389 5.06112 17.7 6 17.7H18C18.9389 17.7 19.7 16.9389 19.7 16V8Z" fill="#7B7E86"/>
</svg>
