<svg width="24" height="24" viewBox="0 0 24 24" fill="none" xmlns="http://www.w3.org/2000/svg">
<path fill-rule="evenodd" clip-rule="evenodd" d="M3.02807 7.58793C2.97545 7.97093 3.3134 8.28958 3.7 8.28958L20.3652 8.28958C20.7158 8.28958 21.0203 8.00377 20.9804 7.65543C20.821 6.26134 19.706 5.15759 18.3067 5.01549C18.2059 5.00525 18.1036 5 18 5H6C4.48294 5 3.22889 6.12605 3.02807 7.58793ZM3 16C3 17.6569 4.34314 19 6 19H18C19.6569 19 21 17.6569 21 16V10.2896C21 9.90298 20.6866 9.58958 20.3 9.58958L3.7 9.58958C3.3134 9.58958 3 9.90298 3 10.2896V16ZM13.1901 11.585C13.312 11.4631 13.4774 11.3946 13.6498 11.3946H15.2139C16.4098 11.3946 17.3793 12.364 17.3793 13.5599C17.3793 14.7558 16.4098 15.7252 15.2139 15.7252H14.2998V16.5102C14.2998 16.8692 14.0088 17.1602 13.6498 17.1602C13.2908 17.1602 12.9998 16.8692 12.9998 16.5102V12.0446C12.9998 11.8722 13.0682 11.7069 13.1901 11.585ZM14.2998 14.4252H15.2139C15.6918 14.4252 16.0793 14.0378 16.0793 13.5599C16.0793 13.082 15.6918 12.6946 15.2139 12.6946H14.2998V14.4252ZM8.87341 14.9332H8.42972V16.5161C8.42972 16.8751 8.1387 17.1661 7.77972 17.1661C7.42073 17.1661 7.12971 16.8751 7.12971 16.5161V14.2832V12.0504C7.12971 11.6915 7.42073 11.4004 7.77972 11.4004C8.1387 11.4004 8.42972 11.6915 8.42972 12.0504V13.6332H8.92984C8.94365 13.6122 8.95881 13.5918 8.97535 13.5721L10.6002 11.633C10.8308 11.3578 11.2408 11.3217 11.5159 11.5522C11.7911 11.7828 11.8272 12.1928 11.5966 12.4679L10.0473 14.3169L11.5403 16.0987C11.7709 16.3738 11.7347 16.7838 11.4596 17.0144C11.1844 17.2449 10.7744 17.2088 10.5439 16.9336L8.919 14.9945C8.90243 14.9748 8.88724 14.9543 8.87341 14.9332Z" fill="#7B7E86"/>
</svg>
