<svg width="24" height="24" viewBox="0 0 24 24" fill="none" xmlns="http://www.w3.org/2000/svg">
<path fill-rule="evenodd" clip-rule="evenodd" d="M3 16.0001C3 17.6569 4.34314 19.0001 6 19.0001H18C19.6569 19.0001 21 17.6569 21 16.0001V8.00006C21 6.44676 19.8195 5.16918 18.3067 5.01555C18.2059 5.00531 18.1036 5.00006 18 5.00006H6C4.34315 5.00006 3 6.34321 3 8.00006V16.0001ZM18 6.30006C18.9389 6.30006 19.7 7.06118 19.7 8.00006V8.28961H4.49531C4.42726 8.28961 4.36165 8.30007 4.3 8.31947V8.00006C4.3 7.06118 5.06112 6.30006 6 6.30006L18 6.30006ZM4.3 9.55976L4.3 16.0001C4.3 16.9389 5.06112 17.7001 6 17.7001H18C18.9389 17.7001 19.7 16.9389 19.7 16.0001V9.58961H4.49531C4.42726 9.58961 4.36165 9.57915 4.3 9.55976Z" fill="#7B7E86"/>
<path fill-rule="evenodd" clip-rule="evenodd" d="M13.6011 10.8267H15.2526C16.4271 10.8267 17.3792 11.7788 17.3792 12.9532C17.3792 14.1277 16.4271 15.0798 15.2526 15.0798H14.2045V15.9879C14.2045 16.3211 13.9343 16.5913 13.6011 16.5913C13.2678 16.5913 12.9977 16.3211 12.9977 15.9879V11.4301C12.9977 11.0968 13.2678 10.8267 13.6011 10.8267ZM14.2045 12.0335V13.873H15.2526C15.7606 13.873 16.1724 13.4612 16.1724 12.9532C16.1724 12.4453 15.7606 12.0335 15.2526 12.0335H14.2045Z" fill="#7B7E86"/>
<path fill-rule="evenodd" clip-rule="evenodd" d="M13.6498 10.8262C13.4774 10.8262 13.3121 10.8947 13.1902 11.0166C13.0683 11.1385 12.9998 11.3038 12.9998 11.4762L12.9998 15.9418C12.9998 16.3008 13.2908 16.5918 13.6498 16.5918C14.0088 16.5918 14.2998 16.3008 14.2998 15.9418V15.1568H15.214C16.4099 15.1568 17.3793 14.1874 17.3793 12.9915C17.3793 11.7956 16.4099 10.8262 15.214 10.8262H13.6498ZM15.214 13.8568H14.2998V12.1262H15.214C15.6919 12.1262 16.0793 12.5136 16.0793 12.9915C16.0793 13.4694 15.6919 13.8568 15.214 13.8568ZM8.42976 14.3648H8.87346C8.88728 14.3859 8.90248 14.4064 8.91905 14.4261L10.5439 16.3652C10.7745 16.6404 11.1844 16.6765 11.4596 16.446C11.7348 16.2154 11.7709 15.8054 11.5403 15.5303L10.0473 13.7485L11.5967 11.8995C11.8273 11.6244 11.7911 11.2144 11.516 10.9838C11.2408 10.7533 10.8308 10.7894 10.6003 11.0646L8.9754 13.0037C8.95886 13.0234 8.94369 13.0438 8.92989 13.0648H8.42976L8.42976 11.4821C8.42976 11.1231 8.13875 10.8321 7.77976 10.8321C7.42078 10.8321 7.12976 11.1231 7.12976 11.4821V13.7148V15.9477C7.12976 16.3067 7.42078 16.5977 7.77976 16.5977C8.13875 16.5977 8.42976 16.3067 8.42976 15.9477L8.42976 14.3648Z" fill="#7B7E86"/>
</svg>
