<svg width="24" height="24" viewBox="0 0 24 24" fill="none" xmlns="http://www.w3.org/2000/svg">
<path fill-rule="evenodd" clip-rule="evenodd" d="M3.02807 7.58793C2.97545 7.97093 3.3134 8.28958 3.7 8.28958L20.3652 8.28958C20.7158 8.28958 21.0203 8.00377 20.9804 7.65543C20.821 6.26134 19.706 5.15759 18.3067 5.01549C18.2059 5.00525 18.1036 5 18 5H6C4.48294 5 3.22889 6.12605 3.02807 7.58793ZM3 16C3 17.6569 4.34314 19 6 19H18C19.6569 19 21 17.6569 21 16V10.2896C21 9.90298 20.6866 9.58958 20.3 9.58958L3.7 9.58958C3.3134 9.58958 3 9.90298 3 10.2896V16ZM13.3431 16.9629C13.465 17.0848 13.6303 17.1533 13.8027 17.1533H15.6934C16.709 17.1533 17.5322 16.3301 17.5322 15.3145C17.5322 14.299 16.709 13.4757 15.6934 13.4757H14.4527V12.692H16.2869C16.6458 12.692 16.9369 12.401 16.9369 12.042C16.9369 11.683 16.6458 11.392 16.2869 11.392H13.8027C13.4438 11.392 13.1527 11.683 13.1527 12.042V16.5033C13.1527 16.6757 13.2212 16.841 13.3431 16.9629ZM14.4527 14.7757H15.6934C15.991 14.7757 16.2322 15.017 16.2322 15.3145C16.2322 15.6121 15.991 15.8533 15.6934 15.8533H14.4527L14.4527 14.7757ZM8.26393 11.4004C7.90494 11.4004 7.61393 11.6915 7.61393 12.0504V13.2606C7.61393 13.9255 7.46151 14.5816 7.1684 15.1784L6.84607 15.8346C6.84302 15.8408 6.84007 15.8471 6.83723 15.8533H6.54218C6.1832 15.8533 5.89218 16.1444 5.89218 16.5033C5.89218 16.8623 6.1832 17.1533 6.54218 17.1533H11.8201C12.1791 17.1533 12.4701 16.8623 12.4701 16.5033C12.4701 16.1444 12.1791 15.8533 11.8201 15.8533H11.4288V12.0504C11.4288 11.6915 11.1378 11.4004 10.7788 11.4004H8.26393ZM10.1288 15.8533V12.7004H8.91393V13.2606C8.91393 14.1242 8.71597 14.9763 8.33525 15.7515L8.28521 15.8533H10.1288Z" fill="#7B7E86"/>
</svg>
