<svg width="24" height="24" viewBox="0 0 24 24" fill="none" xmlns="http://www.w3.org/2000/svg">
<path fill-rule="evenodd" clip-rule="evenodd" d="M3 16C3 17.6569 4.34314 19 6 19H18C19.6569 19 21 17.6569 21 16V8C21 6.4467 19.8195 5.16912 18.3067 5.01549C18.2059 5.00525 18.1036 5 18 5H6C4.34315 5 3 6.34315 3 8V16ZM18 6.3C18.9389 6.3 19.7 7.06112 19.7 8V8.28958H4.4953C4.42725 8.28958 4.36164 8.30003 4.3 8.31943V8C4.3 7.06112 5.06112 6.3 6 6.3L18 6.3ZM4.3 9.55972L4.3 16C4.3 16.9389 5.06112 17.7 6 17.7H18C18.9389 17.7 19.7 16.9389 19.7 16V9.58958H4.4953C4.42725 9.58958 4.36164 9.57912 4.3 9.55972Z" fill="#7B7E86"/>
<path fill-rule="evenodd" clip-rule="evenodd" d="M13.8027 16.5919C13.6304 16.5919 13.465 16.5235 13.3431 16.4016C13.2212 16.2797 13.1527 16.1143 13.1527 15.9419L13.1528 11.4763C13.1528 11.1173 13.4438 10.8263 13.8028 10.8263H16.2869C16.6459 10.8263 16.9369 11.1173 16.9369 11.4763C16.9369 11.8353 16.6459 12.1263 16.2869 12.1263L14.4528 12.1263V12.912L15.6923 12.912C16.7085 12.912 17.5322 13.7358 17.5322 14.752C17.5322 15.7682 16.7085 16.5919 15.6923 16.5919H13.8027ZM15.6923 14.212H14.4528L14.4527 15.2919H15.6923C15.9905 15.2919 16.2322 15.0502 16.2322 14.752C16.2322 14.4538 15.9905 14.212 15.6923 14.212ZM7.61395 11.484C7.61395 11.125 7.90496 10.834 8.26395 10.834H10.7788C11.1378 10.834 11.4288 11.125 11.4288 11.484V15.2919H11.8201C12.1791 15.2919 12.4701 15.5829 12.4701 15.9419C12.4701 16.3009 12.1791 16.5919 11.8201 16.5919H6.54221C6.18323 16.5919 5.89221 16.3009 5.89221 15.9419C5.89221 15.5829 6.18323 15.2919 6.54221 15.2919H6.83681C6.83975 15.2854 6.8428 15.2789 6.84598 15.2724L7.16915 14.6138C7.46179 14.0174 7.61395 13.3619 7.61395 12.6976V11.484ZM10.1288 12.134V15.2919H8.28449L8.33623 15.1864C8.71632 14.4118 8.91395 13.5604 8.91395 12.6976V12.134H10.1288Z" fill="#7B7E86"/>
</svg>
