<svg width="24" height="24" viewBox="0 0 24 24" fill="none" xmlns="http://www.w3.org/2000/svg">
<path d="M14.0094 5.64056C14.0094 7.10249 11.547 8.28762 8.5094 8.28762C5.47183 8.28762 3.0094 7.10249 3.0094 5.64056C3.0094 4.17863 5.47183 2.9935 8.5094 2.9935C11.547 2.9935 14.0094 4.17863 14.0094 5.64056Z" fill="#7B7E86"/>
<path d="M20.9502 12.3238C20.9502 13.7857 18.4877 14.9709 15.4502 14.9709C12.4126 14.9709 9.95018 13.7857 9.95018 12.3238C9.95018 10.8619 12.4126 9.67676 15.4502 9.67676C18.4877 9.67676 20.9502 10.8619 20.9502 12.3238Z" fill="#7B7E86"/>
<path d="M10.0971 15.2674C10.323 14.9884 10.7323 14.9453 11.0113 15.1712C11.2954 15.4011 12.7787 16.4643 15.4457 16.4643C18.1296 16.4643 19.549 15.4773 19.8772 15.1884C20.1467 14.9513 20.5575 14.9775 20.7946 15.247C21.0318 15.5165 21.0056 15.9272 20.7361 16.1644C20.1821 16.6519 18.4609 17.7643 15.4457 17.7643C12.4135 17.7643 10.6504 16.5516 10.1934 16.1816C9.91435 15.9557 9.87126 15.5464 10.0971 15.2674Z" fill="#7B7E86"/>
<path d="M11.0113 17.8207C10.7323 17.5948 10.323 17.6379 10.0971 17.9169C9.87126 18.1959 9.91435 18.6052 10.1934 18.8311C10.642 19.1942 12.4585 20.4751 15.4991 20.4751C18.5339 20.4751 20.1984 19.2869 20.7361 18.8138C21.0056 18.5767 21.0318 18.1659 20.7946 17.8965C20.5575 17.627 20.1467 17.6007 19.8772 17.8379C19.5327 18.1411 18.1634 19.1751 15.4991 19.1751C12.8406 19.1751 11.3038 18.0574 11.0113 17.8207Z" fill="#7B7E86"/>
<path d="M4.07054 8.48796C3.79153 8.26208 3.38223 8.30517 3.15636 8.58418C2.93048 8.8632 2.97356 9.2725 3.25258 9.49837C3.70958 9.86832 5.47274 11.0811 8.5049 11.0811C8.86388 11.0811 9.1549 10.7901 9.1549 10.4311C9.1549 10.0721 8.86388 9.78112 8.5049 9.78112C5.83797 9.78112 4.3546 8.71791 4.07054 8.48796Z" fill="#7B7E86"/>
<path d="M3.15636 11.2336C3.38223 10.9546 3.79153 10.9115 4.07054 11.1374C4.363 11.3741 5.89981 12.4918 8.55833 12.4918C8.91731 12.4918 9.20833 12.7829 9.20833 13.1418C9.20833 13.5008 8.91731 13.7918 8.55833 13.7918C5.51776 13.7918 3.70118 12.5109 3.25258 12.1478C2.97356 11.9219 2.93048 11.5126 3.15636 11.2336Z" fill="#7B7E86"/>
<path d="M4.07054 13.878C3.79153 13.6522 3.38223 13.6952 3.15636 13.9743C2.93048 14.2533 2.97356 14.6626 3.25258 14.8884C3.70118 15.2516 5.51776 16.5325 8.55833 16.5325C8.91731 16.5325 9.20833 16.2415 9.20833 15.8825C9.20833 15.5235 8.91731 15.2325 8.55833 15.2325C5.89981 15.2325 4.363 14.1148 4.07054 13.878Z" fill="#7B7E86"/>
</svg>
