<svg width="24" height="24" viewBox="0 0 24 24" fill="none" xmlns="http://www.w3.org/2000/svg">
<path d="M9.00089 7.77129C8.86089 7.90129 8.79089 8.07129 8.79089 8.25129C8.79089 8.41129 8.84089 8.56129 8.96089 8.69129L11.5364 11.4013C11.8164 11.7113 12.2964 11.7113 12.5764 11.4013L15.0409 8.69129C15.2809 8.42129 15.2609 8.01129 15.0009 7.77129C14.7309 7.53129 14.3209 7.54129 14.0809 7.81129L12.7064 9.36185V4.64999C12.7064 4.29101 12.4154 3.99999 12.0564 3.99999C11.6974 3.99999 11.4064 4.29101 11.4064 4.64999V9.36891L9.92089 7.81129C9.68089 7.55129 9.27089 7.53129 9.00089 7.77129Z" fill="#7B7E86"/>
<path fill-rule="evenodd" clip-rule="evenodd" d="M18 4C19.6569 4 21 5.34315 21 7V9.03479C21.5733 9.17022 22 9.68528 22 10.3V13.7C22 14.3147 21.5733 14.8298 21 14.9652V17C21 18.6569 19.6569 20 18 20H6C4.34315 20 3 18.6569 3 17V7C3 5.34315 4.34315 4 6 4H18ZM6 5.3C5.06112 5.3 4.3 6.06112 4.3 7V17C4.3 17.9389 5.06112 18.7 6 18.7H18C18.9389 18.7 19.7 17.9389 19.7 17V15H19C17.3431 15 16 13.6569 16 12C16 10.3431 17.3431 9 19 9H19.7V7C19.7 6.06112 18.9389 5.3 18 5.3H6ZM19 13.7H20.7V10.3H19C18.0611 10.3 17.3 11.0611 17.3 12C17.3 12.9389 18.0611 13.7 19 13.7Z" fill="#7B7E86"/>
</svg>
