<svg width="24" height="24" viewBox="0 0 24 24" fill="none" xmlns="http://www.w3.org/2000/svg">
<path d="M8.79091 8.48C8.79091 8.3 8.86091 8.13 9.00091 8C9.27091 7.76 9.68091 7.78 9.92091 8.04L11.4064 9.59762V4.7C11.4064 4.3134 11.093 4 10.7064 4H6C4.34315 4 3 5.34315 3 7V17C3 18.6569 4.34315 20 6 20H18C19.6569 20 21 18.6569 21 17V15.7C21 15.3134 20.6866 15 20.3 15H19C17.3431 15 16 13.6569 16 12C16 10.3431 17.3431 9 19 9H20.3C20.6866 9 21 8.6866 21 8.3V7C21 5.34315 19.6569 4 18 4H13.4064C13.0198 4 12.7064 4.3134 12.7064 4.7V9.59056L14.0809 8.04C14.3209 7.77 14.7309 7.76 15.0009 8C15.2609 8.24 15.2809 8.65 15.0409 8.92L12.5764 11.63C12.2964 11.94 11.8164 11.94 11.5364 11.63L8.96091 8.92C8.84091 8.79 8.79091 8.64 8.79091 8.48Z" fill="#7B7E86"/>
<path d="M19.0371 10.2729C18.0897 10.2729 17.3216 11.0409 17.3216 11.9883C17.3216 12.9358 18.0897 13.7038 19.0371 13.7038H21.3C21.6866 13.7038 22 13.3904 22 13.0038V10.9729C22 10.5863 21.6866 10.2729 21.3 10.2729H19.0371Z" fill="#7B7E86"/>
</svg>
