<svg width="24" height="24" viewBox="0 0 24 24" fill="none" xmlns="http://www.w3.org/2000/svg">
<path fill-rule="evenodd" clip-rule="evenodd" d="M12 3C7.02944 3 3 7.02944 3 12C3 16.9706 7.02944 21 12 21C16.9706 21 21 16.9706 21 12C21 7.02944 16.9706 3 12 3ZM12 4.3C7.74741 4.3 4.3 7.74741 4.3 12C4.3 16.2526 7.74741 19.7 12 19.7C16.2526 19.7 19.7 16.2526 19.7 12C19.7 7.74741 16.2526 4.3 12 4.3Z" fill="#7B7E86"/>
<path d="M9.00162 7.68796C8.77333 7.41092 8.36368 7.3714 8.08663 7.59969C7.80959 7.82798 7.77007 8.23764 7.99836 8.51468L11.1588 12.35H9.65111C9.29212 12.35 9.00111 12.641 9.00111 13C9.00111 13.359 9.29212 13.65 9.65111 13.65H11.35V14.6771H9.65111C9.29212 14.6771 9.00111 14.9682 9.00111 15.3271C9.00111 15.6861 9.29212 15.9771 9.65111 15.9771H11.35V16.8813C11.35 17.2403 11.641 17.5313 12 17.5313C12.359 17.5313 12.65 17.2403 12.65 16.8813V15.9771H14.3489C14.7079 15.9771 14.9989 15.6861 14.9989 15.3271C14.9989 14.9682 14.7079 14.6771 14.3489 14.6771H12.65V13.65H14.3489C14.7079 13.65 14.9989 13.359 14.9989 13C14.9989 12.641 14.7079 12.35 14.3489 12.35H12.8412L16.0016 8.51468C16.2299 8.23764 16.1904 7.82798 15.9134 7.59969C15.6363 7.3714 15.2267 7.41092 14.9984 7.68796L12 11.3266L9.00162 7.68796Z" fill="#7B7E86"/>
</svg>
