<svg width="24" height="24" viewBox="0 0 24 24" fill="none" xmlns="http://www.w3.org/2000/svg">
<path fill-rule="evenodd" clip-rule="evenodd" d="M3 7.77396C3 6.98215 3.70247 6.38098 4.49254 6.43345C7.71613 6.6475 9.67501 5.87604 11.6426 5.10117C13.8148 4.2457 15.9975 3.38608 19.9043 3.84381C20.5354 3.91776 21 4.46654 21 5.10203V14.4523C21 15.2601 20.2693 15.8672 19.4656 15.7863C15.9061 15.4282 13.819 16.2441 11.7715 17.0446C9.67384 17.8647 7.61763 18.6686 4.06218 18.1775C3.44581 18.0923 3 17.5511 3 16.9289L3 7.77396ZM15.133 11.022C15.133 12.7356 13.7438 14.1248 12.0302 14.1248C10.3165 14.1248 8.92729 12.7356 8.92729 11.022C8.92729 9.3083 10.3165 7.9191 12.0302 7.9191C13.7438 7.9191 15.133 9.3083 15.133 11.022ZM18.9642 6.99179C18.9642 6.63281 18.6732 6.34179 18.3142 6.34179C17.9553 6.34179 17.6642 6.63281 17.6642 6.99179V12.3738C17.6642 12.7328 17.9553 13.0238 18.3142 13.0238C18.6732 13.0238 18.9642 12.7328 18.9642 12.3738L18.9642 6.99179ZM5.68184 9.0328C6.04082 9.0328 6.33184 9.32382 6.33184 9.6828V15.0648C6.33184 15.4238 6.04082 15.7148 5.68184 15.7148C5.32285 15.7148 5.03184 15.4238 5.03184 15.0648L5.03184 9.6828C5.03184 9.32382 5.32285 9.0328 5.68184 9.0328ZM20.4608 17.2308C16.2191 16.6099 13.8372 17.5153 11.6031 18.3885L11.534 18.4155C9.39741 19.2508 7.40529 20.0297 3.79557 19.4567C3.44103 19.4005 3.10799 19.6423 3.05172 19.9968C2.99544 20.3514 3.23724 20.6844 3.59179 20.7407C7.54997 21.3689 9.80743 20.4863 12.0088 19.6257L12.0764 19.5993C14.2282 18.7582 16.3591 17.9443 20.2725 18.5171C20.6277 18.5691 20.9578 18.3233 21.0098 17.9681C21.0618 17.6129 20.816 17.2828 20.4608 17.2308Z" fill="#7B7E86"/>
</svg>
