<svg width="24" height="24" viewBox="0 0 24 24" fill="none" xmlns="http://www.w3.org/2000/svg">
<path fill-rule="evenodd" clip-rule="evenodd" d="M15.133 11.022C15.133 12.7356 13.7438 14.1248 12.0302 14.1248C10.3165 14.1248 8.92729 12.7356 8.92729 11.022C8.92729 9.3083 10.3165 7.9191 12.0302 7.9191C13.7438 7.9191 15.133 9.3083 15.133 11.022ZM13.833 11.022C13.833 12.0177 13.0258 12.8248 12.0302 12.8248C11.0345 12.8248 10.2273 12.0177 10.2273 11.022C10.2273 10.0263 11.0345 9.2191 12.0302 9.2191C13.0258 9.2191 13.833 10.0263 13.833 11.022Z" fill="#7B7E86"/>
<path d="M17.3474 6.34179C17.7064 6.34179 17.9974 6.63281 17.9974 6.99179L17.9974 12.3738C17.9974 12.7328 17.7064 13.0238 17.3474 13.0238C16.9884 13.0238 16.6974 12.7328 16.6974 12.3738V6.99179C16.6974 6.63281 16.9884 6.34179 17.3474 6.34179Z" fill="#7B7E86"/>
<path d="M7.29865 9.84479C7.29865 9.4858 7.00764 9.19479 6.64865 9.19479C6.28967 9.19479 5.99865 9.4858 5.99865 9.84479L5.99865 15.2268C5.99865 15.5858 6.28967 15.8768 6.64865 15.8768C7.00764 15.8768 7.29865 15.5858 7.29865 15.2268V9.84479Z" fill="#7B7E86"/>
<path fill-rule="evenodd" clip-rule="evenodd" d="M4.49254 6.43345C3.70247 6.38098 3 6.98215 3 7.77396L3 16.9289C3 17.5511 3.44581 18.0923 4.06218 18.1775C7.61763 18.6686 9.67384 17.8647 11.7715 17.0446C13.819 16.2441 15.9061 15.4282 19.4656 15.7863C20.2693 15.8672 21 15.2601 21 14.4523V5.10203C21 4.46654 20.5354 3.91776 19.9043 3.84381C15.9975 3.38608 13.8148 4.2457 11.6426 5.10117C9.67501 5.87604 7.71613 6.6475 4.49254 6.43345ZM12.1052 6.31621C10.1126 7.1016 7.92411 7.96417 4.4064 7.73059C4.3666 7.72795 4.33248 7.7421 4.31133 7.76081C4.30669 7.76491 4.3036 7.76847 4.30171 7.77096L4.30001 7.77345L4.3 16.8979C7.44271 17.3204 9.22927 16.6425 11.2232 15.8632L11.3046 15.8313C13.4001 15.012 15.7243 14.1033 19.5957 14.4928C19.6329 14.4966 19.6663 14.4842 19.6883 14.4654C19.6931 14.4613 19.6963 14.4577 19.6983 14.4551L19.7 14.4527L19.7 5.12884C16.3119 4.74119 14.3951 5.41855 12.424 6.19081C12.3183 6.23222 12.2118 6.27418 12.1052 6.31621Z" fill="#7B7E86"/>
<path d="M11.6031 18.3885C13.8372 17.5153 16.2191 16.6099 20.4608 17.2308C20.816 17.2828 21.0618 17.6129 21.0098 17.9681C20.9578 18.3233 20.6277 18.5691 20.2725 18.5171C16.3591 17.9443 14.2282 18.7582 12.0764 19.5993L12.0088 19.6257C9.80743 20.4863 7.54997 21.3689 3.59179 20.7407C3.23724 20.6844 2.99544 20.3514 3.05172 19.9968C3.10799 19.6423 3.44103 19.4005 3.79557 19.4567C7.40529 20.0297 9.39741 19.2508 11.534 18.4155L11.6031 18.3885Z" fill="#7B7E86"/>
</svg>
