<svg width="24" height="24" viewBox="0 0 24 24" fill="none" xmlns="http://www.w3.org/2000/svg">
<path d="M10 4.3C6.85198 4.3 4.3 6.85198 4.3 10C4.3 11.2203 4.68349 12.3511 5.33653 13.2783C5.54181 13.5698 5.5785 13.9935 5.32722 14.2464C5.03459 14.5409 4.57729 14.4462 4.33325 14.1103C3.49462 12.9562 3 11.5358 3 10C3 6.13401 6.13401 3 10 3C11.5481 3 12.9788 3.50254 14.1379 4.35339C14.4368 4.57276 14.4941 4.97934 14.2345 5.24392C13.9717 5.51173 13.5363 5.51364 13.2272 5.30094C12.3097 4.66958 11.198 4.3 10 4.3Z" fill="#7B7E86"/>
<path d="M11.35 14.003C11.35 13.644 11.641 13.353 12 13.353H16C16.359 13.353 16.65 13.644 16.65 14.003C16.65 14.362 16.359 14.653 16 14.653H12C11.641 14.653 11.35 14.362 11.35 14.003Z" fill="#7B7E86"/>
<path fill-rule="evenodd" clip-rule="evenodd" d="M14 7C10.134 7 7 10.134 7 14C7 17.866 10.134 21 14 21C17.866 21 21 17.866 21 14C21 10.134 17.866 7 14 7ZM14 8.3C10.852 8.3 8.3 10.852 8.3 14C8.3 17.148 10.852 19.7 14 19.7C17.148 19.7 19.7 17.148 19.7 14C19.7 10.852 17.148 8.3 14 8.3Z" fill="#7B7E86"/>
</svg>
