<svg width="24" height="24" viewBox="0 0 24 24" fill="none" xmlns="http://www.w3.org/2000/svg">
<path d="M3 10C3 6.13401 6.13401 3 10 3C11.7223 3 13.2994 3.62204 14.5188 4.65372C14.9667 5.03272 14.5868 5.7 14 5.7C9.41604 5.7 5.7 9.41604 5.7 14C5.7 14.5868 5.03272 14.9667 4.65372 14.5188C3.62204 13.2994 3 11.7223 3 10Z" fill="#7B7E86"/>
<path fill-rule="evenodd" clip-rule="evenodd" d="M7 14C7 10.134 10.134 7 14 7C17.866 7 21 10.134 21 14C21 17.866 17.866 21 14 21C10.134 21 7 17.866 7 14ZM11.35 14.003C11.35 13.644 11.641 13.353 12 13.353H16C16.359 13.353 16.65 13.644 16.65 14.003C16.65 14.362 16.359 14.653 16 14.653H12C11.641 14.653 11.35 14.362 11.35 14.003Z" fill="#7B7E86"/>
</svg>
