<svg width="24" height="24" viewBox="0 0 24 24" fill="none" xmlns="http://www.w3.org/2000/svg">
<path fill-rule="evenodd" clip-rule="evenodd" d="M3 16C3 17.6569 4.34314 19 6 19H18C19.6569 19 21 17.6569 21 16V8C21 6.4467 19.8195 5.16912 18.3067 5.01549C18.2059 5.00525 18.1036 5 18 5H6C4.34315 5 3 6.34315 3 8V16ZM18 6.3C18.9389 6.3 19.7 7.06112 19.7 8V8.28955H4.49531C4.42726 8.28955 4.36165 8.30001 4.3 8.31941V8C4.3 7.06112 5.06112 6.3 6 6.3L18 6.3ZM4.3 9.5597L4.3 16C4.3 16.9389 5.06112 17.7 6 17.7H18C18.9389 17.7 19.7 16.9389 19.7 16V9.58955H4.49531C4.42726 9.58955 4.36165 9.57909 4.3 9.5597Z" fill="#7B7E86"/>
<path fill-rule="evenodd" clip-rule="evenodd" d="M12.975 10.7472C12.616 10.7472 12.325 11.0382 12.325 11.3972V15.8683C12.325 16.2273 12.616 16.5183 12.975 16.5183C13.334 16.5183 13.625 16.2273 13.625 15.8683V12.0472H15.6336V15.8683C15.6336 16.2273 15.9246 16.5183 16.2836 16.5183C16.6426 16.5183 16.9336 16.2273 16.9336 15.8683V11.3972C16.9336 11.0382 16.6426 10.7472 16.2836 10.7472H12.975ZM8.71199 12.0611C8.50506 12.0611 8.30446 12.1325 8.14406 12.2632L8.12724 12.2769C7.84898 12.5038 7.43954 12.4621 7.21273 12.1838C6.98591 11.9056 7.02761 11.4961 7.30586 11.2693L7.32269 11.2556C7.71506 10.9357 8.20577 10.7611 8.71199 10.7611H9.17024C10.1316 10.7611 10.9109 11.5404 10.9109 12.5017C10.9109 12.8891 10.7843 13.2469 10.5704 13.536C10.8552 13.8529 11.0286 14.2721 11.0286 14.7318C11.0286 15.7201 10.2274 16.5213 9.23913 16.5213H8.75757C8.2353 16.5213 7.72898 16.3413 7.32393 16.0116L7.30622 15.9972C7.0278 15.7705 6.98582 15.3611 7.21244 15.0827C7.43906 14.8043 7.84847 14.7623 8.12688 14.9889L8.1446 15.0034C8.31778 15.1443 8.53426 15.2213 8.75757 15.2213H9.23913C9.50945 15.2213 9.72858 15.0022 9.72858 14.7318C9.72858 14.4615 9.50944 14.2424 9.23913 14.2424H9.14743L9.13936 14.2423H9.08416C8.72517 14.2423 8.43416 13.9513 8.43416 13.5923C8.43416 13.2334 8.72517 12.9423 9.08416 12.9423H9.17024C9.41359 12.9423 9.61087 12.7451 9.61087 12.5017C9.61087 12.2584 9.41359 12.0611 9.17024 12.0611H8.71199Z" fill="#7B7E86"/>
</svg>
