<svg width="24" height="24" viewBox="0 0 24 24" fill="none" xmlns="http://www.w3.org/2000/svg">
<path d="M3.02807 7.58793C2.97545 7.97093 3.3134 8.28958 3.7 8.28958L20.3652 8.28958C20.7158 8.28958 21.0203 8.00377 20.9804 7.65543C20.821 6.26134 19.706 5.15759 18.3067 5.01549C18.2059 5.00525 18.1036 5 18 5H6C4.48294 5 3.22889 6.12605 3.02807 7.58793Z" fill="#7B7E86"/>
<path fill-rule="evenodd" clip-rule="evenodd" d="M3 16C3 17.6569 4.34314 19 6 19H18C19.6569 19 21 17.6569 21 16V10.2896C21 9.90298 20.6866 9.58958 20.3 9.58958L3.7 9.58958C3.3134 9.58958 3 9.90298 3 10.2896V16ZM12.325 12.0446C12.325 11.6856 12.616 11.3946 12.975 11.3946H16.2836C16.6426 11.3946 16.9336 11.6856 16.9336 12.0446V16.5157C16.9336 16.8747 16.6426 17.1657 16.2836 17.1657C15.9246 17.1657 15.6336 16.8747 15.6336 16.5157V12.6946H13.625V16.5157C13.625 16.8747 13.334 17.1657 12.975 17.1657C12.616 17.1657 12.325 16.8747 12.325 16.5157V12.0446ZM8.14406 12.9106C8.30446 12.7799 8.50506 12.7085 8.71199 12.7085H9.17024C9.41359 12.7085 9.61087 12.9058 9.61087 13.1491C9.61087 13.3925 9.41359 13.5897 9.17024 13.5897H9.08416C8.72517 13.5897 8.43416 13.8808 8.43416 14.2397C8.43416 14.5987 8.72517 14.8897 9.08416 14.8897H9.13936L9.14743 14.8898H9.23913C9.50944 14.8898 9.72858 15.1089 9.72858 15.3792C9.72858 15.6496 9.50945 15.8687 9.23913 15.8687H8.75757C8.53426 15.8687 8.31778 15.7917 8.1446 15.6508L8.12688 15.6363C7.84847 15.4097 7.43906 15.4517 7.21244 15.7301C6.98582 16.0085 7.0278 16.4179 7.30622 16.6446L7.32393 16.659C7.72898 16.9887 8.2353 17.1687 8.75757 17.1687H9.23913C10.2274 17.1687 11.0286 16.3675 11.0286 15.3792C11.0286 14.9195 10.8552 14.5003 10.5704 14.1834C10.7843 13.8943 10.9109 13.5365 10.9109 13.1491C10.9109 12.1878 10.1316 11.4085 9.17024 11.4085H8.71199C8.20577 11.4085 7.71506 11.5831 7.32269 11.903L7.30586 11.9167C7.02761 12.1435 6.98591 12.553 7.21273 12.8312C7.43954 13.1095 7.84898 13.1512 8.12724 12.9243L8.14406 12.9106Z" fill="#7B7E86"/>
</svg>
