<svg width="24" height="24" viewBox="0 0 24 24" fill="none" xmlns="http://www.w3.org/2000/svg">
<path d="M10.3257 12.3512H13.0036C14.1204 12.3512 15.0257 11.4458 15.0257 10.329C15.0257 9.21219 14.1204 8.30684 13.0036 8.30684H10.3257V12.3512Z" fill="#7B7E86"/>
<path fill-rule="evenodd" clip-rule="evenodd" d="M12 21C16.9706 21 21 16.9706 21 12C21 7.02944 16.9706 3 12 3C7.02944 3 3 7.02944 3 12C3 16.9706 7.02944 21 12 21ZM9.02574 7.65684C9.02574 7.29785 9.31675 7.00684 9.67574 7.00684H13.0036C14.8384 7.00684 16.3257 8.49422 16.3257 10.329C16.3257 12.1638 14.8384 13.6512 13.0036 13.6512H10.3257V14.6995H13.3456C13.7045 14.6995 13.9956 14.9905 13.9956 15.3495C13.9956 15.7085 13.7045 15.9995 13.3456 15.9995H10.3257V16.8473C10.3257 17.2063 10.0347 17.4973 9.67574 17.4973C9.31675 17.4973 9.02574 17.2063 9.02574 16.8473V15.9995H8.32432C7.96533 15.9995 7.67432 15.7085 7.67432 15.3495C7.67432 14.9905 7.96533 14.6995 8.32432 14.6995H9.02574V13.6512H8.33018C7.97119 13.6512 7.68018 13.3601 7.68018 13.0012C7.68018 12.6422 7.97119 12.3512 8.33018 12.3512H9.02574V7.65684Z" fill="#7B7E86"/>
</svg>
